# Blender v2.79 (sub 0) OBJ File: 'scalingscene_2.blend'
# www.blender.org
mtllib bar.mtl
o Bar_Torus.001
v 2.500000 1.068186 0.000000
v 2.146447 1.068186 0.000000
v 2.137110 0.986037 -0.000000
v 1.964118 -0.000000 0.000000
v 2.500000 -0.000000 0.000000
v 2.574912 0.538327 0.000000
v 2.309699 1.068186 -0.956708
v 1.983058 1.068186 -0.821409
v 1.974433 0.986037 -0.817837
v 1.814609 -0.000000 -0.751635
v 2.309699 -0.000000 -0.956708
v 2.378909 0.538327 -0.985376
v 1.767767 1.068186 -1.767767
v 1.517767 1.068186 -1.517767
v 1.511165 0.986037 -1.511165
v 1.388841 -0.000000 -1.388841
v 1.767767 -0.000000 -1.767767
v 1.820737 0.538327 -1.820738
v 0.956709 1.068186 -2.309699
v 0.821410 1.068186 -1.983058
v 0.817837 0.986037 -1.974432
v 0.751636 -0.000000 -1.814608
v 0.956709 -0.000000 -2.309699
v 0.985377 0.538327 -2.378908
v 0.000000 1.068186 -2.500000
v 0.000000 1.068186 -2.146447
v 0.000000 0.986037 -2.137110
v 0.000000 -0.000000 -1.964118
v 0.000000 -0.000000 -2.500000
v 0.000000 0.538327 -2.574912
v -0.956709 1.068186 -2.309699
v -0.821410 1.068186 -1.983058
v -0.817837 0.986037 -1.974433
v -0.751636 -0.000000 -1.814609
v -0.956709 -0.000000 -2.309699
v -0.985376 0.538327 -2.378908
v -1.767767 1.068186 -1.767766
v -1.517767 1.068186 -1.517767
v -1.511166 0.986037 -1.511165
v -1.388842 -0.000000 -1.388841
v -1.767767 -0.000000 -1.767766
v -1.820738 0.538327 -1.820737
v -2.309699 1.068186 -0.956709
v -1.983058 1.068186 -0.821410
v -1.974433 0.986037 -0.817837
v -1.814609 -0.000000 -0.751636
v -2.309699 -0.000000 -0.956709
v -2.378908 0.538327 -0.985376
v -2.500000 1.068186 -0.000000
v -2.146447 1.068186 -0.000000
v -2.137110 0.986037 -0.000000
v -1.964118 -0.000000 -0.000000
v -2.500000 -0.000000 -0.000000
v -2.574912 0.538327 -0.000000
v -2.309699 1.068186 0.956708
v -1.983058 1.068186 0.821409
v -1.974433 0.986037 0.817836
v -1.814609 -0.000000 0.751635
v -2.309699 -0.000000 0.956708
v -2.378909 0.538327 0.985375
v -1.767767 1.068186 1.767766
v -1.517767 1.068186 1.517767
v -1.511166 0.986037 1.511165
v -1.388842 -0.000000 1.388841
v -1.767767 -0.000000 1.767766
v -1.820738 0.538327 1.820737
v -0.956709 1.068186 2.309699
v -0.821410 1.068186 1.983058
v -0.817837 0.986037 1.974433
v -0.751636 -0.000000 1.814609
v -0.956709 -0.000000 2.309699
v -0.985376 0.538327 2.378908
v 0.000000 1.068186 2.500000
v 0.000000 1.068186 2.146447
v 0.000000 0.986037 2.137110
v 0.000000 -0.000000 1.964118
v 0.000000 -0.000000 2.500000
v 0.000000 0.538327 2.574912
v 0.956709 1.068186 2.309699
v 0.821410 1.068186 1.983058
v 0.817837 0.986037 1.974432
v 0.751636 -0.000000 1.814608
v 0.956709 -0.000000 2.309699
v 0.985377 0.538327 2.378908
v 1.767766 1.068186 1.767768
v 1.517766 1.068186 1.517768
v 1.511165 0.986037 1.511166
v 1.388841 -0.000000 1.388842
v 1.767766 -0.000000 1.767768
v 1.820737 0.538327 1.820739
v 2.309699 1.068186 0.956710
v 1.983058 1.068186 0.821410
v 1.974432 0.986037 0.817838
v 1.814608 -0.000000 0.751636
v 2.309699 -0.000000 0.956710
v 2.378908 0.538327 0.985377
v 0.985373 0.562321 2.378899
v 0.000000 0.562321 2.574902
v -1.820731 0.562321 1.820730
v -0.985372 0.562321 2.378899
v 1.820729 0.562321 1.820731
v 1.820730 0.562321 -1.820730
v 2.378898 0.562321 0.985373
v -2.378899 0.562321 0.985371
v 0.985373 0.562321 -2.378899
v -0.985372 0.562321 -2.378899
v 2.378899 0.562321 -0.985372
v -2.574902 0.562321 -0.000000
v 0.000000 0.562321 -2.574902
v 2.574902 0.562321 0.000000
v -1.820731 0.562321 -1.820730
v -2.378899 0.562321 -0.985372
v 1.051678 0.963536 -2.538974
v -2.538974 0.963536 1.051676
v -1.051677 0.963536 -2.538974
v 2.538974 0.963536 -1.051677
v -2.748165 0.963536 -0.000000
v 0.000000 0.963536 -2.748165
v 2.748165 0.963536 0.000000
v -1.943247 0.963536 -1.943246
v -2.538974 0.963536 -1.051677
v 1.051678 0.963536 2.538974
v 0.000000 0.963536 2.748165
v -1.943247 0.963536 1.943246
v 1.943245 0.963536 1.943248
v -1.051677 0.963536 2.538974
v 1.943246 0.963536 -1.943246
v 2.538973 0.963536 1.051678
v 1.051675 0.858649 -2.538967
v -2.538967 0.858649 1.051673
v -1.051675 0.858649 -2.538967
v 2.538967 0.858649 -1.051674
v -2.748158 0.858649 -0.000000
v 0.000000 0.858649 -2.748158
v 2.748158 0.858649 0.000000
v -1.943241 0.858649 -1.943240
v -2.538967 0.858649 -1.051675
v 1.051675 0.858649 2.538967
v 0.000000 0.858649 2.748158
v -1.943241 0.858649 1.943241
v 1.943240 0.858649 1.943242
v -1.051675 0.858649 2.538967
v 1.943241 0.858649 -1.943241
v 2.538966 0.858649 1.051676
v 2.789067 0.704833 0.000000
v 2.800426 0.803628 0.000000
v 2.587257 0.803628 -1.071677
v 2.576762 0.704833 -1.067330
v 1.980201 0.803628 -1.980201
v 1.972168 0.704833 -1.972168
v 1.067330 0.704833 -2.576762
v 1.071678 0.803628 -2.587257
v 0.000000 0.803628 -2.800427
v 0.000000 0.704833 -2.789067
v -1.071677 0.803628 -2.587257
v -1.067330 0.704833 -2.576762
v -1.972168 0.704833 -1.972168
v -1.980201 0.803628 -1.980200
v -2.576762 0.704833 -1.067330
v -2.587257 0.803628 -1.071677
v -2.789067 0.704833 -0.000000
v -2.800427 0.803628 -0.000000
v -2.587257 0.803628 1.071676
v -2.576762 0.704833 1.067329
v -1.980201 0.803628 1.980200
v -1.972168 0.704833 1.972168
v -1.067330 0.704833 2.576762
v -1.071677 0.803628 2.587257
v 0.000000 0.704833 2.789067
v 0.000000 0.803628 2.800427
v 1.071678 0.803628 2.587257
v 1.067330 0.704833 2.576762
v 1.980200 0.803628 1.980202
v 1.972167 0.704833 1.972169
v 2.576761 0.704833 1.067331
v 2.587256 0.803628 1.071678
v 2.784258 0.999376 0.000000
v 2.754943 1.068186 0.000000
v 2.545235 1.068186 -1.054271
v 2.572319 0.999376 -1.065489
v 1.948039 1.068186 -1.948039
v 1.968767 0.999376 -1.968767
v 1.054272 1.068186 -2.545235
v 1.065490 0.999376 -2.572319
v 0.000000 0.999376 -2.784258
v 0.000000 1.068186 -2.754943
v -1.054271 1.068186 -2.545235
v -1.065489 0.999376 -2.572319
v -1.968768 0.999376 -1.968767
v -1.948039 1.068186 -1.948038
v -2.572319 0.999376 -1.065489
v -2.545235 1.068186 -1.054271
v -2.754943 1.068186 -0.000000
v -2.784258 0.999376 -0.000000
v -2.545236 1.068186 1.054270
v -2.572319 0.999376 1.065488
v -1.948039 1.068186 1.948038
v -1.968768 0.999376 1.968767
v -1.065489 0.999376 2.572319
v -1.054271 1.068186 2.545235
v 0.000000 1.068186 2.754943
v 0.000000 0.999376 2.784258
v 1.065490 0.999376 2.572319
v 1.054272 1.068186 2.545235
v 1.948038 1.068186 1.948040
v 1.968766 0.999376 1.968769
v 2.545235 1.068186 1.054272
v 2.572318 0.999376 1.065490
v 0.787624 0.131288 1.901491
v 0.795413 0.407039 1.920296
v 0.000000 0.131288 2.058160
v 0.000000 0.407039 2.078514
v -1.455339 0.131288 1.455338
v -1.469732 0.407039 1.469731
v 1.455338 0.131288 1.455339
v 1.469730 0.407039 1.469732
v 1.455338 0.131288 -1.455339
v 1.469731 0.407039 -1.469731
v -0.787624 0.131288 1.901491
v -0.795413 0.407039 1.920296
v 1.901491 0.131288 0.787624
v 1.920296 0.407039 0.795414
v -1.901492 0.131288 0.787623
v -1.920296 0.407039 0.795412
v 0.787624 0.131288 -1.901491
v 0.795413 0.407039 -1.920296
v -2.058160 0.131288 -0.000000
v -2.078514 0.407039 -0.000000
v -0.787624 0.131288 -1.901492
v -0.795413 0.407039 -1.920296
v 1.901492 0.131288 -0.787623
v 1.920296 0.407039 -0.795413
v 0.000000 0.131288 -2.058160
v 0.000000 0.407039 -2.078514
v 2.058160 0.131288 -0.000000
v 2.078514 0.407039 -0.000000
v -1.455339 0.131288 -1.455338
v -1.469732 0.407039 -1.469731
v -1.901491 0.131288 -0.787624
v -1.920296 0.407039 -0.795413
vn 0.0000 1.0000 0.0000
vn 0.5916 -0.7027 -0.3953
vn -0.9747 0.1108 0.1939
vn -0.9666 0.1696 0.1923
vn -0.0000 -1.0000 0.0000
vn 0.2554 -0.9655 -0.0508
vn 0.6083 0.6817 -0.4065
vn -0.8264 0.1108 0.5522
vn -0.8194 0.1696 0.5475
vn 0.2165 -0.9655 -0.1446
vn 0.4065 0.6817 -0.6083
vn 0.1388 -0.7027 -0.6978
vn 0.3953 -0.7027 -0.5916
vn -0.5522 0.1108 0.8264
vn -0.5475 0.1696 0.8194
vn 0.1446 -0.9655 -0.2165
vn 0.1427 0.6817 -0.7176
vn -0.1388 -0.7027 -0.6978
vn -0.1939 0.1108 0.9747
vn -0.1923 0.1696 0.9666
vn 0.0508 -0.9655 -0.2554
vn -0.1427 0.6817 -0.7176
vn -0.3953 -0.7027 -0.5916
vn 0.1939 0.1108 0.9747
vn 0.1923 0.1696 0.9666
vn -0.0508 -0.9655 -0.2554
vn -0.4065 0.6817 -0.6083
vn -0.5916 -0.7027 -0.3953
vn 0.5522 0.1108 0.8264
vn 0.5475 0.1696 0.8194
vn -0.1446 -0.9655 -0.2165
vn -0.6083 0.6817 -0.4065
vn -0.6978 -0.7027 -0.1388
vn 0.8264 0.1108 0.5522
vn 0.8194 0.1696 0.5475
vn -0.2165 -0.9655 -0.1446
vn -0.7176 0.6817 -0.1427
vn -0.6978 -0.7027 0.1388
vn 0.9747 0.1108 0.1939
vn 0.9666 0.1696 0.1923
vn -0.2554 -0.9655 -0.0508
vn -0.7176 0.6817 0.1427
vn -0.5916 -0.7027 0.3953
vn 0.9747 0.1108 -0.1939
vn 0.9666 0.1696 -0.1923
vn -0.2554 -0.9655 0.0508
vn -0.6083 0.6817 0.4065
vn 0.8264 0.1108 -0.5522
vn 0.8194 0.1696 -0.5475
vn -0.2165 -0.9655 0.1446
vn -0.4065 0.6817 0.6083
vn -0.3953 -0.7027 0.5916
vn 0.5522 0.1108 -0.8264
vn 0.5475 0.1696 -0.8194
vn -0.1446 -0.9655 0.2165
vn -0.1427 0.6817 0.7176
vn -0.1388 -0.7027 0.6978
vn 0.1939 0.1108 -0.9747
vn 0.1923 0.1696 -0.9666
vn -0.0508 -0.9655 0.2554
vn 0.1427 0.6817 0.7176
vn 0.3953 -0.7027 0.5916
vn 0.1388 -0.7027 0.6978
vn -0.1939 0.1108 -0.9747
vn -0.1923 0.1696 -0.9666
vn 0.0508 -0.9655 0.2554
vn 0.4065 0.6817 0.6083
vn -0.5522 0.1108 -0.8264
vn -0.5475 0.1696 -0.8194
vn 0.1446 -0.9655 0.2165
vn 0.6083 0.6817 0.4065
vn 0.5916 -0.7027 0.3953
vn -0.8264 0.1108 -0.5522
vn -0.8194 0.1696 -0.5475
vn 0.2165 -0.9655 0.1446
vn 0.6978 -0.7027 -0.1388
vn 0.6978 -0.7027 0.1388
vn -0.9747 0.1108 -0.1939
vn -0.9666 0.1696 -0.1923
vn 0.2554 -0.9655 0.0508
vn 0.7176 0.6817 -0.1427
vn 0.9808 0.0004 0.1951
vn 0.8315 0.0004 0.5556
vn 0.5556 0.0004 0.8315
vn 0.1951 0.0004 0.9808
vn -0.1951 0.0004 0.9808
vn -0.5556 0.0004 0.8315
vn -0.8315 0.0004 0.5556
vn -0.9808 0.0004 0.1951
vn -0.9808 0.0004 -0.1951
vn -0.8315 0.0004 -0.5556
vn -0.5556 0.0004 -0.8315
vn -0.1951 0.0004 -0.9808
vn 0.1951 0.0004 -0.9808
vn 0.5556 0.0004 -0.8315
vn 0.8315 0.0004 -0.5556
vn 0.9808 0.0004 -0.1951
vn 0.9808 -0.0001 0.1951
vn 0.8315 -0.0001 0.5556
vn 0.5556 -0.0001 0.8315
vn 0.1951 -0.0001 0.9808
vn -0.1951 -0.0001 0.9808
vn -0.5556 -0.0001 0.8315
vn -0.8315 -0.0001 0.5556
vn -0.9808 -0.0001 0.1951
vn -0.9808 -0.0001 -0.1951
vn -0.8315 -0.0001 -0.5556
vn -0.5556 -0.0001 -0.8315
vn -0.1951 -0.0001 -0.9808
vn 0.1951 -0.0001 -0.9808
vn 0.5556 -0.0001 -0.8315
vn 0.8315 -0.0001 -0.5556
vn 0.9808 -0.0001 -0.1951
vn 0.5507 -0.8275 -0.1095
vn 0.4668 -0.8275 -0.3119
vn 0.3119 -0.8275 -0.4668
vn 0.1095 -0.8275 -0.5507
vn -0.1095 -0.8275 -0.5507
vn -0.3119 -0.8275 -0.4668
vn -0.4668 -0.8275 -0.3119
vn -0.5507 -0.8275 -0.1095
vn -0.5507 -0.8275 0.1095
vn -0.4668 -0.8275 0.3119
vn -0.3119 -0.8275 0.4668
vn -0.1095 -0.8275 0.5507
vn 0.1095 -0.8275 0.5507
vn 0.3119 -0.8275 0.4668
vn 0.4668 -0.8275 0.3119
vn 0.5507 -0.8275 0.1095
vn 0.8262 -0.1121 0.5521
vn -0.5521 -0.1121 -0.8262
vn -0.1939 -0.1121 -0.9746
vn 0.9746 -0.1121 0.1939
vn -0.8262 -0.1121 -0.5521
vn -0.9746 -0.1121 -0.1939
vn -0.5521 -0.1121 0.8262
vn -0.1939 -0.1121 0.9746
vn 0.5521 -0.1121 -0.8262
vn -0.8262 -0.1121 0.5521
vn 0.1939 -0.1121 -0.9746
vn 0.8262 -0.1121 -0.5521
vn -0.9746 -0.1121 0.1939
vn 0.5521 -0.1121 0.8262
vn 0.9746 -0.1121 -0.1939
vn 0.1939 -0.1121 0.9746
vn 0.7176 0.6817 0.1427
vn 0.1800 0.3855 -0.9050
vn 0.9050 0.3855 0.1800
vn 0.1800 0.3855 0.9050
vn -0.5126 0.3855 0.7672
vn -0.7672 0.3855 0.5126
vn -0.5126 0.3855 -0.7672
vn 0.5126 0.3855 -0.7672
vn 0.7672 0.3855 0.5126
vn 0.7672 0.3855 -0.5126
vn -0.9050 0.3855 0.1800
vn -0.1800 0.3855 -0.9050
vn 0.9050 0.3855 -0.1800
vn -0.7672 0.3855 -0.5126
vn -0.9050 0.3855 -0.1800
vn -0.1800 0.3855 0.9050
vn 0.5126 0.3855 0.7672
vn 0.2844 0.9570 0.0566
vn 0.9782 -0.0722 0.1946
vn 0.2411 0.9570 0.1611
vn 0.8293 -0.0722 0.5541
vn 0.1611 0.9570 0.2411
vn 0.5541 -0.0722 0.8293
vn 0.0566 0.9570 0.2844
vn 0.1946 -0.0722 0.9782
vn -0.0566 0.9570 0.2844
vn -0.1946 -0.0722 0.9782
vn -0.1611 0.9570 0.2411
vn -0.5541 -0.0722 0.8293
vn -0.2411 0.9570 0.1611
vn -0.8293 -0.0722 0.5541
vn -0.2844 0.9570 0.0566
vn -0.9782 -0.0722 0.1946
vn -0.2844 0.9570 -0.0566
vn -0.9782 -0.0722 -0.1946
vn -0.2411 0.9570 -0.1611
vn -0.8293 -0.0722 -0.5541
vn -0.1611 0.9570 -0.2411
vn -0.5541 -0.0722 -0.8293
vn -0.0566 0.9570 -0.2844
vn -0.1946 -0.0722 -0.9782
vn 0.0566 0.9570 -0.2844
vn 0.1946 -0.0722 -0.9782
vn 0.1611 0.9570 -0.2411
vn 0.5541 -0.0722 -0.8293
vn 0.2411 0.9570 -0.1611
vn 0.8293 -0.0722 -0.5541
vn 0.2844 0.9570 -0.0566
vn 0.9782 -0.0722 -0.1946
usemtl None
s off
f 178//1 179//1 7//1 1//1
f 116//2 127//2 182//2 180//2
f 1//1 7//1 8//1 2//1
f 2//3 8//3 9//3 3//3
f 3//4 9//4 10//4 4//4
f 4//5 10//5 11//5 5//5
f 236//6 232//6 12//6 6//6
f 147//7 149//7 143//7 132//7
f 179//1 181//1 13//1 7//1
f 181//1 183//1 19//1 13//1
f 7//1 13//1 14//1 8//1
f 8//8 14//8 15//8 9//8
f 9//9 15//9 16//9 10//9
f 10//5 16//5 17//5 11//5
f 232//10 218//10 18//10 12//10
f 149//11 152//11 129//11 143//11
f 113//12 118//12 185//12 184//12
f 127//13 113//13 184//13 182//13
f 13//1 19//1 20//1 14//1
f 14//14 20//14 21//14 15//14
f 15//15 21//15 22//15 16//15
f 16//5 22//5 23//5 17//5
f 218//16 226//16 24//16 18//16
f 152//17 153//17 134//17 129//17
f 183//1 186//1 25//1 19//1
f 118//18 115//18 188//18 185//18
f 19//1 25//1 26//1 20//1
f 20//19 26//19 27//19 21//19
f 21//20 27//20 28//20 22//20
f 22//5 28//5 29//5 23//5
f 226//21 234//21 30//21 24//21
f 153//22 155//22 131//22 134//22
f 186//1 187//1 31//1 25//1
f 115//23 120//23 189//23 188//23
f 25//1 31//1 32//1 26//1
f 26//24 32//24 33//24 27//24
f 27//25 33//25 34//25 28//25
f 28//5 34//5 35//5 29//5
f 234//26 230//26 36//26 30//26
f 155//27 158//27 136//27 131//27
f 187//1 190//1 37//1 31//1
f 120//28 121//28 191//28 189//28
f 31//1 37//1 38//1 32//1
f 32//29 38//29 39//29 33//29
f 33//30 39//30 40//30 34//30
f 34//5 40//5 41//5 35//5
f 230//31 238//31 42//31 36//31
f 158//32 160//32 137//32 136//32
f 190//1 192//1 43//1 37//1
f 121//33 117//33 194//33 191//33
f 37//1 43//1 44//1 38//1
f 38//34 44//34 45//34 39//34
f 39//35 45//35 46//35 40//35
f 40//5 46//5 47//5 41//5
f 238//36 240//36 48//36 42//36
f 160//37 162//37 133//37 137//37
f 192//1 193//1 49//1 43//1
f 117//38 114//38 196//38 194//38
f 43//1 49//1 50//1 44//1
f 44//39 50//39 51//39 45//39
f 45//40 51//40 52//40 46//40
f 46//5 52//5 53//5 47//5
f 240//41 228//41 54//41 48//41
f 162//42 163//42 130//42 133//42
f 193//1 195//1 55//1 49//1
f 114//43 124//43 198//43 196//43
f 49//1 55//1 56//1 50//1
f 50//44 56//44 57//44 51//44
f 51//45 57//45 58//45 52//45
f 52//5 58//5 59//5 53//5
f 228//46 224//46 60//46 54//46
f 163//47 165//47 140//47 130//47
f 195//1 197//1 61//1 55//1
f 197//1 200//1 67//1 61//1
f 55//1 61//1 62//1 56//1
f 56//48 62//48 63//48 57//48
f 57//49 63//49 64//49 58//49
f 58//5 64//5 65//5 59//5
f 224//50 214//50 66//50 60//50
f 165//51 168//51 142//51 140//51
f 200//1 201//1 73//1 67//1
f 124//52 126//52 199//52 198//52
f 61//1 67//1 68//1 62//1
f 62//53 68//53 69//53 63//53
f 63//54 69//54 70//54 64//54
f 64//5 70//5 71//5 65//5
f 214//55 220//55 72//55 66//55
f 168//56 170//56 139//56 142//56
f 201//1 204//1 79//1 73//1
f 126//57 123//57 202//57 199//57
f 67//1 73//1 74//1 68//1
f 68//58 74//58 75//58 69//58
f 69//59 75//59 76//59 70//59
f 70//5 76//5 77//5 71//5
f 220//60 212//60 78//60 72//60
f 170//61 171//61 138//61 139//61
f 122//62 125//62 206//62 203//62
f 123//63 122//63 203//63 202//63
f 73//1 79//1 80//1 74//1
f 74//64 80//64 81//64 75//64
f 75//65 81//65 82//65 76//65
f 76//5 82//5 83//5 77//5
f 212//66 210//66 84//66 78//66
f 171//67 173//67 141//67 138//67
f 204//1 205//1 85//1 79//1
f 205//1 207//1 91//1 85//1
f 79//1 85//1 86//1 80//1
f 80//68 86//68 87//68 81//68
f 81//69 87//69 88//69 82//69
f 82//5 88//5 89//5 83//5
f 210//70 216//70 90//70 84//70
f 173//71 176//71 144//71 141//71
f 125//72 128//72 208//72 206//72
f 85//1 91//1 92//1 86//1
f 86//73 92//73 93//73 87//73
f 87//74 93//74 94//74 88//74
f 88//5 94//5 95//5 89//5
f 216//75 222//75 96//75 90//75
f 119//76 116//76 180//76 177//76
f 128//77 119//77 177//77 208//77
f 91//1 1//1 2//1 92//1
f 92//78 2//78 3//78 93//78
f 93//79 3//79 4//79 94//79
f 94//5 4//5 5//5 95//5
f 222//80 236//80 6//80 96//80
f 146//81 147//81 132//81 135//81
f 96//82 6//82 110//82 103//82
f 90//83 96//83 103//83 101//83
f 84//84 90//84 101//84 97//84
f 78//85 84//85 97//85 98//85
f 72//86 78//86 98//86 100//86
f 66//87 72//87 100//87 99//87
f 60//88 66//88 99//88 104//88
f 54//89 60//89 104//89 108//89
f 48//90 54//90 108//90 112//90
f 42//91 48//91 112//91 111//91
f 36//92 42//92 111//92 106//92
f 30//93 36//93 106//93 109//93
f 24//94 30//94 109//94 105//94
f 18//95 24//95 105//95 102//95
f 12//96 18//96 102//96 107//96
f 6//97 12//97 107//97 110//97
f 144//98 135//98 119//98 128//98
f 141//99 144//99 128//99 125//99
f 138//100 141//100 125//100 122//100
f 139//101 138//101 122//101 123//101
f 142//102 139//102 123//102 126//102
f 140//103 142//103 126//103 124//103
f 130//104 140//104 124//104 114//104
f 133//105 130//105 114//105 117//105
f 137//106 133//106 117//106 121//106
f 136//107 137//107 121//107 120//107
f 131//108 136//108 120//108 115//108
f 134//109 131//109 115//109 118//109
f 129//110 134//110 118//110 113//110
f 143//111 129//111 113//111 127//111
f 132//112 143//112 127//112 116//112
f 135//113 132//113 116//113 119//113
f 110//114 107//114 148//114 145//114
f 107//115 102//115 150//115 148//115
f 102//116 105//116 151//116 150//116
f 105//117 109//117 154//117 151//117
f 109//118 106//118 156//118 154//118
f 106//119 111//119 157//119 156//119
f 111//120 112//120 159//120 157//120
f 112//121 108//121 161//121 159//121
f 108//122 104//122 164//122 161//122
f 104//123 99//123 166//123 164//123
f 99//124 100//124 167//124 166//124
f 100//125 98//125 169//125 167//125
f 98//126 97//126 172//126 169//126
f 97//127 101//127 174//127 172//127
f 101//128 103//128 175//128 174//128
f 103//129 110//129 145//129 175//129
f 174//130 175//130 176//130 173//130
f 156//131 157//131 158//131 155//131
f 154//132 156//132 155//132 153//132
f 146//133 176//133 175//133 145//133
f 157//134 159//134 160//134 158//134
f 159//135 161//135 162//135 160//135
f 166//136 167//136 168//136 165//136
f 167//137 169//137 170//137 168//137
f 150//138 151//138 152//138 149//138
f 164//139 166//139 165//139 163//139
f 151//140 154//140 153//140 152//140
f 148//141 150//141 149//141 147//141
f 161//142 164//142 163//142 162//142
f 172//143 174//143 173//143 171//143
f 145//144 148//144 147//144 146//144
f 169//145 172//145 171//145 170//145
f 176//146 146//146 135//146 144//146
f 184//147 185//147 186//147 183//147
f 178//148 207//148 208//148 177//148
f 202//149 203//149 204//149 201//149
f 198//150 199//150 200//150 197//150
f 196//151 198//151 197//151 195//151
f 188//152 189//152 190//152 187//152
f 182//153 184//153 183//153 181//153
f 206//154 208//154 207//154 205//154
f 180//155 182//155 181//155 179//155
f 194//156 196//156 195//156 193//156
f 185//157 188//157 187//157 186//157
f 177//158 180//158 179//158 178//158
f 189//159 191//159 192//159 190//159
f 191//160 194//160 193//160 192//160
f 199//161 202//161 201//161 200//161
f 203//162 206//162 205//162 204//162
f 207//1 178//1 1//1 91//1
f 95//163 5//163 235//163 221//163
f 221//164 235//164 236//164 222//164
f 89//165 95//165 221//165 215//165
f 215//166 221//166 222//166 216//166
f 83//167 89//167 215//167 209//167
f 209//168 215//168 216//168 210//168
f 77//169 83//169 209//169 211//169
f 211//170 209//170 210//170 212//170
f 71//171 77//171 211//171 219//171
f 219//172 211//172 212//172 220//172
f 65//173 71//173 219//173 213//173
f 213//174 219//174 220//174 214//174
f 59//175 65//175 213//175 223//175
f 223//176 213//176 214//176 224//176
f 53//177 59//177 223//177 227//177
f 227//178 223//178 224//178 228//178
f 47//179 53//179 227//179 239//179
f 239//180 227//180 228//180 240//180
f 41//181 47//181 239//181 237//181
f 237//182 239//182 240//182 238//182
f 35//183 41//183 237//183 229//183
f 229//184 237//184 238//184 230//184
f 29//185 35//185 229//185 233//185
f 233//186 229//186 230//186 234//186
f 23//187 29//187 233//187 225//187
f 225//188 233//188 234//188 226//188
f 17//189 23//189 225//189 217//189
f 217//190 225//190 226//190 218//190
f 11//191 17//191 217//191 231//191
f 231//192 217//192 218//192 232//192
f 5//193 11//193 231//193 235//193
f 235//194 231//194 232//194 236//194
