# Blender v2.79 (sub 0) OBJ File: 'scalingscene_2.blend'
# www.blender.org
mtllib cone_resize.mtl
o trafficcone_Cone
v 1.511022 0.124430 1.911589
v 1.642567 0.124430 1.966077
v 1.697055 0.124430 2.097622
v 1.642567 0.124430 2.229167
v 1.511022 0.124430 2.283655
v 1.379477 0.124430 2.229167
v 1.324989 0.124430 2.097622
v 1.379477 0.124430 1.966077
v 1.669453 0.222072 2.097622
v 1.511022 0.097036 1.808049
v 1.715781 0.097036 1.892863
v 1.800595 0.097036 2.097622
v 1.715781 0.097036 2.302381
v 1.511022 0.097036 2.387195
v 1.306263 0.097036 2.302381
v 1.221449 0.097036 2.097622
v 1.306263 0.097036 1.892863
v 1.511022 0.046075 1.808049
v 1.715781 0.046075 1.892863
v 1.800595 0.046075 2.097622
v 1.715781 0.046075 2.302381
v 1.511022 0.046075 2.387195
v 1.306263 0.046075 2.302381
v 1.221449 0.046075 2.097622
v 1.306263 0.046075 1.892863
v 1.551134 0.699446 2.097622
v 1.539385 0.699446 2.069259
v 1.511022 0.699446 2.057510
v 1.470910 0.699446 2.097622
v 1.482659 0.699446 2.125986
v 1.511022 0.699446 2.137734
v 1.539385 0.699446 2.125986
v 1.482659 0.699446 2.069259
v 1.623050 0.222072 1.985594
v 1.352591 0.222072 2.097622
v 1.398994 0.222072 2.209650
v 1.511022 0.222072 2.256053
v 1.623050 0.222072 2.209650
v 1.398994 0.222072 1.985594
v 1.511022 0.222072 1.939191
v 1.410030 0.304363 1.996630
v 1.612014 0.304363 2.198614
v 1.511022 0.304363 1.954798
v 1.511022 0.304363 2.240447
v 1.410030 0.304363 2.198614
v 1.368197 0.304363 2.097622
v 1.612014 0.304363 1.996630
v 1.653847 0.304363 2.097622
v 1.511022 0.307227 1.952145
v 1.408154 0.307227 1.994754
v 1.613890 0.307227 2.200490
v 1.511022 0.307227 2.243099
v 1.408154 0.307227 2.200490
v 1.365545 0.307227 2.097622
v 1.613890 0.307227 1.994754
v 1.656499 0.307227 2.097622
v 1.676435 0.217369 2.097622
v 1.627987 0.217369 1.980657
v 1.511022 0.217369 1.932209
v 1.345609 0.217369 2.097622
v 1.394057 0.217369 2.214587
v 1.511022 0.217369 2.263035
v 1.627987 0.217369 2.214587
v 1.394057 0.217369 1.980657
v 1.511022 0.508002 1.996690
v 1.439652 0.508002 2.026252
v 1.582392 0.508002 2.168992
v 1.511022 0.508002 2.198554
v 1.439652 0.508002 2.168992
v 1.410090 0.508002 2.097622
v 1.582392 0.508002 2.026252
v 1.611954 0.508002 2.097622
v 1.511022 0.583579 2.013458
v 1.451509 0.583579 2.038109
v 1.570535 0.583579 2.157135
v 1.511022 0.583579 2.181787
v 1.451509 0.583579 2.157135
v 1.426857 0.583579 2.097622
v 1.570535 0.583579 2.038109
v 1.595186 0.583579 2.097622
v 1.454573 0.579884 2.041173
v 1.567471 0.579884 2.154071
v 1.511022 0.579884 2.177453
v 1.454573 0.579884 2.154071
v 1.431191 0.579884 2.097622
v 1.567471 0.579884 2.041173
v 1.590853 0.579884 2.097622
v 1.511022 0.579884 2.017791
v 1.446604 0.513882 2.033205
v 1.575439 0.513882 2.162040
v 1.511022 0.513882 2.188722
v 1.446604 0.513882 2.162040
v 1.419922 0.513882 2.097622
v 1.575439 0.513882 2.033205
v 1.602122 0.513882 2.097622
v 1.511022 0.513882 2.006522
v 1.471150 0.708777 2.057750
v 1.511022 0.708777 2.041235
v 1.454635 0.708777 2.097622
v 1.471150 0.708777 2.137494
v 1.511022 0.708777 2.154010
v 1.550894 0.708777 2.137494
v 1.567409 0.708777 2.097622
v 1.550894 0.708777 2.057750
v 1.477778 0.708777 2.064379
v 1.511022 0.708777 2.050609
v 1.464009 0.708777 2.097622
v 1.477778 0.708777 2.130866
v 1.511022 0.708777 2.144635
v 1.544265 0.708777 2.130866
v 1.558035 0.708777 2.097622
v 1.544265 0.708777 2.064379
vt 0.836111 0.600188
vt 0.831447 0.600188
vt 0.831447 0.484961
vt 0.836111 0.484961
vt 0.836111 0.715414
vt 0.831447 0.715414
vt 0.836111 0.830640
vt 0.831447 0.830640
vt 0.836111 0.945866
vt 0.831447 0.945866
vt 0.836111 0.139282
vt 0.831447 0.139282
vt 0.831447 0.024056
vt 0.836111 0.024056
vt 0.836111 0.254509
vt 0.831447 0.254509
vt 0.836111 0.369735
vt 0.831447 0.369735
vt 0.405499 0.677120
vt 0.390351 0.662355
vt 0.390717 0.641319
vt 0.406243 0.626644
vt 0.427767 0.626705
vt 0.442867 0.641708
vt 0.442658 0.662772
vt 0.427068 0.677191
vt 0.888852 0.830640
vt 0.888852 0.715414
vt 0.948188 0.715414
vt 0.948188 0.830640
vt 0.888852 0.484961
vt 0.888852 0.369735
vt 0.948188 0.369735
vt 0.948188 0.484961
vt 0.888852 0.254509
vt 0.948188 0.254509
vt 0.270059 0.618129
vt 0.381871 0.729941
vt 0.381871 0.888066
vt 0.270059 0.999878
vt 0.111934 0.999878
vt 0.000122 0.888066
vt 0.000122 0.729941
vt 0.111934 0.618129
vt 0.888852 0.945866
vt 0.948188 0.945866
vt 0.976422 0.369735
vt 0.976422 0.484961
vt 0.948188 0.600188
vt 0.976422 0.600188
vt 0.976422 0.715414
vt 0.976422 0.254509
vt 0.976422 0.830640
vt 0.976422 0.945866
vt 0.948188 0.139282
vt 0.948188 0.024056
vt 0.976422 0.024056
vt 0.976422 0.139282
vt 0.888852 0.139282
vt 0.888852 0.600188
vt 0.888852 0.024056
vt 0.622347 0.484961
vt 0.551299 0.484961
vt 0.551299 0.369735
vt 0.622347 0.369735
vt 0.622347 0.600188
vt 0.551299 0.600188
vt 0.622347 0.715414
vt 0.551299 0.715414
vt 0.622347 0.830640
vt 0.551299 0.830640
vt 0.622347 0.945866
vt 0.551299 0.945866
vt 0.622347 0.139282
vt 0.551299 0.139282
vt 0.551299 0.024056
vt 0.622347 0.024056
vt 0.622347 0.254509
vt 0.551299 0.254509
vt 0.785044 0.369735
vt 0.785044 0.254509
vt 0.785044 0.139282
vt 0.785044 0.024056
vt 0.785044 0.945866
vt 0.785044 0.830640
vt 0.785044 0.715414
vt 0.785044 0.600188
vt 0.785044 0.484961
vt 0.782881 0.369735
vt 0.782881 0.254509
vt 0.782881 0.139282
vt 0.782881 0.024056
vt 0.782881 0.945866
vt 0.782881 0.830640
vt 0.782881 0.715414
vt 0.782881 0.600188
vt 0.782881 0.484961
vt 0.668944 0.369735
vt 0.668944 0.254509
vt 0.668944 0.139282
vt 0.668944 0.024056
vt 0.668944 0.945866
vt 0.668944 0.830640
vt 0.668944 0.715414
vt 0.668944 0.600188
vt 0.668944 0.484961
vt 0.625502 0.369735
vt 0.625502 0.254509
vt 0.625502 0.139282
vt 0.625502 0.024056
vt 0.625502 0.945866
vt 0.625502 0.830640
vt 0.625502 0.715414
vt 0.625502 0.600188
vt 0.625502 0.484961
vt 0.662597 0.484961
vt 0.662597 0.369735
vt 0.662597 0.600188
vt 0.662597 0.715414
vt 0.662597 0.830640
vt 0.662597 0.945866
vt 0.662597 0.139282
vt 0.662597 0.024056
vt 0.662597 0.254509
vt 0.546106 0.484961
vt 0.546106 0.369735
vt 0.546106 0.600188
vt 0.546106 0.715414
vt 0.546106 0.830640
vt 0.546106 0.945866
vt 0.546106 0.139282
vt 0.546106 0.024056
vt 0.546106 0.254509
vt 0.430698 0.685543
vt 0.402402 0.685682
vt 0.382115 0.666182
vt 0.382239 0.638008
vt 0.402548 0.618289
vt 0.430910 0.618129
vt 0.451130 0.637890
vt 0.451130 0.666072
vn -0.5443 0.8080 -0.2255
vn -0.5443 0.8080 0.2255
vn -0.2255 0.8080 0.5443
vn 0.2255 0.8080 0.5443
vn 0.5443 0.8080 0.2255
vn 0.5443 0.8080 -0.2255
vn 0.2255 0.8080 -0.5443
vn -0.0000 1.0000 -0.0000
vn -0.1054 0.9614 0.2543
vn -0.1054 0.9614 -0.2543
vn 0.1054 0.9614 -0.2543
vn 0.0000 -1.0000 0.0000
vn 0.1054 0.9614 0.2543
vn -0.3827 0.0000 -0.9239
vn -0.9239 0.0000 -0.3827
vn -0.9239 0.0000 0.3827
vn 0.3827 0.0000 -0.9239
vn -0.3827 0.0000 0.9239
vn 0.3827 0.0000 0.9239
vn 0.9239 0.0000 0.3827
vn 0.9239 0.0000 -0.3827
vn 0.2543 0.9614 -0.1054
vn -0.2543 0.9614 0.1054
vn 0.2543 0.9614 0.1054
vn -0.2543 0.9614 -0.1054
vn -0.3749 0.2008 -0.9051
vn -0.9051 0.2008 -0.3749
vn -0.9051 0.2008 0.3749
vn -0.3749 0.2008 0.9051
vn 0.3749 0.2008 0.9051
vn 0.9051 0.2008 0.3749
vn 0.9051 0.2008 -0.3749
vn 0.3749 0.2008 -0.9051
vn -0.2255 0.8080 -0.5443
vn 0.3769 0.1726 -0.9100
vn 0.9100 0.1726 -0.3769
vn 0.9100 0.1726 0.3769
vn 0.3769 0.1726 0.9100
vn -0.3769 0.1726 0.9100
vn -0.9100 0.1726 0.3769
vn -0.9100 0.1726 -0.3769
vn -0.3769 0.1726 -0.9100
vn 0.2908 -0.6502 -0.7019
vn 0.7019 -0.6502 -0.2907
vn 0.7019 -0.6502 0.2907
vn 0.2907 -0.6502 0.7019
vn -0.2907 -0.6502 0.7019
vn -0.7019 -0.6502 0.2907
vn -0.7019 -0.6502 -0.2908
vn -0.2908 -0.6502 -0.7019
vn 0.2595 -0.7349 -0.6266
vn 0.6266 -0.7349 -0.2595
vn 0.6266 -0.7349 0.2595
vn 0.2595 -0.7349 0.6266
vn -0.2595 -0.7349 0.6266
vn -0.6266 -0.7349 0.2595
vn -0.6266 -0.7349 -0.2595
vn -0.2595 -0.7349 -0.6266
vn -0.3780 0.1558 -0.9126
vn -0.9126 0.1558 -0.3780
vn -0.9126 0.1558 0.3780
vn -0.3780 0.1558 0.9126
vn 0.3780 0.1558 0.9126
vn 0.9126 0.1558 0.3780
vn 0.9126 0.1558 -0.3780
vn 0.3780 0.1558 -0.9126
vn 0.2080 0.8394 -0.5021
vn 0.5021 0.8394 -0.2080
vn 0.5021 0.8394 0.2080
vn 0.2080 0.8394 0.5021
vn -0.2080 0.8394 0.5021
vn -0.5021 0.8394 0.2080
vn -0.5021 0.8394 -0.2080
vn -0.2080 0.8394 -0.5021
vn 0.3160 0.5642 0.7628
vn 0.7628 0.5642 0.3160
vn 0.7628 0.5642 -0.3160
vn 0.3160 0.5642 -0.7628
vn -0.3160 0.5642 -0.7628
vn -0.7628 0.5642 -0.3160
vn -0.7628 0.5642 0.3160
vn -0.3160 0.5642 0.7628
usemtl None
s off
f 60/1/1 35/2/1 39/3/1 64/4/1
f 61/5/2 36/6/2 35/2/2 60/1/2
f 62/7/3 37/8/3 36/6/3 61/5/3
f 63/9/4 38/10/4 37/8/4 62/7/4
f 57/11/5 9/12/5 38/13/5 63/14/5
f 58/15/6 34/16/6 9/12/6 57/11/6
f 59/17/7 40/18/7 34/16/7 58/15/7
f 33/19/8 29/20/8 30/21/8 31/22/8 32/23/8 26/24/8 27/25/8 28/26/8
f 5/27/9 6/28/9 15/29/9 14/30/9
f 8/31/10 1/32/10 10/33/10 17/34/10
f 1/32/11 2/35/11 11/36/11 10/33/11
f 18/37/12 19/38/12 20/39/12 21/40/12 22/41/12 23/42/12 24/43/12 25/44/12
f 4/45/13 5/27/13 14/30/13 13/46/13
f 17/34/14 10/33/14 18/47/14 25/48/14
f 16/49/15 17/34/15 25/48/15 24/50/15
f 15/29/16 16/49/16 24/50/16 23/51/16
f 10/33/17 11/36/17 19/52/17 18/47/17
f 14/30/18 15/29/18 23/51/18 22/53/18
f 13/46/19 14/30/19 22/53/19 21/54/19
f 12/55/20 13/56/20 21/57/20 20/58/20
f 11/36/21 12/55/21 20/58/21 19/52/21
f 2/35/22 3/59/22 12/55/22 11/36/22
f 6/28/23 7/60/23 16/49/23 15/29/23
f 3/59/24 4/61/24 13/56/24 12/55/24
f 7/60/25 8/31/25 17/34/25 16/49/25
f 74/62/26 97/63/26 98/64/26 73/65/26
f 78/66/27 99/67/27 97/63/27 74/62/27
f 77/68/28 100/69/28 99/67/28 78/66/28
f 76/70/29 101/71/29 100/69/29 77/68/29
f 75/72/30 102/73/30 101/71/30 76/70/30
f 80/74/31 103/75/31 102/76/31 75/77/31
f 79/78/32 104/79/32 103/75/32 80/74/32
f 73/65/33 98/64/33 104/79/33 79/78/33
f 64/4/34 39/3/34 40/18/34 59/17/34
f 40/18/35 43/80/35 47/81/35 34/16/35
f 34/16/36 47/81/36 48/82/36 9/12/36
f 9/12/37 48/82/37 42/83/37 38/13/37
f 38/10/38 42/84/38 44/85/38 37/8/38
f 37/8/39 44/85/39 45/86/39 36/6/39
f 36/6/40 45/86/40 46/87/40 35/2/40
f 35/2/41 46/87/41 41/88/41 39/3/41
f 39/3/42 41/88/42 43/80/42 40/18/42
f 43/80/43 49/89/43 55/90/43 47/81/43
f 47/81/44 55/90/44 56/91/44 48/82/44
f 48/82/45 56/91/45 51/92/45 42/83/45
f 42/84/46 51/93/46 52/94/46 44/85/46
f 44/85/47 52/94/47 53/95/47 45/86/47
f 45/86/48 53/95/48 54/96/48 46/87/48
f 46/87/49 54/96/49 50/97/49 41/88/49
f 41/88/50 50/97/50 49/89/50 43/80/50
f 8/31/26 64/4/26 59/17/26 1/32/26
f 1/32/33 59/17/33 58/15/33 2/35/33
f 2/35/32 58/15/32 57/11/32 3/59/32
f 3/59/31 57/11/31 63/14/31 4/61/31
f 4/45/30 63/9/30 62/7/30 5/27/30
f 5/27/29 62/7/29 61/5/29 6/28/29
f 6/28/28 61/5/28 60/1/28 7/60/28
f 7/60/27 60/1/27 64/4/27 8/31/27
f 49/89/33 65/98/33 71/99/33 55/90/33
f 55/90/32 71/99/32 72/100/32 56/91/32
f 56/91/31 72/100/31 67/101/31 51/92/31
f 51/93/30 67/102/30 68/103/30 52/94/30
f 52/94/29 68/103/29 69/104/29 53/95/29
f 53/95/28 69/104/28 70/105/28 54/96/28
f 54/96/27 70/105/27 66/106/27 50/97/27
f 50/97/26 66/106/26 65/98/26 49/89/26
f 88/107/51 73/65/51 79/78/51 86/108/51
f 86/108/52 79/78/52 80/74/52 87/109/52
f 87/109/53 80/74/53 75/77/53 82/110/53
f 82/111/54 75/72/54 76/70/54 83/112/54
f 83/112/55 76/70/55 77/68/55 84/113/55
f 84/113/56 77/68/56 78/66/56 85/114/56
f 85/114/57 78/66/57 74/62/57 81/115/57
f 81/115/58 74/62/58 73/65/58 88/107/58
f 89/116/59 81/115/59 88/107/59 96/117/59
f 93/118/60 85/114/60 81/115/60 89/116/60
f 92/119/61 84/113/61 85/114/61 93/118/61
f 91/120/62 83/112/62 84/113/62 92/119/62
f 90/121/63 82/111/63 83/112/63 91/120/63
f 95/122/64 87/109/64 82/110/64 90/123/64
f 94/124/65 86/108/65 87/109/65 95/122/65
f 96/117/66 88/107/66 86/108/66 94/124/66
f 65/98/67 96/117/67 94/124/67 71/99/67
f 71/99/68 94/124/68 95/122/68 72/100/68
f 72/100/69 95/122/69 90/123/69 67/101/69
f 67/102/70 90/121/70 91/120/70 68/103/70
f 68/103/71 91/120/71 92/119/71 69/104/71
f 69/104/72 92/119/72 93/118/72 70/105/72
f 70/105/73 93/118/73 89/116/73 66/106/73
f 66/106/74 89/116/74 96/117/74 65/98/74
f 105/125/8 106/126/8 98/64/8 97/63/8
f 107/127/8 105/125/8 97/63/8 99/67/8
f 108/128/8 107/127/8 99/67/8 100/69/8
f 109/129/8 108/128/8 100/69/8 101/71/8
f 110/130/8 109/129/8 101/71/8 102/73/8
f 111/131/8 110/132/8 102/76/8 103/75/8
f 112/133/8 111/131/8 103/75/8 104/79/8
f 106/126/8 112/133/8 104/79/8 98/64/8
f 33/19/75 28/26/75 106/134/75 105/135/75
f 29/20/76 33/19/76 105/135/76 107/136/76
f 30/21/77 29/20/77 107/136/77 108/137/77
f 31/22/78 30/21/78 108/137/78 109/138/78
f 32/23/79 31/22/79 109/138/79 110/139/79
f 26/24/80 32/23/80 110/139/80 111/140/80
f 27/25/81 26/24/81 111/140/81 112/141/81
f 28/26/82 27/25/82 112/141/82 106/134/82
