# Blender v2.79 (sub 0) OBJ File: 'scalingscene_2.blend'
# www.blender.org
mtllib desk.mtl
o desk_Cube.024
v -7.347952 1.240687 6.555393
v -7.347952 1.295335 6.555393
v -7.309721 1.202456 4.678091
v -7.347952 1.295335 4.677839
v -4.617289 1.240687 6.555393
v -4.617289 1.295335 6.555393
v -4.655520 1.202456 4.678091
v -4.617289 1.295335 4.678091
v -7.347952 1.240687 4.958019
v -7.347952 1.295335 4.958019
v -4.617289 1.240687 4.958019
v -4.617289 1.295335 4.958019
v -4.655520 0.939518 4.678091
v -7.309721 0.939518 4.678091
v -4.709687 0.901287 4.865622
v -7.255554 0.901287 4.865622
v -5.489279 1.202456 4.678091
v -6.475962 1.202456 4.678091
v -6.437731 1.295335 4.678091
v -5.527510 1.295335 4.678091
v -6.437731 1.240687 6.555393
v -5.527510 1.240687 6.555393
v -5.527510 1.295335 6.555393
v -6.437731 1.295335 6.555393
v -6.437731 1.295335 4.958019
v -5.527510 1.295335 4.958019
v -5.527510 1.240687 4.958019
v -6.437731 1.240687 4.958019
v -5.489279 0.939518 4.678091
v -6.475962 0.939518 4.678091
v -4.888318 0.901287 4.865621
v -7.015768 0.901287 4.865621
v -6.437731 1.240687 4.678091
v -7.347952 1.240687 4.677839
v -7.015768 0.901287 4.770489
v -7.255554 0.901287 4.770489
v -4.709687 0.901287 4.770489
v -4.617289 1.240687 4.678091
v -5.527510 1.240687 4.678091
v -4.888318 0.901287 4.770489
v -6.825329 1.104276 4.708779
v -6.960354 1.104276 4.708779
v -6.825329 1.037698 4.708779
v -6.960354 1.037698 4.708779
v -5.016218 1.055343 4.708779
v -5.016218 1.086631 4.708779
v -5.128581 1.086631 4.708779
v -5.128581 1.055343 4.708779
v -6.475962 1.202456 4.708779
v -7.309721 1.202456 4.708779
v -6.475962 0.939518 4.708779
v -7.309721 0.939518 4.708779
v -4.655520 0.939518 4.708779
v -4.655520 1.202456 4.708779
v -5.489279 1.202456 4.708779
v -5.489279 0.939518 4.708779
v -5.016218 1.055343 4.677533
v -5.016218 1.086631 4.677533
v -5.128581 1.086631 4.677533
v -5.128581 1.055343 4.677533
v -5.016218 1.055343 4.639343
v -5.016218 1.086631 4.639343
v -5.128581 1.086631 4.639343
v -5.128581 1.055343 4.639343
v -4.976674 1.055343 4.677533
v -4.976674 1.086631 4.677533
v -5.168125 1.086631 4.677533
v -5.168125 1.055343 4.677533
v -4.976674 1.055343 4.639343
v -4.976674 1.086631 4.639343
v -5.168125 1.086631 4.639343
v -5.168125 1.055343 4.639343
v -7.347952 1.240687 6.420678
v -4.617289 1.295335 6.420678
v -7.347952 1.295335 6.420678
v -4.617289 1.240687 6.420678
v -5.527510 1.295335 6.420678
v -6.437731 1.295335 6.420678
v -6.437731 1.240687 6.420678
v -5.527510 1.240687 6.420678
v -4.617289 1.721907 6.420678
v -4.617289 1.721907 6.555393
v -6.437731 1.721907 6.555393
v -7.347952 1.721907 6.555393
v -5.527510 1.721907 6.555393
v -5.527510 1.721907 6.420678
v -6.437731 1.721907 6.420678
v -7.347952 1.721907 6.420678
v -4.617289 1.849479 6.420678
v -4.617289 1.849479 6.555393
v -6.437731 1.849479 6.555393
v -7.347952 1.849479 6.555393
v -5.527510 1.849479 6.555393
v -5.527510 1.849479 6.420678
v -6.437731 1.849479 6.420678
v -7.347952 1.849479 6.420678
v -6.437731 1.849479 6.018524
v -6.437731 1.721907 6.018524
v -7.347952 1.721907 6.018524
v -7.347952 1.849479 6.018524
v -5.527510 1.721907 6.018524
v -4.617289 1.721907 6.018524
v -5.527510 1.849479 6.018524
v -4.617289 1.849479 6.018524
v -8.482803 1.295335 6.012010
v -9.060219 1.295335 4.958019
v -9.060219 1.240687 4.958019
v -8.482803 1.240687 6.012010
v -7.679912 1.295335 3.610764
v -8.054534 1.240687 3.669107
v -8.814763 1.295335 3.610764
v -8.814763 1.240687 3.610764
v -9.060219 1.295335 4.677587
v -9.060219 1.240687 4.677587
v -6.977660 1.175678 6.420678
v -6.977660 1.175678 6.555393
v -5.157403 1.175678 6.555393
v -4.987396 1.175678 6.555393
v -6.808024 1.175678 6.555393
v -6.808024 1.175678 6.420678
v -5.157403 1.175678 6.420678
v -4.987396 1.175678 6.420678
v -6.977660 0.000000 6.420678
v -6.977660 0.000000 6.555393
v -5.157403 0.000000 6.555393
v -4.987396 0.000000 6.555393
v -6.808024 0.000000 6.555393
v -6.808024 0.000000 6.420678
v -5.157403 0.000000 6.420678
v -4.987396 0.000000 6.420678
v -6.437731 0.901287 4.678091
v -7.347952 0.901287 4.678091
v -4.617289 0.901287 4.958019
v -4.617289 0.901287 4.678091
v -7.347952 0.901287 4.958019
v -6.437731 0.901287 4.958019
v -5.527510 0.901287 4.678091
v -5.527510 0.901287 4.958019
v -7.015768 0.000000 4.770489
v -7.255554 0.000000 4.770489
v -4.709687 0.000000 4.865622
v -4.709687 0.000000 4.770489
v -7.255554 0.000000 4.865622
v -7.015768 0.000000 4.865621
v -4.888318 0.000000 4.770489
v -4.888318 0.000000 4.865621
v -8.855058 1.295335 3.785897
v -8.855058 1.240687 3.785897
v -8.049200 1.240687 3.727593
v -7.625416 1.295335 3.785939
v -8.381858 1.295335 6.048361
v -8.381858 1.240687 6.048361
v -8.907912 1.240687 4.958019
v -8.907912 1.295335 4.958019
v -8.330789 1.240687 3.669107
v -8.713818 1.295335 3.610764
v -8.907912 1.240687 4.677609
v -8.907912 1.295335 4.677609
v -8.745681 1.295335 3.785901
v -8.333906 1.240687 3.727560
v -7.679912 1.240687 3.610764
v -7.625416 1.240687 3.785939
v -8.745681 1.240687 3.785901
v -8.713818 1.240687 3.610764
v -8.054534 0.000000 3.669107
v -8.049200 0.000000 3.727593
v -8.333906 0.000000 3.727560
v -8.330789 0.000000 3.669107
v -8.907912 0.000000 4.958019
v -9.060219 0.000000 4.958019
v -9.060219 0.000000 4.677587
v -8.907912 0.000000 4.677609
v -7.347952 1.295335 5.714132
v -4.617289 1.240687 5.714132
v -7.347952 1.240687 5.714132
v -4.617289 1.295335 5.714132
v -5.527510 1.295335 5.714132
v -6.437731 1.295335 5.714132
v -6.437731 1.240687 5.714132
v -5.527510 1.240687 5.714132
v -8.761727 1.295335 5.502873
v -8.761727 1.240687 5.502873
v -8.635971 1.295335 5.521665
v -8.635971 1.240687 5.521665
v -8.761727 0.000000 5.502873
v -8.482803 0.000000 6.012010
v -8.381858 0.000000 6.048361
v -8.635971 0.000000 5.521665
v -6.825329 1.104276 4.664007
v -6.960354 1.104276 4.664007
v -6.825329 1.037698 4.664007
v -6.960354 1.037698 4.664007
v -6.825329 1.104276 4.623127
v -6.960354 1.104276 4.623127
v -6.825329 1.037698 4.623127
v -6.960354 1.037698 4.623127
v -7.017093 1.104276 4.664007
v -7.017093 1.037698 4.664007
v -6.768591 1.104276 4.664007
v -6.768591 1.037698 4.664007
v -7.017093 1.104276 4.623127
v -7.017093 1.037698 4.623127
v -6.768591 1.104276 4.623127
v -6.768591 1.037698 4.623127
vn -1.0000 0.0000 0.0000
vn 0.0000 0.0000 -1.0000
vn 1.0000 0.0000 0.0000
vn 0.0000 0.0000 1.0000
vn 0.1730 -0.9849 0.0000
vn 0.0000 1.0000 0.0000
vn -0.3388 0.0000 0.9409
vn 0.0000 -1.0000 0.0000
vn 0.0003 0.0000 -1.0000
vn 0.0001 -0.0033 -1.0000
vn 0.0033 -0.0004 -1.0000
vn -0.8770 0.0000 0.4805
vn -0.9745 0.0000 -0.2242
vn 0.9007 0.0000 -0.4345
vn 0.9549 0.0000 -0.2971
vn -0.1730 -0.9849 0.0000
vn -0.1729 -0.9849 0.0000
vn 0.1729 -0.9849 0.0000
vn 0.9959 0.0000 -0.0908
vn -0.9986 0.0000 -0.0533
vn -0.0001 0.0000 1.0000
vn 0.0001 0.0000 -1.0000
vn 0.1478 0.0000 -0.9890
usemtl None
s off
f 9//1 10//1 4//1 34//1
f 39//2 20//2 8//2 38//2
f 76//3 74//3 6//3 5//3
f 21//4 24//4 2//4 1//4
f 76//5 5//5 118//5 122//5
f 23//4 6//4 82//4 85//4
f 19//6 4//6 10//6 25//6
f 38//3 11//3 133//3 134//3
f 38//3 8//3 12//3 11//3
f 152//7 151//7 105//7 108//7
f 15//4 31//4 146//4 141//4
f 9//1 34//1 132//1 135//1
f 28//4 9//4 135//4 136//4
f 17//8 7//8 54//8 55//8
f 18//1 30//1 51//1 49//1
f 33//2 39//2 137//2 131//2
f 11//4 27//4 138//4 133//4
f 27//4 28//4 136//4 138//4
f 31//1 40//1 145//1 146//1
f 131//8 137//8 138//8 136//8
f 8//6 20//6 26//6 12//6
f 20//6 19//6 25//6 26//6
f 77//2 78//2 87//2 86//2
f 2//4 24//4 83//4 84//4
f 80//2 76//2 122//2 121//2
f 79//8 80//8 22//8 21//8
f 5//4 6//4 23//4 22//4
f 22//4 23//4 24//4 21//4
f 34//9 4//9 19//9 33//9
f 33//2 19//2 20//2 39//2
f 18//10 3//10 34//10 33//10
f 14//2 30//2 131//2 132//2
f 13//2 7//2 38//2 134//2
f 3//11 14//11 132//11 34//11
f 7//2 17//2 39//2 38//2
f 29//2 13//2 134//2 137//2
f 30//2 18//2 33//2 131//2
f 17//2 29//2 137//2 39//2
f 48//1 47//1 59//1 60//1
f 42//6 41//6 189//6 190//6
f 7//1 13//1 53//1 54//1
f 3//8 18//8 49//8 50//8
f 29//3 17//3 55//3 56//3
f 13//6 29//6 56//6 53//6
f 14//3 3//3 50//3 52//3
f 30//6 14//6 52//6 51//6
f 41//2 42//2 50//2 49//2
f 44//2 43//2 51//2 52//2
f 45//2 46//2 54//2 53//2
f 42//2 44//2 52//2 50//2
f 46//2 47//2 55//2 54//2
f 48//2 45//2 53//2 56//2
f 43//2 41//2 49//2 51//2
f 47//2 48//2 56//2 55//2
f 57//8 60//8 64//8 61//8
f 45//8 48//8 60//8 57//8
f 47//6 46//6 58//6 59//6
f 46//3 45//3 57//3 58//3
f 63//2 62//2 61//2 64//2
f 58//4 57//4 65//4 66//4
f 57//8 61//8 69//8 65//8
f 59//6 58//6 62//6 63//6
f 66//3 65//3 69//3 70//3
f 68//1 67//1 71//1 72//1
f 63//2 64//2 72//2 71//2
f 62//6 58//6 66//6 70//6
f 60//4 59//4 67//4 68//4
f 64//8 60//8 68//8 72//8
f 61//2 62//2 70//2 69//2
f 59//6 63//6 71//6 67//6
f 179//8 180//8 80//8 79//8
f 175//8 179//8 79//8 73//8
f 177//6 178//6 78//6 77//6
f 176//6 177//6 77//6 74//6
f 1//1 2//1 75//1 73//1
f 178//6 173//6 75//6 78//6
f 180//8 174//8 76//8 80//8
f 174//3 176//3 74//3 76//3
f 83//4 85//4 93//4 91//4
f 86//2 87//2 95//2 94//2
f 88//1 96//1 100//1 99//1
f 78//2 75//2 88//2 87//2
f 75//1 2//1 84//1 88//1
f 74//2 77//2 86//2 81//2
f 6//3 74//3 81//3 82//3
f 24//4 23//4 85//4 83//4
f 95//6 96//6 92//6 91//6
f 89//6 94//6 93//6 90//6
f 94//6 95//6 91//6 93//6
f 84//4 83//4 91//4 92//4
f 87//8 88//8 99//8 98//8
f 88//1 84//1 92//1 96//1
f 85//4 82//4 90//4 93//4
f 82//3 81//3 89//3 90//3
f 98//2 99//2 100//2 97//2
f 102//2 101//2 103//2 104//2
f 96//6 95//6 97//6 100//6
f 89//3 81//3 102//3 104//3
f 81//8 86//8 101//8 102//8
f 86//1 94//1 103//1 101//1
f 95//3 87//3 98//3 97//3
f 94//6 89//6 104//6 103//6
f 182//12 181//12 106//12 107//12
f 148//13 147//13 111//13 112//13
f 184//14 152//14 187//14 188//14
f 183//6 154//6 106//6 181//6
f 156//2 164//2 112//2 111//2
f 163//8 148//8 112//8 164//8
f 150//15 162//15 161//15 109//15
f 159//6 150//6 109//6 156//6
f 154//6 10//6 4//6 158//6
f 153//4 107//4 170//4 169//4
f 107//1 106//1 113//1 114//1
f 117//1 121//1 129//1 125//1
f 115//2 120//2 128//2 123//2
f 22//16 80//16 121//16 117//16
f 1//17 73//17 115//17 116//17
f 5//4 22//4 117//4 118//4
f 21//4 1//4 116//4 119//4
f 79//18 21//18 119//18 120//18
f 73//2 79//2 120//2 115//2
f 129//8 130//8 126//8 125//8
f 123//8 128//8 127//8 124//8
f 119//4 116//4 124//4 127//4
f 116//1 115//1 123//1 124//1
f 121//2 122//2 130//2 129//2
f 122//3 118//3 126//3 130//3
f 120//3 119//3 127//3 128//3
f 118//4 117//4 125//4 126//4
f 35//8 36//8 132//8 131//8
f 15//8 37//8 134//8 133//8
f 36//8 16//8 135//8 132//8
f 16//8 32//8 136//8 135//8
f 37//8 40//8 137//8 134//8
f 31//8 15//8 133//8 138//8
f 32//8 35//8 131//8 136//8
f 40//8 31//8 138//8 137//8
f 145//8 142//8 141//8 146//8
f 140//8 139//8 144//8 143//8
f 32//4 16//4 143//4 144//4
f 37//3 15//3 141//3 142//3
f 35//3 32//3 144//3 139//3
f 40//2 37//2 142//2 145//2
f 16//1 36//1 140//1 143//1
f 36//2 35//2 139//2 140//2
f 158//6 4//6 150//6 159//6
f 4//15 34//15 162//15 150//15
f 157//8 114//8 148//8 163//8
f 114//13 113//13 147//13 148//13
f 34//8 157//8 163//8 162//8
f 113//6 158//6 159//6 147//6
f 9//8 153//8 157//8 34//8
f 106//6 154//6 158//6 113//6
f 147//6 159//6 156//6 111//6
f 155//2 110//2 165//2 168//2
f 109//2 161//2 164//2 156//2
f 173//6 10//6 154//6 183//6
f 175//8 73//8 152//8 184//8
f 73//7 75//7 151//7 152//7
f 149//8 110//8 161//8 162//8
f 160//8 149//8 162//8 163//8
f 110//8 155//8 164//8 161//8
f 155//8 160//8 163//8 164//8
f 166//8 167//8 168//8 165//8
f 110//19 149//19 166//19 165//19
f 160//20 155//20 168//20 167//20
f 149//21 160//21 167//21 166//21
f 169//8 170//8 171//8 172//8
f 157//3 153//3 169//3 172//3
f 107//1 114//1 171//1 170//1
f 114//22 157//22 172//22 171//22
f 9//8 175//8 184//8 153//8
f 75//6 173//6 183//6 151//6
f 151//6 183//6 181//6 105//6
f 153//8 184//8 182//8 107//8
f 108//12 105//12 181//12 182//12
f 11//3 12//3 176//3 174//3
f 27//8 11//8 174//8 180//8
f 25//6 10//6 173//6 178//6
f 12//6 26//6 177//6 176//6
f 26//6 25//6 178//6 177//6
f 9//8 28//8 179//8 175//8
f 28//8 27//8 180//8 179//8
f 188//8 187//8 186//8 185//8
f 152//7 108//7 186//7 187//7
f 108//12 182//12 185//12 186//12
f 182//23 184//23 188//23 185//23
f 189//4 191//4 200//4 199//4
f 44//1 42//1 190//1 192//1
f 43//8 44//8 192//8 191//8
f 41//3 43//3 191//3 189//3
f 194//2 193//2 195//2 196//2
f 191//8 192//8 196//8 195//8
f 196//8 192//8 198//8 202//8
f 190//6 189//6 193//6 194//6
f 199//3 200//3 204//3 203//3
f 198//1 197//1 201//1 202//1
f 191//8 195//8 204//8 200//8
f 194//2 196//2 202//2 201//2
f 190//6 194//6 201//6 197//6
f 193//6 189//6 199//6 203//6
f 192//4 190//4 197//4 198//4
f 195//2 193//2 203//2 204//2
