# Blender v2.79 (sub 0) OBJ File: 'scalingscene_2.blend'
# www.blender.org
mtllib disco.mtl
o floor_dance_Cube.013
v 2.515184 0.117992 6.667022
v 2.515184 0.247169 6.667022
v 2.515184 0.117992 4.667022
v 2.515184 0.247169 4.667022
v 4.515184 0.117992 6.667022
v 4.515184 0.247169 6.667022
v 4.515184 0.117992 4.667022
v 4.515184 0.247169 4.667022
v 3.532100 0.140509 5.150105
v 3.498268 0.140509 5.150105
v 3.998268 0.140509 5.183938
v 4.032101 0.140509 5.183938
v 4.032101 0.140509 5.150105
v 3.998268 0.140509 5.150105
v 3.998268 0.224652 6.150105
v 4.032101 0.224652 6.150105
v 4.032101 0.224652 6.183938
v 3.998268 0.224652 6.183938
v 3.532100 0.224652 6.150105
v 3.532100 0.224652 6.183938
v 3.498268 0.224652 6.183938
v 3.498268 0.224652 6.150105
v 3.032100 0.224652 6.150105
v 3.032100 0.224652 6.183938
v 2.998268 0.224652 6.183938
v 2.998268 0.224652 6.150105
v 3.998268 0.224652 5.683938
v 3.998268 0.224652 5.650105
v 4.032101 0.224652 5.650105
v 4.032101 0.224652 5.683938
v 3.532100 0.224652 5.683938
v 3.498268 0.224652 5.683938
v 3.498268 0.224652 5.650105
v 3.532100 0.224652 5.650105
v 3.032100 0.224652 5.683938
v 2.998268 0.224652 5.683938
v 2.998268 0.224652 5.650105
v 3.032100 0.224652 5.650105
v 3.998268 0.224652 5.183938
v 3.998268 0.224652 5.150105
v 4.032101 0.224652 5.150105
v 4.032101 0.224652 5.183938
v 3.532100 0.224652 5.183938
v 3.498268 0.224652 5.183938
v 3.498268 0.224652 5.150105
v 3.532100 0.224652 5.150105
v 3.032100 0.224652 5.183938
v 2.998268 0.224652 5.183938
v 2.998268 0.224652 5.150105
v 3.032100 0.224652 5.150105
v 2.515184 0.117992 5.183938
v 2.515184 0.117992 5.150105
v 2.515184 0.117992 5.683938
v 2.515184 0.117992 5.650105
v 2.515184 0.117992 6.183938
v 2.515184 0.117992 6.150105
v 2.515184 0.247169 6.183938
v 2.515184 0.247169 6.150105
v 2.515184 0.247169 5.683938
v 2.515184 0.247169 5.650105
v 2.515184 0.247169 5.183938
v 2.515184 0.247169 5.150105
v 4.515184 0.117992 6.183938
v 4.515184 0.117992 6.150105
v 4.515184 0.117992 5.683938
v 4.515184 0.117992 5.650105
v 4.515184 0.117992 5.183938
v 4.515184 0.117992 5.150105
v 4.515184 0.247169 5.183938
v 4.515184 0.247169 5.150105
v 4.515184 0.247169 5.683938
v 4.515184 0.247169 5.650105
v 4.515184 0.247169 6.183938
v 4.515184 0.247169 6.150105
v 3.998268 0.117992 4.667022
v 4.032101 0.117992 4.667022
v 3.498268 0.117992 4.667022
v 3.532100 0.117992 4.667022
v 2.998268 0.117992 4.667022
v 3.032100 0.117992 4.667022
v 3.032100 0.247169 4.667022
v 2.998268 0.247169 4.667022
v 3.532100 0.247169 4.667022
v 3.498268 0.247169 4.667022
v 4.032101 0.247169 4.667022
v 3.998268 0.247169 4.667022
v 3.032100 0.117992 6.667022
v 2.998268 0.117992 6.667022
v 3.532100 0.117992 6.667022
v 3.498268 0.117992 6.667022
v 4.032101 0.117992 6.667022
v 3.998268 0.117992 6.667022
v 3.998268 0.247169 6.667022
v 4.032101 0.247169 6.667022
v 3.498268 0.247169 6.667022
v 3.532100 0.247169 6.667022
v 2.998268 0.247169 6.667022
v 3.032100 0.247169 6.667022
v 2.998268 0.247169 5.150105
v 2.998268 0.247169 5.183938
v 3.032100 0.247169 5.183938
v 3.032100 0.247169 5.150105
v 3.498268 0.247169 5.150105
v 3.498268 0.247169 5.183938
v 3.532100 0.247169 5.183938
v 3.532100 0.247169 5.150105
v 4.032101 0.247169 5.150105
v 3.998268 0.247169 5.150105
v 3.998268 0.247169 5.183938
v 4.032101 0.247169 5.183938
v 2.998268 0.247169 5.650105
v 2.998268 0.247169 5.683938
v 3.032100 0.247169 5.683938
v 3.032100 0.247169 5.650105
v 3.498268 0.247169 5.650105
v 3.498268 0.247169 5.683938
v 3.532100 0.247169 5.683938
v 3.532100 0.247169 5.650105
v 4.032101 0.247169 5.650105
v 3.998268 0.247169 5.650105
v 3.998268 0.247169 5.683938
v 4.032101 0.247169 5.683938
v 2.998268 0.247169 6.183938
v 3.032100 0.247169 6.183938
v 3.032100 0.247169 6.150105
v 2.998268 0.247169 6.150105
v 3.498268 0.247169 6.183938
v 3.532100 0.247169 6.183938
v 3.532100 0.247169 6.150105
v 3.498268 0.247169 6.150105
v 4.032101 0.247169 6.183938
v 4.032101 0.247169 6.150105
v 3.998268 0.247169 6.150105
v 3.998268 0.247169 6.183938
v 4.032101 0.117992 5.150105
v 4.032101 0.117992 5.183938
v 3.998268 0.117992 5.183938
v 3.998268 0.117992 5.150105
v 3.532100 0.117992 5.150105
v 3.532100 0.117992 5.183938
v 3.498268 0.117992 5.183938
v 3.498268 0.117992 5.150105
v 2.998268 0.117992 5.150105
v 3.032100 0.117992 5.150105
v 3.032100 0.117992 5.183938
v 2.998268 0.117992 5.183938
v 4.032101 0.117992 5.650105
v 4.032101 0.117992 5.683938
v 3.998268 0.117992 5.683938
v 3.998268 0.117992 5.650105
v 3.532100 0.117992 5.650105
v 3.532100 0.117992 5.683938
v 3.498268 0.117992 5.683938
v 3.498268 0.117992 5.650105
v 2.998268 0.117992 5.650105
v 3.032100 0.117992 5.650105
v 3.032100 0.117992 5.683938
v 2.998268 0.117992 5.683938
v 4.032101 0.117992 6.183938
v 3.998268 0.117992 6.183938
v 3.998268 0.117992 6.150105
v 4.032101 0.117992 6.150105
v 3.532100 0.117992 6.183938
v 3.498268 0.117992 6.183938
v 3.498268 0.117992 6.150105
v 3.532100 0.117992 6.150105
v 2.998268 0.117992 6.183938
v 2.998268 0.117992 6.150105
v 3.032100 0.117992 6.150105
v 3.032100 0.117992 6.183938
v 3.532100 0.140509 5.183938
v 3.498268 0.140509 5.183938
v 2.998268 0.140509 5.183938
v 2.998268 0.140509 5.150105
v 3.032100 0.140509 5.150105
v 3.032100 0.140509 5.183938
v 3.998268 0.140509 5.650105
v 4.032101 0.140509 5.650105
v 4.032101 0.140509 5.683938
v 3.998268 0.140509 5.683938
v 3.498268 0.140509 5.650105
v 3.532100 0.140509 5.650105
v 3.532100 0.140509 5.683938
v 3.498268 0.140509 5.683938
v 2.998268 0.140509 5.683938
v 2.998268 0.140509 5.650105
v 3.032100 0.140509 5.650105
v 3.032100 0.140509 5.683938
v 4.032101 0.140509 6.150105
v 4.032101 0.140509 6.183938
v 3.998268 0.140509 6.183938
v 3.998268 0.140509 6.150105
v 3.532100 0.140509 6.150105
v 3.532100 0.140509 6.183938
v 3.498268 0.140509 6.183938
v 3.498268 0.140509 6.150105
v 3.032100 0.140509 6.183938
v 2.998268 0.140509 6.183938
v 2.998268 0.140509 6.150105
v 3.032100 0.140509 6.150105
v 4.515184 0.224652 5.183938
v 4.515184 0.224652 5.150105
v 4.515184 0.224652 5.683938
v 4.515184 0.224652 5.650105
v 4.515184 0.224652 6.183938
v 4.515184 0.224652 6.150105
v 2.515184 0.140509 5.183938
v 2.515184 0.140509 5.150105
v 2.515184 0.140509 5.683938
v 2.515184 0.140509 5.650105
v 2.515184 0.140509 6.183938
v 2.515184 0.140509 6.150105
v 4.515184 0.140509 5.183938
v 4.515184 0.140509 5.150105
v 4.515184 0.140509 5.683938
v 4.515184 0.140509 5.650105
v 4.515184 0.140509 6.183938
v 4.515184 0.140509 6.150105
v 2.515184 0.224652 6.183938
v 2.515184 0.224652 6.150105
v 2.515184 0.224652 5.683938
v 2.515184 0.224652 5.650105
v 2.515184 0.224652 5.183938
v 2.515184 0.224652 5.150105
v 2.998268 0.140509 4.667022
v 3.032100 0.140509 4.667022
v 3.498268 0.140509 4.667022
v 3.532100 0.140509 4.667022
v 3.998268 0.140509 4.667022
v 4.032101 0.140509 4.667022
v 4.032101 0.224652 4.667022
v 3.998268 0.224652 4.667022
v 3.532100 0.224652 4.667022
v 3.498268 0.224652 4.667022
v 3.032100 0.224652 4.667022
v 2.998268 0.224652 4.667022
v 3.998268 0.224652 6.667022
v 4.032101 0.224652 6.667022
v 3.498268 0.224652 6.667022
v 3.532100 0.224652 6.667022
v 2.998268 0.224652 6.667022
v 3.032100 0.224652 6.667022
v 3.032100 0.140509 6.667022
v 2.998268 0.140509 6.667022
v 3.532100 0.140509 6.667022
v 3.498268 0.140509 6.667022
v 4.032101 0.140509 6.667022
v 3.998268 0.140509 6.667022
vt 0.112672 0.408633
vt 0.136746 0.415580
vt 0.135638 0.434769
vt 0.109367 0.436901
vt 0.220076 0.954062
vt 0.220076 0.817701
vt 0.251860 0.817701
vt 0.251860 0.954062
vt 0.336197 0.409345
vt 0.360942 0.407998
vt 0.357248 0.434578
vt 0.334795 0.427655
vt 0.178396 0.621572
vt 0.178396 0.757934
vt 0.146613 0.757934
vt 0.146613 0.621572
vt 0.499052 0.954062
vt 0.499052 0.817701
vt 0.530836 0.817701
vt 0.530836 0.954062
vt 0.134112 0.107832
vt 0.109367 0.109179
vt 0.113060 0.082599
vt 0.135514 0.089521
vt 0.333655 0.476976
vt 0.358826 0.475803
vt 0.357674 0.503046
vt 0.330431 0.501894
vt 0.146381 0.258465
vt 0.111613 0.258377
vt 0.114045 0.223703
vt 0.142479 0.229561
vt 0.135372 0.176881
vt 0.109368 0.178964
vt 0.112631 0.151035
vt 0.136510 0.157752
vt 0.357670 0.244611
vt 0.330235 0.243688
vt 0.333399 0.218472
vt 0.358593 0.217175
vt 0.334642 0.954062
vt 0.334642 0.817701
vt 0.367579 0.817701
vt 0.367579 0.954062
vt 0.417424 0.954062
vt 0.417424 0.817701
vt 0.449207 0.817701
vt 0.449207 0.954062
vt 0.323931 0.258712
vt 0.358698 0.258800
vt 0.356266 0.293474
vt 0.327832 0.287615
vt 0.334938 0.340295
vt 0.360942 0.338213
vt 0.357678 0.366142
vt 0.333800 0.359425
vt 0.580680 0.954062
vt 0.580680 0.817701
vt 0.613617 0.817701
vt 0.613617 0.954062
vt 0.136652 0.040201
vt 0.111481 0.041374
vt 0.112632 0.014131
vt 0.139875 0.015283
vt 0.114215 0.482022
vt 0.142907 0.487893
vt 0.146868 0.517049
vt 0.111802 0.516996
vt 0.113616 0.340914
vt 0.135824 0.347801
vt 0.134375 0.365889
vt 0.110021 0.367007
vt 0.488409 0.758571
vt 0.488409 0.622209
vt 0.520193 0.622209
vt 0.520193 0.758571
vt 0.167816 0.201204
vt 0.167470 0.197391
vt 0.171301 0.197403
vt 0.171585 0.201200
vt 0.198201 0.414781
vt 0.209561 0.417592
vt 0.207998 0.429178
vt 0.196561 0.426443
vt 0.651667 0.758571
vt 0.651667 0.622209
vt 0.684604 0.622209
vt 0.684604 0.758571
vt 0.266363 0.413777
vt 0.277579 0.416492
vt 0.275994 0.427872
vt 0.264839 0.425177
vt 0.194530 0.347950
vt 0.205711 0.350698
vt 0.204072 0.362132
vt 0.192889 0.359315
vt 0.570038 0.758571
vt 0.570038 0.622209
vt 0.601822 0.622209
vt 0.601822 0.758571
vt 0.055665 0.954062
vt 0.055665 0.817701
vt 0.088602 0.817701
vt 0.088602 0.954062
vt 0.138447 0.954062
vt 0.138447 0.817701
vt 0.170231 0.817701
vt 0.170231 0.954062
vt 0.356092 0.035150
vt 0.327400 0.029279
vt 0.323439 0.000124
vt 0.358505 0.000175
vt 0.262692 0.346369
vt 0.274148 0.349090
vt 0.272486 0.360772
vt 0.261086 0.357993
vt 0.272107 0.102393
vt 0.260747 0.099582
vt 0.262310 0.087996
vt 0.273747 0.090731
vt 0.357636 0.108539
vt 0.333562 0.101593
vt 0.334670 0.082403
vt 0.360941 0.080271
vt 0.203945 0.103398
vt 0.192729 0.100683
vt 0.194314 0.089304
vt 0.205469 0.091998
vt 0.275780 0.169224
vt 0.264599 0.166476
vt 0.266237 0.155042
vt 0.277421 0.157859
vt 0.356694 0.176258
vt 0.334486 0.169372
vt 0.335934 0.151283
vt 0.360289 0.150165
vt 0.096767 0.621572
vt 0.096767 0.757934
vt 0.063830 0.757934
vt 0.063830 0.621572
vt 0.290280 0.250111
vt 0.262404 0.250262
vt 0.266977 0.224246
vt 0.285655 0.226874
vt 0.301705 0.954062
vt 0.301705 0.817701
vt 0.202668 0.034687
vt 0.184194 0.032090
vt 0.179663 0.009139
vt 0.207021 0.009085
vt 0.207618 0.170806
vt 0.196162 0.168085
vt 0.197824 0.156403
vt 0.209224 0.159182
vt 0.405627 0.758571
vt 0.405627 0.622209
vt 0.438564 0.622209
vt 0.438564 0.758571
vt 0.260025 0.621572
vt 0.260025 0.757934
vt 0.228242 0.757934
vt 0.228242 0.621572
vt 0.342808 0.621572
vt 0.342808 0.757934
vt 0.309871 0.757934
vt 0.309871 0.621572
vt 0.272156 0.031158
vt 0.252896 0.028105
vt 0.248683 0.003784
vt 0.277580 0.004348
vt 0.267639 0.482488
vt 0.286113 0.485085
vt 0.290644 0.508036
vt 0.263286 0.508090
vt 0.198151 0.486015
vt 0.217411 0.489069
vt 0.221624 0.513391
vt 0.192727 0.512826
vt 0.220359 0.254938
vt 0.191854 0.254276
vt 0.197274 0.227768
vt 0.216413 0.230824
vt 0.180032 0.267063
vt 0.207908 0.266912
vt 0.203334 0.292928
vt 0.184656 0.290300
vt 0.249953 0.262236
vt 0.278458 0.262900
vt 0.273037 0.289407
vt 0.253898 0.286351
vt 0.314338 0.501014
vt 0.307838 0.454383
vt 0.554605 0.817701
vt 0.554605 0.954062
vt 0.301621 0.388544
vt 0.304346 0.451149
vt 0.237478 0.456926
vt 0.244104 0.506914
vt 0.307893 0.450905
vt 0.305367 0.388600
vt 0.556911 0.954062
vt 0.556911 0.817701
vt 0.233311 0.389995
vt 0.237485 0.453146
vt 0.246763 0.506558
vt 0.241182 0.456558
vt 0.472977 0.817701
vt 0.472977 0.954062
vt 0.241190 0.452840
vt 0.237070 0.390034
vt 0.168467 0.459219
vt 0.172381 0.510660
vt 0.165109 0.390644
vt 0.168117 0.455384
vt 0.475283 0.954062
vt 0.475283 0.817701
vt 0.171971 0.455387
vt 0.168841 0.390440
vt 0.175119 0.510445
vt 0.172256 0.459206
vt 0.391348 0.817701
vt 0.391348 0.954062
vt 0.165974 0.062425
vt 0.158455 0.015759
vt 0.393655 0.954062
vt 0.393655 0.817701
vt 0.155969 0.016162
vt 0.162470 0.062793
vt 0.115645 0.461604
vt 0.304334 0.454751
vt 0.232829 0.060248
vt 0.226203 0.010261
vt 0.354471 0.450259
vt 0.115984 0.464401
vt 0.354564 0.452751
vt 0.223543 0.010617
vt 0.229125 0.060617
vt 0.165221 0.386919
vt 0.114991 0.389792
vt 0.233104 0.386226
vt 0.168943 0.386701
vt 0.301841 0.057954
vt 0.297926 0.006513
vt 0.115160 0.392457
vt 0.301396 0.384796
vt 0.236856 0.386275
vt 0.295187 0.006728
vt 0.298052 0.057968
vt 0.111718 0.299996
vt 0.136912 0.298701
vt 0.162710 0.321267
vt 0.116170 0.322977
vt 0.174391 0.251935
vt 0.355419 0.382025
vt 0.305149 0.384878
vt 0.171679 0.252148
vt 0.116271 0.325458
vt 0.162657 0.324748
vt 0.355641 0.384700
vt 0.302190 0.061789
vt 0.354663 0.055567
vt 0.229646 0.318882
vt 0.166228 0.320897
vt 0.245229 0.248496
vt 0.240665 0.198292
vt 0.166213 0.324511
vt 0.229911 0.322617
vt 0.236919 0.198330
vt 0.242550 0.248801
vt 0.354323 0.052771
vt 0.298725 0.315976
vt 0.233392 0.318845
vt 0.305089 0.130254
vt 0.355318 0.127380
vt 0.233680 0.322633
vt 0.299009 0.319773
vt 0.314170 0.242865
vt 0.307601 0.195906
vt 0.354481 0.310951
vt 0.302495 0.315972
vt 0.304083 0.196276
vt 0.311667 0.243277
vt 0.355149 0.124715
vt 0.305200 0.126529
vt 0.302841 0.319785
vt 0.354811 0.313721
vt 0.354140 0.194195
vt 0.232823 0.064029
vt 0.298336 0.061787
vt 0.168913 0.132380
vt 0.165160 0.132298
vt 0.354039 0.191714
vt 0.307654 0.192425
vt 0.165962 0.066027
vt 0.229117 0.064335
vt 0.240400 0.194557
vt 0.237205 0.130948
vt 0.233453 0.130900
vt 0.236631 0.194541
vt 0.115836 0.066918
vt 0.162415 0.066271
vt 0.115744 0.064426
vt 0.301366 0.130472
vt 0.304097 0.192662
vt 0.168688 0.128632
vt 0.301468 0.126733
vt 0.236998 0.127180
vt 0.164943 0.128576
vt 0.233239 0.127141
vt 0.112641 0.272561
vt 0.140077 0.273485
vt 0.464640 0.622209
vt 0.464640 0.758571
vt 0.462333 0.758571
vt 0.462333 0.622209
vt 0.546269 0.622209
vt 0.546269 0.758571
vt 0.543962 0.758571
vt 0.543962 0.622209
vt 0.627898 0.622209
vt 0.627898 0.758571
vt 0.625591 0.758571
vt 0.625591 0.622209
vt 0.115499 0.203456
vt 0.115830 0.206226
vt 0.114668 0.132477
vt 0.114890 0.135153
vt 0.158645 0.273896
vt 0.156142 0.274308
vt 0.227762 0.268373
vt 0.225083 0.268678
vt 0.298633 0.265028
vt 0.295920 0.265240
vt 0.311852 0.501417
vt 0.283794 0.757934
vt 0.283794 0.621572
vt 0.286101 0.621572
vt 0.286101 0.757934
vt 0.202165 0.757934
vt 0.202165 0.621572
vt 0.204472 0.621572
vt 0.204472 0.757934
vt 0.120537 0.757934
vt 0.120537 0.621572
vt 0.122843 0.621572
vt 0.122843 0.757934
vt 0.114678 0.817701
vt 0.114678 0.954062
vt 0.112371 0.954062
vt 0.112371 0.817701
vt 0.196307 0.817701
vt 0.196307 0.954062
vt 0.194000 0.954062
vt 0.194000 0.817701
vt 0.277936 0.817701
vt 0.277936 0.954062
vt 0.275629 0.954062
vt 0.275629 0.817701
vn 0.0000 -1.0000 0.0000
vn 0.0000 0.0000 -1.0000
vn 0.0000 0.0000 1.0000
vn 1.0000 0.0000 0.0000
vn 0.0000 1.0000 0.0000
vn -1.0000 0.0000 0.0000
usemtl None
s off
f 53/1/1 158/2/1 168/3/1 56/4/1
f 78/5/2 83/6/2 86/7/2 75/8/2
f 148/9/1 65/10/1 64/11/1 162/12/1
f 90/13/3 95/14/3 98/15/3 87/16/3
f 65/17/4 71/18/4 74/19/4 64/20/4
f 112/21/5 59/22/5 58/23/5 126/24/5
f 159/25/1 63/26/1 5/27/1 91/28/1
f 82/29/5 4/30/5 62/31/5 99/32/5
f 100/33/5 61/34/5 60/35/5 111/36/5
f 8/37/5 85/38/5 107/39/5 70/40/5
f 7/41/4 8/42/4 70/43/4 68/44/4
f 67/45/4 69/46/4 72/47/4 66/48/4
f 76/49/1 7/50/1 68/51/1 135/52/1
f 136/53/1 67/54/1 66/55/1 147/56/1
f 63/57/4 73/58/4 6/59/4 5/60/4
f 123/61/5 57/62/5 2/63/5 97/64/5
f 55/65/1 167/66/1 88/67/1 1/68/1
f 51/69/1 146/70/1 155/71/1 54/72/1
f 56/73/6 58/74/6 59/75/6 53/76/6
f 49/77/5 48/78/5 47/79/5 50/80/5
f 157/81/1 153/82/1 165/83/1 169/84/1
f 52/85/6 62/86/6 4/87/6 3/88/6
f 152/89/1 149/90/1 161/91/1 166/92/1
f 145/93/1 141/94/1 154/95/1 156/96/1
f 54/97/6 60/98/6 61/99/6 51/100/6
f 3/101/2 4/102/2 82/103/2 79/104/2
f 80/105/2 81/106/2 84/107/2 77/108/2
f 73/109/5 131/110/5 94/111/5 6/112/5
f 140/113/1 137/114/1 150/115/1 151/116/1
f 121/117/5 117/118/5 129/119/5 133/120/5
f 71/121/5 122/122/5 132/123/5 74/124/5
f 116/125/5 113/126/5 125/127/5 130/128/5
f 109/129/5 105/130/5 118/131/5 120/132/5
f 69/133/5 110/134/5 119/135/5 72/136/5
f 88/137/3 97/138/3 2/139/3 1/140/3
f 86/141/5 83/142/5 106/143/5 108/144/5
f 76/145/2 85/146/2 8/42/2 7/41/2
f 127/147/5 124/148/5 98/149/5 95/150/5
f 104/151/5 101/152/5 114/153/5 115/154/5
f 1/155/6 2/156/6 57/157/6 55/158/6
f 92/159/3 93/160/3 96/161/3 89/162/3
f 5/163/3 6/164/3 94/165/3 91/166/3
f 134/167/5 128/168/5 96/169/5 93/170/5
f 163/171/1 160/172/1 92/173/1 89/174/1
f 170/175/1 164/176/1 90/177/1 87/178/1
f 84/179/5 81/180/5 102/181/5 103/182/5
f 80/183/1 77/184/1 142/185/1 144/186/1
f 78/187/1 75/188/1 138/189/1 139/190/1
f 159/25/6 91/28/6 247/191/6 190/192/6
f 64/20/4 74/19/4 206/193/4 218/194/4
f 161/91/4 149/90/4 180/195/4 192/196/4
f 90/177/4 164/176/4 195/197/4 246/198/4
f 148/9/6 162/12/6 189/199/6 179/200/6
f 73/58/3 63/57/3 217/201/3 205/202/3
f 165/83/4 153/82/4 184/203/4 196/204/4
f 163/171/6 89/174/6 245/205/6 194/206/6
f 66/48/4 72/47/4 204/207/4 216/208/4
f 152/89/6 166/92/6 193/209/6 183/210/6
f 88/67/4 167/66/4 198/211/4 244/212/4
f 168/3/4 158/2/4 185/213/4 199/214/4
f 71/18/6 65/17/6 215/215/6 203/216/6
f 157/81/6 169/84/6 200/217/6 188/218/6
f 170/175/6 87/178/6 243/219/6 197/220/6
f 68/44/3 70/43/3 202/221/3 214/222/3
f 169/84/3 165/83/3 196/204/3 200/217/3
f 98/149/6 124/148/6 24/223/6 242/224/6
f 164/176/2 170/175/2 197/220/2 195/197/2
f 69/46/3 67/45/3 213/225/3 201/226/3
f 166/92/3 161/91/3 192/196/3 193/209/3
f 123/61/4 97/64/4 241/227/4 25/228/4
f 56/4/3 168/3/3 199/214/3 212/229/3
f 160/172/2 163/171/2 194/206/2 191/230/2
f 96/169/6 128/168/6 20/231/6 240/232/6
f 162/12/3 64/11/3 218/233/3 189/199/3
f 167/66/2 55/65/2 211/234/2 198/211/2
f 63/26/2 159/25/2 190/192/2 217/235/2
f 127/147/4 95/150/4 239/236/4 21/237/4
f 54/72/3 155/71/3 186/238/3 210/239/3
f 156/96/3 154/95/3 181/240/3 187/241/3
f 94/111/6 131/110/6 17/242/6 238/243/6
f 153/82/2 157/81/2 188/218/2 184/203/2
f 158/2/2 53/1/2 209/244/2 185/213/2
f 151/116/3 150/115/3 177/245/3 182/246/3
f 134/167/4 93/170/4 237/247/4 18/248/4
f 52/249/3 143/250/3 174/251/3 208/252/3
f 149/90/2 152/89/2 183/210/2 180/195/2
f 102/181/6 81/180/6 235/253/6 50/80/6
f 147/56/3 66/55/3 216/254/3 178/255/3
f 82/29/4 99/32/4 49/77/4 236/256/4
f 146/70/2 51/69/2 207/257/2 173/258/2
f 65/10/2 148/9/2 179/200/2 215/259/2
f 74/124/3 132/123/3 16/260/3 206/261/3
f 144/186/3 142/185/3 10/262/3 175/263/3
f 106/143/6 83/142/6 233/264/6 46/265/6
f 141/94/2 145/93/2 176/266/2 172/267/2
f 84/179/4 103/182/4 45/268/4 234/269/4
f 131/110/2 73/109/2 205/270/2 17/242/2
f 139/190/3 138/189/3 14/271/3 9/272/3
f 72/136/3 119/135/3 29/273/3 204/274/3
f 137/114/2 140/113/2 171/275/2 11/276/2
f 107/39/6 85/38/6 231/277/6 41/278/6
f 135/52/3 68/51/3 214/279/3 13/280/3
f 86/141/4 108/144/4 40/281/4 232/282/4
f 122/122/2 71/121/2 203/283/2 30/284/2
f 67/54/2 136/53/2 12/285/2 213/286/2
f 70/40/3 107/39/3 41/278/3 202/287/3
f 133/120/3 129/119/3 19/288/3 15/289/3
f 114/153/6 101/152/6 47/79/6 38/290/6
f 128/168/2 134/167/2 18/248/2 20/231/2
f 100/33/4 111/36/4 37/291/4 48/78/4
f 110/134/2 69/133/2 201/292/2 42/293/2
f 130/128/3 125/127/3 23/294/3 22/295/3
f 118/131/6 105/130/6 43/296/6 34/297/6
f 124/148/2 127/147/2 21/237/2 24/223/2
f 104/151/4 115/154/4 33/298/4 44/299/4
f 126/24/3 58/23/3 220/300/3 26/301/3
f 119/135/6 110/134/6 42/293/6 29/273/6
f 57/62/2 123/61/2 25/228/2 219/302/2
f 109/129/4 120/132/4 28/303/4 39/304/4
f 120/132/3 118/131/3 34/297/3 28/303/3
f 125/127/6 113/126/6 35/305/6 23/294/6
f 117/118/2 121/117/2 27/306/2 31/307/2
f 112/21/4 126/24/4 26/301/4 36/308/4
f 115/154/3 114/153/3 38/290/3 33/298/3
f 129/119/6 117/118/6 31/307/6 19/288/6
f 113/126/2 116/125/2 32/309/2 35/305/2
f 3/310/1 79/311/1 143/250/1 52/249/1
f 45/268/5 44/299/5 43/296/5 46/265/5
f 41/278/5 40/281/5 39/304/5 42/293/5
f 37/291/5 36/308/5 35/305/5 38/290/5
f 33/298/5 32/309/5 31/307/5 34/297/5
f 29/273/5 28/303/5 27/306/5 30/284/5
f 25/228/5 24/223/5 23/294/5 26/301/5
f 21/237/5 20/231/5 19/288/5 22/295/5
f 17/242/5 16/260/5 15/289/5 18/248/5
f 13/280/1 12/285/1 11/276/1 14/271/1
f 9/272/1 171/275/1 172/267/1 10/262/1
f 174/251/1 175/263/1 176/266/1 173/258/1
f 178/255/1 179/200/1 180/195/1 177/245/1
f 182/246/1 183/210/1 184/203/1 181/240/1
f 186/238/1 187/241/1 188/218/1 185/213/1
f 190/192/1 191/230/1 192/196/1 189/199/1
f 194/206/1 195/197/1 196/204/1 193/209/1
f 198/211/1 199/214/1 200/217/1 197/220/1
f 42/293/5 201/292/5 202/287/5 41/278/5
f 30/284/5 203/283/5 204/274/5 29/273/5
f 17/242/5 205/270/5 206/261/5 16/260/5
f 173/258/1 207/257/1 208/252/1 174/251/1
f 185/213/1 209/244/1 210/239/1 186/238/1
f 198/211/1 211/234/1 212/229/1 199/214/1
f 201/226/4 213/225/4 214/222/4 202/221/4
f 203/216/4 215/215/4 216/208/4 204/207/4
f 205/202/4 217/201/4 218/194/4 206/193/4
f 220/312/6 212/313/6 211/314/6 219/315/6
f 222/316/6 210/317/6 209/318/6 221/319/6
f 224/320/6 208/321/6 207/322/6 223/323/6
f 223/324/5 48/78/5 49/77/5 224/325/5
f 47/79/5 44/299/5 45/268/5 50/80/5
f 43/296/5 39/304/5 40/281/5 46/265/5
f 221/326/5 36/308/5 37/291/5 222/327/5
f 35/305/5 32/309/5 33/298/5 38/290/5
f 31/307/5 27/306/5 28/303/5 34/297/5
f 219/302/5 25/228/5 26/301/5 220/300/5
f 24/223/5 21/237/5 22/295/5 23/294/5
f 20/231/5 18/248/5 15/289/5 19/288/5
f 213/286/1 12/285/1 13/280/1 214/279/1
f 11/276/1 171/275/1 9/272/1 14/271/1
f 172/267/1 176/266/1 175/263/1 10/262/1
f 215/259/1 179/200/1 178/255/1 216/254/1
f 180/195/1 183/210/1 182/246/1 177/245/1
f 184/203/1 188/218/1 187/241/1 181/240/1
f 217/235/1 190/192/1 189/199/1 218/233/1
f 191/230/1 194/206/1 193/209/1 192/196/1
f 195/197/1 197/220/1 200/217/1 196/204/1
f 188/218/1 200/217/1 199/214/1 185/213/1
f 183/210/1 193/209/1 196/204/1 184/203/1
f 179/200/1 189/199/1 192/196/1 180/195/1
f 176/266/1 187/241/1 186/238/1 173/258/1
f 171/275/1 182/246/1 181/240/1 172/267/1
f 12/285/1 178/255/1 177/245/1 11/276/1
f 226/328/1 175/263/1 174/251/1 225/329/1
f 228/330/1 9/272/1 10/262/1 227/331/1
f 230/332/1 13/280/1 14/271/1 229/333/1
f 27/306/5 15/289/5 16/260/5 30/284/5
f 32/309/5 22/295/5 19/288/5 31/307/5
f 36/308/5 26/301/5 23/294/5 35/305/5
f 39/304/5 28/303/5 29/273/5 42/293/5
f 44/299/5 33/298/5 34/297/5 43/296/5
f 48/78/5 37/291/5 38/290/5 47/79/5
f 232/282/5 40/281/5 41/278/5 231/277/5
f 234/269/5 45/268/5 46/265/5 233/264/5
f 236/256/5 49/77/5 50/80/5 235/253/5
f 18/248/5 237/247/5 238/243/5 17/242/5
f 21/237/5 239/236/5 240/232/5 20/231/5
f 25/228/5 241/227/5 242/224/5 24/223/5
f 197/220/1 243/219/1 244/212/1 198/211/1
f 194/206/1 245/205/1 246/198/1 195/197/1
f 190/192/1 247/191/1 248/334/1 191/230/1
f 237/335/3 248/336/3 247/337/3 238/338/3
f 239/339/3 246/340/3 245/341/3 240/342/3
f 241/343/3 244/344/3 243/345/3 242/346/3
f 235/347/2 226/348/2 225/349/2 236/350/2
f 233/351/2 228/352/2 227/353/2 234/354/2
f 231/355/2 230/356/2 229/357/2 232/358/2
f 145/93/6 156/96/6 187/241/6 176/266/6
f 155/71/4 146/70/4 173/258/4 186/238/4
f 58/74/6 56/73/6 212/313/6 220/312/6
f 92/173/4 160/172/4 191/230/4 248/334/4
f 140/113/6 151/116/6 182/246/6 171/275/6
f 55/158/3 57/157/3 219/315/3 211/314/3
f 93/160/3 92/159/3 248/336/3 237/335/3
f 154/95/4 141/94/4 172/267/4 181/240/4
f 91/166/3 94/165/3 238/338/3 247/337/3
f 136/53/6 147/56/6 178/255/6 12/285/6
f 60/98/6 54/97/6 210/317/6 222/316/6
f 95/14/3 90/13/3 246/340/3 239/339/3
f 150/115/4 137/114/4 11/276/4 177/245/4
f 53/76/4 59/75/4 221/319/4 209/318/4
f 89/162/3 96/161/3 240/342/3 245/341/3
f 97/138/3 88/137/3 244/344/3 241/343/3
f 80/183/6 144/186/6 175/263/6 226/328/6
f 62/86/3 52/85/3 208/321/3 224/320/3
f 87/16/3 98/15/3 242/346/3 243/345/3
f 143/250/4 79/311/4 225/329/4 174/251/4
f 51/100/3 61/99/3 223/323/3 207/322/3
f 81/106/3 80/105/3 226/348/3 235/347/3
f 61/34/2 100/33/2 48/78/2 223/324/2
f 79/104/3 82/103/3 236/350/3 225/349/3
f 78/187/6 139/190/6 9/272/6 228/330/6
f 99/32/3 62/31/3 224/325/3 49/77/3
f 83/6/3 78/5/3 228/352/3 233/351/3
f 142/185/4 77/184/4 227/331/4 10/262/4
f 101/152/2 104/151/2 44/299/2 47/79/2
f 77/108/3 84/107/3 234/354/3 227/353/3
f 103/182/3 102/181/3 50/80/3 45/268/3
f 85/146/3 76/145/3 230/356/3 231/355/3
f 76/49/6 135/52/6 13/280/6 230/332/6
f 105/130/2 109/129/2 39/304/2 43/296/2
f 75/8/3 86/7/3 232/358/3 229/357/3
f 138/189/4 75/188/4 229/333/4 14/271/4
f 108/144/3 106/143/3 46/265/3 40/281/3
f 121/117/4 133/120/4 15/289/4 27/306/4
f 59/22/2 112/21/2 36/308/2 221/326/2
f 132/123/6 122/122/6 30/284/6 16/260/6
f 111/36/3 60/35/3 222/327/3 37/291/3
f 116/125/4 130/128/4 22/295/4 32/309/4
