# Blender v2.79 (sub 0) OBJ File: 'scalingscene_2.blend'
# www.blender.org
mtllib grate.mtl
o sewergrate_Cylinder.015
v -0.333282 0.254021 -4.066552
v 0.333282 0.254021 -4.066552
v 0.804613 0.254021 -3.595221
v 0.804613 0.254021 -2.928657
v 0.333282 0.254021 -2.457326
v -0.333282 0.254021 -2.457326
v -0.804613 0.254021 -2.928657
v -0.804613 0.254021 -3.595220
v -0.382683 0.054021 -4.185818
v 0.382683 0.054021 -4.185818
v 0.382683 0.254021 -4.185818
v -0.382683 0.254021 -4.185818
v 0.923879 0.054021 -3.644622
v 0.923879 0.254021 -3.644622
v 0.923880 0.054021 -2.879256
v 0.923880 0.254021 -2.879256
v 0.382683 0.054021 -2.338059
v 0.382683 0.254021 -2.338059
v -0.382684 0.054021 -2.338059
v -0.382684 0.254021 -2.338059
v -0.923880 0.054021 -2.879255
v -0.923880 0.254021 -2.879255
v -0.923880 0.054021 -3.644622
v -0.923880 0.254021 -3.644622
v 0.333282 0.179146 -4.066552
v -0.333282 0.179146 -4.066552
v 0.804613 0.179146 -3.595221
v 0.804613 0.179146 -2.928657
v 0.333282 0.179146 -2.457326
v -0.333282 0.179146 -2.457326
v -0.804613 0.179146 -2.928657
v -0.804613 0.179146 -3.595220
vn 0.0000 0.0000 -1.0000
vn 0.7071 0.0000 -0.7071
vn 1.0000 0.0000 -0.0000
vn 0.7071 0.0000 0.7071
vn 0.0000 0.0000 1.0000
vn -0.7071 0.0000 0.7071
vn -1.0000 0.0000 0.0000
vn -0.7071 0.0000 -0.7071
vn 0.0000 1.0000 0.0000
usemtl None
s off
f 9//1 12//1 11//1 10//1
f 10//2 11//2 14//2 13//2
f 13//3 14//3 16//3 15//3
f 15//4 16//4 18//4 17//4
f 17//5 18//5 20//5 19//5
f 19//6 20//6 22//6 21//6
f 21//7 22//7 24//7 23//7
f 23//8 24//8 12//8 9//8
f 7//2 6//2 30//2 31//2
f 1//9 2//9 11//9 12//9
f 2//9 3//9 14//9 11//9
f 3//9 4//9 16//9 14//9
f 4//9 5//9 18//9 16//9
f 5//9 6//9 20//9 18//9
f 6//9 7//9 22//9 20//9
f 7//9 8//9 24//9 22//9
f 8//9 1//9 12//9 24//9
f 25//9 26//9 32//9 31//9 30//9 29//9 28//9 27//9
f 4//7 3//7 27//7 28//7
f 8//3 7//3 31//3 32//3
f 5//8 4//8 28//8 29//8
f 1//4 8//4 32//4 26//4
f 2//5 1//5 26//5 25//5
f 6//1 5//1 29//1 30//1
f 3//6 2//6 25//6 27//6
