# Blender v2.79 (sub 0) OBJ File: 'scalingscene_2.blend'
# www.blender.org
mtllib lightpost.mtl
o pole_Cylinder.001
v -2.852473 -0.033824 -0.065502
v -2.852473 3.231020 -0.048098
v -2.806157 -0.033824 -0.046317
v -2.818463 3.231020 -0.034010
v -2.786972 -0.033824 0.000000
v -2.804375 3.231020 0.000000
v -2.806157 -0.033824 0.046317
v -2.818463 3.231020 0.034010
v -2.852473 -0.033824 0.065502
v -2.852473 3.231020 0.048098
v -2.898790 -0.033824 0.046317
v -2.886483 3.231020 0.034010
v -2.917975 -0.033824 -0.000000
v -2.900571 3.231020 -0.000000
v -2.898790 -0.033824 -0.046317
v -2.886483 3.231020 -0.034010
v -2.852473 2.104349 -0.065502
v -2.852473 2.061779 -0.065502
v -2.852473 2.218776 -0.082738
v -2.852473 2.187093 -0.065502
v -2.852473 2.354977 -0.065502
v -2.852473 2.323294 -0.082738
v -2.852473 2.469686 -0.082290
v -2.852473 2.437721 -0.065502
v -2.852473 2.605604 -0.065502
v -2.852473 2.573638 -0.082290
v -2.852473 2.721108 -0.081033
v -2.852473 2.688348 -0.065502
v -2.852473 2.856232 -0.065502
v -2.852473 2.823472 -0.081033
v -2.852473 2.971694 -0.081098
v -2.852473 2.938976 -0.065502
v -2.852473 3.106860 -0.065502
v -2.852473 3.074141 -0.081098
v -2.795129 3.074141 -0.057345
v -2.806157 3.106860 -0.046317
v -2.806157 2.938976 -0.046317
v -2.795129 2.971695 -0.057345
v -2.795174 2.823472 -0.057299
v -2.806157 2.856232 -0.046317
v -2.806157 2.688349 -0.046317
v -2.795174 2.721108 -0.057299
v -2.794286 2.573638 -0.058188
v -2.806157 2.605604 -0.046317
v -2.806157 2.437721 -0.046317
v -2.794286 2.469686 -0.058188
v -2.793968 2.323295 -0.058505
v -2.806157 2.354977 -0.046317
v -2.806157 2.187093 -0.046317
v -2.793968 2.218776 -0.058505
v -2.806157 2.061779 -0.046317
v -2.806157 2.104349 -0.046317
v -2.771375 3.074141 0.000000
v -2.786972 3.106860 0.000000
v -2.786972 2.938976 0.000000
v -2.771375 2.971695 0.000000
v -2.771440 2.823472 0.000000
v -2.786972 2.856232 0.000000
v -2.786972 2.688349 0.000000
v -2.771440 2.721108 0.000000
v -2.770183 2.573638 0.000000
v -2.786972 2.605604 0.000000
v -2.786972 2.437721 0.000000
v -2.770183 2.469686 0.000000
v -2.769735 2.323295 0.000000
v -2.786972 2.354977 0.000000
v -2.786972 2.187093 0.000000
v -2.769735 2.218776 0.000000
v -2.786972 2.061779 0.000000
v -2.786972 2.104349 0.000000
v -2.795129 3.074141 0.057345
v -2.806157 3.106860 0.046317
v -2.806157 2.938976 0.046317
v -2.795129 2.971695 0.057345
v -2.795174 2.823472 0.057299
v -2.806157 2.856232 0.046317
v -2.806157 2.688349 0.046317
v -2.795174 2.721108 0.057299
v -2.794286 2.573638 0.058188
v -2.806157 2.605604 0.046317
v -2.806157 2.437721 0.046317
v -2.794286 2.469686 0.058188
v -2.793968 2.323295 0.058505
v -2.806157 2.354977 0.046317
v -2.806157 2.187093 0.046317
v -2.793968 2.218776 0.058505
v -2.806157 2.061779 0.046317
v -2.806157 2.104349 0.046317
v -2.852473 3.074141 0.081098
v -2.852473 3.106860 0.065502
v -2.852473 2.938976 0.065502
v -2.852473 2.971695 0.081098
v -2.852473 2.823472 0.081033
v -2.852473 2.856232 0.065502
v -2.852473 2.688349 0.065502
v -2.852473 2.721108 0.081033
v -2.852473 2.573638 0.082290
v -2.852473 2.605604 0.065502
v -2.852473 2.437721 0.065502
v -2.852473 2.469686 0.082290
v -2.852473 2.323295 0.082738
v -2.852473 2.354977 0.065502
v -2.852473 2.187093 0.065502
v -2.852473 2.218776 0.082738
v -2.852473 2.061779 0.065502
v -2.852473 2.104349 0.065502
v -2.909818 3.074141 0.057345
v -2.898790 3.106860 0.046317
v -2.898790 2.938976 0.046317
v -2.909818 2.971695 0.057345
v -2.909772 2.823472 0.057299
v -2.898790 2.856232 0.046317
v -2.898790 2.688349 0.046317
v -2.909772 2.721108 0.057299
v -2.910661 2.573638 0.058188
v -2.898790 2.605604 0.046317
v -2.898790 2.437721 0.046317
v -2.910661 2.469686 0.058188
v -2.910978 2.323295 0.058505
v -2.898790 2.354977 0.046317
v -2.898790 2.187093 0.046317
v -2.910978 2.218776 0.058505
v -2.898790 2.061779 0.046317
v -2.898790 2.104349 0.046317
v -2.933571 3.074141 -0.000000
v -2.917975 3.106860 -0.000000
v -2.917975 2.938976 -0.000000
v -2.933571 2.971695 -0.000000
v -2.933506 2.823472 -0.000000
v -2.917975 2.856232 -0.000000
v -2.917975 2.688349 -0.000000
v -2.933506 2.721108 -0.000000
v -2.934763 2.573638 -0.000000
v -2.917975 2.605604 -0.000000
v -2.917975 2.437721 -0.000000
v -2.934763 2.469686 -0.000000
v -2.935212 2.323295 -0.000000
v -2.917975 2.354977 -0.000000
v -2.917975 2.187093 -0.000000
v -2.935212 2.218776 -0.000000
v -2.917975 2.061779 -0.000000
v -2.917975 2.104349 -0.000000
v -2.909818 3.074141 -0.057345
v -2.898790 3.106860 -0.046317
v -2.898790 2.938976 -0.046317
v -2.909818 2.971695 -0.057345
v -2.909772 2.823472 -0.057299
v -2.898790 2.856232 -0.046317
v -2.898790 2.688349 -0.046317
v -2.909772 2.721108 -0.057299
v -2.910661 2.573638 -0.058188
v -2.898790 2.605604 -0.046317
v -2.898790 2.437721 -0.046317
v -2.910661 2.469686 -0.058188
v -2.910978 2.323295 -0.058505
v -2.898790 2.354977 -0.046317
v -2.898790 2.187093 -0.046317
v -2.910978 2.218776 -0.058505
v -2.898790 2.061779 -0.046317
v -2.898790 2.104349 -0.046317
v -2.806157 3.231020 -0.046317
v -2.852473 3.231020 -0.065502
v -2.786972 3.231020 0.000000
v -2.806157 3.231020 0.046317
v -2.852473 3.231020 0.065502
v -2.898790 3.231020 0.046317
v -2.917975 3.231020 -0.000000
v -2.898790 3.231020 -0.046317
v -2.818463 3.271928 -0.034010
v -2.852473 3.271928 -0.048098
v -2.804375 3.271928 0.000000
v -2.818463 3.271928 0.034010
v -2.852473 3.271928 0.048098
v -2.886483 3.271928 0.034010
v -2.900571 3.271928 -0.000000
v -2.886483 3.271928 -0.034010
v -2.807653 3.313246 -0.044820
v -2.852473 3.313246 -0.063385
v -2.789088 3.313246 0.000000
v -2.807653 3.313246 0.044820
v -2.852473 3.313246 0.063385
v -2.897293 3.313246 0.044820
v -2.915858 3.313246 -0.000000
v -2.897293 3.313246 -0.044820
v -2.793190 3.313246 -0.059283
v -2.852473 3.313246 -0.083839
v -2.768634 3.313246 0.000000
v -2.793190 3.313246 0.059283
v -2.852473 3.313246 0.083839
v -2.911757 3.313246 0.059283
v -2.936312 3.313246 -0.000000
v -2.911757 3.313246 -0.059283
v -2.753169 3.384978 -0.099304
v -2.852473 3.384978 -0.140437
v -2.712036 3.384978 0.000000
v -2.753169 3.384978 0.099304
v -2.852473 3.384978 0.140437
v -2.951777 3.384978 0.099304
v -2.992910 3.384978 -0.000000
v -2.951777 3.384978 -0.099304
v -2.777396 3.384978 -0.075077
v -2.852473 3.384978 -0.106175
v -2.746299 3.384978 0.000000
v -2.777396 3.384978 0.075077
v -2.852473 3.384978 0.106175
v -2.927550 3.384978 0.075077
v -2.958648 3.384978 -0.000000
v -2.927550 3.384978 -0.075077
vt 0.426048 0.877408
vt 0.426048 0.910593
vt 0.411768 0.910593
vt 0.411768 0.877408
vt 0.426048 0.840339
vt 0.426048 0.867720
vt 0.411768 0.867720
vt 0.411768 0.840339
vt 0.397489 0.867720
vt 0.397489 0.840339
vt 0.383210 0.867720
vt 0.383210 0.840339
vt 0.497444 0.840339
vt 0.497444 0.867720
vt 0.483165 0.867720
vt 0.483165 0.840339
vt 0.468886 0.867720
vt 0.468886 0.840339
vt 0.440327 0.915244
vt 0.454606 0.915244
vt 0.454606 0.926178
vt 0.440327 0.926178
vt 0.454606 0.867720
vt 0.454606 0.840339
vt 0.440327 0.877408
vt 0.440327 0.910593
vt 0.160378 0.086926
vt 0.174526 0.086926
vt 0.184530 0.096930
vt 0.184530 0.111078
vt 0.174526 0.121082
vt 0.160378 0.121082
vt 0.150374 0.111078
vt 0.150374 0.096930
vt 0.440327 0.601151
vt 0.440327 0.623266
vt 0.426048 0.623266
vt 0.426048 0.601151
vt 0.440327 0.632906
vt 0.440327 0.660841
vt 0.426048 0.660841
vt 0.426048 0.632906
vt 0.440327 0.670481
vt 0.440327 0.692597
vt 0.426048 0.692597
vt 0.426048 0.670481
vt 0.440327 0.702247
vt 0.440327 0.730031
vt 0.426048 0.730031
vt 0.426048 0.702247
vt 0.440327 0.739681
vt 0.440327 0.761797
vt 0.426048 0.761797
vt 0.426048 0.739681
vt 0.440327 0.771487
vt 0.440327 0.798846
vt 0.426048 0.798846
vt 0.426048 0.771487
vt 0.440327 0.808536
vt 0.440327 0.830652
vt 0.426048 0.830652
vt 0.426048 0.808536
vt 0.440327 0.840339
vt 0.440327 0.867720
vt 0.454606 0.877408
vt 0.454606 0.910593
vt 0.468886 0.029669
vt 0.468886 0.589773
vt 0.454606 0.589773
vt 0.454606 0.029669
vt 0.468886 0.601151
vt 0.468886 0.623266
vt 0.454606 0.623266
vt 0.454606 0.601151
vt 0.468886 0.632906
vt 0.468886 0.660841
vt 0.454606 0.660841
vt 0.454606 0.632906
vt 0.468886 0.670481
vt 0.468886 0.692597
vt 0.454606 0.692597
vt 0.454606 0.670481
vt 0.468886 0.702247
vt 0.468886 0.730031
vt 0.454606 0.730031
vt 0.454606 0.702247
vt 0.468886 0.739681
vt 0.468886 0.761797
vt 0.454606 0.761797
vt 0.454606 0.739681
vt 0.468886 0.771487
vt 0.468886 0.798846
vt 0.454606 0.798846
vt 0.454606 0.771487
vt 0.468886 0.808536
vt 0.468886 0.830652
vt 0.454606 0.830652
vt 0.454606 0.808536
vt 0.468886 0.877408
vt 0.468886 0.910593
vt 0.483165 0.029669
vt 0.483165 0.589773
vt 0.483165 0.601151
vt 0.483165 0.623266
vt 0.483165 0.632906
vt 0.483165 0.660841
vt 0.483165 0.670481
vt 0.483165 0.692597
vt 0.483165 0.702247
vt 0.483165 0.730031
vt 0.483165 0.739681
vt 0.483165 0.761797
vt 0.483165 0.771487
vt 0.483165 0.798846
vt 0.483165 0.808536
vt 0.483165 0.830652
vt 0.483165 0.877408
vt 0.483165 0.910593
vt 0.497444 0.029669
vt 0.497444 0.589773
vt 0.497444 0.601151
vt 0.497444 0.623266
vt 0.497444 0.632906
vt 0.497444 0.660841
vt 0.497444 0.670481
vt 0.497444 0.692597
vt 0.497444 0.702247
vt 0.497444 0.730031
vt 0.497444 0.739681
vt 0.497444 0.761797
vt 0.497444 0.771487
vt 0.497444 0.798846
vt 0.497444 0.808536
vt 0.497444 0.830652
vt 0.497444 0.877408
vt 0.497444 0.910593
vt 0.397489 0.029669
vt 0.397489 0.589773
vt 0.383210 0.589773
vt 0.383210 0.029669
vt 0.397489 0.601151
vt 0.397489 0.623266
vt 0.383210 0.623266
vt 0.383210 0.601151
vt 0.397489 0.632906
vt 0.397489 0.660841
vt 0.383210 0.660841
vt 0.383210 0.632906
vt 0.397489 0.670481
vt 0.397489 0.692597
vt 0.383210 0.692597
vt 0.383210 0.670481
vt 0.397489 0.702247
vt 0.397489 0.730031
vt 0.383210 0.730031
vt 0.383210 0.702247
vt 0.397489 0.739681
vt 0.397489 0.761797
vt 0.383210 0.761797
vt 0.383210 0.739681
vt 0.397489 0.771487
vt 0.397489 0.798846
vt 0.383210 0.798846
vt 0.383210 0.771487
vt 0.397489 0.808536
vt 0.397489 0.830652
vt 0.383210 0.830652
vt 0.383210 0.808536
vt 0.397489 0.877408
vt 0.397489 0.910593
vt 0.383210 0.910593
vt 0.383210 0.877408
vt 0.411768 0.029669
vt 0.411768 0.589773
vt 0.411768 0.601151
vt 0.411768 0.623266
vt 0.411768 0.632906
vt 0.411768 0.660841
vt 0.411768 0.670481
vt 0.411768 0.692597
vt 0.411768 0.702247
vt 0.411768 0.730031
vt 0.411768 0.739681
vt 0.411768 0.761797
vt 0.411768 0.771487
vt 0.411768 0.798846
vt 0.411768 0.808536
vt 0.411768 0.830652
vt 0.426048 0.029669
vt 0.426048 0.589773
vt 0.440327 0.589773
vt 0.440327 0.029669
vt 0.426048 0.915244
vt 0.411768 0.915244
vt 0.397489 0.915244
vt 0.383210 0.915244
vt 0.497444 0.915244
vt 0.483165 0.915244
vt 0.468886 0.915244
vt 0.483165 0.926178
vt 0.497444 0.926178
vt 0.497444 0.940779
vt 0.483165 0.940779
vt 0.468886 0.926178
vt 0.397489 0.926178
vt 0.383210 0.926178
vt 0.426048 0.926178
vt 0.411768 0.926178
vt 0.197560 0.056137
vt 0.187618 0.055556
vt 0.181245 0.047853
vt 0.182011 0.037596
vt 0.189393 0.030697
vt 0.199322 0.031390
vt 0.205839 0.039076
vt 0.205068 0.049284
vt 0.411768 0.940779
vt 0.397489 0.940779
vt 0.440327 0.940779
vt 0.426048 0.940779
vt 0.454606 0.940779
vt 0.468886 0.940779
vt 0.383210 0.940779
vt 0.180075 0.076526
vt 0.160782 0.057282
vt 0.440327 0.965201
vt 0.426048 0.965201
vt 0.160684 0.029989
vt 0.454606 0.965201
vt 0.179700 0.010581
vt 0.468886 0.965201
vt 0.206911 0.010365
vt 0.483165 0.965201
vt 0.207259 0.076341
vt 0.211458 0.086717
vt 0.175675 0.086824
vt 0.226367 0.056921
vt 0.236684 0.061313
vt 0.226264 0.029586
vt 0.236684 0.025413
vt 0.211297 0.000051
vt 0.175491 0.000220
vt 0.150388 0.025615
vt 0.150374 0.061434
vt 0.411768 0.965201
vt 0.397489 0.965201
vt 0.383210 0.965201
vt 0.497444 0.965201
vn 0.9239 0.0000 -0.3827
vn 0.9239 0.0000 0.3827
vn 0.3827 0.0000 0.9239
vn -0.3827 0.0000 0.9239
vn -0.9239 0.0000 0.3827
vn -0.3827 0.0000 -0.9239
vn -0.9239 0.0000 -0.3827
vn 0.3827 -0.0000 -0.9239
vn 0.0000 -1.0000 0.0000
vn -0.3419 -0.4491 -0.8255
vn -0.3419 0.4491 -0.8255
vn -0.3443 -0.4365 -0.8312
vn -0.3443 0.4365 -0.8312
vn -0.3505 -0.4012 -0.8463
vn -0.3505 0.4012 -0.8463
vn -0.3502 -0.4030 -0.8455
vn -0.3502 0.4030 -0.8455
vn -0.8255 -0.4491 -0.3419
vn -0.8255 0.4491 -0.3419
vn -0.8312 -0.4365 -0.3443
vn -0.8312 0.4365 -0.3443
vn -0.8463 -0.4012 -0.3505
vn -0.8463 0.4012 -0.3505
vn -0.8455 -0.4030 -0.3502
vn -0.8455 0.4030 -0.3502
vn -0.8255 -0.4491 0.3419
vn -0.8255 0.4491 0.3419
vn -0.8312 -0.4365 0.3443
vn -0.8312 0.4365 0.3443
vn -0.8463 -0.4012 0.3505
vn -0.8463 0.4012 0.3505
vn -0.8455 -0.4030 0.3502
vn -0.8455 0.4030 0.3502
vn -0.3419 -0.4491 0.8255
vn -0.3419 0.4491 0.8255
vn -0.3443 -0.4365 0.8312
vn -0.3443 0.4365 0.8312
vn -0.3505 -0.4012 0.8463
vn -0.3505 0.4012 0.8463
vn -0.3502 -0.4030 0.8455
vn -0.3502 0.4030 0.8455
vn 0.3419 -0.4491 0.8255
vn 0.3419 0.4491 0.8255
vn 0.3443 -0.4365 0.8312
vn 0.3443 0.4365 0.8312
vn 0.3505 -0.4012 0.8463
vn 0.3505 0.4012 0.8463
vn 0.3502 -0.4030 0.8455
vn 0.3502 0.4030 0.8455
vn 0.8255 -0.4491 0.3419
vn 0.8255 0.4491 0.3419
vn 0.8312 -0.4365 0.3443
vn 0.8312 0.4365 0.3443
vn 0.8463 -0.4012 0.3505
vn 0.8463 0.4012 0.3505
vn 0.8455 -0.4030 0.3502
vn 0.8455 0.4030 0.3502
vn 0.8255 -0.4491 -0.3419
vn 0.8255 0.4491 -0.3419
vn 0.8312 -0.4366 -0.3443
vn 0.8312 0.4365 -0.3443
vn 0.8463 -0.4012 -0.3505
vn 0.8463 0.4012 -0.3505
vn 0.8455 -0.4030 -0.3502
vn 0.8455 0.4030 -0.3502
vn 0.3419 -0.4491 -0.8255
vn 0.3419 0.4491 -0.8255
vn 0.3443 -0.4365 -0.8312
vn 0.3443 0.4365 -0.8312
vn 0.3505 -0.4012 -0.8463
vn 0.3505 0.4012 -0.8463
vn 0.3502 -0.4030 -0.8455
vn 0.3502 0.4030 -0.8455
vn 0.0000 1.0000 0.0000
vn -0.2989 -0.6243 0.7217
vn 0.7217 -0.6243 0.2989
vn 0.2989 -0.6243 -0.7217
vn -0.2989 -0.6243 -0.7217
vn -0.7217 -0.6243 0.2989
vn 0.2989 -0.6243 0.7217
vn 0.7217 -0.6243 -0.2989
vn -0.7217 -0.6243 -0.2989
vn 0.3352 0.4827 0.8091
vn 0.3092 -0.5891 -0.7466
vn 0.8091 0.4827 0.3352
vn -0.3092 -0.5891 -0.7466
vn 0.8091 0.4827 -0.3352
vn -0.7466 -0.5891 -0.3092
vn 0.3352 0.4827 -0.8091
vn -0.7466 -0.5891 0.3092
vn 0.7466 -0.5891 -0.3092
vn -0.3352 0.4827 0.8091
vn 0.7466 -0.5891 0.3092
vn -0.8091 0.4827 0.3352
vn 0.3092 -0.5891 0.7466
vn -0.8091 0.4827 -0.3352
vn -0.3092 -0.5891 0.7466
vn -0.3352 0.4827 -0.8091
usemtl None
s off
f 36/1/1 161/2/1 163/3/1 54/4/1
f 38/5/1 35/6/1 53/7/1 56/8/1
f 56/8/2 53/7/2 71/9/2 74/10/2
f 74/10/3 71/9/3 89/11/3 92/12/3
f 92/13/4 89/14/4 107/15/4 110/16/4
f 110/16/5 107/15/5 125/17/5 128/18/5
f 2/19/6 16/20/6 176/21/6 170/22/6
f 128/18/7 125/17/7 143/23/7 146/24/7
f 33/25/8 162/26/8 161/2/8 36/1/8
f 1/27/9 3/28/9 5/29/9 7/30/9 9/31/9 11/32/9 13/33/9 15/34/9
f 17/35/8 20/36/8 49/37/8 52/38/8
f 19/39/8 22/40/8 47/41/8 50/42/8
f 21/43/8 24/44/8 45/45/8 48/46/8
f 23/47/8 26/48/8 43/49/8 46/50/8
f 25/51/8 28/52/8 41/53/8 44/54/8
f 27/55/8 30/56/8 39/57/8 42/58/8
f 29/59/8 32/60/8 37/61/8 40/62/8
f 31/63/8 34/64/8 35/6/8 38/5/8
f 144/65/6 168/66/6 162/26/6 33/25/6
f 13/67/7 141/68/7 159/69/7 15/70/7
f 142/71/7 139/72/7 157/73/7 160/74/7
f 140/75/7 137/76/7 155/77/7 158/78/7
f 138/79/7 135/80/7 153/81/7 156/82/7
f 136/83/7 133/84/7 151/85/7 154/86/7
f 134/87/7 131/88/7 149/89/7 152/90/7
f 132/91/7 129/92/7 147/93/7 150/94/7
f 130/95/7 127/96/7 145/97/7 148/98/7
f 126/99/7 167/100/7 168/66/7 144/65/7
f 11/101/5 123/102/5 141/68/5 13/67/5
f 124/103/5 121/104/5 139/72/5 142/71/5
f 122/105/5 119/106/5 137/76/5 140/75/5
f 120/107/5 117/108/5 135/80/5 138/79/5
f 118/109/5 115/110/5 133/84/5 136/83/5
f 116/111/5 113/112/5 131/88/5 134/87/5
f 114/113/5 111/114/5 129/92/5 132/91/5
f 112/115/5 109/116/5 127/96/5 130/95/5
f 108/117/5 166/118/5 167/100/5 126/99/5
f 9/119/4 105/120/4 123/102/4 11/101/4
f 106/121/4 103/122/4 121/104/4 124/103/4
f 104/123/4 101/124/4 119/106/4 122/105/4
f 102/125/4 99/126/4 117/108/4 120/107/4
f 100/127/4 97/128/4 115/110/4 118/109/4
f 98/129/4 95/130/4 113/112/4 116/111/4
f 96/131/4 93/132/4 111/114/4 114/113/4
f 94/133/4 91/134/4 109/116/4 112/115/4
f 90/135/4 165/136/4 166/118/4 108/117/4
f 7/137/3 87/138/3 105/139/3 9/140/3
f 88/141/3 85/142/3 103/143/3 106/144/3
f 86/145/3 83/146/3 101/147/3 104/148/3
f 84/149/3 81/150/3 99/151/3 102/152/3
f 82/153/3 79/154/3 97/155/3 100/156/3
f 80/157/3 77/158/3 95/159/3 98/160/3
f 78/161/3 75/162/3 93/163/3 96/164/3
f 76/165/3 73/166/3 91/167/3 94/168/3
f 72/169/3 164/170/3 165/171/3 90/172/3
f 5/173/2 69/174/2 87/138/2 7/137/2
f 70/175/2 67/176/2 85/142/2 88/141/2
f 68/177/2 65/178/2 83/146/2 86/145/2
f 66/179/2 63/180/2 81/150/2 84/149/2
f 64/181/2 61/182/2 79/154/2 82/153/2
f 62/183/2 59/184/2 77/158/2 80/157/2
f 60/185/2 57/186/2 75/162/2 78/161/2
f 58/187/2 55/188/2 73/166/2 76/165/2
f 54/4/2 163/3/2 164/170/2 72/169/2
f 3/189/1 51/190/1 69/174/1 5/173/1
f 52/38/1 49/37/1 67/176/1 70/175/1
f 50/42/1 47/41/1 65/178/1 68/177/1
f 48/46/1 45/45/1 63/180/1 66/179/1
f 46/50/1 43/49/1 61/182/1 64/181/1
f 44/54/1 41/53/1 59/184/1 62/183/1
f 42/58/1 39/57/1 57/186/1 60/185/1
f 40/62/1 37/61/1 55/188/1 58/187/1
f 15/70/6 159/69/6 18/191/6 1/192/6
f 160/74/6 157/73/6 20/36/6 17/35/6
f 158/78/6 155/77/6 22/40/6 19/39/6
f 156/82/6 153/81/6 24/44/6 21/43/6
f 154/86/6 151/85/6 26/48/6 23/47/6
f 152/90/6 149/89/6 28/52/6 25/51/6
f 150/94/6 147/93/6 30/56/6 27/55/6
f 148/98/6 145/97/6 32/60/6 29/59/6
f 146/24/6 143/23/6 34/64/6 31/63/6
f 160/74/6 17/35/6 18/191/6 159/69/6
f 158/78/10 19/39/10 20/36/10 157/73/10
f 156/82/11 21/43/11 22/40/11 155/77/11
f 154/86/12 23/47/12 24/44/12 153/81/12
f 152/90/13 25/51/13 26/48/13 151/85/13
f 150/94/14 27/55/14 28/52/14 149/89/14
f 148/98/15 29/59/15 30/56/15 147/93/15
f 146/24/16 31/63/16 32/60/16 145/97/16
f 144/65/17 33/25/17 34/64/17 143/23/17
f 142/71/7 160/74/7 159/69/7 141/68/7
f 140/75/18 158/78/18 157/73/18 139/72/18
f 138/79/19 156/82/19 155/77/19 137/76/19
f 136/83/20 154/86/20 153/81/20 135/80/20
f 134/87/21 152/90/21 151/85/21 133/84/21
f 132/91/22 150/94/22 149/89/22 131/88/22
f 130/95/23 148/98/23 147/93/23 129/92/23
f 128/18/24 146/24/24 145/97/24 127/96/24
f 126/99/25 144/65/25 143/23/25 125/17/25
f 124/103/5 142/71/5 141/68/5 123/102/5
f 122/105/26 140/75/26 139/72/26 121/104/26
f 120/107/27 138/79/27 137/76/27 119/106/27
f 118/109/28 136/83/28 135/80/28 117/108/28
f 116/111/29 134/87/29 133/84/29 115/110/29
f 114/113/30 132/91/30 131/88/30 113/112/30
f 112/115/31 130/95/31 129/92/31 111/114/31
f 110/16/32 128/18/32 127/96/32 109/116/32
f 108/117/33 126/99/33 125/17/33 107/15/33
f 106/121/4 124/103/4 123/102/4 105/120/4
f 104/123/34 122/105/34 121/104/34 103/122/34
f 102/125/35 120/107/35 119/106/35 101/124/35
f 100/127/36 118/109/36 117/108/36 99/126/36
f 98/129/37 116/111/37 115/110/37 97/128/37
f 96/131/38 114/113/38 113/112/38 95/130/38
f 94/133/39 112/115/39 111/114/39 93/132/39
f 92/13/40 110/16/40 109/116/40 91/134/40
f 90/135/41 108/117/41 107/15/41 89/14/41
f 88/141/3 106/144/3 105/139/3 87/138/3
f 86/145/42 104/148/42 103/143/42 85/142/42
f 84/149/43 102/152/43 101/147/43 83/146/43
f 82/153/44 100/156/44 99/151/44 81/150/44
f 80/157/45 98/160/45 97/155/45 79/154/45
f 78/161/46 96/164/46 95/159/46 77/158/46
f 76/165/47 94/168/47 93/163/47 75/162/47
f 74/10/48 92/12/48 91/167/48 73/166/48
f 72/169/49 90/172/49 89/11/49 71/9/49
f 70/175/2 88/141/2 87/138/2 69/174/2
f 68/177/50 86/145/50 85/142/50 67/176/50
f 66/179/51 84/149/51 83/146/51 65/178/51
f 64/181/52 82/153/52 81/150/52 63/180/52
f 62/183/53 80/157/53 79/154/53 61/182/53
f 60/185/54 78/161/54 77/158/54 59/184/54
f 58/187/55 76/165/55 75/162/55 57/186/55
f 56/8/56 74/10/56 73/166/56 55/188/56
f 54/4/57 72/169/57 71/9/57 53/7/57
f 52/38/1 70/175/1 69/174/1 51/190/1
f 50/42/58 68/177/58 67/176/58 49/37/58
f 48/46/59 66/179/59 65/178/59 47/41/59
f 46/50/60 64/181/60 63/180/60 45/45/60
f 44/54/61 62/183/61 61/182/61 43/49/61
f 42/58/62 60/185/62 59/184/62 41/53/62
f 40/62/63 58/187/63 57/186/63 39/57/63
f 38/5/64 56/8/64 55/188/64 37/61/64
f 36/1/65 54/4/65 53/7/65 35/6/65
f 17/35/8 52/38/8 51/190/8 18/191/8
f 19/39/66 50/42/66 49/37/66 20/36/66
f 21/43/67 48/46/67 47/41/67 22/40/67
f 23/47/68 46/50/68 45/45/68 24/44/68
f 25/51/69 44/54/69 43/49/69 26/48/69
f 27/55/70 42/58/70 41/53/70 28/52/70
f 29/59/71 40/62/71 39/57/71 30/56/71
f 31/63/72 38/5/72 37/61/72 32/60/72
f 33/25/73 36/1/73 35/6/73 34/64/73
f 1/192/8 18/191/8 51/190/8 3/189/8
f 2/19/74 4/193/74 161/2/74 162/26/74
f 4/193/74 6/194/74 163/3/74 161/2/74
f 6/194/74 8/195/74 164/170/74 163/3/74
f 8/195/74 10/196/74 165/171/74 164/170/74
f 10/197/74 12/198/74 166/118/74 165/136/74
f 12/198/74 14/199/74 167/100/74 166/118/74
f 14/199/74 16/20/74 168/66/74 167/100/74
f 16/20/74 2/19/74 162/26/74 168/66/74
f 174/200/75 173/201/75 189/202/75 190/203/75
f 14/199/5 12/198/5 174/200/5 175/204/5
f 10/196/3 8/195/3 172/205/3 173/206/3
f 6/194/1 4/193/1 169/207/1 171/208/1
f 16/20/7 14/199/7 175/204/7 176/21/7
f 12/198/4 10/197/4 173/201/4 174/200/4
f 8/195/2 6/194/2 171/208/2 172/205/2
f 4/193/8 2/19/8 170/22/8 169/207/8
f 177/209/74 178/210/74 184/211/74 183/212/74 182/213/74 181/214/74 180/215/74 179/216/74
f 172/205/76 171/208/76 187/217/76 188/218/76
f 169/207/77 170/22/77 186/219/77 185/220/77
f 170/22/78 176/21/78 192/221/78 186/219/78
f 175/204/79 174/200/79 190/203/79 191/222/79
f 173/206/80 172/205/80 188/218/80 189/223/80
f 171/208/81 169/207/81 185/220/81 187/217/81
f 176/21/82 175/204/82 191/222/82 192/221/82
f 184/211/83 178/210/83 202/224/83 208/225/83
f 185/220/84 186/219/84 194/226/84 193/227/84
f 183/212/85 184/211/85 208/225/85 207/228/85
f 186/219/86 192/221/86 200/229/86 194/226/86
f 182/213/87 183/212/87 207/228/87 206/230/87
f 192/221/88 191/222/88 199/231/88 200/229/88
f 181/214/89 182/213/89 206/230/89 205/232/89
f 191/222/90 190/203/90 198/233/90 199/231/90
f 202/224/74 201/234/74 193/235/74 194/236/74
f 201/234/74 203/237/74 195/238/74 193/235/74
f 203/237/74 204/239/74 196/240/74 195/238/74
f 204/239/74 205/232/74 197/241/74 196/240/74
f 205/232/74 206/230/74 198/242/74 197/241/74
f 206/230/74 207/228/74 199/243/74 198/242/74
f 207/228/74 208/225/74 200/244/74 199/243/74
f 208/225/74 202/224/74 194/236/74 200/244/74
f 187/217/91 185/220/91 193/227/91 195/245/91
f 178/210/92 177/209/92 201/234/92 202/224/92
f 188/218/93 187/217/93 195/245/93 196/246/93
f 177/209/94 179/216/94 203/237/94 201/234/94
f 189/223/95 188/218/95 196/246/95 197/247/95
f 179/216/96 180/215/96 204/239/96 203/237/96
f 190/203/97 189/202/97 197/248/97 198/233/97
f 180/215/98 181/214/98 205/232/98 204/239/98
