# Blender v2.79 (sub 0) OBJ File: 'scalingscene_2.blend'
# www.blender.org
mtllib stool.mtl
o stool_Cylinder.002
v -1.156932 0.542203 -0.240504
v -1.156932 0.584786 -0.240504
v -1.064895 0.542203 -0.222197
v -1.064895 0.584786 -0.222197
v -0.986870 0.542203 -0.170062
v -0.986870 0.584786 -0.170062
v -0.934736 0.542203 -0.092037
v -0.934736 0.584786 -0.092037
v -0.916428 0.542203 0.000000
v -0.916428 0.584786 0.000000
v -0.934736 0.542203 0.092037
v -0.934736 0.584786 0.092037
v -0.986870 0.542203 0.170062
v -0.986870 0.584786 0.170062
v -1.064895 0.542203 0.222197
v -1.064895 0.584786 0.222197
v -1.156932 0.542203 0.240504
v -1.156932 0.584786 0.240504
v -1.248969 0.542203 0.222197
v -1.248969 0.584786 0.222197
v -1.326994 0.542203 0.170062
v -1.326994 0.584786 0.170062
v -1.379129 0.542203 0.092037
v -1.379129 0.584786 0.092037
v -1.397436 0.542203 -0.000000
v -1.397436 0.584786 -0.000000
v -1.379129 0.542203 -0.092037
v -1.379129 0.584786 -0.092037
v -1.326994 0.542203 -0.170062
v -1.326994 0.584786 -0.170062
v -1.248969 0.542203 -0.222197
v -1.248969 0.584786 -0.222197
v -1.060153 0.597172 -0.233647
v -1.156932 0.597172 -0.252897
v -0.978107 0.597172 -0.178825
v -0.923285 0.597172 -0.096780
v -0.904035 0.597172 0.000000
v -0.923285 0.597172 0.096780
v -0.978107 0.597172 0.178825
v -1.060153 0.597172 0.233647
v -1.156932 0.597172 0.252897
v -1.253712 0.597172 0.233647
v -1.335757 0.597172 0.178825
v -1.390579 0.597172 0.096780
v -1.409829 0.597172 -0.000000
v -1.390579 0.597172 -0.096780
v -1.335757 0.597172 -0.178825
v -1.253712 0.597172 -0.233647
v -1.060153 0.645864 -0.233647
v -1.156932 0.645864 -0.252897
v -0.978107 0.645864 -0.178825
v -0.923285 0.645864 -0.096780
v -0.904035 0.645864 0.000000
v -0.923285 0.645864 0.096780
v -0.978107 0.645864 0.178825
v -1.060153 0.645864 0.233647
v -1.156932 0.645864 0.252897
v -1.253712 0.645864 0.233647
v -1.335757 0.645864 0.178825
v -1.390579 0.645864 0.096780
v -1.409829 0.645864 -0.000000
v -1.390579 0.645864 -0.096780
v -1.335757 0.645864 -0.178825
v -1.253712 0.645864 -0.233647
v -1.070894 0.690818 -0.207713
v -1.156932 0.690818 -0.224827
v -0.997955 0.690818 -0.158977
v -0.949219 0.690818 -0.086038
v -0.932105 0.690818 0.000000
v -0.949219 0.690818 0.086038
v -0.997955 0.690818 0.158977
v -1.070894 0.690818 0.207713
v -1.156932 0.690818 0.224827
v -1.242970 0.690818 0.207713
v -1.315909 0.690818 0.158977
v -1.364645 0.690818 0.086038
v -1.381760 0.690818 -0.000000
v -1.364645 0.690818 -0.086038
v -1.315909 0.690818 -0.158977
v -1.242970 0.690818 -0.207713
v -1.099485 0.715525 -0.138690
v -1.156932 0.715525 -0.150117
v -1.050783 0.715525 -0.106149
v -1.018242 0.715525 -0.057447
v -1.006815 0.715525 0.000000
v -1.018242 0.715525 0.057447
v -1.050783 0.715525 0.106149
v -1.099485 0.715525 0.138690
v -1.156932 0.715525 0.150117
v -1.214379 0.715525 0.138690
v -1.263081 0.715525 0.106149
v -1.295622 0.715525 0.057447
v -1.307049 0.715525 -0.000000
v -1.295622 0.715525 -0.057447
v -1.263081 0.715525 -0.106149
v -1.214379 0.715525 -0.138690
v -1.156932 0.524456 -0.182953
v -1.086919 0.524456 -0.169027
v -1.027565 0.524456 -0.129367
v -0.987906 0.524456 -0.070013
v -0.973979 0.524456 0.000000
v -0.987906 0.524456 0.070013
v -1.027565 0.524456 0.129367
v -1.086919 0.524456 0.169027
v -1.156932 0.524456 0.182953
v -1.226945 0.524456 0.169027
v -1.286299 0.524456 0.129367
v -1.325959 0.524456 0.070013
v -1.339885 0.524456 -0.000000
v -1.325959 0.524456 -0.070013
v -1.286299 0.524456 -0.129367
v -1.226945 0.524456 -0.169027
v -1.156932 0.524456 -0.220239
v -1.072650 0.524456 -0.203474
v -1.001200 0.524456 -0.155732
v -0.953458 0.524456 -0.084282
v -0.936693 0.524456 0.000000
v -0.953458 0.524456 0.084282
v -1.001200 0.524456 0.155732
v -1.072650 0.524456 0.203474
v -1.156932 0.524456 0.220239
v -1.241214 0.524456 0.203474
v -1.312665 0.524456 0.155733
v -1.360406 0.524456 0.084282
v -1.377171 0.524456 -0.000000
v -1.360406 0.524456 -0.084282
v -1.312665 0.524456 -0.155733
v -1.241214 0.524456 -0.203474
v -1.156932 0.544196 -0.031404
v -1.144914 0.544196 -0.029014
v -1.134726 0.544196 -0.022206
v -1.127919 0.544196 -0.012018
v -1.125528 0.544196 0.000000
v -1.127919 0.544196 0.012018
v -1.134726 0.544196 0.022206
v -1.144914 0.544196 0.029013
v -1.156932 0.544196 0.031404
v -1.168950 0.544196 0.029013
v -1.179138 0.544196 0.022206
v -1.185946 0.544196 0.012018
v -1.188336 0.544196 -0.000000
v -1.185946 0.544196 -0.012018
v -1.179138 0.544196 -0.022206
v -1.168950 0.544196 -0.029014
v -1.156932 0.544196 -0.182953
v -1.086919 0.544196 -0.169027
v -1.027565 0.544196 -0.129367
v -0.987906 0.544196 -0.070013
v -0.973979 0.544196 0.000000
v -0.987906 0.544196 0.070013
v -1.027565 0.544196 0.129367
v -1.086919 0.544196 0.169027
v -1.156932 0.544196 0.182953
v -1.226945 0.544196 0.169027
v -1.286299 0.544196 0.129367
v -1.325959 0.544196 0.070013
v -1.339885 0.544196 -0.000000
v -1.325959 0.544196 -0.070013
v -1.286299 0.544196 -0.129367
v -1.226945 0.544196 -0.169027
v -1.156932 -0.010485 -0.031404
v -1.144914 -0.010485 -0.029014
v -1.134726 -0.010485 -0.022206
v -1.127919 -0.010485 -0.012018
v -1.125528 -0.010485 0.000000
v -1.127919 -0.010485 0.012018
v -1.134726 -0.010485 0.022206
v -1.144914 -0.010485 0.029013
v -1.156932 -0.010485 0.031404
v -1.168950 -0.010485 0.029013
v -1.179138 -0.010485 0.022206
v -1.185946 -0.010485 0.012018
v -1.188336 -0.010485 -0.000000
v -1.185946 -0.010485 -0.012018
v -1.179138 -0.010485 -0.022206
v -1.168950 -0.010485 -0.029014
vn 0.1951 0.0000 -0.9808
vn 0.5556 0.0000 -0.8315
vn 0.8315 0.0000 -0.5556
vn 0.9808 0.0000 -0.1951
vn 0.9808 0.0000 0.1951
vn 0.8315 0.0000 0.5556
vn 0.5556 0.0000 0.8315
vn 0.1951 0.0000 0.9808
vn -0.1951 0.0000 0.9808
vn -0.5556 0.0000 0.8315
vn -0.8315 0.0000 0.5556
vn -0.9808 0.0000 0.1951
vn -0.9808 0.0000 -0.1951
vn -0.8315 0.0000 -0.5556
vn 0.5934 -0.7004 0.3965
vn -0.5556 0.0000 -0.8315
vn -0.1951 0.0000 -0.9808
vn -0.5538 -0.7459 0.3700
vn -0.5934 -0.7004 0.3965
vn -0.1392 -0.7004 -0.7000
vn 0.7000 -0.7004 -0.1392
vn -0.1392 -0.7004 0.7000
vn -0.5934 -0.7004 -0.3965
vn 0.3965 -0.7004 -0.5934
vn 0.3965 -0.7004 0.5934
vn -0.7000 -0.7004 0.1392
vn 0.7000 -0.7004 0.1392
vn -0.3965 -0.7004 0.5934
vn -0.3965 -0.7004 -0.5934
vn 0.5934 -0.7004 -0.3965
vn 0.1392 -0.7004 0.7000
vn 0.1392 -0.7004 -0.7000
vn -0.7000 -0.7004 -0.1392
vn 0.8364 0.5223 -0.1664
vn -0.0623 0.9476 0.3134
vn -0.8364 0.5223 0.1664
vn 0.8364 0.5223 0.1664
vn -0.8364 0.5223 -0.1664
vn 0.7091 0.5223 0.4738
vn -0.7091 0.5223 -0.4738
vn 0.4738 0.5223 0.7091
vn -0.4738 0.5223 -0.7091
vn 0.1664 0.5223 0.8364
vn 0.1664 0.5223 -0.8364
vn -0.1664 0.5223 -0.8364
vn -0.1664 0.5223 0.8364
vn 0.4738 0.5223 -0.7091
vn -0.4738 0.5223 0.7091
vn 0.7091 0.5223 -0.4738
vn -0.7091 0.5223 0.4738
vn 0.0000 1.0000 0.0000
vn 0.1775 0.9476 -0.2657
vn -0.1775 0.9476 0.2657
vn 0.2657 0.9476 -0.1775
vn -0.2657 0.9476 0.1775
vn 0.3134 0.9476 -0.0623
vn -0.3134 0.9476 0.0623
vn 0.3134 0.9476 0.0623
vn -0.3134 0.9476 -0.0623
vn 0.2657 0.9476 0.1775
vn -0.2657 0.9476 -0.1775
vn 0.1775 0.9476 0.2657
vn -0.1775 0.9476 -0.2657
vn 0.0623 0.9476 0.3134
vn 0.0623 0.9476 -0.3134
vn -0.0623 0.9476 -0.3134
vn -0.1299 -0.7459 -0.6533
vn 0.6533 -0.7459 -0.1299
vn -0.1299 -0.7459 0.6533
vn -0.5538 -0.7459 -0.3700
vn 0.3700 -0.7459 -0.5538
vn 0.3700 -0.7459 0.5538
vn -0.6533 -0.7459 0.1299
vn 0.6533 -0.7459 0.1299
vn -0.3700 -0.7459 0.5538
vn -0.3700 -0.7459 -0.5538
vn 0.5538 -0.7459 -0.3700
vn 0.1299 -0.7459 0.6533
vn 0.1299 -0.7459 -0.6533
vn -0.6533 -0.7459 -0.1299
vn 0.5538 -0.7459 0.3700
vn 0.0000 -1.0000 0.0000
usemtl None
s off
f 1//1 2//1 4//1 3//1
f 3//2 4//2 6//2 5//2
f 5//3 6//3 8//3 7//3
f 7//4 8//4 10//4 9//4
f 9//5 10//5 12//5 11//5
f 11//6 12//6 14//6 13//6
f 13//7 14//7 16//7 15//7
f 15//8 16//8 18//8 17//8
f 17//9 18//9 20//9 19//9
f 19//10 20//10 22//10 21//10
f 21//11 22//11 24//11 23//11
f 23//12 24//12 26//12 25//12
f 25//13 26//13 28//13 27//13
f 27//14 28//14 30//14 29//14
f 14//15 12//15 38//15 39//15
f 29//16 30//16 32//16 31//16
f 31//17 32//17 2//17 1//17
f 21//18 23//18 124//18 123//18
f 47//14 46//14 62//14 63//14
f 24//19 22//19 43//19 44//19
f 2//20 32//20 48//20 34//20
f 10//21 8//21 36//21 37//21
f 20//22 18//22 41//22 42//22
f 30//23 28//23 46//23 47//23
f 6//24 4//24 33//24 35//24
f 16//25 14//25 39//25 40//25
f 26//26 24//26 44//26 45//26
f 12//27 10//27 37//27 38//27
f 22//28 20//28 42//28 43//28
f 32//29 30//29 47//29 48//29
f 8//30 6//30 35//30 36//30
f 18//31 16//31 40//31 41//31
f 4//32 2//32 34//32 33//32
f 28//33 26//33 45//33 46//33
f 53//34 52//34 68//34 69//34
f 40//7 39//7 55//7 56//7
f 48//16 47//16 63//16 64//16
f 41//8 40//8 56//8 57//8
f 33//1 34//1 50//1 49//1
f 34//17 48//17 64//17 50//17
f 42//9 41//9 57//9 58//9
f 35//2 33//2 49//2 51//2
f 43//10 42//10 58//10 59//10
f 36//3 35//3 51//3 52//3
f 44//11 43//11 59//11 60//11
f 37//4 36//4 52//4 53//4
f 45//12 44//12 60//12 61//12
f 38//5 37//5 53//5 54//5
f 46//13 45//13 61//13 62//13
f 39//6 38//6 54//6 55//6
f 74//35 73//35 89//35 90//35
f 61//36 60//36 76//36 77//36
f 54//37 53//37 69//37 70//37
f 62//38 61//38 77//38 78//38
f 55//39 54//39 70//39 71//39
f 63//40 62//40 78//40 79//40
f 56//41 55//41 71//41 72//41
f 64//42 63//42 79//42 80//42
f 57//43 56//43 72//43 73//43
f 49//44 50//44 66//44 65//44
f 50//45 64//45 80//45 66//45
f 58//46 57//46 73//46 74//46
f 51//47 49//47 65//47 67//47
f 59//48 58//48 74//48 75//48
f 52//49 51//49 67//49 68//49
f 60//50 59//50 75//50 76//50
f 81//51 82//51 96//51 95//51 94//51 93//51 92//51 91//51 90//51 89//51 88//51 87//51 86//51 85//51 84//51 83//51
f 67//52 65//52 81//52 83//52
f 75//53 74//53 90//53 91//53
f 68//54 67//54 83//54 84//54
f 76//55 75//55 91//55 92//55
f 69//56 68//56 84//56 85//56
f 77//57 76//57 92//57 93//57
f 70//58 69//58 85//58 86//58
f 78//59 77//59 93//59 94//59
f 71//60 70//60 86//60 87//60
f 79//61 78//61 94//61 95//61
f 72//62 71//62 87//62 88//62
f 80//63 79//63 95//63 96//63
f 73//64 72//64 88//64 89//64
f 65//65 66//65 82//65 81//65
f 66//66 80//66 96//66 82//66
f 105//1 106//1 154//1 153//1
f 31//67 1//67 113//67 128//67
f 7//68 9//68 117//68 116//68
f 17//69 19//69 122//69 121//69
f 27//70 29//70 127//70 126//70
f 3//71 5//71 115//71 114//71
f 13//72 15//72 120//72 119//72
f 23//73 25//73 125//73 124//73
f 9//74 11//74 118//74 117//74
f 19//75 21//75 123//75 122//75
f 29//76 31//76 128//76 127//76
f 5//77 7//77 116//77 115//77
f 15//78 17//78 121//78 120//78
f 1//79 3//79 114//79 113//79
f 25//80 27//80 126//80 125//80
f 11//81 13//81 119//81 118//81
f 98//82 97//82 113//82 114//82
f 99//82 98//82 114//82 115//82
f 100//82 99//82 115//82 116//82
f 101//82 100//82 116//82 117//82
f 102//82 101//82 117//82 118//82
f 103//82 102//82 118//82 119//82
f 104//82 103//82 119//82 120//82
f 105//82 104//82 120//82 121//82
f 106//82 105//82 121//82 122//82
f 107//82 106//82 122//82 123//82
f 108//82 107//82 123//82 124//82
f 109//82 108//82 124//82 125//82
f 110//82 109//82 125//82 126//82
f 111//82 110//82 126//82 127//82
f 112//82 111//82 127//82 128//82
f 97//82 112//82 128//82 113//82
f 129//1 130//1 162//1 161//1
f 98//10 99//10 147//10 146//10
f 106//2 107//2 155//2 154//2
f 99//11 100//11 148//11 147//11
f 107//3 108//3 156//3 155//3
f 100//12 101//12 149//12 148//12
f 108//4 109//4 157//4 156//4
f 101//13 102//13 150//13 149//13
f 109//5 110//5 158//5 157//5
f 102//14 103//14 151//14 150//14
f 110//6 111//6 159//6 158//6
f 103//16 104//16 152//16 151//16
f 111//7 112//7 160//7 159//7
f 104//17 105//17 153//17 152//17
f 97//9 98//9 146//9 145//9
f 112//8 97//8 145//8 160//8
f 130//82 129//82 145//82 146//82
f 131//82 130//82 146//82 147//82
f 132//82 131//82 147//82 148//82
f 133//82 132//82 148//82 149//82
f 134//82 133//82 149//82 150//82
f 135//82 134//82 150//82 151//82
f 136//82 135//82 151//82 152//82
f 137//82 136//82 152//82 153//82
f 138//82 137//82 153//82 154//82
f 139//82 138//82 154//82 155//82
f 140//82 139//82 155//82 156//82
f 141//82 140//82 156//82 157//82
f 142//82 141//82 157//82 158//82
f 143//82 142//82 158//82 159//82
f 144//82 143//82 159//82 160//82
f 129//82 144//82 160//82 145//82
f 161//82 162//82 163//82 164//82 165//82 166//82 167//82 168//82 169//82 170//82 171//82 172//82 173//82 174//82 175//82 176//82
f 144//17 129//17 161//17 176//17
f 137//9 138//9 170//9 169//9
f 130//2 131//2 163//2 162//2
f 138//10 139//10 171//10 170//10
f 131//3 132//3 164//3 163//3
f 139//11 140//11 172//11 171//11
f 132//4 133//4 165//4 164//4
f 140//12 141//12 173//12 172//12
f 133//5 134//5 166//5 165//5
f 141//13 142//13 174//13 173//13
f 134//6 135//6 167//6 166//6
f 142//14 143//14 175//14 174//14
f 135//7 136//7 168//7 167//7
f 143//16 144//16 176//16 175//16
f 136//8 137//8 169//8 168//8
