# Blender v2.79 (sub 0) OBJ File: 'scalingscene_2.blend'
# www.blender.org
mtllib table_long.mtl
o tablelong_Cube.007
v -6.646728 1.027276 3.898134
v -6.754195 1.084463 4.005601
v -6.646728 1.027276 0.303589
v -6.754195 1.084463 0.196122
v -4.861662 1.027276 3.898134
v -4.754195 1.084463 4.005601
v -4.861662 1.027276 0.303589
v -4.754195 1.084463 0.196122
v -5.046728 1.027276 0.303589
v -6.461662 1.027276 0.303589
v -6.354195 1.084463 0.196122
v -5.154195 1.084463 0.196122
v -6.461662 1.027276 3.898134
v -5.046728 1.027276 3.898134
v -5.154195 1.084463 4.005601
v -6.354195 1.084463 4.005601
v -6.646728 1.027276 0.488655
v -6.646728 1.027276 3.713068
v -6.754195 1.084463 3.605601
v -6.754195 1.084463 0.596122
v -4.861662 1.027276 3.713068
v -4.861662 1.027276 0.488655
v -4.754195 1.084463 0.596122
v -4.754195 1.084463 3.605601
v -5.154195 1.084463 0.596122
v -5.073865 0.005581 0.415948
v -6.434525 0.005581 0.415948
v -5.154195 1.084463 3.605601
v -4.895898 0.005581 3.785775
v -6.612492 0.005581 0.415948
v -5.073865 0.005581 3.785775
v -6.434525 0.005581 3.785775
v -6.354195 1.084463 0.596122
v -6.434525 0.005581 3.963742
v -5.073865 0.005581 0.237981
v -6.354195 1.084463 3.605601
v -6.461662 1.027276 0.488655
v -4.895898 0.005581 3.963742
v -5.073865 0.005581 3.963742
v -6.461662 1.027276 3.713068
v -4.895898 0.005581 0.237981
v -4.895898 0.005581 0.415948
v -6.612492 0.005581 0.237981
v -6.434525 0.005581 0.237981
v -5.046728 1.027276 0.488655
v -6.612492 0.005581 3.963742
v -6.612492 0.005581 3.785775
v -5.046728 1.027276 3.713068
v -6.754195 1.027276 3.605601
v -6.754195 1.027276 4.005601
v -6.354195 1.027276 0.196122
v -6.754195 1.027276 0.196122
v -4.754195 1.027276 0.596122
v -4.754195 1.027276 0.196122
v -5.154195 1.027276 4.005601
v -4.754195 1.027276 4.005601
v -5.154195 1.027276 0.196122
v -6.354195 1.027276 4.005601
v -6.354195 1.027276 3.605601
v -5.154195 1.027276 3.605601
v -6.754195 1.027276 0.596122
v -4.754195 1.027276 3.605601
v -6.354195 1.027276 0.596122
v -5.154195 1.027276 0.596122
vn -1.0000 0.0000 0.0000
vn 0.0000 0.0000 -1.0000
vn 1.0000 0.0000 0.0000
vn 0.0000 0.0000 1.0000
vn 0.9994 -0.0335 0.0000
vn 0.0000 1.0000 0.0000
vn 0.0000 -1.0000 0.0000
vn -0.9996 0.0266 0.0000
vn 0.0000 -0.0710 -0.9975
vn 0.0000 0.0641 -0.9979
vn -0.9994 -0.0335 0.0000
vn 0.9996 0.0266 0.0000
vn 0.0000 -0.0710 0.9975
vn 0.0000 0.0641 0.9979
usemtl None
s off
f 61//1 20//1 4//1 52//1
f 57//2 12//2 8//2 54//2
f 62//3 24//3 6//3 56//3
f 58//4 16//4 2//4 50//4
f 7//5 22//5 42//5 41//5
f 36//6 19//6 2//6 16//6
f 24//6 28//6 15//6 6//6
f 36//6 16//6 15//6 28//6
f 21//5 5//5 38//5 29//5
f 60//7 55//7 58//7 59//7
f 56//4 6//4 15//4 55//4
f 15//4 16//4 58//4 55//4
f 52//2 4//2 11//2 51//2
f 11//2 12//2 57//2 51//2
f 64//7 60//7 59//7 63//7
f 14//8 48//8 31//8 39//8
f 48//9 21//9 29//9 31//9
f 51//7 57//7 64//7 63//7
f 3//10 10//10 44//10 43//10
f 63//7 59//7 49//7 61//7
f 1//11 18//11 47//11 46//11
f 40//12 13//12 34//12 32//12
f 33//6 36//6 28//6 25//6
f 22//13 45//13 26//13 42//13
f 13//14 1//14 46//14 34//14
f 12//6 11//6 33//6 25//6
f 8//6 12//6 25//6 23//6
f 25//6 28//6 24//6 23//6
f 18//9 40//9 32//9 47//9
f 9//10 7//10 41//10 35//10
f 11//6 4//6 20//6 33//6
f 19//6 36//6 33//6 20//6
f 37//13 17//13 30//13 27//13
f 5//14 14//14 39//14 38//14
f 17//11 3//11 43//11 30//11
f 62//7 60//7 64//7 53//7
f 45//8 9//8 35//8 26//8
f 35//7 41//7 42//7 26//7
f 54//3 8//3 23//3 53//3
f 23//3 24//3 62//3 53//3
f 10//12 37//12 27//12 44//12
f 47//7 32//7 34//7 46//7
f 50//1 2//1 19//1 49//1
f 19//1 20//1 61//1 49//1
f 43//7 44//7 27//7 30//7
f 31//7 29//7 38//7 39//7
f 18//7 1//7 50//7 49//7
f 10//7 3//7 52//7 51//7
f 22//7 7//7 54//7 53//7
f 14//7 5//7 56//7 55//7
f 7//7 9//7 57//7 54//7
f 1//7 13//7 58//7 50//7
f 13//7 40//7 59//7 58//7
f 48//7 14//7 55//7 60//7
f 3//7 17//7 61//7 52//7
f 5//7 21//7 62//7 56//7
f 37//7 10//7 51//7 63//7
f 9//7 45//7 64//7 57//7
f 17//7 37//7 63//7 61//7
f 40//7 18//7 49//7 59//7
f 45//7 22//7 53//7 64//7
f 21//7 48//7 60//7 62//7
