# Blender v2.79 (sub 0) OBJ File: 'scalingscene_2.blend'
# www.blender.org
mtllib table.mtl
o table_Cylinder
v -1.252645 0.998956 0.490721
v -1.252645 1.025530 0.490721
v -0.956636 0.998956 0.549601
v -0.956636 1.025530 0.549601
v -0.705692 0.998956 0.717276
v -0.705692 1.025530 0.717276
v -0.538016 0.998956 0.968221
v -0.538016 1.025530 0.968221
v -0.479136 0.998956 1.264230
v -0.479136 1.025530 1.264230
v -0.538016 0.998956 1.560239
v -0.538016 1.025530 1.560239
v -0.705692 0.998956 1.811183
v -0.705692 1.025530 1.811183
v -0.956636 0.998956 1.978859
v -0.956636 1.025530 1.978859
v -1.252645 0.998956 2.037739
v -1.252645 1.025530 2.037739
v -1.548654 0.998956 1.978859
v -1.548654 1.025530 1.978859
v -1.799598 0.998956 1.811183
v -1.799598 1.025530 1.811183
v -1.967274 0.998956 1.560239
v -1.967274 1.025530 1.560239
v -2.026154 0.998956 1.264230
v -2.026154 1.025530 1.264230
v -1.967274 0.998956 0.968221
v -1.967274 1.025530 0.968221
v -1.799598 0.998956 0.717276
v -1.799598 1.025530 0.717276
v -1.548654 0.998956 0.549601
v -1.548654 1.025530 0.549601
v -0.857486 0.931640 1.325436
v -1.161633 0.931640 1.203023
v -1.466167 0.931640 1.325436
v -1.647805 0.931640 1.325436
v -0.878204 0.931640 1.499032
v -1.046029 0.931640 1.499032
v -1.459261 0.931640 1.499032
v -1.627086 0.931640 1.499032
v -0.823868 0.998956 0.968221
v -1.168539 0.931640 1.029427
v -1.336751 0.931640 1.029427
v -1.681422 0.998956 0.968221
v -0.788540 0.998956 1.264230
v -1.716751 0.998956 1.264230
v -1.097943 0.998956 1.264230
v -1.039123 0.931640 1.325436
v -1.407347 0.998956 1.264230
v -1.343657 0.931640 1.203023
v -0.823868 0.998956 1.560239
v -1.109719 0.998956 1.560239
v -1.395571 0.998956 1.560239
v -1.681422 0.998956 1.560239
v -1.109719 0.998956 0.968221
v -1.395571 0.998956 0.968221
v -0.931634 0.906923 1.391261
v -0.975865 0.906923 1.391261
v -1.230129 0.906923 1.137198
v -1.275161 0.906923 1.137198
v -1.529425 0.906923 1.391261
v -1.573656 0.906923 1.391261
v -0.936640 0.906923 1.433207
v -0.977534 0.906923 1.433207
v -1.527757 0.906923 1.433207
v -1.568650 0.906923 1.433207
v -1.231798 0.906923 1.095252
v -1.273492 0.906923 1.095252
v -0.857486 0.906923 1.325436
v -1.039123 0.906923 1.325436
v -1.161633 0.906923 1.203023
v -1.343657 0.906923 1.203023
v -1.466167 0.906923 1.325436
v -1.647805 0.906923 1.325436
v -0.878204 0.906923 1.499032
v -1.046029 0.906923 1.499032
v -1.459261 0.906923 1.499032
v -1.627086 0.906923 1.499032
v -1.168539 0.906923 1.029427
v -1.336751 0.906923 1.029427
v -0.931634 0.051733 1.391261
v -0.975865 0.051733 1.391261
v -1.230129 0.051733 1.137198
v -1.275161 0.051733 1.137198
v -1.529425 0.051733 1.391261
v -1.573656 0.051733 1.391261
v -0.936640 0.051733 1.433207
v -0.977534 0.051733 1.433207
v -1.527757 0.051733 1.433207
v -1.568650 0.051733 1.433207
v -1.231798 0.051733 1.095252
v -1.273492 0.051733 1.095252
v -1.745276 -0.021371 1.614965
v -1.745276 0.017182 1.614965
v -1.745276 -0.021371 0.913494
v -1.745276 0.017182 0.913494
v -0.760014 -0.021371 1.614965
v -0.760014 0.017182 1.614965
v -0.760014 -0.021371 0.913494
v -0.760014 0.017182 0.913494
vn 0.1951 0.0000 -0.9808
vn 0.5556 0.0000 -0.8315
vn 0.8315 0.0000 -0.5556
vn 0.9808 0.0000 -0.1951
vn 0.9808 0.0000 0.1951
vn 0.8315 0.0000 0.5556
vn 0.5556 0.0000 0.8315
vn 0.1951 0.0000 0.9808
vn -0.1951 0.0000 0.9808
vn -0.5556 0.0000 0.8315
vn -0.8315 0.0000 0.5556
vn -0.9808 0.0000 0.1951
vn -0.9808 0.0000 -0.1951
vn -0.8315 0.0000 -0.5556
vn 0.0000 1.0000 -0.0000
vn -0.5556 0.0000 -0.8315
vn -0.1951 0.0000 -0.9808
vn 0.0000 -1.0000 -0.0000
vn 0.0000 0.0000 1.0000
vn 0.9992 0.0000 -0.0398
vn -0.9992 0.0000 -0.0398
vn 0.0000 -0.6727 -0.7399
vn 0.0000 -0.6727 0.7399
vn 0.7393 -0.6727 -0.0294
vn -0.7393 -0.6727 -0.0294
vn 0.7347 -0.6727 0.0877
vn -0.7347 -0.6727 0.0877
vn 0.0000 0.0000 -1.0000
vn -0.9930 0.0000 0.1185
vn 0.9930 0.0000 0.1185
vn -1.0000 0.0000 0.0000
vn 1.0000 0.0000 0.0000
usemtl None
s off
f 1//1 2//1 4//1 3//1
f 3//2 4//2 6//2 5//2
f 5//3 6//3 8//3 7//3
f 7//4 8//4 10//4 9//4
f 9//5 10//5 12//5 11//5
f 11//6 12//6 14//6 13//6
f 13//7 14//7 16//7 15//7
f 15//8 16//8 18//8 17//8
f 17//9 18//9 20//9 19//9
f 19//10 20//10 22//10 21//10
f 21//11 22//11 24//11 23//11
f 23//12 24//12 26//12 25//12
f 25//13 26//13 28//13 27//13
f 27//14 28//14 30//14 29//14
f 4//15 2//15 32//15 30//15 28//15 26//15 24//15 22//15 20//15 18//15 16//15 14//15 12//15 10//15 8//15 6//15
f 29//16 30//16 32//16 31//16
f 31//17 32//17 2//17 1//17
f 11//18 13//18 15//18 17//18 19//18 21//18 23//18 54//18 53//18 52//18 51//18
f 46//18 54//18 23//18 25//18
f 44//18 46//18 25//18 27//18
f 1//18 3//18 5//18 7//18 41//18 55//18 56//18 44//18 27//18 29//18 31//18
f 7//18 9//18 45//18 41//18
f 41//18 45//18 47//18 55//18
f 37//19 38//19 76//19 75//19
f 56//18 49//18 46//18 44//18
f 9//18 11//18 51//18 45//18
f 42//20 34//20 71//20 79//20
f 47//18 52//18 53//18 49//18
f 38//21 48//21 70//21 76//21
f 33//22 48//22 47//22 45//22
f 50//23 34//23 47//23 49//23
f 35//22 36//22 46//22 49//22
f 38//23 37//23 51//23 52//23
f 40//23 39//23 53//23 54//23
f 42//22 43//22 56//22 55//22
f 34//24 42//24 55//24 47//24
f 43//25 50//25 49//25 56//25
f 37//26 33//26 45//26 51//26
f 48//25 38//25 52//25 47//25
f 39//24 35//24 49//24 53//24
f 36//27 40//27 54//27 46//27
f 67//20 59//20 83//20 91//20
f 64//21 58//21 82//21 88//21
f 62//28 61//28 85//28 86//28
f 35//20 39//20 77//20 73//20
f 48//28 33//28 69//28 70//28
f 50//21 43//21 80//21 72//21
f 39//19 40//19 78//19 77//19
f 40//29 36//29 74//29 78//29
f 34//19 50//19 72//19 71//19
f 33//30 37//30 75//30 69//30
f 43//28 42//28 79//28 80//28
f 36//28 35//28 73//28 74//28
f 57//18 58//18 70//18 69//18
f 60//18 59//18 71//18 72//18
f 61//18 62//18 74//18 73//18
f 64//18 63//18 75//18 76//18
f 66//18 65//18 77//18 78//18
f 67//18 68//18 80//18 79//18
f 59//18 67//18 79//18 71//18
f 68//18 60//18 72//18 80//18
f 63//18 57//18 69//18 75//18
f 58//18 64//18 76//18 70//18
f 65//18 61//18 73//18 77//18
f 62//18 66//18 78//18 74//18
f 91//18 83//18 84//18 92//18
f 81//18 87//18 88//18 82//18
f 85//18 89//18 90//18 86//18
f 63//19 64//19 88//19 87//19
f 61//20 65//20 89//20 85//20
f 58//28 57//28 81//28 82//28
f 60//21 68//21 92//21 84//21
f 65//19 66//19 90//19 89//19
f 66//29 62//29 86//29 90//29
f 59//19 60//19 84//19 83//19
f 57//30 63//30 87//30 81//30
f 68//28 67//28 91//28 92//28
f 93//31 94//31 96//31 95//31
f 95//28 96//28 100//28 99//28
f 99//32 100//32 98//32 97//32
f 97//19 98//19 94//19 93//19
f 95//18 99//18 97//18 93//18
f 100//15 96//15 94//15 98//15
