# Blender v2.79 (sub 0) OBJ File: 'scalingscene_2.blend'
# www.blender.org
mtllib turrent.mtl
o turret_Cube.033
v 0.193607 0.542927 7.839784
v 0.193607 0.802467 7.839784
v 0.193607 0.542927 7.580245
v 0.193607 0.802467 7.580245
v 0.114335 0.643682 7.580245
v 0.114335 0.643682 7.839784
v 0.013537 0.734018 9.111429
v 0.013537 1.034395 9.111429
v -0.237741 0.734018 9.111429
v -0.237741 1.034395 9.111429
v -0.053821 1.034395 9.111429
v -0.170384 1.034395 9.111429
v -0.170384 0.734018 9.111429
v -0.053821 0.734018 9.111429
v 0.013537 0.936439 9.111429
v 0.013537 0.831974 9.111429
v -0.237741 0.936439 9.111429
v -0.237741 0.831974 9.111429
v -0.053821 0.831974 9.111429
v -0.053821 0.936439 9.111429
v -0.170384 0.936439 9.111429
v -0.170384 0.831974 9.111429
v 0.028344 1.047665 9.111429
v 0.028344 0.923168 9.111429
v -0.252549 0.923168 9.111429
v -0.252549 1.047665 9.111429
v -0.068628 1.047665 9.111429
v -0.155576 0.720748 9.111429
v -0.252549 0.720748 9.111429
v -0.155576 1.047665 9.111429
v 0.028344 0.720748 9.111429
v -0.068628 0.720748 9.111429
v 0.028344 0.845245 9.111429
v -0.252549 0.845245 9.111429
v -0.155576 0.845245 9.111429
v -0.068628 0.845245 9.111429
v -0.155576 0.923168 9.111429
v -0.068628 0.923168 9.111429
v 0.013537 1.034395 8.986634
v 0.013537 0.936439 8.986634
v -0.237741 0.936439 8.986634
v -0.237741 1.034395 8.986634
v -0.053821 1.034395 8.986634
v -0.170384 0.734018 8.986634
v -0.237741 0.734018 8.986634
v -0.170384 1.034395 8.986634
v 0.013537 0.734018 8.986634
v -0.053821 0.734018 8.986634
v 0.013537 0.831974 8.986634
v -0.237741 0.831974 8.986634
v -0.170384 0.831974 8.986634
v -0.053821 0.831974 8.986634
v -0.170384 0.936439 8.986634
v -0.053821 0.936439 8.986634
v 0.193607 0.227473 7.580245
v 0.193607 0.227473 7.839784
v 0.065943 1.124731 7.580245
v 0.125894 1.077740 7.580245
v 0.114335 1.076340 7.580245
v -0.290148 0.643682 7.580245
v -0.338539 0.692073 7.580245
v -0.338539 1.076340 7.580245
v -0.290148 1.124731 7.580245
v 0.125894 1.077740 7.839784
v 0.065943 1.124731 7.839784
v -0.338539 0.692073 7.839784
v -0.290148 0.643682 7.839784
v -0.290148 1.124731 7.839784
v -0.338539 1.076340 7.839784
v 0.071818 0.730632 7.839784
v 0.022972 0.681786 7.839784
v 0.022972 1.086627 7.839784
v 0.071818 1.037781 7.839784
v -0.247177 0.681786 7.839784
v -0.296022 0.730632 7.839784
v -0.296022 1.037781 7.839784
v -0.247177 1.086627 7.839784
v 0.022972 0.681786 9.049747
v 0.071818 0.730632 9.049747
v 0.071818 1.037781 9.049747
v 0.022972 1.086627 9.049747
v -0.296022 0.730632 9.049747
v -0.247177 0.681786 9.049747
v -0.247177 1.086627 9.049747
v -0.296022 1.037781 9.049747
v -0.262217 1.099963 9.001070
v 0.038012 1.099963 9.001070
v 0.094918 0.733296 8.999431
v -0.310903 0.717136 9.001070
v 0.090744 1.051767 9.001070
v -0.262217 0.668450 9.001070
v -0.310903 1.051277 9.001070
v 0.054949 0.668450 9.001070
v 0.453147 0.542927 7.839784
v 0.453147 0.802467 7.839784
v 0.453147 0.542927 7.580245
v 0.453147 0.802467 7.580245
v 0.323377 0.542927 7.523545
v 0.323377 0.877663 7.523545
v 0.323377 0.542927 7.896484
v 0.323377 0.877663 7.896484
v 0.532419 0.643682 7.580245
v 0.532419 0.643682 7.839784
v 0.633217 0.734018 9.111429
v 0.633217 1.034395 9.111429
v 0.884495 0.734018 9.111429
v 0.884495 1.034395 9.111429
v 0.700575 1.034395 9.111429
v 0.817137 1.034395 9.111429
v 0.817137 0.734018 9.111429
v 0.700575 0.734018 9.111429
v 0.633217 0.936439 9.111429
v 0.633217 0.831974 9.111429
v 0.884495 0.936439 9.111429
v 0.884495 0.831974 9.111429
v 0.700575 0.831974 9.111429
v 0.700575 0.936439 9.111429
v 0.817137 0.936439 9.111429
v 0.817137 0.831974 9.111429
v 0.618410 1.047665 9.111429
v 0.618410 0.923168 9.111429
v 0.899302 0.923168 9.111429
v 0.899302 1.047665 9.111429
v 0.715382 1.047665 9.111429
v 0.802330 0.720748 9.111429
v 0.899302 0.720748 9.111429
v 0.802330 1.047665 9.111429
v 0.618410 0.720748 9.111429
v 0.715382 0.720748 9.111429
v 0.618410 0.845245 9.111429
v 0.899302 0.845245 9.111429
v 0.802330 0.845245 9.111429
v 0.715382 0.845245 9.111429
v 0.802330 0.923168 9.111429
v 0.715382 0.923168 9.111429
v 0.633217 1.034395 8.986634
v 0.633217 0.936439 8.986634
v 0.884495 0.936439 8.986634
v 0.884495 1.034395 8.986634
v 0.700575 1.034395 8.986634
v 0.817137 0.734018 8.986634
v 0.884495 0.734018 8.986634
v 0.817137 1.034395 8.986634
v 0.633217 0.734018 8.986634
v 0.700575 0.734018 8.986634
v 0.633217 0.831974 8.986634
v 0.884495 0.831974 8.986634
v 0.817137 0.831974 8.986634
v 0.700575 0.831974 8.986634
v 0.817137 0.936439 8.986634
v 0.700575 0.936439 8.986634
v 0.453147 0.227473 7.580245
v 0.453147 0.227473 7.839784
v 0.323377 0.227473 7.523545
v 0.323377 0.227473 7.896484
v 0.580810 1.124731 7.580245
v 0.520860 1.077740 7.580245
v 0.532419 1.076340 7.580245
v 0.936902 0.643682 7.580245
v 0.985293 0.692073 7.580245
v 0.985293 1.076340 7.580245
v 0.936902 1.124731 7.580245
v 0.520860 1.077740 7.839784
v 0.580810 1.124731 7.839784
v 0.985293 0.692073 7.839784
v 0.936902 0.643682 7.839784
v 0.936902 1.124731 7.839784
v 0.985293 1.076340 7.839784
v 0.574936 0.730632 7.839784
v 0.623782 0.681786 7.839784
v 0.623782 1.086627 7.839784
v 0.574936 1.037781 7.839784
v 0.893931 0.681786 7.839784
v 0.942776 0.730632 7.839784
v 0.942776 1.037781 7.839784
v 0.893931 1.086627 7.839784
v 0.623782 0.681786 9.049747
v 0.574936 0.730632 9.049747
v 0.574936 1.037781 9.049747
v 0.623782 1.086627 9.049747
v 0.942776 0.730632 9.049747
v 0.893931 0.681786 9.049747
v 0.893931 1.086627 9.049747
v 0.942776 1.037781 9.049747
v 0.908970 1.099963 9.001070
v 0.608742 1.099963 9.001070
v 0.551836 0.733296 8.999431
v 0.957657 0.717136 9.001070
v 0.556009 1.051767 9.001070
v 0.908970 0.668450 9.001070
v 0.957657 1.051277 9.001070
v 0.591805 0.668450 9.001070
vn 0.0000 1.0000 0.0000
vn -0.4004 0.0000 0.9164
vn -0.5014 0.8652 0.0000
vn -0.4004 0.0000 -0.9164
vn 0.0000 -1.0000 0.0000
vn -0.0000 0.0000 -1.0000
vn -0.7859 -0.6183 0.0000
vn -1.0000 0.0000 0.0000
vn 0.0000 0.9645 0.2642
vn 1.0000 0.0000 0.0000
vn 0.0000 0.9999 0.0115
vn 0.7070 0.7070 0.0173
vn 0.0000 0.8455 0.5340
vn 0.0000 -0.8455 0.5340
vn 0.8174 0.0000 0.5761
vn -0.8174 0.0000 0.5761
vn 0.0000 0.0000 1.0000
vn 0.6314 0.6609 0.4058
vn 0.9202 0.0051 0.3915
vn 0.7062 -0.5452 0.4517
vn 0.6169 0.7870 0.0000
vn -0.7071 -0.7071 0.0000
vn -0.7071 0.7071 0.0000
vn 0.9711 0.2389 0.0000
vn 0.0000 -0.9645 0.2642
vn -0.6907 -0.7229 0.0186
vn 0.6599 -0.6599 0.3593
vn 0.6599 0.6599 0.3593
vn -0.6599 -0.6599 0.3593
vn -0.6599 0.6599 0.3593
vn -0.6537 -0.6537 0.3811
vn 0.7070 -0.7070 0.0173
vn 0.0000 -0.9999 0.0115
vn 0.9999 0.0000 0.0128
vn -0.7877 0.6157 0.0215
vn -0.9563 0.0000 0.2924
vn -0.6537 0.6537 0.3811
vn -0.9998 -0.0067 0.0182
vn 0.4004 0.0000 0.9164
vn 0.5014 0.8652 0.0000
vn 0.4004 0.0000 -0.9164
vn 0.7859 -0.6183 0.0000
vn -0.7070 0.7070 0.0173
vn -0.6314 0.6609 0.4058
vn -0.9202 0.0051 0.3915
vn -0.7062 -0.5452 0.4517
vn -0.6169 0.7870 0.0000
vn 0.7071 -0.7071 0.0000
vn 0.7071 0.7071 0.0000
vn -0.9711 0.2389 0.0000
vn 0.6907 -0.7229 0.0186
vn 0.6537 -0.6537 0.3811
vn -0.7070 -0.7070 0.0173
vn -0.9999 0.0000 0.0128
vn 0.7877 0.6157 0.0215
vn 0.9563 0.0000 0.2924
vn 0.6537 0.6537 0.3811
vn 0.9998 -0.0067 0.0182
usemtl None
s off
f 65//1 57//1 63//1 68//1
f 100//2 101//2 2//2 1//2
f 99//3 4//3 2//3 101//3
f 3//4 4//4 99//4 98//4
f 3//4 98//4 154//4 55//4
f 5//5 6//5 67//5 60//5
f 57//6 59//6 5//6 60//6 61//6 62//6 63//6
f 3//7 1//7 6//7 5//7
f 66//8 69//8 62//8 61//8
f 4//6 3//6 5//6 59//6 58//6
f 13//8 22//8 51//8 44//8
f 86//9 84//9 81//9 87//9
f 16//5 19//5 52//5 49//5
f 15//8 8//8 39//8 40//8
f 18//10 9//10 45//10 50//10
f 91//11 93//11 71//11 74//11
f 89//12 91//12 74//12 75//12
f 27//13 23//13 81//13 84//13 26//13 30//13
f 28//14 29//14 83//14 78//14 31//14 32//14
f 80//15 23//15 24//15 33//15 31//15 79//15
f 25//16 26//16 85//16 82//16 29//16 34//16
f 36//17 38//17 37//17 35//17
f 35//17 28//17 32//17 36//17
f 30//17 37//17 38//17 27//17
f 34//17 35//17 37//17 25//17
f 24//17 38//17 36//17 33//17
f 8//17 15//17 24//17 23//17
f 17//17 10//17 26//17 25//17
f 11//17 8//17 23//17 27//17
f 13//17 9//17 29//17 28//17
f 10//17 12//17 30//17 26//17
f 7//17 14//17 32//17 31//17
f 16//17 7//17 31//17 33//17
f 9//17 18//17 34//17 29//17
f 22//17 13//17 28//17 35//17
f 14//17 19//17 36//17 32//17
f 12//17 21//17 37//17 30//17
f 20//17 11//17 27//17 38//17
f 18//17 22//17 35//17 34//17
f 21//17 17//17 25//17 37//17
f 15//17 20//17 38//17 24//17
f 19//17 16//17 33//17 36//17
f 44//17 51//17 50//17 45//17
f 40//17 39//17 43//17 54//17
f 48//17 47//17 49//17 52//17
f 41//17 53//17 46//17 42//17
f 10//10 17//10 41//10 42//10
f 19//10 14//10 48//10 52//10
f 8//5 11//5 43//5 39//5
f 21//8 12//8 46//8 53//8
f 9//1 13//1 44//1 45//1
f 11//10 20//10 54//10 43//10
f 12//5 10//5 42//5 46//5
f 22//5 18//5 50//5 51//5
f 14//1 7//1 47//1 48//1
f 17//1 21//1 53//1 41//1
f 7//8 16//8 49//8 47//8
f 20//1 15//1 40//1 54//1
f 55//5 154//5 155//5 56//5
f 1//8 3//8 55//8 56//8
f 100//2 1//2 56//2 155//2
f 57//6 58//6 59//6
f 80//18 90//18 87//18 81//18
f 90//19 80//19 79//19 88//19
f 79//20 78//20 93//20 88//20
f 64//21 58//21 57//21 65//21
f 60//22 67//22 66//22 61//22
f 68//23 63//23 62//23 69//23
f 2//24 4//24 58//24 64//24
f 1//17 2//17 6//17
f 91//25 93//25 78//25 83//25
f 90//26 87//26 72//26 73//26
f 78//27 79//27 31//27
f 80//28 81//28 23//28
f 82//29 83//29 29//29
f 84//30 85//30 26//30
f 82//31 89//31 91//31 83//31
f 77//32 86//32 92//32 76//32
f 77//33 72//33 87//33 86//33
f 75//34 76//34 92//34 89//34
f 70//35 71//35 93//35 88//35
f 89//36 82//36 85//36 92//36
f 85//37 84//37 86//37 92//37
f 70//38 88//38 90//38 73//38
f 164//1 167//1 162//1 156//1
f 100//39 94//39 95//39 101//39
f 99//40 101//40 95//40 97//40
f 96//41 98//41 99//41 97//41
f 96//41 152//41 154//41 98//41
f 102//5 159//5 166//5 103//5
f 156//6 162//6 161//6 160//6 159//6 102//6 158//6
f 96//42 102//42 103//42 94//42
f 165//10 160//10 161//10 168//10
f 97//6 157//6 158//6 102//6 96//6
f 110//10 141//10 148//10 119//10
f 185//9 186//9 180//9 183//9
f 113//5 146//5 149//5 116//5
f 112//10 137//10 136//10 105//10
f 115//8 147//8 142//8 106//8
f 190//11 173//11 170//11 192//11
f 188//43 174//43 173//43 190//43
f 124//13 127//13 123//13 183//13 180//13 120//13
f 125//14 129//14 128//14 177//14 182//14 126//14
f 179//16 178//16 128//16 130//16 121//16 120//16
f 122//15 131//15 126//15 181//15 184//15 123//15
f 133//17 132//17 134//17 135//17
f 132//17 133//17 129//17 125//17
f 127//17 124//17 135//17 134//17
f 131//17 122//17 134//17 132//17
f 121//17 130//17 133//17 135//17
f 105//17 120//17 121//17 112//17
f 114//17 122//17 123//17 107//17
f 108//17 124//17 120//17 105//17
f 110//17 125//17 126//17 106//17
f 107//17 123//17 127//17 109//17
f 104//17 128//17 129//17 111//17
f 113//17 130//17 128//17 104//17
f 106//17 126//17 131//17 115//17
f 119//17 132//17 125//17 110//17
f 111//17 129//17 133//17 116//17
f 109//17 127//17 134//17 118//17
f 117//17 135//17 124//17 108//17
f 115//17 131//17 132//17 119//17
f 118//17 134//17 122//17 114//17
f 112//17 121//17 135//17 117//17
f 116//17 133//17 130//17 113//17
f 141//17 142//17 147//17 148//17
f 137//17 151//17 140//17 136//17
f 145//17 149//17 146//17 144//17
f 138//17 139//17 143//17 150//17
f 107//8 139//8 138//8 114//8
f 116//8 149//8 145//8 111//8
f 105//5 136//5 140//5 108//5
f 118//10 150//10 143//10 109//10
f 106//1 142//1 141//1 110//1
f 108//8 140//8 151//8 117//8
f 109//5 143//5 139//5 107//5
f 119//5 148//5 147//5 115//5
f 111//1 145//1 144//1 104//1
f 114//1 138//1 150//1 118//1
f 104//10 144//10 146//10 113//10
f 117//1 151//1 137//1 112//1
f 152//5 153//5 155//5 154//5
f 94//10 153//10 152//10 96//10
f 100//39 155//39 153//39 94//39
f 156//6 158//6 157//6
f 179//44 180//44 186//44 189//44
f 189//45 187//45 178//45 179//45
f 178//46 187//46 192//46 177//46
f 163//47 164//47 156//47 157//47
f 159//48 160//48 165//48 166//48
f 167//49 168//49 161//49 162//49
f 95//50 163//50 157//50 97//50
f 94//17 103//17 95//17
f 190//25 182//25 177//25 192//25
f 189//51 172//51 171//51 186//51
f 177//29 128//29 178//29
f 179//30 120//30 180//30
f 181//27 126//27 182//27
f 183//28 123//28 184//28
f 181//52 182//52 190//52 188//52
f 176//53 175//53 191//53 185//53
f 176//33 185//33 186//33 171//33
f 174//54 188//54 191//54 175//54
f 169//55 187//55 192//55 170//55
f 188//56 191//56 184//56 181//56
f 184//57 191//57 185//57 183//57
f 169//58 172//58 189//58 187//58
