# Blender v2.79 (sub 0) OBJ File: 'scalingscene_2.blend'
# www.blender.org
mtllib vat.mtl
o vat_Cylinder.007
v -5.632245 -0.036325 5.124267
v -5.632245 2.589632 5.875404
v -4.961742 -0.036325 5.401999
v -5.492876 2.589632 5.933132
v -4.684011 -0.036325 6.072501
v -5.435147 2.589632 6.072501
v -4.961742 -0.036325 6.743004
v -5.492876 2.589632 6.211870
v -5.632245 -0.036325 7.020735
v -5.632245 2.589632 6.269598
v -6.302748 -0.036325 6.743004
v -5.771614 2.589632 6.211870
v -6.580479 -0.036325 6.072501
v -5.829342 2.589632 6.072501
v -6.302748 -0.036325 5.401999
v -5.771614 2.589632 5.933132
v -4.961742 2.541158 5.401999
v -5.632245 2.541158 5.124267
v -4.684011 2.541158 6.072501
v -4.961742 2.541158 6.743004
v -5.632245 2.541158 7.020735
v -6.302748 2.541158 6.743004
v -6.580479 2.541158 6.072501
v -6.302748 2.541158 5.401999
v -5.632245 2.461334 5.114016
v -4.954493 2.461334 5.394750
v -4.673759 2.461334 6.072501
v -4.954493 2.461334 6.750253
v -5.632245 2.461334 7.030987
v -6.309996 2.461334 6.750253
v -6.590730 2.461334 6.072501
v -6.309996 2.461334 5.394750
v -4.961742 2.272823 5.401999
v -4.684011 2.272823 6.072501
v -4.961742 2.272823 6.743004
v -5.632245 2.272823 7.020735
v -6.302748 2.272823 6.743004
v -6.580479 2.272823 6.072501
v -6.302748 2.272823 5.401999
v -5.632245 2.272823 5.124267
v -5.632245 2.270044 5.089545
v -5.632245 2.427405 5.089545
v -6.327300 2.427405 5.377447
v -6.615201 2.427405 6.072501
v -6.327300 2.427405 6.767556
v -5.632245 2.427405 7.055457
v -4.937190 2.427405 6.767556
v -4.649289 2.427405 6.072501
v -4.937190 2.427405 5.377447
v -4.937190 2.270044 5.377447
v -4.649289 2.270044 6.072501
v -4.937190 2.270044 6.767556
v -5.632245 2.270044 7.055457
v -6.327300 2.270044 6.767556
v -6.615201 2.270044 6.072501
v -6.327300 2.270044 5.377447
v -5.165287 2.589632 5.605544
v -5.632245 2.589632 5.412124
v -4.971867 2.589632 6.072501
v -5.165287 2.589632 6.539459
v -5.632245 2.589632 6.732879
v -6.099202 2.589632 6.539459
v -6.292623 2.589632 6.072501
v -6.099202 2.589632 5.605544
v -5.581225 2.893633 6.021482
v -5.632245 2.893633 6.000348
v -5.560091 2.893633 6.072501
v -5.581225 2.893633 6.123521
v -5.632245 2.893633 6.144654
v -5.683265 2.893633 6.123521
v -5.704398 2.893633 6.072501
v -5.683265 2.893633 6.021482
v -5.771614 2.745217 5.933132
v -5.632245 2.745217 5.875404
v -5.771614 2.745217 6.211870
v -5.829342 2.745217 6.072501
v -5.492876 2.745217 6.211870
v -5.632245 2.745217 6.269598
v -5.492876 2.745217 5.933132
v -5.435147 2.745217 6.072501
v -5.632245 2.684094 5.875404
v -5.829342 2.684094 6.072501
v -5.632245 2.684094 6.269598
v -5.435147 2.684094 6.072501
v -5.771614 2.684094 5.933132
v -5.771614 2.684094 6.211870
v -5.492876 2.684094 6.211870
v -5.492876 2.684094 5.933132
v -5.797261 2.678470 5.907485
v -5.797261 2.750841 5.907485
v -5.797261 2.678470 6.237518
v -5.797261 2.750841 6.237518
v -5.467228 2.678470 6.237518
v -5.467228 2.750841 6.237518
v -5.467228 2.678470 5.907485
v -5.467228 2.750841 5.907485
v -5.632245 2.750841 5.839133
v -5.398876 2.750841 6.072501
v -5.632245 2.750841 6.305870
v -5.865613 2.750841 6.072501
v -5.632245 2.678470 5.839133
v -5.865613 2.678470 6.072501
v -5.632245 2.678470 6.305870
v -5.398876 2.678470 6.072501
v -5.492876 2.823009 5.933132
v -5.632245 2.823009 5.875404
v -5.435147 2.823009 6.072501
v -5.492876 2.823009 6.211870
v -5.632245 2.823009 6.269598
v -5.771614 2.823009 6.211870
v -5.829342 2.823009 6.072501
v -5.771614 2.823009 5.933132
v -4.917565 1.529958 5.508651
v -4.917565 0.706541 5.508651
v -4.728188 1.529958 5.965849
v -4.728188 0.706541 5.965849
v -4.961742 1.645397 6.743004
v -4.961742 0.591101 6.743004
v -5.632245 1.645397 7.020735
v -5.632245 0.591101 7.020735
v -6.302747 1.645397 6.743004
v -6.302747 0.591101 6.743004
v -6.580479 1.645397 6.072501
v -6.580479 0.591101 6.072501
v -6.302747 1.645397 5.401999
v -6.302747 0.591101 5.401999
v -5.632245 0.591101 5.124267
v -5.632245 1.645397 5.124267
v -4.961742 1.645397 5.401999
v -4.961742 0.591101 5.401999
v -4.684011 1.645397 6.072501
v -4.684011 0.591101 6.072501
v -4.841100 1.529958 5.476978
v -4.841100 0.706541 5.476978
v -4.651722 1.529958 5.934176
v -4.651722 0.706541 5.934176
vn 0.3800 0.1178 -0.9174
vn 0.9174 0.1178 -0.3800
vn 0.9174 0.1178 0.3800
vn 0.3800 0.1178 0.9174
vn -0.3800 0.1178 0.9174
vn -0.9174 0.1178 0.3800
vn -0.3827 0.0000 -0.9239
vn -0.9174 0.1178 -0.3800
vn -0.3800 0.1178 -0.9174
vn 0.0000 -1.0000 0.0000
vn 0.0686 0.9838 -0.1657
vn 0.1657 0.9838 -0.0686
vn 0.1657 0.9838 0.0686
vn 0.0686 0.9838 0.1657
vn -0.0686 0.9838 0.1657
vn -0.1657 0.9838 0.0686
vn -0.1657 0.9838 -0.0686
vn -0.0686 0.9838 -0.1657
vn -0.0330 -0.9963 0.0798
vn -0.7688 0.5545 -0.3185
vn 0.0330 -0.9963 0.0797
vn -0.3185 0.5545 -0.7688
vn 0.0798 -0.9963 0.0330
vn 0.3185 0.5545 -0.7688
vn 0.0798 -0.9963 -0.0330
vn 0.7688 0.5545 -0.3185
vn 0.3827 0.0000 -0.9239
vn 0.9239 0.0000 -0.3827
vn 0.9239 0.0000 0.3827
vn 0.3827 0.0000 0.9239
vn -0.3827 0.0000 0.9239
vn -0.9239 0.0000 0.3827
vn -0.9239 0.0000 -0.3827
vn -0.7688 0.5545 0.3185
vn -0.0798 -0.9963 0.0330
vn -0.3185 0.5545 0.7688
vn -0.0798 -0.9963 -0.0330
vn 0.3185 0.5545 0.7688
vn -0.0330 -0.9963 -0.0798
vn 0.7688 0.5545 0.3185
vn 0.0330 -0.9963 -0.0797
vn 0.0000 1.0000 0.0000
vn 0.1529 0.9862 0.0633
vn 0.1529 -0.9862 -0.0633
vn 0.0633 0.9862 -0.1529
vn 0.0633 -0.9862 0.1529
vn -0.1529 0.9862 -0.0633
vn -0.0633 -0.9862 0.1529
vn -0.0633 0.9862 0.1529
vn -0.1529 -0.9862 -0.0633
vn -0.0633 -0.9862 -0.1529
vn -0.1529 0.9862 0.0633
vn -0.1529 -0.9862 0.0633
vn -0.0633 0.9862 -0.1529
vn 0.1529 -0.9862 0.0633
vn 0.1529 0.9862 -0.0633
vn 0.0633 -0.9862 -0.1529
vn 0.0633 0.9862 0.1529
vn 0.1997 0.8530 -0.4822
vn 0.4822 0.8530 -0.1997
vn 0.4822 0.8530 0.1997
vn 0.1997 0.8530 0.4822
vn -0.1997 0.8530 0.4822
vn -0.4822 0.8530 0.1997
vn -0.4822 0.8530 -0.1997
vn -0.1997 0.8530 -0.4822
usemtl None
s off
f 25//1 18//1 17//1 26//1
f 26//2 17//2 19//2 27//2
f 27//3 19//3 20//3 28//3
f 28//4 20//4 21//4 29//4
f 29//5 21//5 22//5 30//5
f 30//6 22//6 23//6 31//6
f 74//7 73//7 112//7 106//7
f 31//8 23//8 24//8 32//8
f 32//9 24//9 18//9 25//9
f 1//10 3//10 5//10 7//10 9//10 11//10 13//10 15//10
f 58//11 57//11 17//11 18//11
f 57//12 59//12 19//12 17//12
f 59//13 60//13 20//13 19//13
f 60//14 61//14 21//14 20//14
f 61//15 62//15 22//15 21//15
f 62//16 63//16 23//16 22//16
f 63//17 64//17 24//17 23//17
f 64//18 58//18 18//18 24//18
f 33//19 40//19 41//19 50//19
f 31//20 32//20 43//20 44//20
f 40//21 39//21 56//21 41//21
f 32//22 25//22 42//22 43//22
f 39//23 38//23 55//23 56//23
f 25//24 26//24 49//24 42//24
f 38//25 37//25 54//25 55//25
f 26//26 27//26 48//26 49//26
f 128//27 40//27 33//27 129//27
f 129//28 33//28 34//28 131//28
f 131//29 34//29 35//29 117//29
f 117//30 35//30 36//30 119//30
f 119//31 36//31 37//31 121//31
f 121//32 37//32 38//32 123//32
f 123//33 38//33 39//33 125//33
f 125//7 39//7 40//7 128//7
f 56//7 43//7 42//7 41//7
f 55//33 44//33 43//33 56//33
f 54//32 45//32 44//32 55//32
f 53//31 46//31 45//31 54//31
f 52//30 47//30 46//30 53//30
f 51//29 48//29 47//29 52//29
f 50//28 49//28 48//28 51//28
f 41//27 42//27 49//27 50//27
f 30//34 31//34 44//34 45//34
f 34//35 33//35 50//35 51//35
f 29//36 30//36 45//36 46//36
f 35//37 34//37 51//37 52//37
f 28//38 29//38 46//38 47//38
f 36//39 35//39 52//39 53//39
f 27//40 28//40 47//40 48//40
f 37//41 36//41 53//41 54//41
f 2//42 4//42 57//42 58//42
f 4//42 6//42 59//42 57//42
f 6//42 8//42 60//42 59//42
f 8//42 10//42 61//42 60//42
f 10//42 12//42 62//42 61//42
f 12//42 14//42 63//42 62//42
f 14//42 16//42 64//42 63//42
f 16//42 2//42 58//42 64//42
f 65//42 66//42 72//42 71//42 70//42 69//42 68//42 67//42
f 76//32 75//32 110//32 111//32
f 78//30 77//30 108//30 109//30
f 80//28 79//28 105//28 107//28
f 73//33 76//33 111//33 112//33
f 75//31 78//31 109//31 110//31
f 77//29 80//29 107//29 108//29
f 79//27 74//27 106//27 105//27
f 76//43 73//43 90//43 100//43
f 82//44 86//44 91//44 102//44
f 78//45 75//45 92//45 99//45
f 81//46 85//46 89//46 101//46
f 80//47 77//47 94//47 98//47
f 88//48 81//48 101//48 95//48
f 74//49 79//49 96//49 97//49
f 87//50 84//50 104//50 93//50
f 2//7 16//7 85//7 81//7
f 14//32 12//32 86//32 82//32
f 10//30 8//30 87//30 83//30
f 6//28 4//28 88//28 84//28
f 16//33 14//33 82//33 85//33
f 12//31 10//31 83//31 86//31
f 8//29 6//29 84//29 87//29
f 4//27 2//27 81//27 88//27
f 95//27 101//27 97//27 96//27
f 93//29 104//29 98//29 94//29
f 91//31 103//31 99//31 92//31
f 89//33 102//33 100//33 90//33
f 104//28 95//28 96//28 98//28
f 103//30 93//30 94//30 99//30
f 102//32 91//32 92//32 100//32
f 101//7 89//7 90//7 97//7
f 83//51 87//51 93//51 103//51
f 79//52 80//52 98//52 96//52
f 84//53 88//53 95//53 104//53
f 77//54 78//54 99//54 94//54
f 85//55 82//55 102//55 89//55
f 75//56 76//56 100//56 92//56
f 86//57 83//57 103//57 91//57
f 73//58 74//58 97//58 90//58
f 66//59 65//59 105//59 106//59
f 65//60 67//60 107//60 105//60
f 67//61 68//61 108//61 107//61
f 68//62 69//62 109//62 108//62
f 69//63 70//63 110//63 109//63
f 70//64 71//64 111//64 110//64
f 71//65 72//65 112//65 111//65
f 72//66 66//66 106//66 112//66
f 15//7 126//7 127//7 1//7
f 126//7 125//7 128//7 127//7
f 13//33 124//33 126//33 15//33
f 124//33 123//33 125//33 126//33
f 11//32 122//32 124//32 13//32
f 122//32 121//32 123//32 124//32
f 9//31 120//31 122//31 11//31
f 120//31 119//31 121//31 122//31
f 7//30 118//30 120//30 9//30
f 118//30 117//30 119//30 120//30
f 5//29 132//29 118//29 7//29
f 132//29 131//29 117//29 118//29
f 3//28 130//28 132//28 5//28
f 113//42 115//42 135//42 133//42
f 1//27 127//27 130//27 3//27
f 127//27 128//27 129//27 130//27
f 113//28 114//28 130//28 129//28
f 116//28 115//28 131//28 132//28
f 114//28 116//28 132//28 130//28
f 115//28 113//28 129//28 131//28
f 134//28 133//28 135//28 136//28
f 115//30 116//30 136//30 135//30
f 116//10 114//10 134//10 136//10
f 114//7 113//7 133//7 134//7
