# Blender v2.79 (sub 0) OBJ File: 'scalingscene_2.blend'
# www.blender.org
mtllib sidewalk_s.mtl
o Sidewalk_m.001_Cube.075
v -5.097075 0.055559 6.091100
v -7.105060 0.055559 6.091100
v -7.105063 0.109331 7.192531
v -5.097078 0.109331 7.192531
v -7.105062 0.109331 6.091100
v -5.097076 0.109331 6.091100
v -7.105064 0.001787 7.212082
v -5.097078 0.001787 7.212082
v -7.105057 0.001787 6.091100
v -5.097073 0.001787 6.091100
v -7.085707 0.164565 6.110378
v -5.116432 0.164565 6.110378
v -7.105064 0.012934 7.212082
v -5.097078 0.012934 7.212082
v -7.105064 0.069936 7.204936
v -5.097078 0.069936 7.204936
v -7.085708 0.164565 7.129382
v -7.087179 0.142480 7.181854
v -5.114962 0.142480 7.181853
v -5.116433 0.164565 7.129382
vn 1.0000 0.0000 0.0000
vn -1.0000 -0.0000 -0.0000
vn 0.9427 0.3335 0.0028
vn -0.9427 0.3335 0.0028
vn 0.0000 -1.0000 -0.0000
vn 0.0000 0.0000 -1.0000
vn 0.0000 0.3003 0.9538
vn 0.0000 1.0000 0.0000
vn -0.0000 0.3295 -0.9441
vn 0.0000 0.0000 1.0000
vn 0.0000 0.1244 0.9922
vn 0.0000 0.9217 0.3879
vn 0.0000 0.3066 0.9518
usemtl Material.002
s off
f 1//1 6//1 4//1 16//1
f 2//2 9//2 7//2 13//2 15//2
f 4//3 6//3 12//3 20//3 19//3
f 1//1 16//1 14//1 8//1 10//1
f 3//4 18//4 17//4 11//4 5//4
f 3//2 5//2 2//2 15//2
f 7//5 9//5 10//5 8//5
f 5//6 6//6 1//6 10//6 9//6 2//6
f 15//7 16//7 4//7 3//7
f 17//8 20//8 12//8 11//8
f 12//9 6//9 5//9 11//9
f 7//10 8//10 14//10 13//10
f 13//11 14//11 16//11 15//11
f 17//12 18//12 19//12 20//12
f 18//13 3//13 4//13 19//13
