# Blender v2.79 (sub 0) OBJ File: 'scalingscene_2.blend'
# www.blender.org
mtllib sidewalk_m.mtl
o Sidewalk_m_Cube.041
v -5.097075 0.055559 3.181813
v -7.105060 0.055559 3.181813
v -7.105063 0.109331 4.283245
v -5.097078 0.109331 4.283244
v -7.105062 0.109331 3.181813
v -5.097076 0.109331 3.181813
v -7.105064 0.001787 4.302795
v -5.097078 0.001787 4.302795
v -7.105057 0.001787 3.181813
v -5.097073 0.001787 3.181813
v -7.085707 0.164565 3.201091
v -5.116432 0.164565 3.201091
v -7.105064 0.012934 4.302795
v -5.097078 0.012934 4.302795
v -7.105064 0.069936 4.295650
v -5.097078 0.069936 4.295649
v -7.085708 0.164565 4.220095
v -7.087179 0.142480 4.272567
v -5.114962 0.142480 4.272567
v -5.116433 0.164565 4.220095
v -7.105066 0.055559 3.181814
v -9.113050 0.055559 3.181814
v -9.113054 0.109331 4.283245
v -7.105070 0.109331 4.283245
v -9.113053 0.109331 3.181814
v -7.105068 0.109331 3.181814
v -9.113055 0.001787 4.302796
v -7.105070 0.001787 4.302796
v -9.113049 0.001787 3.181814
v -7.105064 0.001787 3.181814
v -9.093699 0.164565 3.201092
v -7.124423 0.164565 3.201092
v -9.113055 0.012934 4.302796
v -7.105070 0.012934 4.302796
v -9.113055 0.069936 4.295650
v -7.105070 0.069936 4.295650
v -9.093699 0.164565 4.220096
v -9.095171 0.142480 4.272568
v -7.122953 0.142480 4.272568
v -7.124424 0.164565 4.220096
v -9.113058 0.055559 3.181814
v -11.121042 0.055559 3.181815
v -11.121046 0.109331 4.283246
v -9.113062 0.109331 4.283246
v -11.121044 0.109331 3.181815
v -9.113059 0.109331 3.181815
v -11.121046 0.001787 4.302797
v -9.113062 0.001787 4.302796
v -11.121040 0.001787 3.181815
v -9.113055 0.001787 3.181814
v -11.101690 0.164565 3.201093
v -9.132414 0.164565 3.201092
v -11.121046 0.012934 4.302797
v -9.113062 0.012934 4.302796
v -11.121046 0.069936 4.295650
v -9.113062 0.069936 4.295650
v -11.101690 0.164565 4.220097
v -11.103163 0.142480 4.272569
v -9.130945 0.142480 4.272568
v -9.132416 0.164565 4.220097
vn 1.0000 0.0000 0.0000
vn -1.0000 -0.0000 -0.0000
vn 0.9427 0.3335 0.0028
vn -0.9427 0.3335 0.0028
vn 0.0000 -1.0000 -0.0000
vn -0.0000 0.0000 -1.0000
vn 0.0000 0.3003 0.9538
vn 0.0000 1.0000 0.0000
vn -0.0000 0.3295 -0.9441
vn 0.0000 0.0000 1.0000
vn 0.0000 0.1244 0.9922
vn 0.0000 0.9217 0.3879
vn 0.0000 0.3066 0.9518
usemtl Material.002
s off
f 1//1 6//1 4//1 16//1
f 2//2 9//2 7//2 13//2 15//2
f 4//3 6//3 12//3 20//3 19//3
f 1//1 16//1 14//1 8//1 10//1
f 3//4 18//4 17//4 11//4 5//4
f 3//2 5//2 2//2 15//2
f 7//5 9//5 10//5 8//5
f 5//6 6//6 1//6 10//6 9//6 2//6
f 15//7 16//7 4//7 3//7
f 17//8 20//8 12//8 11//8
f 12//9 6//9 5//9 11//9
f 7//10 8//10 14//10 13//10
f 13//11 14//11 16//11 15//11
f 17//12 18//12 19//12 20//12
f 18//13 3//13 4//13 19//13
f 21//1 26//1 24//1 36//1
f 22//2 29//2 27//2 33//2 35//2
f 24//3 26//3 32//3 40//3 39//3
f 21//1 36//1 34//1 28//1 30//1
f 23//4 38//4 37//4 31//4 25//4
f 23//2 25//2 22//2 35//2
f 27//5 29//5 30//5 28//5
f 25//6 26//6 21//6 30//6 29//6 22//6
f 35//7 36//7 24//7 23//7
f 37//8 40//8 32//8 31//8
f 32//9 26//9 25//9 31//9
f 27//10 28//10 34//10 33//10
f 33//11 34//11 36//11 35//11
f 37//12 38//12 39//12 40//12
f 38//13 23//13 24//13 39//13
f 41//1 46//1 44//1 56//1
f 42//2 49//2 47//2 53//2 55//2
f 44//3 46//3 52//3 60//3 59//3
f 41//1 56//1 54//1 48//1 50//1
f 43//4 58//4 57//4 51//4 45//4
f 43//2 45//2 42//2 55//2
f 47//5 49//5 50//5 48//5
f 45//6 46//6 41//6 50//6 49//6 42//6
f 55//7 56//7 44//7 43//7
f 57//8 60//8 52//8 51//8
f 52//9 46//9 45//9 51//9
f 47//10 48//10 54//10 53//10
f 53//11 54//11 56//11 55//11
f 57//12 58//12 59//12 60//12
f 58//13 43//13 44//13 59//13
