# Blender v2.79 (sub 0) OBJ File: 'scalingscene_2.blend'
# www.blender.org
mtllib sidewalk_l.mtl
o Sidewalk_l_Cube.042
v 1.003995 0.055559 -0.680262
v -1.003990 0.055559 -0.680262
v -1.003993 0.109331 0.421169
v 1.003992 0.109331 0.421169
v -1.003992 0.109331 -0.680261
v 1.003993 0.109331 -0.680262
v -1.003994 0.001787 0.440720
v 1.003991 0.001787 0.440720
v -1.003987 0.001787 -0.680262
v 1.003997 0.001787 -0.680262
v -0.984637 0.164565 -0.660984
v 0.984638 0.164565 -0.660984
v -1.003994 0.012934 0.440720
v 1.003991 0.012934 0.440720
v -1.003994 0.069936 0.433574
v 1.003991 0.069936 0.433574
v -0.984638 0.164565 0.358020
v -0.986109 0.142480 0.410492
v 0.986108 0.142480 0.410492
v 0.984637 0.164565 0.358020
v -1.003996 0.055559 -0.680261
v -3.011981 0.055559 -0.680261
v -3.011985 0.109331 0.421170
v -1.004000 0.109331 0.421170
v -3.011983 0.109331 -0.680261
v -1.003998 0.109331 -0.680261
v -3.011985 0.001787 0.440721
v -1.004000 0.001787 0.440721
v -3.011979 0.001787 -0.680261
v -1.003994 0.001787 -0.680261
v -2.992628 0.164565 -0.660983
v -1.023353 0.164565 -0.660983
v -3.011985 0.012934 0.440721
v -1.004000 0.012934 0.440721
v -3.011985 0.069936 0.433575
v -1.004000 0.069936 0.433575
v -2.992630 0.164565 0.358021
v -2.994101 0.142480 0.410493
v -1.021883 0.142480 0.410493
v -1.023355 0.164565 0.358021
v -3.011988 0.055559 -0.680261
v -5.019972 0.055559 -0.680260
v -5.019976 0.109331 0.421171
v -3.011992 0.109331 0.421170
v -5.019975 0.109331 -0.680260
v -3.011989 0.109331 -0.680261
v -5.019977 0.001787 0.440722
v -3.011992 0.001787 0.440722
v -5.019970 0.001787 -0.680260
v -3.011986 0.001787 -0.680261
v -5.000620 0.164565 -0.660982
v -3.031344 0.164565 -0.660983
v -5.019977 0.012934 0.440722
v -3.011992 0.012934 0.440722
v -5.019977 0.069936 0.433576
v -3.011992 0.069936 0.433575
v -5.000621 0.164565 0.358021
v -5.002092 0.142480 0.410493
v -3.029875 0.142480 0.410493
v -3.031346 0.164565 0.358021
v -5.019979 0.055559 -0.680260
v -7.027964 0.055559 -0.680260
v -7.027967 0.109331 0.421171
v -5.019983 0.109331 0.421171
v -7.027966 0.109331 -0.680260
v -5.019981 0.109331 -0.680260
v -7.027968 0.001787 0.440722
v -5.019983 0.001787 0.440722
v -7.027962 0.001787 -0.680260
v -5.019977 0.001787 -0.680260
v -7.008611 0.164565 -0.660982
v -5.039336 0.164565 -0.660982
v -7.027968 0.012934 0.440722
v -5.019983 0.012934 0.440722
v -7.027968 0.069936 0.433576
v -5.019983 0.069936 0.433576
v -7.008612 0.164565 0.358022
v -7.010084 0.142480 0.410494
v -5.037867 0.142480 0.410494
v -5.039337 0.164565 0.358022
v -7.027970 0.055559 -0.680259
v -9.035955 0.055559 -0.680259
v -9.035959 0.109331 0.421172
v -7.027974 0.109331 0.421172
v -9.035957 0.109331 -0.680259
v -7.027972 0.109331 -0.680259
v -9.035960 0.001787 0.440723
v -7.027974 0.001787 0.440723
v -9.035954 0.001787 -0.680259
v -7.027968 0.001787 -0.680259
v -9.016603 0.164565 -0.660981
v -7.047327 0.164565 -0.660981
v -9.035960 0.012934 0.440723
v -7.027974 0.012934 0.440723
v -9.035960 0.069936 0.433577
v -7.027974 0.069936 0.433577
v -9.016604 0.164565 0.358023
v -9.018076 0.142480 0.410495
v -7.045858 0.142480 0.410495
v -7.047329 0.164565 0.358023
vn 1.0000 0.0000 0.0000
vn -1.0000 -0.0000 -0.0000
vn 0.9427 0.3335 0.0028
vn -0.9427 0.3335 0.0028
vn 0.0000 -1.0000 -0.0000
vn -0.0000 0.0000 -1.0000
vn 0.0000 0.3003 0.9538
vn 0.0000 1.0000 0.0000
vn -0.0000 0.3295 -0.9441
vn 0.0000 0.0000 1.0000
vn 0.0000 0.1244 0.9922
vn 0.0000 0.9217 0.3879
vn 0.0000 0.3066 0.9518
vn -0.9427 0.3335 0.0027
vn -0.9428 0.3335 0.0027
usemtl Material.002
s off
f 1//1 6//1 4//1 16//1
f 2//2 9//2 7//2 13//2 15//2
f 4//3 6//3 12//3 20//3 19//3
f 1//1 16//1 14//1 8//1 10//1
f 3//4 18//4 17//4 11//4 5//4
f 3//2 5//2 2//2 15//2
f 7//5 9//5 10//5 8//5
f 5//6 6//6 1//6 10//6 9//6 2//6
f 15//7 16//7 4//7 3//7
f 17//8 20//8 12//8 11//8
f 12//9 6//9 5//9 11//9
f 7//10 8//10 14//10 13//10
f 13//11 14//11 16//11 15//11
f 17//12 18//12 19//12 20//12
f 18//13 3//13 4//13 19//13
f 21//1 26//1 24//1 36//1
f 22//2 29//2 27//2 33//2 35//2
f 24//3 26//3 32//3 40//3 39//3
f 21//1 36//1 34//1 28//1 30//1
f 23//14 38//14 37//14 31//14 25//14
f 23//2 25//2 22//2 35//2
f 27//5 29//5 30//5 28//5
f 25//6 26//6 21//6 30//6 29//6 22//6
f 35//7 36//7 24//7 23//7
f 37//8 40//8 32//8 31//8
f 32//9 26//9 25//9 31//9
f 27//10 28//10 34//10 33//10
f 33//11 34//11 36//11 35//11
f 37//12 38//12 39//12 40//12
f 38//13 23//13 24//13 39//13
f 41//1 46//1 44//1 56//1
f 42//2 49//2 47//2 53//2 55//2
f 44//3 46//3 52//3 60//3 59//3
f 41//1 56//1 54//1 48//1 50//1
f 43//4 58//4 57//4 51//4 45//4
f 43//2 45//2 42//2 55//2
f 47//5 49//5 50//5 48//5
f 45//6 46//6 41//6 50//6 49//6 42//6
f 55//7 56//7 44//7 43//7
f 57//8 60//8 52//8 51//8
f 52//9 46//9 45//9 51//9
f 47//10 48//10 54//10 53//10
f 53//11 54//11 56//11 55//11
f 57//12 58//12 59//12 60//12
f 58//13 43//13 44//13 59//13
f 61//1 66//1 64//1 76//1
f 62//2 69//2 67//2 73//2 75//2
f 64//3 66//3 72//3 80//3 79//3
f 61//1 76//1 74//1 68//1 70//1
f 63//4 78//4 77//4 71//4 65//4
f 63//2 65//2 62//2 75//2
f 67//5 69//5 70//5 68//5
f 65//6 66//6 61//6 70//6 69//6 62//6
f 75//7 76//7 64//7 63//7
f 77//8 80//8 72//8 71//8
f 72//9 66//9 65//9 71//9
f 67//10 68//10 74//10 73//10
f 73//11 74//11 76//11 75//11
f 77//12 78//12 79//12 80//12
f 78//13 63//13 64//13 79//13
f 81//1 86//1 84//1 96//1
f 82//2 89//2 87//2 93//2 95//2
f 84//3 86//3 92//3 100//3 99//3
f 81//1 96//1 94//1 88//1 90//1
f 83//15 98//15 97//15 91//15 85//15
f 83//2 85//2 82//2 95//2
f 87//5 89//5 90//5 88//5
f 85//6 86//6 81//6 90//6 89//6 82//6
f 95//7 96//7 84//7 83//7
f 97//8 100//8 92//8 91//8
f 92//9 86//9 85//9 91//9
f 87//10 88//10 94//10 93//10
f 93//11 94//11 96//11 95//11
f 97//12 98//12 99//12 100//12
f 98//13 83//13 84//13 99//13
