# Blender v2.79 (sub 0) OBJ File: 'scalingscene_2.blend'
# www.blender.org
mtllib sidewalk_corner.mtl
o Sidewalk_corner_Cube.005
v 1.041157 0.088708 2.870939
v -0.966831 0.142480 3.972371
v 1.041154 0.142480 3.972371
v -0.966830 0.142480 2.870940
v 1.041155 0.142480 2.870939
v -0.966832 0.034936 3.991922
v 1.041154 0.034936 3.991922
v -0.966825 0.034936 2.870939
v 1.041159 0.034936 2.870939
v -0.947475 0.197713 2.890218
v 1.021801 0.197713 2.890217
v -0.966832 0.046083 3.991925
v 1.041154 0.046083 3.991922
v -0.970405 0.103084 3.988352
v 1.041154 0.103084 3.984776
v -0.947476 0.197713 3.909221
v -0.948947 0.175629 3.961693
v 1.023270 0.175629 3.961693
v 1.021799 0.197713 3.909221
v -2.087813 0.088708 5.999908
v -0.986382 0.142480 5.999912
v -0.986382 0.142480 3.991928
v -2.087813 0.142480 5.999911
v -2.087813 0.142480 3.991926
v -0.966831 0.034936 5.999913
v -0.966831 0.034936 3.991928
v -2.087813 0.034936 5.999907
v -2.087813 0.034936 3.991922
v -2.068535 0.197713 5.980556
v -2.068536 0.197713 4.011281
v -0.966831 0.046083 5.999913
v -0.973977 0.103084 5.999913
v -1.049531 0.197713 5.980557
v -0.997059 0.175629 5.982029
v -0.997060 0.175629 4.009811
v -1.049532 0.197713 4.011282
v -2.077321 0.142480 2.881433
v -2.077319 0.034936 2.881431
v -2.058005 0.197713 2.900749
vn 1.0000 0.0000 0.0000
vn 0.9427 0.3335 0.0028
vn 0.0000 -1.0000 -0.0000
vn -0.0000 0.0000 -1.0000
vn 0.0008 0.3389 0.9408
vn 0.0000 1.0000 0.0000
vn 0.0000 0.3295 -0.9441
vn 0.0000 -0.0001 1.0000
vn 0.0009 0.0936 0.9956
vn 0.0000 0.9217 0.3879
vn 0.0000 0.3066 0.9518
vn -0.0000 -0.0000 1.0000
vn -0.0089 0.3326 -0.9430
vn -0.0094 0.0000 -1.0000
vn 0.0028 0.3335 0.9427
vn -1.0000 0.0000 0.0000
vn 0.9408 0.3389 0.0008
vn -0.9441 0.3295 0.0000
vn 0.9956 0.0936 0.0009
vn 0.3879 0.9217 -0.0000
vn 0.9518 0.3066 -0.0000
vn 0.3693 0.8528 0.3693
vn 0.6990 -0.1519 0.6988
vn 0.6903 0.2173 0.6901
vn -0.9430 0.3326 -0.0089
vn -1.0000 -0.0000 -0.0094
usemtl Material.002
s off
f 1//1 5//1 3//1 15//1
f 3//2 5//2 11//2 19//2 18//2
f 1//1 15//1 13//1 7//1 9//1
f 6//3 8//3 9//3 7//3
f 4//4 5//4 1//4 9//4 8//4
f 14//5 15//5 3//5 2//5
f 16//6 19//6 11//6 10//6
f 11//7 5//7 4//7 10//7
f 6//8 7//8 13//8 12//8
f 12//9 13//9 15//9 14//9
f 16//10 17//10 18//10 19//10
f 17//11 2//11 3//11 18//11
f 16//6 10//6 39//6 30//6 36//6
f 20//12 27//12 25//12 31//12 32//12
f 4//13 37//13 39//13 10//13
f 4//14 8//14 38//14 37//14
f 21//15 34//15 33//15 29//15 23//15
f 21//12 23//12 20//12 32//12
f 25//3 27//3 28//3 26//3
f 23//16 24//16 28//16 27//16 20//16
f 32//17 14//17 22//17 21//17
f 33//6 36//6 30//6 29//6
f 30//18 24//18 23//18 29//18
f 25//1 26//1 12//1 31//1
f 31//19 12//19 14//19 32//19
f 33//20 34//20 35//20 36//20
f 34//21 21//21 22//21 35//21
f 17//22 16//22 36//22 35//22
f 2//23 17//23 35//23 22//23
f 22//24 14//24 2//24
f 37//25 24//25 30//25 39//25
f 38//26 28//26 24//26 37//26
