# Blender v2.79 (sub 0) OBJ File: 'scalingscene_2.blend'
# www.blender.org
mtllib atm.mtl
o atm_Cube.061
v 5.196626 0.000000 4.565453
v 5.196626 0.298587 4.743333
v 5.196626 0.000000 4.511389
v 5.196626 0.312285 4.669096
v 5.769856 0.000000 4.565453
v 5.769856 0.298587 4.743333
v 5.769856 0.000000 4.511389
v 5.769856 0.312285 4.669096
v 5.228682 0.586344 4.729072
v 5.196626 0.553713 4.652585
v 5.769856 0.553713 4.652585
v 5.737801 0.586344 4.729072
v 5.769855 1.209136 4.158519
v 5.737800 0.896479 4.559361
v 5.769855 1.177037 4.083281
v 5.769855 0.900884 4.453473
v 5.196626 1.209135 4.158519
v 5.228681 0.896479 4.559361
v 5.196626 1.177037 4.083281
v 5.196626 0.900884 4.453473
v 5.196626 0.137192 4.677689
v 5.196626 0.141301 4.558701
v 5.769856 0.141301 4.558701
v 5.769856 0.137192 4.677689
v 5.196626 0.036639 4.055943
v 5.196626 0.000000 4.008631
v 5.769856 0.000000 4.008631
v 5.769856 0.036639 4.055943
v 5.769856 0.558223 4.744460
v 5.196626 0.558223 4.744460
v 5.196626 0.924599 4.543972
v 5.769855 0.924599 4.543972
v 5.737801 0.565292 4.690600
v 5.228682 0.565292 4.690600
v 5.228681 0.875426 4.520889
v 5.737800 0.875427 4.520889
vn -1.0000 0.0000 0.0000
vn 0.0000 0.5424 -0.8401
vn 1.0000 -0.0000 0.0000
vn 0.0000 -0.3768 0.9263
vn 0.0000 -1.0000 0.0000
vn 0.0000 0.9988 -0.0490
vn 0.0000 -0.0043 1.0000
vn 0.0000 -0.0682 -0.9977
vn 0.0000 -0.8015 -0.5979
vn 0.0000 0.8045 0.5939
vn -0.0000 0.9198 -0.3924
vn 0.0000 -0.4975 -0.8675
vn 0.0000 -0.6332 0.7740
vn 0.0000 0.7906 -0.6123
vn 0.0000 0.9790 -0.2038
vn 0.0000 0.4800 0.8772
vn 0.0000 0.8772 -0.4800
vn -0.0000 -0.8772 0.4800
usemtl None
s off
f 21//1 2//1 4//1 22//1
f 22//2 4//2 8//2 23//2
f 23//3 8//3 6//3 24//3
f 24//4 6//4 2//4 21//4
f 3//5 7//5 5//5 1//5
f 4//1 2//1 30//1 10//1
f 11//6 10//6 30//6 29//6
f 2//7 6//7 29//7 30//7
f 8//8 4//8 10//8 11//8
f 6//3 8//3 11//3 29//3
f 13//3 32//3 16//3 15//3
f 15//9 16//9 20//9 19//9
f 19//1 20//1 31//1 17//1
f 17//10 31//10 32//10 13//10
f 15//11 19//11 17//11 13//11
f 16//3 32//3 29//3 11//3
f 18//3 9//3 34//3 35//3
f 20//12 16//12 11//12 10//12
f 31//1 20//1 10//1 30//1
f 5//13 24//13 21//13 1//13
f 7//3 23//3 24//3 5//3
f 3//1 22//1 25//1 26//1
f 1//1 21//1 22//1 3//1
f 26//14 25//14 28//14 27//14
f 23//3 7//3 27//3 28//3
f 7//5 3//5 26//5 27//5
f 22//15 23//15 28//15 25//15
f 12//16 9//16 30//16 29//16
f 18//16 14//16 32//16 31//16
f 9//16 18//16 31//16 30//16
f 14//16 12//16 29//16 32//16
f 36//16 35//16 34//16 33//16
f 9//17 12//17 33//17 34//17
f 12//1 14//1 36//1 33//1
f 14//18 18//18 35//18 36//18
