# Blender v2.79 (sub 0) OBJ File: 'scalingscene_2.blend'
# www.blender.org
mtllib beaker.mtl
o beaker_Cylinder.004
v -5.608736 1.087382 1.881354
v -5.608736 1.249559 1.882442
v -5.551398 1.087382 1.905105
v -5.560831 1.249559 1.911757
v -5.527647 1.087382 1.962443
v -5.539798 1.249559 1.962533
v -5.551398 1.087382 2.019781
v -5.559990 1.249559 2.011280
v -5.608736 1.087382 2.043531
v -5.608736 1.249559 2.031471
v -5.666074 1.087382 2.019781
v -5.657482 1.249559 2.011280
v -5.689825 1.087382 1.962443
v -5.677674 1.249559 1.962533
v -5.666074 1.087382 1.905105
v -5.656641 1.249559 1.911757
v -5.608736 1.227444 1.881354
v -5.551398 1.227444 1.905105
v -5.527647 1.227444 1.962443
v -5.551398 1.227444 2.019781
v -5.608736 1.227444 2.043531
v -5.666074 1.227444 2.019781
v -5.689825 1.227444 1.962443
v -5.666074 1.227444 1.905105
v -5.549644 1.249559 1.903441
v -5.608736 1.249559 1.867061
v -5.525167 1.249559 1.962533
v -5.549644 1.249559 2.021626
v -5.608736 1.249559 2.046103
v -5.667829 1.249559 2.021626
v -5.692305 1.249559 1.962533
v -5.667829 1.249559 1.903441
v -5.562253 1.092491 1.913174
v -5.608736 1.092491 1.887731
v -5.541845 1.092491 1.962443
v -5.561437 1.092491 2.009742
v -5.608736 1.092491 2.029334
v -5.656035 1.092491 2.009742
v -5.675627 1.092491 1.962443
v -5.655220 1.092491 1.913174
vt 0.761826 0.833508
vt 0.729028 0.833508
vt 0.729028 0.736224
vt 0.761826 0.736224
vt 0.729028 0.640965
vt 0.761826 0.640965
vt 0.729028 0.547097
vt 0.761826 0.547097
vt 0.729028 0.453229
vt 0.761826 0.453229
vt 0.729028 0.359361
vt 0.761826 0.359361
vt 0.729028 0.265494
vt 0.761826 0.265494
vt 0.708062 0.170235
vt 0.708062 0.265494
vt 0.481734 0.265494
vt 0.481734 0.170235
vt 0.729028 0.170235
vt 0.761826 0.170235
vt 0.729028 0.072951
vt 0.761826 0.072951
vt 0.173590 0.754559
vt 0.245441 0.826410
vt 0.245441 0.928023
vt 0.173590 0.999874
vt 0.071977 0.999874
vt 0.000126 0.928023
vt 0.000126 0.826410
vt 0.071977 0.754559
vt 0.963619 0.170235
vt 0.963619 0.072951
vt 0.963619 0.265494
vt 0.963619 0.359361
vt 0.963619 0.453229
vt 0.963619 0.547097
vt 0.963619 0.640965
vt 0.963619 0.736224
vt 0.963619 0.833508
vt 0.708062 0.833508
vt 0.708062 0.736224
vt 0.708062 0.640965
vt 0.708062 0.547097
vt 0.708062 0.453229
vt 0.708062 0.359361
vt 0.708062 0.072951
vt 0.271697 0.392824
vt 0.339308 0.447195
vt 0.329946 0.533450
vt 0.268207 0.595189
vt 0.184385 0.595189
vt 0.125114 0.535918
vt 0.125114 0.452095
vt 0.184385 0.392824
vt 0.481734 0.453229
vt 0.481734 0.359361
vt 0.481734 0.640965
vt 0.481734 0.547097
vt 0.481734 0.833508
vt 0.481734 0.736224
vt 0.481734 0.072951
vn 0.4346 -0.3208 -0.8415
vn 0.9191 -0.1016 -0.3807
vn 0.9188 -0.1046 0.3806
vn 0.3805 -0.1068 0.9186
vn -0.3805 -0.1068 0.9186
vn -0.9188 -0.1046 0.3806
vn 0.9238 0.0118 0.3827
vn -0.9191 -0.1016 -0.3807
vn -0.4346 -0.3208 -0.8415
vn 0.0000 -1.0000 0.0000
vn -0.3827 0.0000 -0.9239
vn -0.9239 0.0000 -0.3827
vn -0.9239 0.0000 0.3827
vn -0.3827 0.0000 0.9239
vn 0.3827 0.0000 0.9239
vn 0.9239 0.0000 0.3827
vn 0.9239 0.0000 -0.3827
vn 0.3827 0.0000 -0.9239
vn 0.0000 1.0000 0.0000
vn 0.3827 0.0126 -0.9238
vn -0.9238 0.0123 -0.3827
vn -0.5017 0.0207 0.8648
vn 0.5017 0.0207 0.8648
vn 0.9238 0.0123 -0.3827
vn -0.3827 0.0126 -0.9238
vn -0.9238 0.0118 0.3827
usemtl None
s off
f 17/1/1 26/2/1 25/3/1 18/4/1
f 18/4/2 25/3/2 27/5/2 19/6/2
f 19/6/3 27/5/3 28/7/3 20/8/3
f 20/8/4 28/7/4 29/9/4 21/10/4
f 21/10/5 29/9/5 30/11/5 22/12/5
f 22/12/6 30/11/6 31/13/6 23/14/6
f 16/15/7 14/16/7 39/17/7 40/18/7
f 23/14/8 31/13/8 32/19/8 24/20/8
f 24/20/9 32/19/9 26/21/9 17/22/9
f 1/23/10 3/24/10 5/25/10 7/26/10 9/27/10 11/28/10 13/29/10 15/30/10
f 15/31/11 24/20/11 17/22/11 1/32/11
f 13/33/12 23/14/12 24/20/12 15/31/12
f 11/34/13 22/12/13 23/14/13 13/33/13
f 9/35/14 21/10/14 22/12/14 11/34/14
f 7/36/15 20/8/15 21/10/15 9/35/15
f 5/37/16 19/6/16 20/8/16 7/36/16
f 3/38/17 18/4/17 19/6/17 5/37/17
f 1/39/18 17/1/18 18/4/18 3/38/18
f 2/40/19 4/41/19 25/3/19 26/2/19
f 4/41/19 6/42/19 27/5/19 25/3/19
f 6/42/19 8/43/19 28/7/19 27/5/19
f 8/43/19 10/44/19 29/9/19 28/7/19
f 10/44/19 12/45/19 30/11/19 29/9/19
f 12/45/19 14/16/19 31/13/19 30/11/19
f 14/16/19 16/15/19 32/19/19 31/13/19
f 16/15/19 2/46/19 26/21/19 32/19/19
f 33/47/19 34/48/19 40/49/19 39/50/19 38/51/19 37/52/19 36/53/19 35/54/19
f 12/45/20 10/44/20 37/55/20 38/56/20
f 8/43/21 6/42/21 35/57/21 36/58/21
f 4/41/22 2/40/22 34/59/22 33/60/22
f 2/46/23 16/15/23 40/18/23 34/61/23
f 14/16/24 12/45/24 38/56/24 39/17/24
f 10/44/25 8/43/25 36/58/25 37/55/25
f 6/42/26 4/41/26 33/60/26 35/57/26
