# Blender v2.79 (sub 0) OBJ File: 'scalingscene_2.blend'
# www.blender.org
mtllib coaster.mtl
o coaster_Plane.001
v -1.199077 1.028676 0.760446
v -1.213751 1.028676 0.745772
v -1.080589 1.028676 0.745772
v -1.095263 1.028676 0.760446
v -1.213751 1.028676 0.641958
v -1.199077 1.028676 0.627285
v -1.095263 1.028676 0.627285
v -1.080589 1.028676 0.641958
v -1.197634 1.037648 0.630769
v -1.210267 1.037648 0.643401
v -1.210267 1.037648 0.744329
v -1.197634 1.037648 0.756962
v -1.096706 1.037648 0.756962
v -1.084073 1.037648 0.744329
v -1.084073 1.037648 0.643401
v -1.096706 1.037648 0.630769
v -1.213751 1.037648 0.641958
v -1.199077 1.037648 0.627285
v -1.095263 1.037648 0.627285
v -1.080589 1.037648 0.641958
v -1.080589 1.037648 0.745772
v -1.095263 1.037648 0.760446
v -1.199077 1.037648 0.760446
v -1.213751 1.037648 0.745772
v -1.210267 1.039801 0.643401
v -1.197634 1.039801 0.630769
v -1.096706 1.039801 0.630769
v -1.084073 1.039801 0.643401
v -1.084073 1.039801 0.744329
v -1.096706 1.039801 0.756962
v -1.197634 1.039801 0.756962
v -1.210267 1.039801 0.744329
vn 0.0000 0.0000 1.0000
vn 1.0000 0.0000 0.0000
vn 0.0000 0.0000 -1.0000
vn 0.0000 -1.0000 0.0000
vn -0.7071 0.0000 -0.7071
vn 0.7071 0.0000 -0.7071
vn 0.7071 0.0000 0.7071
vn -0.7071 0.0000 0.7071
vn -1.0000 0.0000 0.0000
vn 0.0000 1.0000 0.0000
usemtl Material
s off
f 1//1 4//1 22//1 23//1
f 12//1 13//1 30//1 31//1
f 3//2 8//2 20//2 21//2
f 7//3 6//3 18//3 19//3
f 1//4 2//4 5//4 6//4 7//4 8//4 3//4 4//4
f 5//5 17//5 18//5 6//5
f 20//6 8//6 7//6 19//6
f 3//7 21//7 22//7 4//7
f 24//8 2//8 1//8 23//8
f 5//9 2//9 24//9 17//9
f 10//10 9//10 18//10 17//10
f 16//10 15//10 20//10 19//10
f 14//10 13//10 22//10 21//10
f 12//10 11//10 24//10 23//10
f 11//10 10//10 17//10 24//10
f 13//10 12//10 23//10 22//10
f 15//10 14//10 21//10 20//10
f 9//10 16//10 19//10 18//10
f 32//10 31//10 30//10 29//10 28//10 27//10 26//10 25//10
f 11//8 12//8 31//8 32//8
f 15//6 16//6 27//6 28//6
f 14//2 15//2 28//2 29//2
f 10//9 11//9 32//9 25//9
f 13//7 14//7 29//7 30//7
f 9//5 10//5 25//5 26//5
f 16//3 9//3 26//3 27//3
