# Blender v2.79 (sub 0) OBJ File: 'scalingscene_2.blend'
# www.blender.org
mtllib computer_chip.mtl
o chip_Cube.010
v -5.166296 1.118095 2.207486
v -5.166296 1.128804 2.207486
v -5.159838 1.120996 2.144895
v -5.159838 1.125903 2.144895
v -5.103705 1.118095 2.207486
v -5.103705 1.128804 2.207486
v -5.110163 1.120996 2.144895
v -5.110163 1.125903 2.144895
v -5.166296 1.128804 2.144895
v -5.166296 1.118095 2.144895
v -5.103705 1.118095 2.144895
v -5.103705 1.128804 2.144895
v -5.159838 1.125903 2.115065
v -5.159838 1.120996 2.115065
v -5.110163 1.120996 2.115065
v -5.110163 1.125903 2.115065
vn -1.0000 0.0000 0.0000
vn 1.0000 0.0000 0.0000
vn 0.0000 0.0000 1.0000
vn 0.0000 -1.0000 0.0000
vn 0.0000 1.0000 0.0000
vn 0.0000 0.0000 -1.0000
usemtl None
s off
f 1//1 2//1 9//1 10//1
f 8//2 7//2 15//2 16//2
f 11//2 12//2 6//2 5//2
f 5//3 6//3 2//3 1//3
f 10//4 11//4 5//4 1//4
f 12//5 9//5 2//5 6//5
f 4//6 3//6 10//6 9//6
f 3//6 7//6 11//6 10//6
f 8//6 4//6 9//6 12//6
f 7//6 8//6 12//6 11//6
f 14//6 13//6 16//6 15//6
f 7//4 3//4 14//4 15//4
f 4//5 8//5 16//5 13//5
f 3//1 4//1 13//1 14//1
