# Blender v2.79 (sub 0) OBJ File: 'scalingscene_2.blend'
# www.blender.org
mtllib flask_testtube.mtl
o testtube_Cylinder.005
v -5.632245 1.306054 2.509053
v -5.632245 1.086102 2.508771
v -5.643970 1.306054 2.504196
v -5.643772 1.086102 2.503997
v -5.648828 1.306054 2.492470
v -5.648546 1.086102 2.492470
v -5.643970 1.306054 2.480743
v -5.643772 1.086102 2.480942
v -5.632245 1.306054 2.475886
v -5.632245 1.086102 2.476168
v -5.620519 1.306054 2.480743
v -5.620718 1.086102 2.480942
v -5.615662 1.306054 2.492470
v -5.615943 1.086102 2.492470
v -5.620519 1.306054 2.504196
v -5.620718 1.086102 2.503997
v -5.632245 1.292045 2.513378
v -5.647029 1.292045 2.507254
v -5.653153 1.292045 2.492470
v -5.647029 1.292045 2.477685
v -5.632245 1.292045 2.471561
v -5.617460 1.292045 2.477685
v -5.611336 1.292045 2.492470
v -5.617460 1.292045 2.507254
v -5.632245 1.306054 2.513378
v -5.647029 1.306054 2.507254
v -5.653153 1.306054 2.492470
v -5.647029 1.306054 2.477685
v -5.632245 1.306054 2.471561
v -5.617460 1.306054 2.477685
v -5.611336 1.306054 2.492470
v -5.617460 1.306054 2.507254
v -5.632245 1.108331 2.509053
v -5.643970 1.108331 2.504196
v -5.648828 1.108331 2.492470
v -5.643970 1.108331 2.480743
v -5.632245 1.108331 2.475886
v -5.620519 1.108331 2.480743
v -5.615662 1.108331 2.492470
v -5.620519 1.108331 2.504196
v -5.632245 1.307710 2.518322
v -5.650526 1.307710 2.510750
v -5.650526 1.290389 2.510750
v -5.658097 1.307710 2.492470
v -5.658097 1.290389 2.492470
v -5.650526 1.307710 2.474189
v -5.650526 1.290389 2.474189
v -5.632245 1.307710 2.466617
v -5.632245 1.290389 2.466617
v -5.613964 1.307710 2.474189
v -5.613964 1.290389 2.474189
v -5.606392 1.307710 2.492470
v -5.606392 1.290389 2.492470
v -5.613964 1.307710 2.510750
v -5.613964 1.290389 2.510750
v -5.632245 1.290389 2.518322
v -5.647029 1.097294 2.507254
v -5.632245 1.097294 2.513378
v -5.653153 1.097294 2.492470
v -5.647029 1.097294 2.477685
v -5.632245 1.097294 2.471561
v -5.617460 1.097294 2.477685
v -5.611336 1.097294 2.492470
v -5.617460 1.097294 2.507254
vn -0.3827 0.0000 0.9239
vn -0.9239 0.0000 0.3827
vn -0.9239 0.0000 -0.3827
vn -0.3827 0.0000 -0.9239
vn 0.3827 0.0000 -0.9239
vn 0.9239 0.0000 -0.3827
vn 0.0000 -1.0000 0.0000
vn 0.9239 0.0000 0.3827
vn 0.3827 0.0000 0.9239
vn -0.1305 -0.9401 -0.3149
vn 0.1305 -0.9401 -0.3150
vn -0.3149 0.9401 0.1305
vn 0.3150 -0.9401 -0.1305
vn 0.1304 0.9401 -0.3149
vn 0.3150 -0.9401 0.1305
vn -0.1304 0.9401 -0.3149
vn 0.3149 0.9401 0.1305
vn 0.0000 1.0000 0.0000
vn 0.1304 0.9401 0.3149
vn -0.3150 -0.9401 -0.1305
vn 0.3149 0.9401 -0.1305
vn -0.3149 0.9401 -0.1305
vn -0.3150 -0.9401 0.1305
vn -0.1305 -0.9401 0.3149
vn -0.1304 0.9401 0.3149
vn 0.1305 -0.9401 0.3149
vn -0.3577 -0.3555 0.8635
vn -0.8635 -0.3555 0.3577
vn -0.8635 -0.3555 -0.3577
vn -0.3577 -0.3555 -0.8635
vn 0.3577 -0.3554 -0.8636
vn 0.8635 -0.3555 -0.3577
vn 0.8635 -0.3555 0.3577
vn 0.3577 -0.3554 0.8635
usemtl None
s off
f 17//1 18//1 57//1 58//1
f 18//2 19//2 59//2 57//2
f 19//3 20//3 60//3 59//3
f 20//4 21//4 61//4 60//4
f 21//5 22//5 62//5 61//5
f 22//6 23//6 63//6 62//6
f 4//7 6//7 8//7 10//7 12//7 14//7 16//7 2//7
f 23//8 24//8 64//8 63//8
f 24//9 17//9 58//9 64//9
f 13//3 39//3 40//3 15//3
f 24//10 55//10 56//10 17//10
f 17//11 56//11 43//11 18//11
f 31//12 52//12 50//12 30//12
f 18//13 43//13 45//13 19//13
f 26//14 42//14 41//14 25//14
f 19//15 45//15 47//15 20//15
f 25//16 41//16 54//16 32//16
f 28//17 46//17 44//17 27//17
f 3//18 26//18 25//18 1//18
f 5//18 27//18 26//18 3//18
f 7//18 28//18 27//18 5//18
f 9//18 29//18 28//18 7//18
f 11//18 30//18 29//18 9//18
f 13//18 31//18 30//18 11//18
f 15//18 32//18 31//18 13//18
f 1//18 25//18 32//18 15//18
f 33//18 40//18 39//18 38//18 37//18 36//18 35//18 34//18
f 9//1 37//1 38//1 11//1
f 5//8 35//8 36//8 7//8
f 1//5 33//5 34//5 3//5
f 15//4 40//4 33//4 1//4
f 11//2 38//2 39//2 13//2
f 7//9 36//9 37//9 9//9
f 3//6 34//6 35//6 5//6
f 54//9 41//9 56//9 55//9
f 52//8 54//8 55//8 53//8
f 50//6 52//6 53//6 51//6
f 48//5 50//5 51//5 49//5
f 46//4 48//4 49//4 47//4
f 44//3 46//3 47//3 45//3
f 42//2 44//2 45//2 43//2
f 41//1 42//1 43//1 56//1
f 29//19 48//19 46//19 28//19
f 23//20 53//20 55//20 24//20
f 27//21 44//21 42//21 26//21
f 32//22 54//22 52//22 31//22
f 22//23 51//23 53//23 23//23
f 21//24 49//24 51//24 22//24
f 30//25 50//25 48//25 29//25
f 20//26 47//26 49//26 21//26
f 2//27 58//27 57//27 4//27
f 4//28 57//28 59//28 6//28
f 6//29 59//29 60//29 8//29
f 8//30 60//30 61//30 10//30
f 10//31 61//31 62//31 12//31
f 12//32 62//32 63//32 14//32
f 14//33 63//33 64//33 16//33
f 16//34 64//34 58//34 2//34
