# Blender v2.79 (sub 0) OBJ File: 'scalingscene_2.blend'
# www.blender.org
mtllib flask_florence.mtl
o florence_Sphere
v -5.632245 1.270294 3.339908
v -5.632245 1.177512 3.272596
v -5.632245 1.102532 3.312830
v -5.616110 1.270294 3.346591
v -5.568514 1.177512 3.298995
v -5.596964 1.102532 3.327444
v -5.609427 1.270294 3.362725
v -5.542116 1.177512 3.362725
v -5.582350 1.102532 3.362725
v -5.616110 1.270294 3.378859
v -5.568514 1.177512 3.426455
v -5.596964 1.102532 3.398005
v -5.632245 1.270294 3.385542
v -5.632245 1.177512 3.452853
v -5.632245 1.102532 3.412619
v -5.677309 1.241242 3.407789
v -5.695975 1.177512 3.426455
v -5.667525 1.102532 3.398005
v -5.655062 1.270294 3.362725
v -5.722373 1.177512 3.362725
v -5.682139 1.102532 3.362725
v -5.648379 1.270294 3.346591
v -5.695975 1.177512 3.298995
v -5.667525 1.102532 3.327444
v -5.587181 1.241242 3.317661
v -5.632245 1.241242 3.298995
v -5.568514 1.241242 3.362725
v -5.587181 1.241242 3.407789
v -5.632245 1.241242 3.426455
v -5.648379 1.270294 3.378859
v -5.695975 1.241242 3.362725
v -5.677309 1.241242 3.317661
v -5.644923 1.429642 3.375403
v -5.632245 1.429642 3.344795
v -5.619566 1.429642 3.350046
v -5.614315 1.429642 3.362725
v -5.619566 1.429642 3.375403
v -5.632245 1.429642 3.380655
v -5.650175 1.429642 3.362725
v -5.644923 1.429642 3.350046
v -5.616110 1.429642 3.346591
v -5.632245 1.429642 3.339908
v -5.609427 1.429642 3.362725
v -5.616110 1.429642 3.378859
v -5.632245 1.429642 3.385542
v -5.648379 1.429642 3.378859
v -5.655062 1.429642 3.362725
v -5.648379 1.429642 3.346591
v -5.615878 1.209943 3.346358
v -5.632245 1.209943 3.339579
v -5.609098 1.209943 3.362725
v -5.615878 1.209943 3.379092
v -5.632245 1.209943 3.385871
v -5.648611 1.209943 3.379092
v -5.655391 1.209943 3.362725
v -5.648611 1.209943 3.346358
v -5.587181 1.113781 3.317661
v -5.632245 1.113781 3.298995
v -5.568514 1.113781 3.362725
v -5.587181 1.113781 3.407789
v -5.632245 1.113781 3.426455
v -5.677309 1.113781 3.407789
v -5.695975 1.113781 3.362725
v -5.677309 1.113781 3.317661
vt 0.304330 0.086668
vt 0.304330 0.257944
vt 0.259687 0.257944
vt 0.259687 0.086668
vt 0.125758 0.553811
vt 0.170401 0.553811
vt 0.170401 0.949464
vt 0.125758 0.949464
vt 0.304330 0.429220
vt 0.259687 0.429220
vt 0.215044 0.429220
vt 0.215044 0.257944
vt 0.215044 0.086668
vt 0.036472 0.553811
vt 0.081115 0.553811
vt 0.081115 0.949464
vt 0.036472 0.949464
vt 0.304330 0.553811
vt 0.348973 0.553811
vt 0.348973 0.949464
vt 0.304330 0.949464
vt 0.170401 0.429220
vt 0.170401 0.257944
vt 0.170401 0.086668
vt 0.125758 0.257944
vt 0.125758 0.086668
vt 0.259687 0.553811
vt 0.259687 0.949464
vt 0.125758 0.429220
vt 0.081115 0.257944
vt 0.081115 0.086668
vt 0.215044 0.553811
vt 0.215044 0.949464
vt 0.081115 0.429220
vt 0.036472 0.257944
vt 0.036472 0.086668
vt 0.926901 0.529675
vt 0.926901 0.607329
vt 0.871991 0.662239
vt 0.794337 0.662239
vt 0.739427 0.607329
vt 0.739427 0.529675
vt 0.794337 0.474765
vt 0.871991 0.474765
vt 0.036472 0.429220
vt 0.393616 0.086668
vt 0.393616 0.257944
vt 0.348973 0.257944
vt 0.348973 0.086668
vt 0.393616 0.553811
vt 0.393616 0.949464
vt 0.393616 0.429220
vt 0.348973 0.429220
vt 0.474887 0.496034
vt 0.438646 0.496034
vt 0.438646 0.046459
vt 0.474887 0.046459
vt 0.511127 0.496034
vt 0.547368 0.496034
vt 0.547368 0.506032
vt 0.511127 0.506032
vt 0.583608 0.496034
vt 0.583608 0.506032
vt 0.619849 0.496034
vt 0.619849 0.506032
vt 0.656089 0.496034
vt 0.656089 0.506032
vt 0.692330 0.496034
vt 0.692330 0.506032
vt 0.728570 0.496034
vt 0.728570 0.506032
vt 0.474887 0.506032
vt 0.438646 0.506032
vt 0.764900 0.749498
vt 0.739427 0.724026
vt 0.739427 0.688002
vt 0.764900 0.662529
vt 0.800924 0.662529
vt 0.826396 0.688002
vt 0.826396 0.724026
vt 0.800924 0.749498
vt 0.656089 0.046459
vt 0.692330 0.046459
vt 0.583608 0.046459
vt 0.619849 0.046459
vt 0.511127 0.046459
vt 0.547368 0.046459
vt 0.728570 0.046459
vt 0.259687 0.042392
vt 0.304330 0.042392
vt 0.215044 0.042392
vt 0.170401 0.042392
vt 0.125758 0.042392
vt 0.081115 0.042392
vt 0.036472 0.042392
vt 0.348973 0.042392
vt 0.393616 0.042392
vn 0.3574 -0.3574 -0.8629
vn 0.3827 0.0000 0.9239
vn 0.3574 0.3574 -0.8629
vn 0.8629 0.3574 -0.3574
vn 0.8629 -0.3574 -0.3574
vn -0.9239 0.0000 0.3827
vn -0.3827 0.0000 -0.9239
vn 0.8629 0.3574 0.3574
vn 0.8629 -0.3574 0.3574
vn 0.3574 -0.3574 0.8629
vn 0.3827 0.0000 -0.9239
vn 0.3574 0.3574 0.8629
vn -0.3574 -0.3574 0.8629
vn 0.9239 0.0000 0.3827
vn -0.3574 0.3574 0.8629
vn -0.8629 -0.3574 0.3574
vn -0.3827 0.0000 0.9239
vn 0.0000 -1.0000 0.0000
vn -0.8629 0.3574 0.3574
vn -0.8629 -0.3574 -0.3574
vn -0.9239 0.0000 -0.3827
vn -0.8629 0.3574 -0.3574
vn -0.3574 -0.3574 -0.8629
vn 0.9239 0.0000 -0.3827
vn -0.3574 0.3574 -0.8629
vn 0.2332 0.7929 -0.5630
vn 0.5630 0.7929 -0.2332
vn 0.5630 0.7929 0.2332
vn 0.2332 0.7929 0.5630
vn -0.2332 0.7929 0.5630
vn -0.5630 0.7929 0.2332
vn -0.5630 0.7929 -0.2332
vn -0.2332 0.7929 -0.5630
vn 0.9237 -0.0219 0.3826
vn 0.0000 1.0000 0.0000
vn 0.3826 -0.0219 -0.9237
vn -0.9236 -0.0219 -0.3826
vn -0.3826 -0.0219 0.9237
vn 0.3826 -0.0219 0.9237
vn 0.9236 -0.0219 -0.3826
vn -0.3826 -0.0219 -0.9237
vn -0.9237 -0.0219 0.3826
vn 0.2528 -0.7507 -0.6104
vn 0.6103 -0.7507 -0.2528
vn 0.6103 -0.7507 0.2528
vn 0.2528 -0.7507 0.6104
vn -0.2528 -0.7507 0.6104
vn -0.6104 -0.7507 0.2528
vn -0.6104 -0.7507 -0.2528
vn -0.2528 -0.7507 -0.6104
usemtl None
s off
f 58/1/1 2/2/1 5/3/1 57/4/1
f 13/5/2 10/6/2 44/7/2 45/8/2
f 2/2/3 26/9/3 25/10/3 5/3/3
f 5/3/4 25/10/4 27/11/4 8/12/4
f 57/4/5 5/3/5 8/12/5 59/13/5
f 19/14/6 30/15/6 46/16/6 47/17/6
f 1/18/7 22/19/7 48/20/7 42/21/7
f 8/12/8 27/11/8 28/22/8 11/23/8
f 59/13/9 8/12/9 11/23/9 60/24/9
f 60/24/10 11/23/10 14/25/10 61/26/10
f 4/27/11 1/18/11 42/21/11 41/28/11
f 11/23/12 28/22/12 29/29/12 14/25/12
f 61/26/13 14/25/13 17/30/13 62/31/13
f 10/6/14 7/32/14 43/33/14 44/7/14
f 14/25/15 29/29/15 16/34/15 17/30/15
f 62/31/16 17/30/16 20/35/16 63/36/16
f 30/15/17 13/5/17 45/8/17 46/16/17
f 24/37/18 3/38/18 6/39/18 9/40/18 12/41/18 15/42/18 18/43/18 21/44/18
f 17/30/19 16/34/19 31/45/19 20/35/19
f 63/46/20 20/47/20 23/48/20 64/49/20
f 22/19/21 19/50/21 47/51/21 48/20/21
f 20/47/22 31/52/22 32/53/22 23/48/22
f 64/49/23 23/48/23 2/2/23 58/1/23
f 7/32/24 4/27/24 41/28/24 43/33/24
f 23/48/25 32/53/25 26/9/25 2/2/25
f 1/18/26 4/27/26 25/10/26 26/9/26
f 4/27/27 7/32/27 27/11/27 25/10/27
f 7/32/28 10/6/28 28/22/28 27/11/28
f 10/6/29 13/5/29 29/29/29 28/22/29
f 13/5/30 30/15/30 16/34/30 29/29/30
f 30/15/31 19/14/31 31/45/31 16/34/31
f 19/50/32 22/19/32 32/53/32 31/52/32
f 22/19/33 1/18/33 26/9/33 32/53/33
f 40/54/34 39/55/34 55/56/34 56/57/34
f 34/58/35 35/59/35 41/60/35 42/61/35
f 35/59/35 36/62/35 43/63/35 41/60/35
f 36/62/35 37/64/35 44/65/35 43/63/35
f 37/64/35 38/66/35 45/67/35 44/65/35
f 38/66/35 33/68/35 46/69/35 45/67/35
f 33/68/35 39/70/35 47/71/35 46/69/35
f 39/55/35 40/54/35 48/72/35 47/73/35
f 40/54/35 34/58/35 42/61/35 48/72/35
f 55/74/35 54/75/35 53/76/35 52/77/35 51/78/35 49/79/35 50/80/35 56/81/35
f 33/68/36 38/66/36 53/82/36 54/83/36
f 37/64/37 36/62/37 51/84/37 52/85/37
f 35/59/38 34/58/38 50/86/38 49/87/38
f 34/58/39 40/54/39 56/57/39 50/86/39
f 39/70/40 33/68/40 54/83/40 55/88/40
f 38/66/41 37/64/41 52/85/41 53/82/41
f 36/62/42 35/59/42 49/87/42 51/84/42
f 6/89/43 3/90/43 58/1/43 57/4/43
f 9/91/44 6/89/44 57/4/44 59/13/44
f 12/92/45 9/91/45 59/13/45 60/24/45
f 15/93/46 12/92/46 60/24/46 61/26/46
f 18/94/47 15/93/47 61/26/47 62/31/47
f 21/95/48 18/94/48 62/31/48 63/36/48
f 24/96/49 21/97/49 63/46/49 64/49/49
f 3/90/50 24/96/50 64/49/50 58/1/50
