# Blender v2.79 (sub 0) OBJ File: 'scalingscene_2.blend'
# www.blender.org
mtllib flask_erlenmeyer.mtl
o erlenmeyer_flask_Cylinder.003
v -5.663045 1.112326 2.865489
v -5.663045 1.307953 2.925446
v -5.598672 1.112326 2.892152
v -5.641069 1.307953 2.934549
v -5.572009 1.112326 2.956525
v -5.631967 1.307953 2.956525
v -5.598672 1.112326 3.020897
v -5.641069 1.307953 2.978500
v -5.663045 1.112326 3.047561
v -5.663045 1.307953 2.987603
v -5.727417 1.112326 3.020897
v -5.685020 1.307953 2.978500
v -5.754081 1.112326 2.956525
v -5.694123 1.307953 2.956525
v -5.727417 1.112326 2.892152
v -5.685020 1.307953 2.934549
v -5.663045 1.269470 2.927901
v -5.642805 1.269470 2.936285
v -5.634421 1.269470 2.956525
v -5.642805 1.269470 2.976764
v -5.663045 1.269470 2.985148
v -5.683285 1.269470 2.976764
v -5.691669 1.269470 2.956525
v -5.683285 1.269470 2.936285
v -5.663045 1.088967 2.865489
v -5.598672 1.088967 2.892152
v -5.572009 1.088967 2.956525
v -5.598672 1.088967 3.020897
v -5.663045 1.088967 3.047561
v -5.727417 1.088967 3.020897
v -5.754081 1.088967 2.956525
v -5.727417 1.088967 2.892152
v -5.637425 1.262913 2.930905
v -5.626814 1.262913 2.956525
v -5.637425 1.262913 2.982144
v -5.663045 1.262913 2.992756
v -5.688664 1.262913 2.982144
v -5.699276 1.262913 2.956525
v -5.688664 1.262913 2.930905
v -5.663045 1.262913 2.920293
v -5.663045 1.296633 2.929359
v -5.643836 1.296633 2.937316
v -5.635880 1.296633 2.956525
v -5.643836 1.296633 2.975733
v -5.663045 1.296633 2.983690
v -5.682254 1.296633 2.975733
v -5.690210 1.296633 2.956525
v -5.682254 1.296633 2.937316
vt 0.575095 0.476125
vt 0.575095 0.499044
vt 0.530094 0.499044
vt 0.530094 0.476125
vt 0.485092 0.499044
vt 0.485092 0.476125
vt 0.440091 0.499044
vt 0.440091 0.476125
vt 0.395090 0.499044
vt 0.395090 0.476125
vt 0.350088 0.499044
vt 0.350088 0.476125
vt 0.305087 0.499044
vt 0.305087 0.476125
vt 0.452480 0.608682
vt 0.418778 0.642384
vt 0.371116 0.642384
vt 0.337413 0.608682
vt 0.337413 0.561020
vt 0.371116 0.527317
vt 0.418778 0.527317
vt 0.452480 0.561020
vt 0.665098 0.476125
vt 0.665098 0.499044
vt 0.620096 0.499044
vt 0.620096 0.476125
vt 0.665098 0.098198
vt 0.620096 0.098198
vt 0.620096 0.053498
vt 0.665098 0.053498
vt 0.620096 0.404852
vt 0.620096 0.424072
vt 0.575095 0.424072
vt 0.575095 0.404852
vt 0.665098 0.404852
vt 0.665098 0.424072
vt 0.350088 0.404852
vt 0.350088 0.424072
vt 0.305087 0.424072
vt 0.305087 0.404852
vt 0.395090 0.404852
vt 0.395090 0.424072
vt 0.440091 0.404852
vt 0.440091 0.424072
vt 0.485092 0.404852
vt 0.485092 0.424072
vt 0.530094 0.404852
vt 0.530094 0.424072
vt 0.238455 0.527317
vt 0.337178 0.626040
vt 0.337178 0.765655
vt 0.238455 0.864377
vt 0.098840 0.864377
vt 0.000118 0.765655
vt 0.000118 0.626040
vt 0.098840 0.527317
vt 0.530094 0.098198
vt 0.485092 0.098198
vt 0.485092 0.053498
vt 0.530094 0.053498
vt 0.395090 0.098198
vt 0.350088 0.098198
vt 0.350088 0.053498
vt 0.395090 0.053498
vt 0.575095 0.098198
vt 0.575095 0.053498
vt 0.440091 0.098198
vt 0.440091 0.053498
vt 0.305087 0.098198
vt 0.305087 0.053498
vn 0.3645 -0.3042 -0.8801
vn 0.8801 -0.3042 -0.3646
vn 0.8801 -0.3042 0.3645
vn 0.3645 -0.3042 0.8801
vn -0.3645 -0.3042 0.8801
vn -0.8801 -0.3043 0.3645
vn 0.0000 1.0000 -0.0000
vn -0.8801 -0.3042 -0.3645
vn -0.3645 -0.3042 -0.8801
vn -0.9239 0.0000 -0.3827
vn -0.2611 0.7312 -0.6303
vn -0.6303 0.7312 -0.2611
vn -0.6303 0.7312 0.2611
vn -0.2611 0.7312 0.6302
vn 0.2611 0.7312 0.6303
vn 0.6303 0.7312 0.2611
vn 0.6303 0.7312 -0.2611
vn 0.2611 0.7312 -0.6303
vn 0.0000 -1.0000 0.0000
vn 0.9239 0.0000 -0.3827
vn -0.3827 0.0000 0.9239
vn -0.3827 0.0000 -0.9239
vn 0.3827 0.0000 -0.9239
vn 0.9239 0.0000 0.3827
vn -0.9239 0.0000 0.3827
vn 0.3827 0.0000 0.9239
vn 0.3627 0.3187 -0.8757
vn 0.8757 0.3187 -0.3627
vn 0.8757 0.3187 0.3627
vn 0.3627 0.3187 0.8757
vn -0.3627 0.3187 0.8757
vn -0.8757 0.3187 0.3627
vn -0.8757 0.3187 -0.3627
vn -0.3627 0.3187 -0.8757
vn -0.3822 0.0495 -0.9227
vn -0.9227 0.0495 -0.3822
vn -0.9227 0.0495 0.3822
vn -0.3822 0.0495 0.9227
vn 0.3822 0.0495 0.9227
vn 0.9227 0.0495 0.3822
vn 0.9227 0.0495 -0.3822
vn 0.3822 0.0495 -0.9227
usemtl None
s off
f 41/1/1 2/2/1 4/3/1 42/4/1
f 42/4/2 4/3/2 6/5/2 43/6/2
f 43/6/3 6/5/3 8/7/3 44/8/3
f 44/8/4 8/7/4 10/9/4 45/10/4
f 45/10/5 10/9/5 12/11/5 46/12/5
f 46/12/6 12/11/6 14/13/6 47/14/6
f 4/15/7 2/16/7 16/17/7 14/18/7 12/19/7 10/20/7 8/21/7 6/22/7
f 47/23/8 14/24/8 16/25/8 48/26/8
f 48/26/9 16/25/9 2/2/9 41/1/9
f 13/27/10 15/28/10 32/29/10 31/30/10
f 39/31/11 24/32/11 17/33/11 40/34/11
f 38/35/12 23/36/12 24/32/12 39/31/12
f 37/37/13 22/38/13 23/39/13 38/40/13
f 36/41/14 21/42/14 22/38/14 37/37/14
f 35/43/15 20/44/15 21/42/15 36/41/15
f 34/45/16 19/46/16 20/44/16 35/43/16
f 33/47/17 18/48/17 19/46/17 34/45/17
f 40/34/18 17/33/18 18/48/18 33/47/18
f 25/49/19 26/50/19 27/51/19 28/52/19 29/53/19 30/54/19 31/55/19 32/56/19
f 3/57/20 5/58/20 27/59/20 26/60/20
f 9/61/21 11/62/21 30/63/21 29/64/21
f 15/28/22 1/65/22 25/66/22 32/29/22
f 1/65/23 3/57/23 26/60/23 25/66/23
f 5/58/24 7/67/24 28/68/24 27/59/24
f 11/62/25 13/69/25 31/70/25 30/63/25
f 7/67/26 9/61/26 29/64/26 28/68/26
f 1/65/27 40/34/27 33/47/27 3/57/27
f 3/57/28 33/47/28 34/45/28 5/58/28
f 5/58/29 34/45/29 35/43/29 7/67/29
f 7/67/30 35/43/30 36/41/30 9/61/30
f 9/61/31 36/41/31 37/37/31 11/62/31
f 11/62/32 37/37/32 38/40/32 13/69/32
f 13/27/33 38/35/33 39/31/33 15/28/33
f 15/28/34 39/31/34 40/34/34 1/65/34
f 24/32/35 48/26/35 41/1/35 17/33/35
f 23/36/36 47/23/36 48/26/36 24/32/36
f 22/38/37 46/12/37 47/14/37 23/39/37
f 21/42/38 45/10/38 46/12/38 22/38/38
f 20/44/39 44/8/39 45/10/39 21/42/39
f 19/46/40 43/6/40 44/8/40 20/44/40
f 18/48/41 42/4/41 43/6/41 19/46/41
f 17/33/42 41/1/42 42/4/42 18/48/42
