# Blender v2.79 (sub 0) OBJ File: 'scalingscene_2.blend'
# www.blender.org
mtllib funnel.mtl
o funnel_Cylinder.006
v -5.249287 1.131219 2.483620
v -5.249287 1.196065 2.473337
v -5.243029 1.131219 2.486212
v -5.235758 1.196065 2.478941
v -5.240437 1.131219 2.492470
v -5.230155 1.196065 2.492470
v -5.243029 1.131219 2.498727
v -5.235758 1.196065 2.505998
v -5.249287 1.131219 2.501319
v -5.249287 1.196065 2.511602
v -5.255545 1.131219 2.498727
v -5.262816 1.196065 2.505998
v -5.258137 1.131219 2.492470
v -5.268420 1.196065 2.492470
v -5.255545 1.131219 2.486212
v -5.262816 1.196065 2.478941
v -5.187186 1.271183 2.430368
v -5.249287 1.271183 2.404645
v -5.161463 1.271183 2.492470
v -5.187186 1.271183 2.554571
v -5.249287 1.271183 2.580294
v -5.311388 1.271183 2.554571
v -5.337111 1.271183 2.492470
v -5.311388 1.271183 2.430368
v -5.249287 1.178024 2.483620
v -5.243029 1.178024 2.486212
v -5.240437 1.178024 2.492470
v -5.243029 1.178024 2.498727
v -5.249287 1.178024 2.501319
v -5.255545 1.178024 2.498727
v -5.258137 1.178024 2.492470
v -5.255545 1.178024 2.486212
v -5.228786 1.231332 2.471968
v -5.249287 1.231332 2.463477
v -5.220294 1.231332 2.492470
v -5.228786 1.231332 2.512971
v -5.249287 1.231332 2.521462
v -5.269788 1.231332 2.512971
v -5.278280 1.231332 2.492470
v -5.269788 1.231332 2.471968
v -5.249287 1.268759 2.568607
v -5.303124 1.268759 2.546307
v -5.173150 1.268759 2.492470
v -5.195450 1.268759 2.546307
v -5.249287 1.268759 2.416332
v -5.195450 1.268759 2.438632
v -5.303124 1.268759 2.438632
v -5.325425 1.268759 2.492470
v -5.309669 1.260976 2.552852
v -5.334681 1.260976 2.492470
v -5.188905 1.260976 2.552852
v -5.249287 1.260976 2.577863
v -5.309669 1.260976 2.432087
v -5.188905 1.260976 2.432087
v -5.163894 1.260976 2.492470
v -5.249287 1.260976 2.407076
vt 0.257226 0.799396
vt 0.257226 0.716607
vt 0.296772 0.716607
vt 0.296772 0.799396
vt 0.336318 0.716607
vt 0.336318 0.799396
vt 0.375864 0.716607
vt 0.375864 0.799396
vt 0.415410 0.716607
vt 0.415410 0.799396
vt 0.454957 0.716607
vt 0.454957 0.799396
vt 0.138587 0.799396
vt 0.138587 0.716607
vt 0.178134 0.716607
vt 0.178134 0.799396
vt 0.178134 0.346806
vt 0.138587 0.346806
vt 0.138587 0.304974
vt 0.178134 0.304974
vt 0.217680 0.716607
vt 0.217680 0.799396
vt 0.889454 0.141156
vt 0.902046 0.153747
vt 0.902046 0.171554
vt 0.889454 0.184146
vt 0.871647 0.184146
vt 0.859056 0.171554
vt 0.859056 0.153747
vt 0.871647 0.141156
vt 0.454957 0.257389
vt 0.415410 0.257389
vt 0.415410 0.017407
vt 0.454957 0.017407
vt 0.415410 0.346806
vt 0.375864 0.346806
vt 0.375864 0.304974
vt 0.415410 0.304974
vt 0.217680 0.346806
vt 0.217680 0.304974
vt 0.336318 0.346806
vt 0.296772 0.346806
vt 0.296772 0.304974
vt 0.336318 0.304974
vt 0.454957 0.346806
vt 0.454957 0.304974
vt 0.257226 0.346806
vt 0.257226 0.304974
vt 0.217680 0.985994
vt 0.257226 0.985994
vt 0.178134 0.985994
vt 0.138587 0.985994
vt 0.415410 0.985994
vt 0.454957 0.985994
vt 0.375864 0.985994
vt 0.336318 0.985994
vt 0.296772 0.985994
vt 0.999894 0.099694
vt 0.958644 0.140944
vt 0.900306 0.140944
vt 0.859056 0.099694
vt 0.859056 0.041356
vt 0.900306 0.000106
vt 0.958644 0.000106
vt 0.999894 0.041356
vt 0.375864 0.257389
vt 0.336318 0.257389
vt 0.336318 0.017407
vt 0.375864 0.017407
vt 0.296772 0.257389
vt 0.257226 0.257389
vt 0.257226 0.017407
vt 0.296772 0.017407
vt 0.217680 0.257389
vt 0.217680 0.017407
vt 0.178134 0.257389
vt 0.138587 0.257389
vt 0.138587 0.017407
vt 0.178134 0.017407
vn 0.3386 -0.4659 -0.8175
vn 0.8175 -0.4659 -0.3386
vn 0.8175 -0.4659 0.3386
vn 0.3386 -0.4659 0.8175
vn -0.3386 -0.4659 0.8175
vn -0.8175 -0.4659 0.3386
vn -0.9023 -0.2149 0.3737
vn -0.8175 -0.4659 -0.3386
vn -0.3386 -0.4659 -0.8175
vn 0.0000 -1.0000 0.0000
vn 0.2494 0.7584 -0.6021
vn 0.3737 -0.2149 0.9023
vn -0.9023 -0.2149 -0.3737
vn 0.9023 -0.2149 -0.3737
vn -0.3737 -0.2149 0.9023
vn -0.3737 -0.2149 -0.9023
vn 0.3737 -0.2149 -0.9023
vn 0.9023 -0.2149 0.3737
vn -0.3827 0.0000 -0.9239
vn -0.9239 0.0000 -0.3827
vn -0.9239 0.0000 0.3827
vn -0.3827 0.0000 0.9239
vn 0.3827 0.0000 0.9239
vn 0.9239 0.0000 0.3827
vn 0.9239 0.0000 -0.3827
vn 0.3827 0.0000 -0.9239
vn 0.0000 1.0000 0.0000
vn -0.6021 0.7585 -0.2494
vn -0.2494 0.7585 0.6021
vn 0.2494 0.7585 0.6021
vn 0.6021 0.7585 -0.2494
vn -0.2494 0.7585 -0.6021
vn -0.6021 0.7585 0.2494
vn 0.6021 0.7585 0.2494
vn 0.2024 0.9757 0.0839
vn -0.2024 0.9757 0.0839
vn -0.0839 0.9757 -0.2024
vn 0.2024 0.9757 -0.0839
vn 0.0839 0.9757 0.2024
vn -0.0839 0.9757 0.2024
vn -0.2024 0.9757 -0.0838
vn 0.0839 0.9757 -0.2024
vn 0.6721 -0.6861 0.2784
vn 0.2784 -0.6861 -0.6721
vn -0.2784 -0.6861 -0.6721
vn -0.2784 -0.6861 0.6721
vn 0.6721 -0.6861 -0.2784
vn -0.6721 -0.6861 -0.2784
vn 0.2784 -0.6861 0.6721
vn -0.6721 -0.6861 0.2784
usemtl None
s off
f 25/1/1 2/2/1 4/3/1 26/4/1
f 26/4/2 4/3/2 6/5/2 27/6/2
f 27/6/3 6/5/3 8/7/3 28/8/3
f 28/8/4 8/7/4 10/9/4 29/10/4
f 29/10/5 10/9/5 12/11/5 30/12/5
f 30/13/6 12/14/6 14/15/6 31/16/6
f 50/17/7 49/18/7 22/19/7 23/20/7
f 31/16/8 14/15/8 16/21/8 32/22/8
f 32/22/9 16/21/9 2/2/9 25/1/9
f 1/23/10 3/24/10 5/25/10 7/26/10 9/27/10 11/28/10 13/29/10 15/30/10
f 42/31/11 41/32/11 37/33/11 38/34/11
f 52/35/12 51/36/12 20/37/12 21/38/12
f 53/39/13 50/17/13 23/20/13 24/40/13
f 55/41/14 54/42/14 17/43/14 19/44/14
f 49/45/15 52/35/15 21/38/15 22/46/15
f 56/47/16 53/39/16 24/40/16 18/48/16
f 54/42/17 56/47/17 18/48/17 17/43/17
f 51/36/18 55/41/18 19/44/18 20/37/18
f 15/49/19 32/22/19 25/1/19 1/50/19
f 13/51/20 31/16/20 32/22/20 15/49/20
f 11/52/21 30/13/21 31/16/21 13/51/21
f 9/53/22 29/10/22 30/12/22 11/54/22
f 7/55/23 28/8/23 29/10/23 9/53/23
f 5/56/24 27/6/24 28/8/24 7/55/24
f 3/57/25 26/4/25 27/6/25 5/56/25
f 1/50/26 25/1/26 26/4/26 3/57/26
f 33/58/27 34/59/27 40/60/27 39/61/27 38/62/27 37/63/27 36/64/27 35/65/27
f 44/66/28 43/67/28 35/68/28 36/69/28
f 46/70/29 45/71/29 34/72/29 33/73/29
f 45/71/30 47/74/30 40/75/30 34/72/30
f 48/76/31 42/77/31 38/78/31 39/79/31
f 41/32/32 44/66/32 36/69/32 37/33/32
f 43/67/33 46/70/33 33/73/33 35/68/33
f 47/74/34 48/76/34 39/79/34 40/75/34
f 24/40/35 23/20/35 48/76/35 47/74/35
f 19/44/36 17/43/36 46/70/36 43/67/36
f 21/38/37 20/37/37 44/66/37 41/32/37
f 23/20/38 22/19/38 42/77/38 48/76/38
f 18/48/39 24/40/39 47/74/39 45/71/39
f 17/43/40 18/48/40 45/71/40 46/70/40
f 20/37/41 19/44/41 43/67/41 44/66/41
f 22/46/42 21/38/42 41/32/42 42/31/42
f 8/7/43 6/5/43 55/41/43 51/36/43
f 4/3/44 2/2/44 56/47/44 54/42/44
f 2/2/45 16/21/45 53/39/45 56/47/45
f 12/11/46 10/9/46 52/35/46 49/45/46
f 6/5/47 4/3/47 54/42/47 55/41/47
f 16/21/48 14/15/48 50/17/48 53/39/48
f 10/9/49 8/7/49 51/36/49 52/35/49
f 14/15/50 12/14/50 49/18/50 50/17/50
