# Blender v2.79 (sub 0) OBJ File: 'scalingscene_2.blend'
# www.blender.org
mtllib glass.mtl
o glass_Cube.004
v -1.139856 1.043723 0.647831
v -1.102742 1.043723 0.684946
v -1.102742 1.043723 0.699799
v -1.139856 1.043723 0.736913
v -1.154709 1.043723 0.736913
v -1.191823 1.043723 0.699799
v -1.191823 1.043723 0.684946
v -1.154709 1.043723 0.647831
v -1.126814 1.132804 0.634790
v -1.089700 1.132804 0.671904
v -1.089700 1.132804 0.712840
v -1.126814 1.132804 0.749954
v -1.167750 1.132804 0.749954
v -1.204865 1.132804 0.712840
v -1.204865 1.132804 0.671904
v -1.167750 1.132804 0.634790
v -1.133561 1.133892 0.641537
v -1.096447 1.133892 0.678651
v -1.096447 1.133892 0.706093
v -1.133562 1.133892 0.743207
v -1.198117 1.133892 0.678651
v -1.161003 1.133892 0.641537
v -1.161003 1.133892 0.743207
v -1.198117 1.133892 0.706093
v -1.126814 1.161513 0.634790
v -1.089700 1.161513 0.671904
v -1.089700 1.161513 0.712840
v -1.126814 1.161513 0.749954
v -1.204865 1.161513 0.671904
v -1.167750 1.161513 0.634790
v -1.167750 1.161513 0.749954
v -1.204865 1.161513 0.712840
v -1.135320 1.161513 0.643296
v -1.098206 1.161513 0.680410
v -1.098206 1.161513 0.704334
v -1.135320 1.161513 0.741448
v -1.196358 1.161513 0.680410
v -1.159244 1.161513 0.643296
v -1.159244 1.161513 0.741448
v -1.196358 1.161513 0.704334
v -1.108601 1.049385 0.690805
v -1.145715 1.049385 0.653691
v -1.145715 1.049385 0.731054
v -1.108601 1.049385 0.693940
v -1.148850 1.049385 0.653691
v -1.185964 1.049385 0.690805
v -1.185964 1.049385 0.693939
v -1.148850 1.049385 0.731054
vt 0.349043 0.657679
vt 0.538251 0.657679
vt 0.538251 0.732227
vt 0.349043 0.732227
vt 0.206631 0.427886
vt 0.206631 0.502434
vt 0.027267 0.502434
vt 0.027267 0.427886
vt 0.895934 0.000126
vt 0.999874 0.104066
vt 0.999874 0.145662
vt 0.895934 0.249602
vt 0.854338 0.249602
vt 0.750398 0.145662
vt 0.750398 0.104066
vt 0.854338 0.000126
vt 0.538251 0.962019
vt 0.349043 0.962019
vt 0.349043 0.887471
vt 0.538251 0.887471
vt 0.349043 0.427886
vt 0.349043 0.502434
vt 0.289331 0.502434
vt 0.289331 0.427886
vt 0.538251 0.272641
vt 0.349043 0.272641
vt 0.349043 0.198093
vt 0.538251 0.198093
vt 0.264312 0.502434
vt 0.264312 0.427886
vt 0.289331 0.272641
vt 0.289331 0.198093
vt 0.289331 0.962019
vt 0.289331 0.887471
vt 0.289331 0.732227
vt 0.289331 0.657679
vt 0.264312 0.732227
vt 0.264312 0.657679
vt 0.264312 0.272641
vt 0.264312 0.198093
vt 0.264312 0.962019
vt 0.264312 0.887471
vt 0.903599 0.409262
vt 0.756606 0.409262
vt 0.750398 0.403055
vt 0.750398 0.256062
vt 0.756606 0.249854
vt 0.903598 0.249854
vt 0.909806 0.256062
vt 0.909806 0.403054
vt 0.206631 0.657679
vt 0.206631 0.732227
vt 0.027267 0.732227
vt 0.027267 0.657679
vt 0.206631 0.198093
vt 0.206631 0.272641
vt 0.027267 0.272641
vt 0.027267 0.198093
vt 0.206631 0.962019
vt 0.206631 0.887471
vt 0.027267 0.962019
vt 0.027267 0.887471
vt 0.538251 0.502434
vt 0.538251 0.427886
vt 0.349043 0.042848
vt 0.538251 0.042848
vt 0.289331 0.042848
vt 0.264312 0.042848
vt 0.206631 0.042848
vt 0.027267 0.042848
vn 0.0000 -0.1449 -0.9895
vn -0.9898 0.1423 0.0000
vn 0.0000 -1.0000 0.0000
vn -0.9895 -0.1449 0.0000
vn 1.0000 0.0000 0.0000
vn 0.0000 -0.1449 0.9895
vn 0.0000 1.0000 0.0000
vn -0.0000 0.0000 1.0000
vn -1.0000 0.0000 0.0000
vn 0.0000 0.0000 -1.0000
vn 0.0000 0.1424 0.9898
vn 0.0000 0.1424 -0.9898
vn 0.9980 -0.0636 0.0000
vn 0.9898 0.1423 0.0000
vn 0.0000 -0.0636 0.9980
vn 0.0000 -0.0636 -0.9980
vn -0.9980 -0.0635 0.0000
vn 0.6924 -0.2027 -0.6924
vn 0.6924 -0.2027 0.6924
vn -0.6924 -0.2027 0.6924
vn -0.6924 -0.2027 -0.6924
vn -0.7071 0.0000 0.7071
vn -0.7071 0.0000 -0.7071
vn 0.7071 0.0000 -0.7071
vn 0.7071 0.0000 0.7071
vn -0.7043 -0.0897 0.7043
vn -0.7043 -0.0897 -0.7043
vn 0.7043 -0.0897 0.7043
vn 0.7043 -0.0897 -0.7043
vn 0.6929 0.1993 -0.6929
vn 0.6929 0.1993 0.6929
vn -0.6929 0.1993 0.6929
vn -0.6929 0.1993 -0.6929
vn 0.9895 -0.1449 0.0000
usemtl Material.006
s off
f 9/1/1 1/2/1 8/3/1 16/4/1
f 19/5/2 18/6/2 41/7/2 44/8/2
f 1/9/3 2/10/3 3/11/3 4/12/3 5/13/3 6/14/3 7/15/3 8/16/3
f 6/17/4 14/18/4 15/19/4 7/20/4
f 11/21/5 10/22/5 26/23/5 27/24/5
f 4/25/6 12/26/6 13/27/6 5/28/6
f 34/29/7 35/30/7 27/24/7 26/23/7
f 13/27/8 12/26/8 28/31/8 31/32/8
f 15/19/9 14/18/9 32/33/9 29/34/9
f 9/1/10 16/4/10 30/35/10 25/36/10
f 38/37/7 33/38/7 25/36/7 30/35/7
f 36/39/7 39/40/7 31/32/7 28/31/7
f 40/41/7 37/42/7 29/34/7 32/33/7
f 41/43/7 42/44/7 45/45/7 46/46/7 47/47/7 48/48/7 43/49/7 44/50/7
f 17/51/11 22/52/11 45/53/11 42/54/11
f 23/55/12 20/56/12 43/57/12 48/58/12
f 24/59/13 21/60/13 37/42/13 40/41/13
f 21/60/14 24/59/14 47/61/14 46/62/14
f 22/52/15 17/51/15 33/38/15 38/37/15
f 20/56/16 23/55/16 39/40/16 36/39/16
f 18/6/17 19/5/17 35/30/17 34/29/17
f 1/2/18 9/1/18 10/22/18 2/63/18
f 3/64/19 11/21/19 12/26/19 4/25/19
f 5/28/20 13/27/20 14/65/20 6/66/20
f 7/20/21 15/19/21 16/4/21 8/3/21
f 13/27/22 31/32/22 32/67/22 14/65/22
f 30/35/23 16/4/23 15/19/23 29/34/23
f 26/23/24 10/22/24 9/1/24 25/36/24
f 11/21/25 27/24/25 28/31/25 12/26/25
f 25/36/7 33/38/7 34/29/7 26/23/7
f 36/39/7 28/31/7 27/24/7 35/30/7
f 29/34/7 37/42/7 38/37/7 30/35/7
f 40/68/7 32/67/7 31/32/7 39/40/7
f 33/38/26 17/51/26 18/6/26 34/29/26
f 20/56/27 36/39/27 35/30/27 19/5/27
f 37/42/28 21/60/28 22/52/28 38/37/28
f 24/69/29 40/68/29 39/40/29 23/55/29
f 23/55/30 48/58/30 47/70/30 24/69/30
f 45/53/31 22/52/31 21/60/31 46/62/31
f 41/7/32 18/6/32 17/51/32 42/54/32
f 19/5/33 44/8/33 43/57/33 20/56/33
f 2/63/34 10/22/34 11/21/34 3/64/34
