# Blender v2.79 (sub 0) OBJ File: 'scalingscene_2.blend'
# www.blender.org
mtllib hammer.mtl
o hammer_Cube.011
v -5.177469 1.589813 0.822106
v -5.177469 1.600115 0.851149
v -5.175931 1.800121 0.815049
v -5.122893 1.589813 0.822106
v -5.122893 1.600115 0.851149
v -5.124431 1.800121 0.815049
v -5.118872 1.187414 0.850641
v -5.118872 1.171163 0.819994
v -5.181491 1.187414 0.850641
v -5.181491 1.171163 0.819994
v -5.175463 1.830871 0.815352
v -5.124900 1.830871 0.815352
v -5.168548 1.776583 0.826813
v -5.168548 1.777246 0.850150
v -5.131814 1.776583 0.826813
v -5.131814 1.777246 0.850150
v -5.113581 1.789413 0.814958
v -5.186781 1.789413 0.814958
v -5.114331 1.840136 0.815443
v -5.186031 1.840136 0.815443
v -5.124431 1.800221 0.803312
v -5.175931 1.800221 0.803312
v -5.124900 1.830971 0.803614
v -5.175463 1.830971 0.803614
v -5.114088 1.789702 0.790016
v -5.186275 1.789702 0.790016
v -5.114745 1.846608 0.790500
v -5.185618 1.846608 0.790500
v -5.122542 1.793561 0.762658
v -5.177821 1.793561 0.762658
v -5.123045 1.832342 0.763141
v -5.177318 1.832342 0.763141
v -5.176720 1.803709 0.859180
v -5.183681 1.803709 0.852219
v -5.177282 1.783074 0.855951
v -5.116681 1.803709 0.852219
v -5.123642 1.803709 0.859180
v -5.123080 1.783074 0.855951
v -5.183044 1.832178 0.851808
v -5.176083 1.832178 0.858769
v -5.124279 1.832178 0.858769
v -5.117318 1.832178 0.851808
v -5.137135 1.789413 0.862260
v -5.163228 1.789413 0.862260
v -5.163228 1.840136 0.861775
v -5.137135 1.840136 0.861775
v -5.173734 1.789413 0.862260
v -5.186781 1.789413 0.849213
v -5.113581 1.789413 0.849213
v -5.126629 1.789413 0.862260
v -5.172984 1.840136 0.861775
v -5.186031 1.840136 0.848728
v -5.114331 1.840136 0.848728
v -5.127379 1.840136 0.861775
v -5.176720 1.805661 0.897880
v -5.183681 1.805661 0.890919
v -5.116681 1.805661 0.890919
v -5.123642 1.805661 0.897880
v -5.176083 1.827121 0.897469
v -5.183044 1.827121 0.890508
v -5.117318 1.827121 0.890508
v -5.124279 1.827121 0.897469
v -5.123642 1.806685 0.878530
v -5.124279 1.831650 0.878119
v -5.117318 1.831650 0.871158
v -5.116681 1.806685 0.871569
v -5.176083 1.831650 0.878119
v -5.176720 1.806685 0.878530
v -5.183044 1.831650 0.871158
v -5.183681 1.806685 0.871569
vn -0.9999 0.0148 0.0000
vn 0.9987 0.0491 -0.0103
vn 0.0000 -0.8835 0.4685
vn 0.0000 0.0252 -0.9997
vn 0.0000 0.0056 1.0000
vn 0.0000 0.0050 -1.0000
vn -0.9999 0.0097 -0.0043
vn 0.9999 0.0097 -0.0043
vn 0.0000 -0.0012 1.0000
vn 0.5664 -0.8241 0.0085
vn 0.0000 0.0096 1.0000
vn 0.0000 1.0000 0.0000
vn -0.9999 0.0152 0.0001
vn -0.5664 -0.8241 0.0085
vn 0.0000 -0.6787 -0.7345
vn 0.9999 0.0148 0.0000
vn -0.9987 0.0491 -0.0103
vn 0.0000 0.0085 -1.0000
vn 0.0000 0.0098 -1.0000
vn -0.0006 0.0097 -1.0000
vn 0.0006 0.0097 -1.0000
vn 0.0000 -0.7842 0.6204
vn 0.0000 -1.0000 -0.0085
vn 0.9999 0.0152 0.0001
vn 0.0000 1.0000 0.0085
vn 0.9553 0.0146 -0.2953
vn 0.7895 0.0046 0.6137
vn 0.0000 0.6426 0.7662
vn -0.7895 0.0046 0.6137
vn 0.0000 0.0125 -0.9999
vn 0.0000 0.8867 -0.4624
vn -0.9553 0.0146 -0.2953
vn 0.0000 -0.9902 -0.1396
vn -0.6758 -0.2944 0.6758
vn 0.6758 -0.2943 0.6758
vn -0.2222 0.9494 0.2222
vn 0.9996 -0.0275 -0.0039
vn -0.0000 -0.7054 0.7088
vn -0.7071 0.0046 0.7071
vn 0.7071 0.0046 0.7071
vn -0.7071 0.0083 0.7071
vn -0.7175 0.0204 0.6963
vn -0.6963 0.0203 0.7174
vn 0.7175 0.0204 0.6963
vn 0.7071 0.0083 0.7071
vn 0.6963 0.0203 0.7174
vn -0.7067 0.0345 0.7067
vn 0.7067 0.0345 0.7067
vn 0.0528 -0.9972 -0.0528
vn -0.9996 -0.0275 -0.0039
vn 0.9996 0.0275 0.0039
vn -0.9996 0.0275 0.0039
vn -0.0528 -0.9972 -0.0528
vn 0.2222 0.9494 0.2222
vn 0.0273 0.9993 0.0273
vn 0.1503 -0.9772 0.1503
vn 0.9997 0.0238 -0.0015
vn -0.9997 -0.0238 0.0015
vn -0.9997 0.0238 -0.0015
vn -0.1503 -0.9772 0.1503
vn 0.9997 -0.0238 0.0015
vn -0.0273 0.9993 0.0273
usemtl None
s off
f 18//1 48//1 52//1 20//1
f 15//2 16//2 5//2 4//2
f 7//3 9//3 10//3 8//3
f 13//4 15//4 4//4 1//4
f 16//5 14//5 2//5 5//5
f 1//6 4//6 8//6 10//6
f 2//7 1//7 10//7 9//7
f 4//8 5//8 7//8 8//8
f 5//9 2//9 9//9 7//9
f 17//10 49//10 38//10 16//10 15//10
f 47//11 44//11 45//11 51//11
f 20//12 52//12 51//12 45//12 46//12 54//12 53//12 19//12
f 3//13 11//13 24//13 22//13
f 13//14 14//14 35//14 48//14 18//14
f 18//15 17//15 15//15 13//15
f 49//16 17//16 19//16 53//16
f 1//17 2//17 14//17 13//17
f 3//18 6//18 17//18 18//18
f 12//19 11//19 20//19 19//19
f 11//20 3//20 18//20 20//20
f 6//21 12//21 19//21 17//21
f 21//22 22//22 26//22 25//22
f 6//23 3//23 22//23 21//23
f 12//24 6//24 21//24 23//24
f 11//25 12//25 23//25 24//25
f 27//26 25//26 29//26 31//26
f 23//27 21//27 25//27 27//27
f 24//28 23//28 27//28 28//28
f 22//29 24//29 28//29 26//29
f 29//30 30//30 32//30 31//30
f 28//31 27//31 31//31 32//31
f 26//32 28//32 32//32 30//32
f 25//33 26//33 30//33 29//33
f 43//11 50//11 54//11 46//11
f 47//34 48//34 35//34
f 49//35 50//35 38//35
f 67//36 69//36 60//36 59//36
f 68//37 67//37 59//37 55//37
f 43//11 46//11 45//11 44//11
f 38//38 50//38 43//38 44//38 47//38 35//38 14//38 16//38
f 33//39 34//39 48//39 47//39
f 36//40 37//40 50//40 49//40
f 39//41 40//41 51//41 52//41
f 34//42 39//42 52//42 48//42
f 40//43 33//43 47//43 51//43
f 42//44 36//44 49//44 53//44
f 41//45 42//45 53//45 54//45
f 37//46 41//46 54//46 50//46
f 60//47 56//47 55//47 59//47
f 57//48 61//48 62//48 58//48
f 70//49 68//49 55//49 56//49
f 64//50 63//50 58//50 62//50
f 66//51 65//51 61//51 57//51
f 69//52 70//52 56//52 60//52
f 63//53 66//53 57//53 58//53
f 65//54 64//54 62//54 61//54
f 42//55 41//55 64//55 65//55
f 37//56 36//56 66//56 63//56
f 36//57 42//57 65//57 66//57
f 41//58 37//58 63//58 64//58
f 39//59 34//59 70//59 69//59
f 34//60 33//60 68//60 70//60
f 33//61 40//61 67//61 68//61
f 40//62 39//62 69//62 67//62
