# Blender v2.79 (sub 0) OBJ File: 'scalingscene_2.blend'
# www.blender.org
mtllib key.mtl
o key_Cube.068
v -3.007015 1.214906 4.650514
v -3.007015 1.375740 4.650514
v -3.007015 1.243855 4.104338
v -3.007015 1.344190 4.104338
v -2.971454 1.214906 4.650514
v -2.971454 1.375740 4.650514
v -2.971454 1.243855 4.104338
v -2.971454 1.344190 4.104338
v -3.007015 1.244064 4.552163
v -3.007015 1.244064 4.583697
v -3.007015 1.375740 4.583697
v -3.007015 1.375740 4.552163
v -2.971454 1.244064 4.583697
v -2.971454 1.244064 4.552163
v -2.971454 1.375740 4.552163
v -2.971454 1.375740 4.583697
v -3.007015 1.344190 4.489269
v -2.971454 1.243855 4.489269
v -3.007015 1.243855 4.489269
v -2.971454 1.344190 4.489269
v -3.007015 1.103344 4.650514
v -2.971454 1.103344 4.650514
v -3.007015 1.103344 4.489269
v -3.007015 1.103344 4.552163
v -3.007015 1.103344 4.583697
v -2.971454 1.103344 4.583697
v -2.971454 1.103344 4.552163
v -2.971454 1.103344 4.489269
v -3.007015 1.495040 3.772856
v -3.007015 1.429782 3.707598
v -3.007015 1.448896 3.753742
v -3.007015 1.160863 3.707598
v -3.007015 1.095605 3.772856
v -3.007015 1.141749 3.753742
v -2.971454 1.429782 3.707598
v -2.971454 1.495040 3.772856
v -2.971454 1.448896 3.753742
v -2.971454 1.095605 3.772856
v -2.971454 1.160863 3.707598
v -2.971454 1.141749 3.753742
v -2.971454 1.495040 3.992650
v -2.971454 1.434226 4.081576
v -2.971454 1.429782 4.057908
v -2.971454 1.448896 4.011764
v -2.971454 1.156420 4.081576
v -2.971454 1.095605 3.992650
v -2.971454 1.141749 4.011764
v -2.971454 1.160863 4.057908
v -3.007015 1.434226 4.081576
v -3.007015 1.495040 3.992650
v -3.007015 1.448896 4.011764
v -3.007015 1.429782 4.057908
v -3.007015 1.095605 3.992650
v -3.007015 1.156420 4.081576
v -3.007015 1.160863 4.057908
v -3.007015 1.141749 4.011764
v -3.007015 1.165005 3.843131
v -3.007015 1.231138 3.776997
v -3.007015 1.141785 3.753778
v -3.007015 1.359507 3.776997
v -3.007015 1.425641 3.843131
v -3.007015 1.448861 3.753778
v -2.971454 1.231138 3.776997
v -2.971454 1.165005 3.843131
v -2.971454 1.141785 3.753778
v -2.971454 1.425641 3.843131
v -2.971454 1.359507 3.776997
v -2.971454 1.448861 3.753778
v -2.971454 1.359507 3.988508
v -2.971454 1.425641 3.922375
v -2.971454 1.448861 4.011728
v -2.971454 1.165005 3.922375
v -2.971454 1.231138 3.988508
v -2.971454 1.141785 4.011728
v -3.007015 1.231138 3.988508
v -3.007015 1.165005 3.922375
v -3.007015 1.141785 4.011728
v -3.007015 1.425641 3.922375
v -3.007015 1.359507 3.988508
v -3.007015 1.448861 4.011728
vn -1.0000 0.0000 0.0000
vn 0.0000 -0.2519 0.9677
vn 0.0000 0.0000 1.0000
vn 1.0000 0.0000 0.0000
vn 0.0000 1.0000 0.0000
vn 0.0000 0.0000 -1.0000
vn 0.0000 -1.0000 0.0000
vn 0.0000 0.8938 -0.4484
vn 0.0000 0.2451 0.9695
vn 0.0000 -0.7071 -0.7071
vn 0.0000 0.7071 -0.7071
vn 0.0000 0.8254 0.5645
vn 0.0000 -0.8254 0.5645
vn 0.0000 -0.7071 0.7071
vn 0.0000 0.7071 0.7071
usemtl None
s off
f 19//1 17//1 4//1 3//1
f 7//2 3//2 54//2 45//2
f 2//1 11//1 10//1 1//1
f 5//3 6//3 2//3 1//3
f 9//1 19//1 23//1 24//1
f 5//4 22//4 26//4 13//4
f 16//5 11//5 2//5 6//5
f 15//5 12//5 11//5 16//5
f 19//6 18//6 28//6 23//6
f 1//1 10//1 25//1 21//1
f 9//7 14//7 13//7 10//7
f 20//4 15//4 14//4 18//4
f 13//4 16//4 6//4 5//4
f 14//4 15//4 16//4 13//4
f 9//1 12//1 17//1 19//1
f 62//1 61//1 78//1 80//1 51//1 50//1 29//1 31//1
f 10//1 11//1 12//1 9//1
f 68//4 67//4 63//4 65//4 40//4 39//4 35//4 37//4
f 7//4 8//4 20//4 18//4
f 3//7 7//7 18//7 19//7
f 8//5 4//5 17//5 20//5
f 27//7 24//7 23//7 28//7
f 14//4 27//4 28//4 18//4
f 25//7 26//7 22//7 21//7
f 77//1 76//1 57//1 59//1 34//1 33//1 53//1 56//1
f 50//5 41//5 36//5 29//5
f 61//7 66//7 70//7 78//7
f 14//3 9//3 24//3 27//3
f 3//1 4//1 49//1 52//1 55//1 54//1
f 5//3 1//3 21//3 22//3
f 10//6 13//6 26//6 25//6
f 80//1 79//1 75//1 77//1 56//1 55//1 52//1 51//1
f 12//8 15//8 20//8 17//8
f 32//6 30//6 35//6 39//6
f 73//6 75//6 79//6 69//6
f 4//9 8//9 42//9 49//9
f 65//4 64//4 72//4 74//4 47//4 46//4 38//4 40//4
f 8//4 7//4 45//4 48//4 43//4 42//4
f 46//7 53//7 33//7 38//7
f 71//4 70//4 66//4 68//4 37//4 36//4 41//4 44//4
f 74//4 73//4 69//4 71//4 44//4 43//4 48//4 47//4
f 58//3 63//3 67//3 60//3
f 29//1 30//1 31//1
f 32//1 33//1 34//1
f 35//4 36//4 37//4
f 38//4 39//4 40//4
f 41//4 42//4 43//4 44//4
f 45//4 46//4 47//4 48//4
f 49//1 50//1 51//1 52//1
f 53//1 54//1 55//1 56//1
f 38//10 33//10 32//10 39//10
f 29//11 36//11 35//11 30//11
f 49//12 42//12 41//12 50//12
f 45//13 54//13 53//13 46//13
f 57//5 76//5 72//5 64//5
f 57//1 58//1 59//1
f 60//1 61//1 62//1
f 63//4 64//4 65//4
f 66//4 67//4 68//4
f 69//4 70//4 71//4
f 72//4 73//4 74//4
f 75//1 76//1 77//1
f 78//1 79//1 80//1
f 60//14 67//14 66//14 61//14
f 57//15 64//15 63//15 58//15
f 69//10 79//10 78//10 70//10
f 72//11 76//11 75//11 73//11
f 59//1 58//1 60//1 62//1 31//1 30//1 32//1 34//1
