# Blender v2.79 (sub 0) OBJ File: 'scalingscene_2.blend'
# www.blender.org
mtllib ladder.mtl
o ladder_Cube.064
v -6.899656 -0.727687 1.312431
v -6.899656 3.346876 1.312431
v -6.899656 -0.727687 1.185692
v -6.899656 3.346876 1.185692
v -6.772917 -0.727687 1.312431
v -6.772917 3.346876 1.312431
v -6.772917 -0.727687 1.185692
v -6.772917 3.346876 1.185692
v -6.899656 -0.378655 1.276828
v -6.899656 -0.136435 1.276828
v -6.899656 0.248201 1.276828
v -6.899656 0.490421 1.276828
v -6.899656 0.875057 1.276828
v -6.899656 1.117277 1.276828
v -6.899656 1.501912 1.276828
v -6.899656 1.744133 1.276828
v -6.899656 2.128768 1.276828
v -6.899656 2.370989 1.276828
v -6.899656 2.755624 1.276828
v -6.899656 2.997845 1.276828
v -6.899656 2.997845 1.221295
v -6.899656 2.755624 1.221295
v -6.899656 2.370989 1.221295
v -6.899656 2.128768 1.221295
v -6.899656 1.744133 1.221295
v -6.899656 1.501912 1.221295
v -6.899656 1.117277 1.221295
v -6.899656 0.875057 1.221295
v -6.899656 0.490421 1.221295
v -6.899656 0.248201 1.221295
v -6.899656 -0.136435 1.221295
v -6.899656 -0.378655 1.221295
v -6.772917 3.033448 1.185692
v -6.772917 2.720020 1.185692
v -6.772917 2.406592 1.185692
v -6.772917 2.093165 1.185692
v -6.772917 1.779737 1.185692
v -6.772917 1.466309 1.185692
v -6.772917 1.152881 1.185692
v -6.772917 0.839453 1.185692
v -6.772917 0.526025 1.185692
v -6.772917 0.212597 1.185692
v -6.772917 -0.100831 1.185692
v -6.772917 -0.414259 1.185692
v -6.772917 3.033448 1.312431
v -6.772917 2.720020 1.312431
v -6.772917 2.406592 1.312431
v -6.772917 2.093165 1.312431
v -6.772917 1.779737 1.312431
v -6.772917 1.466309 1.312431
v -6.772917 1.152881 1.312431
v -6.772917 0.839453 1.312431
v -6.772917 0.526025 1.312431
v -6.772917 0.212597 1.312431
v -6.772917 -0.100831 1.312431
v -6.772917 -0.414259 1.312431
v -6.899656 -0.414259 1.312431
v -6.899656 -0.100831 1.312431
v -6.899656 0.212597 1.312431
v -6.899656 0.526025 1.312431
v -6.899656 0.839453 1.312431
v -6.899656 1.152881 1.312431
v -6.899656 1.466309 1.312431
v -6.899656 1.779737 1.312431
v -6.899656 2.093165 1.312431
v -6.899656 2.406592 1.312431
v -6.899656 2.720020 1.312431
v -6.899656 3.033448 1.312431
v -6.899656 3.033448 1.185692
v -6.899656 2.720020 1.185692
v -6.899656 2.406592 1.185692
v -6.899656 2.093165 1.185692
v -6.899656 1.779737 1.185692
v -6.899656 1.466309 1.185692
v -6.899656 1.152881 1.185692
v -6.899656 0.839453 1.185692
v -6.899656 0.526025 1.185692
v -6.899656 0.212597 1.185692
v -6.899656 -0.100831 1.185692
v -6.899656 -0.414259 1.185692
v -7.359984 -0.727687 1.312431
v -7.359984 3.346876 1.312431
v -7.359984 -0.727687 1.185692
v -7.359984 3.346876 1.185692
v -7.486724 -0.727687 1.312431
v -7.486724 3.346876 1.312431
v -7.486724 -0.727687 1.185692
v -7.486724 3.346876 1.185692
v -7.359984 -0.378655 1.276828
v -7.359984 -0.136435 1.276828
v -7.359984 0.248201 1.276828
v -7.359984 0.490421 1.276828
v -7.359984 0.875057 1.276828
v -7.359984 1.117277 1.276828
v -7.359984 1.501912 1.276828
v -7.359984 1.744133 1.276828
v -7.359984 2.128768 1.276828
v -7.359984 2.370989 1.276828
v -7.359984 2.755624 1.276828
v -7.359984 2.997845 1.276828
v -7.359984 2.997845 1.221295
v -7.359984 2.755624 1.221295
v -7.359984 2.370989 1.221295
v -7.359984 2.128768 1.221295
v -7.359984 1.744133 1.221295
v -7.359984 1.501912 1.221295
v -7.359984 1.117277 1.221295
v -7.359984 0.875057 1.221295
v -7.359984 0.490421 1.221295
v -7.359984 0.248201 1.221295
v -7.359984 -0.136435 1.221295
v -7.359984 -0.378655 1.221295
v -7.486724 3.033448 1.185692
v -7.486724 2.720020 1.185692
v -7.486724 2.406592 1.185692
v -7.486724 2.093165 1.185692
v -7.486724 1.779737 1.185692
v -7.486724 1.466309 1.185692
v -7.486724 1.152881 1.185692
v -7.486724 0.839453 1.185692
v -7.486724 0.526025 1.185692
v -7.486724 0.212597 1.185692
v -7.486724 -0.100831 1.185692
v -7.486724 -0.414259 1.185692
v -7.486724 3.033448 1.312431
v -7.486724 2.720020 1.312431
v -7.486724 2.406592 1.312431
v -7.486724 2.093165 1.312431
v -7.486724 1.779737 1.312431
v -7.486724 1.466309 1.312431
v -7.486724 1.152881 1.312431
v -7.486724 0.839453 1.312431
v -7.486724 0.526025 1.312431
v -7.486724 0.212597 1.312431
v -7.486724 -0.100831 1.312431
v -7.486724 -0.414259 1.312431
v -7.359984 -0.414259 1.312431
v -7.359984 -0.100831 1.312431
v -7.359984 0.212597 1.312431
v -7.359984 0.526025 1.312431
v -7.359984 0.839453 1.312431
v -7.359984 1.152881 1.312431
v -7.359984 1.466309 1.312431
v -7.359984 1.779737 1.312431
v -7.359984 2.093165 1.312431
v -7.359984 2.406592 1.312431
v -7.359984 2.720020 1.312431
v -7.359984 3.033448 1.312431
v -7.359984 3.033448 1.185692
v -7.359984 2.720020 1.185692
v -7.359984 2.406592 1.185692
v -7.359984 2.093165 1.185692
v -7.359984 1.779737 1.185692
v -7.359984 1.466309 1.185692
v -7.359984 1.152881 1.185692
v -7.359984 0.839453 1.185692
v -7.359984 0.526025 1.185692
v -7.359984 0.212597 1.185692
v -7.359984 -0.100831 1.185692
v -7.359984 -0.414259 1.185692
v -7.359984 2.997845 1.276828
vn -1.0000 0.0000 0.0000
vn 0.0000 0.0000 -1.0000
vn 1.0000 0.0000 0.0000
vn 0.0000 0.0000 1.0000
vn 0.0000 -1.0000 0.0000
vn 0.0000 1.0000 0.0000
usemtl None
s off
f 68//1 2//1 4//1 69//1
f 69//2 4//2 8//2 33//2
f 33//3 8//3 6//3 45//3
f 45//4 6//4 2//4 68//4
f 3//5 7//5 5//5 1//5
f 8//6 4//6 2//6 6//6
f 5//4 56//4 57//4 1//4
f 56//4 55//4 58//4 57//4
f 55//4 54//4 59//4 58//4
f 54//4 53//4 60//4 59//4
f 53//4 52//4 61//4 60//4
f 52//4 51//4 62//4 61//4
f 51//4 50//4 63//4 62//4
f 50//4 49//4 64//4 63//4
f 49//4 48//4 65//4 64//4
f 48//4 47//4 66//4 65//4
f 47//4 46//4 67//4 66//4
f 46//4 45//4 68//4 67//4
f 7//3 44//3 56//3 5//3
f 44//3 43//3 55//3 56//3
f 43//3 42//3 54//3 55//3
f 42//3 41//3 53//3 54//3
f 41//3 40//3 52//3 53//3
f 40//3 39//3 51//3 52//3
f 39//3 38//3 50//3 51//3
f 38//3 37//3 49//3 50//3
f 37//3 36//3 48//3 49//3
f 36//3 35//3 47//3 48//3
f 35//3 34//3 46//3 47//3
f 34//3 33//3 45//3 46//3
f 3//2 80//2 44//2 7//2
f 80//2 79//2 43//2 44//2
f 79//2 78//2 42//2 43//2
f 78//2 77//2 41//2 42//2
f 77//2 76//2 40//2 41//2
f 76//2 75//2 39//2 40//2
f 75//2 74//2 38//2 39//2
f 74//2 73//2 37//2 38//2
f 73//2 72//2 36//2 37//2
f 72//2 71//2 35//2 36//2
f 71//2 70//2 34//2 35//2
f 70//2 69//2 33//2 34//2
f 1//1 57//1 80//1 3//1
f 58//1 59//1 78//1 79//1
f 60//1 61//1 76//1 77//1
f 62//1 63//1 74//1 75//1
f 64//1 65//1 72//1 73//1
f 66//1 67//1 70//1 71//1
f 10//1 9//1 57//1 58//1
f 12//1 11//1 59//1 60//1
f 14//1 13//1 61//1 62//1
f 16//1 15//1 63//1 64//1
f 18//1 17//1 65//1 66//1
f 20//1 19//1 67//1 68//1
f 22//1 21//1 69//1 70//1
f 24//1 23//1 71//1 72//1
f 26//1 25//1 73//1 74//1
f 28//1 27//1 75//1 76//1
f 30//1 29//1 77//1 78//1
f 32//1 31//1 79//1 80//1
f 9//1 32//1 80//1 57//1
f 31//1 10//1 58//1 79//1
f 11//1 30//1 78//1 59//1
f 29//1 12//1 60//1 77//1
f 13//1 28//1 76//1 61//1
f 27//1 14//1 62//1 75//1
f 15//1 26//1 74//1 63//1
f 25//1 16//1 64//1 73//1
f 17//1 24//1 72//1 65//1
f 23//1 18//1 66//1 71//1
f 19//1 22//1 70//1 67//1
f 21//1 20//1 68//1 69//1
f 148//3 149//3 84//3 82//3
f 149//2 113//2 88//2 84//2
f 113//1 125//1 86//1 88//1
f 125//4 148//4 82//4 86//4
f 83//5 81//5 85//5 87//5
f 88//6 86//6 82//6 84//6
f 85//4 81//4 137//4 136//4
f 136//4 137//4 138//4 135//4
f 135//4 138//4 139//4 134//4
f 134//4 139//4 140//4 133//4
f 133//4 140//4 141//4 132//4
f 132//4 141//4 142//4 131//4
f 131//4 142//4 143//4 130//4
f 130//4 143//4 144//4 129//4
f 129//4 144//4 145//4 128//4
f 128//4 145//4 146//4 127//4
f 127//4 146//4 147//4 126//4
f 126//4 147//4 148//4 125//4
f 87//1 85//1 136//1 124//1
f 124//1 136//1 135//1 123//1
f 123//1 135//1 134//1 122//1
f 122//1 134//1 133//1 121//1
f 121//1 133//1 132//1 120//1
f 120//1 132//1 131//1 119//1
f 119//1 131//1 130//1 118//1
f 118//1 130//1 129//1 117//1
f 117//1 129//1 128//1 116//1
f 116//1 128//1 127//1 115//1
f 115//1 127//1 126//1 114//1
f 114//1 126//1 125//1 113//1
f 83//2 87//2 124//2 160//2
f 160//2 124//2 123//2 159//2
f 159//2 123//2 122//2 158//2
f 158//2 122//2 121//2 157//2
f 157//2 121//2 120//2 156//2
f 156//2 120//2 119//2 155//2
f 155//2 119//2 118//2 154//2
f 154//2 118//2 117//2 153//2
f 153//2 117//2 116//2 152//2
f 152//2 116//2 115//2 151//2
f 151//2 115//2 114//2 150//2
f 150//2 114//2 113//2 149//2
f 81//3 83//3 160//3 137//3
f 138//3 159//3 158//3 139//3
f 140//3 157//3 156//3 141//3
f 142//3 155//3 154//3 143//3
f 144//3 153//3 152//3 145//3
f 146//3 151//3 150//3 147//3
f 90//3 138//3 137//3 89//3
f 92//3 140//3 139//3 91//3
f 94//3 142//3 141//3 93//3
f 96//3 144//3 143//3 95//3
f 98//3 146//3 145//3 97//3
f 100//3 148//3 147//3 99//3
f 102//3 150//3 149//3 101//3
f 104//3 152//3 151//3 103//3
f 106//3 154//3 153//3 105//3
f 108//3 156//3 155//3 107//3
f 110//3 158//3 157//3 109//3
f 112//3 160//3 159//3 111//3
f 89//3 137//3 160//3 112//3
f 111//3 159//3 138//3 90//3
f 91//3 139//3 158//3 110//3
f 109//3 157//3 140//3 92//3
f 93//3 141//3 156//3 108//3
f 107//3 155//3 142//3 94//3
f 95//3 143//3 154//3 106//3
f 105//3 153//3 144//3 96//3
f 97//3 145//3 152//3 104//3
f 103//3 151//3 146//3 98//3
f 99//3 147//3 150//3 102//3
f 101//3 149//3 148//3 100//3
f 161//3 99//3 102//3 101//3
f 31//6 111//6 90//6 10//6
f 32//2 112//2 111//2 31//2
f 32//5 9//5 89//5 112//5
f 10//4 90//4 89//4 9//4
f 30//2 110//2 109//2 29//2
f 29//6 109//6 92//6 12//6
f 12//4 92//4 91//4 11//4
f 30//5 11//5 91//5 110//5
f 28//5 13//5 93//5 108//5
f 14//4 94//4 93//4 13//4
f 28//2 108//2 107//2 27//2
f 27//6 107//6 94//6 14//6
f 26//5 15//5 95//5 106//5
f 26//2 106//2 105//2 25//2
f 25//6 105//6 96//6 16//6
f 16//4 96//4 95//4 15//4
f 24//2 104//2 103//2 23//2
f 24//5 17//5 97//5 104//5
f 23//6 103//6 98//6 18//6
f 18//4 98//4 97//4 17//4
f 19//4 20//4 100//4 161//4 99//4
f 21//6 101//6 100//6 20//6
f 101//2 21//2 22//2 102//2
