# Blender v2.79 (sub 0) OBJ File: 'scalingscene_2.blend'
# www.blender.org
mtllib magnet.mtl
o magnet_Cube.066
v -7.968773 1.363194 4.035996
v -7.938060 1.646809 4.040684
v -7.968773 1.363194 3.969806
v -7.938060 1.646809 3.965119
v -7.914044 1.363194 4.035996
v -7.862496 1.646809 4.040684
v -7.914044 1.363194 3.969806
v -7.862496 1.646809 3.965119
v -7.949989 1.724036 4.041397
v -7.949989 1.724036 3.964406
v -7.874402 1.738668 3.964406
v -7.874402 1.738668 4.041397
v -7.974566 1.767492 4.041397
v -7.974566 1.767492 3.964406
v -7.927568 1.828473 3.964406
v -7.927568 1.828473 4.041397
v -8.009130 1.780756 4.041397
v -8.009130 1.780756 3.964406
v -8.007510 1.857730 3.964406
v -8.007510 1.857730 4.041397
v -8.036100 1.781324 4.041397
v -8.036100 1.781324 3.964406
v -8.034481 1.858297 3.964406
v -8.034481 1.858297 4.041397
v -7.954312 1.505002 4.040684
v -7.954312 1.505002 3.965119
v -7.889772 1.505002 3.965119
v -7.889772 1.505002 4.040684
v -8.130124 1.363194 4.035996
v -8.160837 1.646809 4.040684
v -8.130124 1.363194 3.969806
v -8.160837 1.646809 3.965119
v -8.184854 1.363194 4.035996
v -8.236403 1.646809 4.040684
v -8.184854 1.363194 3.969806
v -8.236403 1.646809 3.965119
v -8.148909 1.724036 4.041397
v -8.148909 1.724036 3.964406
v -8.224496 1.738668 3.964406
v -8.224496 1.738668 4.041397
v -8.124331 1.767492 4.041397
v -8.124331 1.767492 3.964406
v -8.171330 1.828473 3.964406
v -8.171330 1.828473 4.041397
v -8.089768 1.780756 4.041397
v -8.089768 1.780756 3.964406
v -8.091388 1.857730 3.964406
v -8.091388 1.857730 4.041397
v -8.062798 1.781324 4.041397
v -8.062798 1.781324 3.964406
v -8.064417 1.858297 3.964406
v -8.064417 1.858297 4.041397
v -8.144587 1.505002 4.040684
v -8.144587 1.505002 3.965119
v -8.209126 1.505002 3.965119
v -8.209126 1.505002 4.040684
vn -0.9935 0.1139 0.0000
vn 0.0000 0.0000 -1.0000
vn 0.9820 -0.1889 0.0000
vn 0.0000 0.0000 1.0000
vn 0.0000 -1.0000 0.0000
vn 0.0008 -0.0083 -1.0000
vn 0.8605 0.5094 0.0000
vn 0.9917 0.1285 0.0000
vn -0.9883 -0.1526 0.0000
vn 0.0008 -0.0083 1.0000
vn -0.3583 -0.9336 0.0000
vn -0.8704 -0.4923 0.0000
vn 0.3437 0.9391 0.0000
vn 0.0000 1.0000 0.0000
vn 0.0210 0.9998 0.0000
vn -0.0210 -0.9998 0.0000
vn 0.0000 -0.0330 0.9995
vn 0.9857 -0.1687 0.0000
vn 0.0000 -0.0330 -0.9995
vn -0.9948 0.1015 0.0000
vn 0.9935 0.1139 0.0000
vn -0.9820 -0.1889 0.0000
vn -0.0008 -0.0083 -1.0000
vn -0.8605 0.5094 0.0000
vn -0.9917 0.1285 0.0000
vn 0.9883 -0.1527 0.0000
vn -0.0008 -0.0083 1.0000
vn 0.3583 -0.9336 0.0000
vn 0.8704 -0.4923 0.0000
vn -0.3437 0.9391 0.0000
vn -0.0210 0.9998 0.0000
vn 0.0210 -0.9998 0.0000
vn -0.9857 -0.1687 0.0000
vn 0.9948 0.1015 0.0000
usemtl None
s off
f 25//1 2//1 4//1 26//1
f 26//2 4//2 8//2 27//2
f 27//3 8//3 6//3 28//3
f 28//4 6//4 2//4 25//4
f 3//5 7//5 5//5 1//5
f 8//6 4//6 10//6 11//6
f 12//7 11//7 15//7 16//7
f 6//8 8//8 11//8 12//8
f 4//9 2//9 9//9 10//9
f 2//10 6//10 12//10 9//10
f 14//11 13//11 17//11 18//11
f 10//12 9//12 13//12 14//12
f 9//4 12//4 16//4 13//4
f 11//2 10//2 14//2 15//2
f 17//4 20//4 24//4 21//4
f 13//4 16//4 20//4 17//4
f 15//2 14//2 18//2 19//2
f 16//13 15//13 19//13 20//13
f 24//14 23//14 51//14 52//14
f 19//2 18//2 22//2 23//2
f 20//15 19//15 23//15 24//15
f 18//16 17//16 21//16 22//16
f 5//17 28//17 25//17 1//17
f 7//18 27//18 28//18 5//18
f 3//19 26//19 27//19 7//19
f 1//20 25//20 26//20 3//20
f 53//21 54//21 32//21 30//21
f 54//2 55//2 36//2 32//2
f 55//22 56//22 34//22 36//22
f 56//4 53//4 30//4 34//4
f 31//5 29//5 33//5 35//5
f 36//23 39//23 38//23 32//23
f 40//24 44//24 43//24 39//24
f 34//25 40//25 39//25 36//25
f 32//26 38//26 37//26 30//26
f 30//27 37//27 40//27 34//27
f 42//28 46//28 45//28 41//28
f 38//29 42//29 41//29 37//29
f 37//4 41//4 44//4 40//4
f 39//2 43//2 42//2 38//2
f 45//4 49//4 52//4 48//4
f 41//4 45//4 48//4 44//4
f 43//2 47//2 46//2 42//2
f 44//30 48//30 47//30 43//30
f 23//2 22//2 50//2 51//2
f 47//2 51//2 50//2 46//2
f 48//31 52//31 51//31 47//31
f 46//32 50//32 49//32 45//32
f 33//17 29//17 53//17 56//17
f 35//33 33//33 56//33 55//33
f 31//19 35//19 55//19 54//19
f 29//34 31//34 54//34 53//34
f 21//4 24//4 52//4 49//4
f 22//5 21//5 49//5 50//5
