# Blender v2.79 (sub 0) OBJ File: 'scalingscene_2.blend'
# www.blender.org
mtllib paper.mtl
o paper_Plane
v -7.247379 1.308865 5.401526
v -7.010067 1.320994 5.428874
v -7.246917 1.318441 5.100312
v -7.018281 1.320994 5.110261
v -7.129819 1.316525 5.419879
v -7.129819 1.316525 5.095519
v -7.246775 1.316525 5.257699
v -7.012864 1.316525 5.257699
v -7.129819 1.316525 5.257699
vn -0.0205 0.9997 0.0148
vn 0.0083 0.9999 0.0060
vn -0.0346 0.9991 0.0249
vn -0.0184 0.9997 -0.0132
usemtl None
s off
f 9//1 8//1 4//1 6//1
f 7//2 9//2 6//2 3//2
f 1//3 5//3 9//3 7//3
f 5//4 2//4 8//4 9//4
