# Blender v2.79 (sub 0) OBJ File: 'scalingscene_2.blend'
# www.blender.org
mtllib pen.mtl
o pen_Cylinder.014
v -7.129819 1.349385 5.522283
v -7.129819 1.345989 5.724515
v -7.120842 1.345666 5.522283
v -7.123244 1.343265 5.724515
v -7.117124 1.336689 5.522283
v -7.120520 1.336689 5.724515
v -7.120842 1.327712 5.522283
v -7.123244 1.330114 5.724515
v -7.129819 1.323994 5.522283
v -7.129819 1.327390 5.724515
v -7.138796 1.327712 5.522283
v -7.136395 1.330114 5.724515
v -7.142515 1.336689 5.522283
v -7.139119 1.336689 5.724515
v -7.138796 1.345666 5.522283
v -7.136395 1.343265 5.724515
v -7.129819 1.349385 5.696971
v -7.120842 1.345666 5.696971
v -7.117124 1.336689 5.696971
v -7.120842 1.327712 5.696971
v -7.129819 1.323994 5.696971
v -7.138796 1.327712 5.696971
v -7.142515 1.336689 5.696971
v -7.138796 1.345666 5.696971
vn 0.3802 0.9179 0.1132
vn 0.9179 0.3802 0.1132
vn 0.9179 -0.3802 0.1132
vn 0.3802 -0.9179 0.1132
vn -0.3802 -0.9179 0.1132
vn -0.9179 -0.3802 0.1132
vn 0.0000 0.0000 1.0000
vn -0.9179 0.3802 0.1132
vn -0.3802 0.9179 0.1132
vn 0.0000 0.0000 -1.0000
vn -0.3827 0.9239 0.0000
vn -0.9239 0.3827 0.0000
vn -0.9239 -0.3827 0.0000
vn -0.3827 -0.9239 0.0000
vn 0.3827 -0.9239 0.0000
vn 0.9239 -0.3827 0.0000
vn 0.9239 0.3827 0.0000
vn 0.3827 0.9239 0.0000
usemtl None
s off
f 17//1 2//1 4//1 18//1
f 18//2 4//2 6//2 19//2
f 19//3 6//3 8//3 20//3
f 20//4 8//4 10//4 21//4
f 21//5 10//5 12//5 22//5
f 22//6 12//6 14//6 23//6
f 4//7 2//7 16//7 14//7 12//7 10//7 8//7 6//7
f 23//8 14//8 16//8 24//8
f 24//9 16//9 2//9 17//9
f 1//10 3//10 5//10 7//10 9//10 11//10 13//10 15//10
f 15//11 24//11 17//11 1//11
f 13//12 23//12 24//12 15//12
f 11//13 22//13 23//13 13//13
f 9//14 21//14 22//14 11//14
f 7//15 20//15 21//15 9//15
f 5//16 19//16 20//16 7//16
f 3//17 18//17 19//17 5//17
f 1//18 17//18 18//18 3//18
