# Blender v2.79 (sub 0) OBJ File: 'scalingscene_2.blend'
# www.blender.org
mtllib rat.mtl
o rat_Cube.014
v 0.690038 0.182265 2.277470
v 0.697667 0.264200 2.277470
v 0.690038 0.182265 2.198845
v 0.697667 0.264200 2.198845
v 0.783921 0.182265 2.277470
v 0.776291 0.264200 2.277470
v 0.783921 0.182265 2.198845
v 0.776291 0.264200 2.198845
v 0.697667 0.244307 2.117074
v 0.690038 0.182265 2.118413
v 0.783921 0.182265 2.118413
v 0.776291 0.244307 2.117074
v 0.705250 0.179876 2.315650
v 0.705250 0.247297 2.315621
v 0.768709 0.247297 2.315621
v 0.768709 0.179876 2.315650
v 0.705250 0.179876 2.340372
v 0.705250 0.265369 2.328800
v 0.768709 0.265369 2.328800
v 0.768709 0.179876 2.340372
v 0.714176 0.179876 2.435497
v 0.714176 0.223820 2.419489
v 0.759783 0.223820 2.419489
v 0.759783 0.179876 2.435497
v 0.699057 0.249734 2.357308
v 0.774901 0.249734 2.357308
v 0.774901 0.179876 2.368880
v 0.699057 0.179876 2.368880
v 0.684914 0.218472 2.277470
v 0.684914 0.218472 2.198845
v 0.789045 0.218472 2.198845
v 0.789045 0.218472 2.277470
v 0.684914 0.218472 2.118413
v 0.789045 0.218472 2.118413
v 0.699351 0.209100 2.315650
v 0.774607 0.209100 2.315650
v 0.697474 0.210273 2.340372
v 0.776485 0.210273 2.340372
v 0.714176 0.200113 2.435497
v 0.759783 0.200113 2.435497
v 0.699057 0.212148 2.368880
v 0.774901 0.212148 2.368880
v 0.760450 0.182265 2.198845
v 0.736979 0.182265 2.198845
v 0.713508 0.182265 2.198845
v 0.717323 0.273342 2.198845
v 0.736979 0.278632 2.198845
v 0.756635 0.273342 2.198845
v 0.713508 0.182265 2.277470
v 0.736979 0.182265 2.277470
v 0.760450 0.182265 2.277470
v 0.756635 0.269820 2.277470
v 0.736979 0.271612 2.277470
v 0.717323 0.269820 2.277470
v 0.760443 0.186674 2.080176
v 0.736979 0.186674 2.080176
v 0.713516 0.186674 2.080176
v 0.717330 0.257508 2.080176
v 0.736979 0.258818 2.080176
v 0.756629 0.257508 2.080176
v 0.721115 0.179876 2.315650
v 0.736979 0.179876 2.315650
v 0.752844 0.179876 2.315650
v 0.752844 0.248974 2.315621
v 0.736979 0.246461 2.315650
v 0.721115 0.248974 2.315621
v 0.721115 0.179876 2.340372
v 0.736979 0.179876 2.340372
v 0.752844 0.179876 2.340372
v 0.752844 0.265372 2.328800
v 0.736979 0.252269 2.336297
v 0.721115 0.265372 2.328800
v 0.725578 0.179876 2.451036
v 0.736979 0.179876 2.451036
v 0.748381 0.179876 2.451036
v 0.748381 0.223820 2.419489
v 0.736979 0.223820 2.419489
v 0.725578 0.223820 2.419489
v 0.755940 0.179876 2.368880
v 0.736979 0.179876 2.368880
v 0.718018 0.179876 2.368880
v 0.718018 0.249734 2.357308
v 0.736979 0.251089 2.366677
v 0.755940 0.249734 2.357308
v 0.748381 0.200113 2.451036
v 0.736979 0.200113 2.451036
v 0.725578 0.200113 2.451036
v 0.710955 0.220225 2.080176
v 0.736979 0.207417 2.029632
v 0.763004 0.220225 2.080176
v 0.690038 0.182265 2.238158
v 0.697667 0.264200 2.238158
v 0.783921 0.182265 2.238158
v 0.776291 0.264200 2.238158
v 0.789045 0.218472 2.238158
v 0.684914 0.218472 2.238158
v 0.756635 0.271581 2.238158
v 0.736979 0.275122 2.238158
v 0.717323 0.271581 2.238158
v 0.713508 0.182265 2.238158
v 0.736979 0.182265 2.238158
v 0.760450 0.182265 2.238158
v 0.750658 0.201307 2.057525
v 0.736979 0.201307 2.057525
v 0.723301 0.201307 2.057525
v 0.725524 0.242601 2.057525
v 0.736979 0.243365 2.057525
v 0.748434 0.242601 2.057525
v 0.721808 0.220866 2.057525
v 0.747643 0.207417 2.029632
v 0.752151 0.220866 2.057525
v 0.726315 0.207417 2.029632
v 0.728049 0.236386 2.029632
v 0.736979 0.236922 2.029632
v 0.745910 0.236386 2.029632
v 0.725151 0.221138 2.029632
v 0.748807 0.221138 2.029632
v 0.736979 0.236922 1.984907
v 0.744944 0.236386 1.980867
v 0.729015 0.236386 1.988948
v 0.736979 0.207417 1.984907
v 0.727469 0.207417 1.989732
v 0.746489 0.207417 1.980083
v 0.726431 0.221138 1.990259
v 0.747527 0.221138 1.979556
v 0.720511 0.236922 1.952447
v 0.727061 0.236386 1.946376
v 0.713961 0.236386 1.958518
v 0.720511 0.207417 1.952447
v 0.712690 0.207417 1.959697
v 0.728332 0.207417 1.945198
v 0.711837 0.221138 1.960488
v 0.729186 0.221138 1.944406
v 0.700161 0.235733 1.930493
v 0.707825 0.235239 1.927495
v 0.692496 0.235239 1.933489
v 0.700161 0.208545 1.930493
v 0.691009 0.208545 1.934071
v 0.709312 0.208545 1.926914
v 0.690010 0.221188 1.934462
v 0.710311 0.221188 1.926523
v 0.699923 0.233323 1.902725
v 0.705348 0.232914 1.906839
v 0.694498 0.232914 1.898611
v 0.699923 0.210830 1.902725
v 0.693446 0.210830 1.897813
v 0.706401 0.210830 1.907638
v 0.692738 0.221290 1.897277
v 0.707108 0.221290 1.908174
v 0.721283 0.233323 1.874560
v 0.727691 0.232914 1.876861
v 0.714875 0.232914 1.872259
v 0.721283 0.210830 1.874560
v 0.713632 0.210830 1.871812
v 0.728934 0.210830 1.877308
v 0.712796 0.221290 1.871513
v 0.729769 0.221290 1.877608
v 0.731303 0.231484 1.846656
v 0.736691 0.231141 1.848591
v 0.725916 0.231141 1.844721
v 0.731303 0.212573 1.846656
v 0.724871 0.212573 1.844346
v 0.737736 0.212573 1.848966
v 0.724168 0.221368 1.844094
v 0.738439 0.221368 1.849218
v 0.741844 0.231484 1.817305
v 0.747523 0.231141 1.816590
v 0.736164 0.231141 1.818021
v 0.741844 0.212573 1.817305
v 0.735062 0.212573 1.818160
v 0.748625 0.212573 1.816451
v 0.734322 0.221368 1.818253
v 0.749365 0.221368 1.816358
v 0.737036 0.229033 1.779133
v 0.741281 0.228777 1.778599
v 0.732791 0.228777 1.779668
v 0.737036 0.214897 1.779134
v 0.731967 0.214897 1.779772
v 0.742105 0.214897 1.778495
v 0.731413 0.221471 1.779842
v 0.742658 0.221471 1.778425
v 0.732035 0.225616 1.737494
v 0.734277 0.225480 1.737185
v 0.729792 0.225480 1.737803
v 0.732035 0.218138 1.737494
v 0.729357 0.218138 1.737862
v 0.734712 0.218138 1.737125
v 0.729065 0.221616 1.737903
v 0.735004 0.221616 1.737085
v 0.729179 0.221777 1.716750
vt 0.190882 0.202617
vt 0.205009 0.102082
vt 0.286896 0.117578
vt 0.269716 0.212532
vt 0.296652 0.672944
vt 0.283587 0.628287
vt 0.427723 0.549478
vt 0.515441 0.560192
vt 0.189606 0.543107
vt 0.202872 0.642638
vt 0.119184 0.648572
vt 0.107787 0.551204
vt 0.119880 0.049831
vt 0.121005 0.096398
vt 0.018149 0.104061
vt 0.011444 0.062545
vt 0.179775 0.420933
vt 0.182651 0.468410
vt 0.102742 0.475075
vt 0.097404 0.425115
vt 0.211884 0.054584
vt 0.490989 0.481177
vt 0.407193 0.504462
vt 0.431348 0.199724
vt 0.410278 0.244664
vt 0.268298 0.533623
vt 0.259777 0.462835
vt 0.392319 0.452004
vt 0.257493 0.330346
vt 0.260864 0.284792
vt 0.393087 0.295873
vt 0.463777 0.331625
vt 0.907234 0.386268
vt 0.899184 0.429628
vt 0.836924 0.414835
vt 0.844070 0.377342
vt 0.018365 0.640438
vt 0.007295 0.535783
vt 0.107806 0.194992
vt 0.102288 0.272123
vt 0.006900 0.291909
vt 0.006249 0.210392
vt 0.007576 0.455392
vt 0.003571 0.414544
vt 0.740384 0.090638
vt 0.766680 0.122393
vt 0.663791 0.209413
vt 0.640632 0.200411
vt 0.891347 0.175116
vt 0.907280 0.256197
vt 0.844932 0.263634
vt 0.832800 0.189858
vt 0.835088 0.041162
vt 0.846134 0.084341
vt 0.802712 0.083341
vt 0.793431 0.061803
vt 0.872741 0.508312
vt 0.816605 0.591384
vt 0.774146 0.586910
vt 0.816602 0.486571
vt 0.624541 0.277852
vt 0.654353 0.260531
vt 0.755158 0.468126
vt 0.743852 0.544565
vt 0.653112 0.449723
vt 0.649010 0.399271
vt 0.780997 0.374219
vt 0.774353 0.410159
vt 0.666902 0.371203
vt 0.643593 0.351698
vt 0.769022 0.201297
vt 0.781804 0.261554
vt 0.668035 0.290950
vt 0.642298 0.309408
vt 0.463048 0.417735
vt 0.183233 0.277705
vt 0.493183 0.269065
vt 0.519329 0.190452
vt 0.573267 0.233148
vt 0.551279 0.289823
vt 0.545133 0.594852
vt 0.570173 0.518768
vt 0.592608 0.539498
vt 0.620972 0.378877
vt 0.596576 0.371398
vt 0.628925 0.329438
vt 0.597664 0.286159
vt 0.762464 0.606651
vt 0.714690 0.572154
vt 0.729705 0.638602
vt 0.669618 0.586444
vt 0.764335 0.025016
vt 0.696188 0.070166
vt 0.848025 0.301655
vt 0.784741 0.298206
vt 0.847484 0.339579
vt 0.784633 0.336511
vt 0.629806 0.456109
vt 0.605343 0.463216
vt 0.614257 0.190086
vt 0.800352 0.631958
vt 0.778684 0.669551
vt 0.818123 0.000156
vt 0.096998 0.321834
vt 0.003184 0.332943
vt 0.095277 0.373461
vt 0.002723 0.373785
vt 0.911155 0.299058
vt 0.911155 0.342660
vt 0.256891 0.417204
vt 0.256191 0.373785
vt 0.467394 0.374778
vt 0.529541 0.411068
vt 0.549556 0.461639
vt 0.209187 0.689782
vt 0.118091 0.694363
vt 0.216050 0.737345
vt 0.115831 0.743314
vt 0.219181 0.006406
vt 0.117732 0.000156
vt 0.180027 0.325964
vt 0.178779 0.373509
vt 0.011504 0.681261
vt 0.000156 0.721060
vt 0.000157 0.022070
vt 0.300651 0.072488
vt 0.315458 0.028726
vt 0.549929 0.156169
vt 0.310713 0.716319
vt 0.001365 0.869740
vt 0.000156 0.843385
vt 0.062967 0.844926
vt 0.063085 0.869127
vt 0.065592 0.812968
vt 0.068076 0.778408
vt 0.162354 0.780090
vt 0.159366 0.817269
vt 0.007238 0.934082
vt 0.000156 0.896459
vt 0.063060 0.893658
vt 0.066564 0.925735
vt 0.020464 0.999844
vt 0.012572 0.978079
vt 0.071615 0.960769
vt 0.076452 0.979429
vt 0.530188 0.339733
vt 0.531017 0.375392
vt 0.596263 0.212872
vt 0.006602 0.807069
vt 0.009612 0.764978
vt 0.015879 0.743627
vt 0.070964 0.759696
vt 0.168710 0.892848
vt 0.163792 0.872902
vt 0.237514 0.871906
vt 0.240943 0.891945
vt 0.158276 0.850262
vt 0.168419 0.761547
vt 0.170309 0.918767
vt 0.170649 0.947593
vt 0.168141 0.964116
vt 0.241729 0.945619
vt 0.242753 0.917063
vt 0.299702 0.915606
vt 0.299198 0.951537
vt 0.245214 0.769551
vt 0.239103 0.787263
vt 0.234288 0.820967
vt 0.233522 0.850871
vt 0.238951 0.962612
vt 0.295647 0.847870
vt 0.297937 0.826150
vt 0.365277 0.831269
vt 0.363789 0.851134
vt 0.297840 0.884766
vt 0.296777 0.864805
vt 0.303315 0.787006
vt 0.299802 0.801466
vt 0.299466 0.969197
vt 0.365002 0.809273
vt 0.431133 0.806920
vt 0.429634 0.832886
vt 0.357664 0.866827
vt 0.355367 0.944778
vt 0.364685 0.958480
vt 0.348942 0.912973
vt 0.349363 0.884238
vt 0.361199 0.796065
vt 0.435850 0.907083
vt 0.433914 0.887341
vt 0.493079 0.882829
vt 0.494428 0.901855
vt 0.428976 0.855849
vt 0.431595 0.872226
vt 0.437220 0.929373
vt 0.437422 0.942594
vt 0.434145 0.793100
vt 0.497860 0.934802
vt 0.496327 0.923151
vt 0.562351 0.915179
vt 0.561317 0.926128
vt 0.492762 0.868605
vt 0.495202 0.802817
vt 0.494083 0.814638
vt 0.493167 0.835622
vt 0.492485 0.854409
vt 0.553693 0.837561
vt 0.556274 0.816115
vt 0.633541 0.830698
vt 0.631561 0.844983
vt 0.561501 0.897461
vt 0.559846 0.881947
vt 0.556691 0.869718
vt 0.560692 0.805094
vt 0.553065 0.856507
vt 0.635658 0.822545
vt 0.712602 0.845203
vt 0.710791 0.849157
vt 0.630111 0.857650
vt 0.630257 0.867469
vt 0.633946 0.904366
vt 0.635821 0.912516
vt 0.631992 0.889979
vt 0.630431 0.877275
vt 0.710859 0.885683
vt 0.709126 0.878568
vt 0.747598 0.867439
vt 0.709034 0.856301
vt 0.707691 0.862533
vt 0.707735 0.867456
vt 0.712603 0.889654
vt 0.707774 0.872368
vn -0.9632 0.2687 0.0000
vn 0.5865 0.7974 -0.1421
vn 0.9632 0.2686 0.0000
vn -0.1789 0.8710 0.4576
vn 0.0000 -1.0000 0.0000
vn -0.3139 0.9492 0.0213
vn 0.8489 0.2474 -0.4671
vn -0.9414 0.3348 -0.0411
vn 0.9901 -0.1401 0.0000
vn 0.0756 -0.9969 -0.0221
vn 0.9195 0.2045 0.3357
vn -0.9286 -0.1564 0.3365
vn 0.0000 -0.9980 -0.0624
vn 0.0000 0.9231 0.3847
vn -0.9742 -0.2234 -0.0317
vn -0.0321 0.6071 -0.7940
vn 0.9848 0.1301 -0.1148
vn -0.4336 0.6381 0.6362
vn 0.9587 0.1168 0.2595
vn -0.9752 0.0000 0.2213
vn -0.9895 -0.1228 -0.0760
vn 0.9957 0.0675 -0.0642
vn -0.0001 0.8768 0.4809
vn 0.9895 -0.1228 -0.0760
vn -0.9957 0.0675 -0.0642
vn -0.9587 0.1167 0.2595
vn 0.9752 0.0000 0.2213
vn -0.8062 0.0000 0.5916
vn 0.9742 -0.2234 -0.0317
vn -0.9848 0.1301 -0.1148
vn -0.9195 0.2045 0.3357
vn 0.9286 -0.1564 0.3365
vn 0.9414 0.3348 -0.0411
vn -0.9901 -0.1401 0.0000
vn 0.8325 -0.0917 -0.5464
vn -0.8325 -0.0917 -0.5464
vn -0.8929 0.1527 -0.4235
vn 0.0550 0.8248 -0.5627
vn 0.8062 0.0000 0.5916
vn 0.0000 0.0000 1.0000
vn 0.0001 0.8768 0.4809
vn -0.1830 0.9427 0.2789
vn 0.1830 0.9427 0.2789
vn 0.4336 0.6381 0.6362
vn 0.0000 0.7994 0.6008
vn 0.0321 0.6071 -0.7940
vn -0.4762 0.7351 -0.4825
vn 0.4762 0.7351 -0.4825
vn 0.1702 0.8901 0.4228
vn -0.1702 0.8901 0.4228
vn -0.0756 -0.9969 -0.0221
vn 0.0000 -0.9993 -0.0371
vn -0.8489 0.2474 -0.4671
vn 0.8989 -0.0686 -0.4327
vn 0.8929 0.1527 -0.4235
vn 0.3139 0.9492 0.0213
vn 0.1342 0.9887 0.0663
vn -0.1341 0.9887 0.0663
vn 0.1789 0.8710 0.4576
vn -0.0170 0.8568 0.5154
vn 0.0170 0.8568 0.5154
vn -0.5865 0.7974 -0.1421
vn -0.1638 0.9755 -0.1465
vn 0.1638 0.9755 -0.1465
vn -0.2187 0.9736 0.0653
vn 0.2187 0.9736 0.0653
vn 0.3874 0.9217 0.0206
vn -0.3874 0.9217 0.0206
vn 0.0000 -0.9768 -0.2140
vn -0.9841 0.1757 -0.0276
vn 0.9894 -0.0790 -0.1218
vn 0.0620 0.9727 -0.2235
vn -0.8989 -0.0686 -0.4327
vn 0.0000 -0.8400 -0.5426
vn -0.0550 0.8248 -0.5627
vn -0.9771 0.1747 -0.1214
vn -0.9894 -0.0790 -0.1218
vn -0.0620 0.9727 -0.2235
vn 0.9771 0.1747 -0.1214
vn -0.9964 -0.0794 -0.0306
vn -0.0635 0.9980 -0.0007
vn 0.9838 0.1778 -0.0224
vn 0.9965 -0.0804 -0.0243
vn 0.0632 0.9980 -0.0007
vn 0.6805 0.1785 -0.7107
vn -0.0546 0.9981 0.0274
vn -0.8820 0.1829 0.4344
vn -0.8945 -0.0828 0.4393
vn 0.0543 0.9981 -0.0279
vn 0.8721 0.1835 -0.4536
vn 0.8837 -0.0831 -0.4606
vn -0.9946 -0.0739 -0.0724
vn 0.6869 -0.0807 -0.7223
vn -0.0220 -0.9992 -0.0345
vn -0.0663 0.9978 0.0094
vn -0.7519 0.1820 0.6337
vn -0.7632 -0.0824 0.6410
vn -0.0193 -0.9994 -0.0303
vn 0.0221 0.9967 -0.0785
vn -0.7769 0.1822 -0.6027
vn 0.0061 -0.9975 -0.0710
vn 0.0770 0.9919 -0.1013
vn 0.9756 0.1592 -0.1512
vn 0.9838 -0.0716 -0.1644
vn 0.0083 -0.9952 -0.0972
vn -0.0620 0.9951 -0.0769
vn -0.9840 0.1637 -0.0696
vn 0.9531 -0.0844 0.2908
vn -0.7868 -0.0825 -0.6117
vn 0.0490 0.9981 0.0368
vn 0.7890 0.1828 0.5865
vn 0.8003 -0.0827 0.5939
vn -0.0487 0.9981 -0.0373
vn 0.0597 0.9980 0.0208
vn 0.0198 -0.9983 -0.0552
vn -0.0354 0.9963 -0.0783
vn -0.9077 0.1865 -0.3759
vn -0.9203 -0.0844 -0.3819
vn 0.0771 0.9963 -0.0379
vn 0.9395 0.1865 0.2874
vn -0.9796 0.1865 0.0747
vn 0.9330 0.1777 0.3130
vn 0.9455 -0.0804 0.3155
vn -0.0595 0.9980 -0.0221
vn -0.9177 0.1758 -0.3563
vn -0.9284 -0.0794 -0.3630
vn -0.0697 0.9949 -0.0733
vn -0.9936 -0.0844 0.0750
vn -0.0075 -0.9982 -0.0598
vn 0.0514 0.9962 -0.0704
vn 0.9675 0.1865 -0.1706
vn 0.9812 -0.0844 -0.1737
vn -0.0672 0.9962 -0.0555
vn 0.9451 0.1849 -0.2693
vn -0.9809 0.1862 0.0556
vn -0.9949 -0.0843 0.0554
vn -0.0099 -0.9970 -0.0764
vn 0.0488 0.9950 -0.0875
vn 0.9662 0.1864 -0.1782
vn 0.9797 -0.0844 -0.1817
vn 0.9578 -0.0837 -0.2750
vn -0.0234 -0.9852 -0.1696
vn -0.0829 0.9819 -0.1703
vn -0.9828 0.1849 -0.0039
vn -0.9965 -0.0837 -0.0060
vn -0.0233 -0.9852 -0.1696
vn 0.0338 0.9819 -0.1863
usemtl None
s off
f 96/1/1 92/2/1 4/3/1 30/4/1
f 48/5/2 8/6/2 12/7/2 60/8/2
f 95/9/3 94/10/3 6/11/3 32/12/3
f 54/13/4 2/14/4 14/15/4 66/16/4
f 102/17/5 93/18/5 5/19/5 51/20/5
f 99/21/6 92/2/6 2/14/6 54/13/6
f 90/22/7 60/8/7 12/7/7 34/23/7
f 30/4/8 4/3/8 9/24/8 33/25/8
f 31/26/9 7/27/9 11/28/9 34/23/9
f 45/29/10 3/30/10 10/31/10 57/32/10
f 63/33/5 16/34/5 20/35/5 69/36/5
f 32/12/11 6/11/11 15/37/11 36/38/11
f 29/39/12 1/40/12 13/41/12 35/42/12
f 51/20/13 5/19/13 16/43/13 63/44/13
f 82/45/14 25/46/14 22/47/14 78/48/14
f 35/49/15 13/50/15 17/51/15 37/52/15
f 66/53/16 14/54/16 18/55/16 72/56/16
f 36/57/17 15/58/17 19/59/17 38/60/17
f 87/61/18 78/48/18 22/47/18 39/62/18
f 42/63/19 26/64/19 23/65/19 40/66/19
f 79/67/5 27/68/5 24/69/5 75/70/5
f 41/71/20 28/72/20 21/73/20 39/62/20
f 37/52/21 17/51/21 28/72/21 41/71/21
f 69/36/5 20/35/5 27/68/5 79/67/5
f 38/60/22 19/59/22 26/64/22 42/63/22
f 72/56/23 18/55/23 25/46/23 82/45/23
f 20/35/24 38/60/24 42/63/24 27/68/24
f 18/55/25 37/52/25 41/71/25 25/46/25
f 25/46/26 41/71/26 39/62/26 22/47/26
f 27/68/27 42/63/27 40/66/27 24/69/27
f 73/74/28 87/61/28 39/62/28 21/73/28
f 16/34/29 36/57/29 38/60/29 20/35/29
f 14/54/30 35/49/30 37/52/30 18/55/30
f 2/14/31 29/39/31 35/42/31 14/15/31
f 5/19/32 32/12/32 36/38/32 16/43/32
f 8/6/33 31/26/33 34/23/33 12/7/33
f 3/30/34 30/4/34 33/25/34 10/31/34
f 55/75/35 90/22/35 34/23/35 11/28/35
f 93/18/9 95/9/9 32/12/9 5/19/9
f 91/76/34 96/1/34 30/4/34 3/30/34
f 10/31/36 33/25/36 88/77/36 57/32/36
f 88/77/37 58/78/37 106/79/37 109/80/37
f 59/81/38 60/8/38 108/82/38 107/83/38
f 24/69/39 40/66/39 85/84/39 75/70/39
f 75/70/40 85/84/40 86/85/40 74/86/40
f 74/86/40 86/87/40 87/61/40 73/74/40
f 19/59/41 70/88/41 84/89/41 26/64/41
f 70/88/42 71/90/42 83/91/42 84/89/42
f 71/92/43 72/56/43 82/45/43 83/93/43
f 17/51/5 67/94/5 81/95/5 28/72/5
f 67/94/5 68/96/5 80/97/5 81/95/5
f 68/96/5 69/36/5 79/67/5 80/97/5
f 28/72/5 81/95/5 73/74/5 21/73/5
f 81/95/5 80/97/5 74/86/5 73/74/5
f 80/97/5 79/67/5 75/70/5 74/86/5
f 40/66/44 23/65/44 76/98/44 85/84/44
f 85/84/45 76/98/45 77/99/45 86/85/45
f 86/87/45 77/100/45 78/48/45 87/61/45
f 15/58/46 64/101/46 70/88/46 19/59/46
f 64/101/47 65/102/47 71/90/47 70/88/47
f 65/103/48 66/53/48 72/56/48 71/92/48
f 26/64/14 84/89/14 76/98/14 23/65/14
f 84/89/49 83/91/49 77/99/49 76/98/49
f 83/93/50 82/45/50 78/48/50 77/100/50
f 1/40/13 49/104/13 61/105/13 13/41/13
f 49/104/13 50/106/13 62/107/13 61/105/13
f 50/106/13 51/20/13 63/44/13 62/107/13
f 13/50/5 61/108/5 67/94/5 17/51/5
f 61/108/5 62/109/5 68/96/5 67/94/5
f 62/109/5 63/33/5 69/36/5 68/96/5
f 7/27/51 43/110/51 55/75/51 11/28/51
f 43/110/52 44/111/52 56/112/52 55/75/52
f 44/111/52 45/29/52 57/32/52 56/112/52
f 33/25/53 9/24/53 58/78/53 88/77/53
f 90/22/54 55/75/54 103/113/54 111/114/54
f 60/8/55 90/22/55 111/114/55 108/82/55
f 94/10/56 97/115/56 52/116/56 6/11/56
f 97/115/57 98/117/57 53/118/57 52/116/57
f 98/119/58 99/21/58 54/13/58 53/120/58
f 91/76/5 100/121/5 49/104/5 1/40/5
f 100/121/5 101/122/5 50/106/5 49/104/5
f 101/122/5 102/17/5 51/20/5 50/106/5
f 6/11/59 52/116/59 64/123/59 15/37/59
f 52/116/60 53/118/60 65/124/60 64/123/60
f 53/120/61 54/13/61 66/16/61 65/125/61
f 4/3/62 46/126/62 58/78/62 9/24/62
f 46/126/63 47/127/63 59/128/63 58/78/63
f 47/129/64 48/5/64 60/8/64 59/81/64
f 44/111/5 43/110/5 102/17/5 101/122/5
f 45/29/5 44/111/5 101/122/5 100/121/5
f 3/30/5 45/29/5 100/121/5 91/76/5
f 47/127/65 46/126/65 99/21/65 98/119/65
f 48/5/66 47/129/66 98/117/66 97/115/66
f 8/6/67 48/5/67 97/115/67 94/10/67
f 1/40/34 29/39/34 96/1/34 91/76/34
f 7/27/9 31/26/9 95/9/9 93/18/9
f 46/126/68 4/3/68 92/2/68 99/21/68
f 43/110/5 7/27/5 93/18/5 102/17/5
f 31/26/3 8/6/3 94/10/3 95/9/3
f 29/39/1 2/14/1 92/2/1 96/1/1
f 104/130/69 105/131/69 112/132/69 89/133/69
f 116/134/70 113/135/70 120/136/70 124/137/70
f 111/138/71 103/139/71 110/140/71 117/141/71
f 107/142/72 108/143/72 115/144/72 114/145/72
f 57/32/73 88/77/73 109/80/73 105/146/73
f 55/75/74 56/112/74 104/147/74 103/113/74
f 58/78/75 59/128/75 107/148/75 106/79/75
f 56/112/74 57/32/74 105/146/74 104/147/74
f 109/149/76 106/150/76 113/135/76 116/134/76
f 105/131/77 109/149/77 116/134/77 112/132/77
f 106/150/78 107/151/78 114/152/78 113/135/78
f 108/143/79 111/138/79 117/141/79 115/144/79
f 103/139/69 104/130/69 89/133/69 110/140/69
f 123/153/5 121/154/5 129/155/5 131/156/5
f 89/133/5 112/132/5 122/157/5 121/154/5
f 112/132/80 116/134/80 124/137/80 122/157/80
f 113/135/81 114/152/81 118/158/81 120/136/81
f 110/140/5 89/133/5 121/154/5 123/153/5
f 115/144/82 117/141/82 125/159/82 119/160/82
f 117/141/83 110/140/83 123/153/83 125/159/83
f 114/145/84 115/144/84 119/160/84 118/161/84
f 127/162/85 133/163/85 141/164/85 135/165/85
f 120/136/86 118/158/86 126/166/86 128/167/86
f 124/137/87 120/136/87 128/167/87 132/168/87
f 122/157/88 124/137/88 132/168/88 130/169/88
f 121/154/5 122/157/5 130/169/5 129/155/5
f 118/161/89 119/160/89 127/162/89 126/170/89
f 119/160/90 125/159/90 133/163/90 127/162/90
f 125/159/91 123/153/91 131/156/91 133/163/91
f 138/171/92 140/172/92 148/173/92 146/174/92
f 133/163/93 131/156/93 139/175/93 141/164/93
f 131/156/94 129/155/94 137/176/94 139/175/94
f 128/167/95 126/166/95 134/177/95 136/178/95
f 132/168/96 128/167/96 136/178/96 140/172/96
f 130/169/97 132/168/97 140/172/97 138/171/97
f 129/155/98 130/169/98 138/171/98 137/176/98
f 126/170/99 127/162/99 135/165/99 134/179/99
f 148/173/100 144/180/100 152/181/100 156/182/100
f 137/176/101 138/171/101 146/174/101 145/183/101
f 134/179/102 135/165/102 143/184/102 142/185/102
f 135/165/103 141/164/103 149/186/103 143/184/103
f 141/164/104 139/175/104 147/187/104 149/186/104
f 139/175/105 137/176/105 145/183/105 147/187/105
f 136/178/106 134/177/106 142/188/106 144/180/106
f 140/172/107 136/178/107 144/180/107 148/173/107
f 157/189/108 155/190/108 163/191/108 165/192/108
f 146/174/109 148/173/109 156/182/109 154/193/109
f 145/183/5 146/174/5 154/193/5 153/194/5
f 142/185/110 143/184/110 151/195/110 150/196/110
f 143/184/111 149/186/111 157/189/111 151/195/111
f 149/186/112 147/187/112 155/190/112 157/189/112
f 147/187/5 145/183/5 153/194/5 155/190/5
f 144/180/113 142/188/113 150/197/113 152/181/113
f 158/198/114 159/199/114 167/200/114 166/201/114
f 155/190/115 153/194/115 161/202/115 163/191/115
f 152/181/116 150/197/116 158/203/116 160/204/116
f 156/182/117 152/181/117 160/204/117 164/205/117
f 154/193/118 156/182/118 164/205/118 162/206/118
f 153/194/115 154/193/115 162/206/115 161/202/115
f 150/196/119 151/195/119 159/199/119 158/198/119
f 151/195/120 157/189/120 165/192/120 159/199/120
f 172/207/121 168/208/121 176/209/121 180/210/121
f 159/199/122 165/192/122 173/211/122 167/200/122
f 165/192/123 163/191/123 171/212/123 173/211/123
f 163/191/5 161/202/5 169/213/5 171/212/5
f 160/204/124 158/203/124 166/214/124 168/208/124
f 164/205/125 160/204/125 168/208/125 172/207/125
f 162/206/126 164/205/126 172/207/126 170/215/126
f 161/202/5 162/206/5 170/215/5 169/213/5
f 176/209/127 174/216/127 182/217/127 184/218/127
f 170/215/128 172/207/128 180/210/128 178/219/128
f 169/213/129 170/215/129 178/219/129 177/220/129
f 166/201/130 167/200/130 175/221/130 174/222/130
f 167/200/131 173/211/131 181/223/131 175/221/131
f 173/211/132 171/212/132 179/224/132 181/223/132
f 171/212/129 169/213/129 177/220/129 179/224/129
f 168/208/133 166/214/133 174/216/133 176/209/133
f 183/225/134 189/226/134 190/227/134
f 180/210/135 176/209/135 184/218/135 188/228/135
f 178/219/136 180/210/136 188/228/136 186/229/136
f 177/220/137 178/219/137 186/229/137 185/230/137
f 174/222/138 175/221/138 183/225/138 182/231/138
f 175/221/139 181/223/139 189/226/139 183/225/139
f 181/223/140 179/224/140 187/232/140 189/226/140
f 179/224/137 177/220/137 185/230/137 187/232/137
f 189/226/141 187/232/141 190/227/141
f 187/232/142 185/230/142 190/227/142
f 184/218/143 182/217/143 190/227/143
f 188/228/144 184/218/144 190/227/144
f 186/229/145 188/228/145 190/227/145
f 185/230/146 186/229/146 190/227/146
f 182/231/147 183/225/147 190/227/147
