# Blender v2.79 (sub 0) OBJ File: 'scalingscene_2.blend'
# www.blender.org
mtllib sink.mtl
o sink_Cylinder.011
v 1.111617 0.976878 -2.455843
v 1.150003 1.137595 -2.494229
v 1.164788 0.976878 -2.327476
v 1.219075 1.137595 -2.327476
v 1.111617 0.976878 -2.199110
v 1.150003 1.137595 -2.160723
v 0.983250 0.976878 -2.145938
v 0.983250 1.137595 -2.091652
v 0.854883 0.976878 -2.199110
v 0.816497 1.137595 -2.160723
v 0.801712 0.976878 -2.327476
v 0.747426 1.137595 -2.327476
v 0.854883 0.976878 -2.455843
v 0.816497 1.137595 -2.494229
v 1.172083 1.108998 -2.516309
v 1.250300 1.108998 -2.327476
v 1.172083 1.108998 -2.138643
v 0.983250 1.108998 -2.060426
v 0.794417 1.108998 -2.138643
v 0.716200 1.108998 -2.327476
v 0.794417 1.108998 -2.516309
v 1.172083 1.137595 -2.516309
v 1.250300 1.137595 -2.327476
v 1.172083 1.137595 -2.138643
v 0.983250 1.137595 -2.060426
v 0.794417 1.137595 -2.138643
v 0.716200 1.137595 -2.327476
v 0.794417 1.137595 -2.516309
v 1.135958 1.023239 -2.480184
v 1.199212 1.023239 -2.327476
v 1.135958 1.023239 -2.174768
v 0.983250 1.023239 -2.111515
v 0.830542 1.023239 -2.174768
v 0.767288 1.023239 -2.327476
v 0.830542 1.023239 -2.480184
v 1.162513 1.045742 -2.506739
v 1.236766 1.045742 -2.327476
v 1.162513 1.045742 -2.148214
v 0.983250 1.045742 -2.073961
v 0.803988 1.045742 -2.148214
v 0.729735 1.045742 -2.327476
v 0.803988 1.045742 -2.506739
v 1.135988 0.988695 -2.480215
v 1.199255 0.988695 -2.327476
v 1.135988 0.988695 -2.174738
v 0.983250 0.988695 -2.111472
v 0.830512 0.988695 -2.174738
v 0.767246 0.988695 -2.327476
v 0.830512 0.988695 -2.480215
v 0.861185 0.976878 -2.458453
v 1.105315 0.976878 -2.458453
v 0.874793 1.137595 -2.491084
v 1.091707 1.137595 -2.491084
v 1.105315 1.108998 -2.543965
v 0.861185 1.108998 -2.543965
v 0.874793 1.137595 -2.530357
v 1.091707 1.137595 -2.530357
v 1.105315 1.023239 -2.492877
v 0.861185 1.023239 -2.492877
v 1.105315 1.045742 -2.530431
v 0.861185 1.045742 -2.530431
v 1.105315 0.988695 -2.492920
v 0.861185 0.988695 -2.492920
v 1.023939 1.108998 -2.543965
v 0.942562 1.108998 -2.543965
v 0.928953 1.137595 -2.530357
v 1.037547 1.137595 -2.530357
v 1.023939 1.045742 -2.530431
v 0.942562 1.045742 -2.530431
v 0.928953 1.137595 -2.491084
v 1.037547 1.137595 -2.491084
v 0.942562 1.023239 -2.492877
v 1.023939 1.023239 -2.492877
v 1.023939 0.988695 -2.492920
v 0.942562 0.988695 -2.492920
v 1.023939 0.976878 -2.458453
v 0.942562 0.976878 -2.458453
v 0.958016 1.176908 -2.531338
v 1.008484 1.176908 -2.531338
v 0.958016 1.176908 -2.490103
v 1.008484 1.176908 -2.490103
v 0.958016 1.265546 -2.531338
v 1.008484 1.265546 -2.531338
v 0.958016 1.265546 -2.490103
v 1.008484 1.265546 -2.490103
v 0.958016 1.312471 -2.531338
v 1.008484 1.312471 -2.531338
v 0.958016 1.312471 -2.490103
v 1.008484 1.312471 -2.490103
v 0.967205 1.271559 -2.375794
v 0.999296 1.271559 -2.375794
v 0.965845 1.305192 -2.374600
v 1.000656 1.305192 -2.374600
v 0.965174 1.269671 -2.405746
v 0.963643 1.307240 -2.407090
v 1.001326 1.269671 -2.405746
v 1.002858 1.307240 -2.407090
v 0.969266 1.257446 -2.376837
v 0.997234 1.257446 -2.376837
v 0.967497 1.255801 -2.402940
v 0.999003 1.255801 -2.402940
v 1.023939 1.137595 -2.543965
v 1.105315 1.137595 -2.543965
v 0.861185 1.137595 -2.543965
v 0.861185 1.137595 -2.477476
v 1.023939 1.137595 -2.477476
v 1.105315 1.137595 -2.477476
v 0.942562 1.137595 -2.543965
v 0.942562 1.137595 -2.477476
v 1.054000 1.167223 -2.513904
v 1.075254 1.167223 -2.513904
v 0.891246 1.167223 -2.513904
v 0.891246 1.167223 -2.507537
v 1.054000 1.167223 -2.507537
v 1.075254 1.167223 -2.507537
v 0.912500 1.167223 -2.513904
v 0.912500 1.167223 -2.507537
v 1.037547 1.167223 -2.530357
v 1.091707 1.167223 -2.530357
v 0.874793 1.167223 -2.530357
v 0.874793 1.167223 -2.491084
v 1.037547 1.167223 -2.491084
v 1.091707 1.167223 -2.491084
v 0.928953 1.167223 -2.530357
v 0.928953 1.167223 -2.491084
v 1.054000 1.182630 -2.513904
v 1.075254 1.182630 -2.513904
v 0.891246 1.182630 -2.513904
v 0.891246 1.182630 -2.507537
v 1.054000 1.182630 -2.507537
v 1.075254 1.182630 -2.507537
v 0.912500 1.182630 -2.513904
v 0.912500 1.182630 -2.507537
v 1.054000 1.212258 -2.554743
v 1.075254 1.212258 -2.554743
v 0.891246 1.212258 -2.554743
v 0.891246 1.212258 -2.466699
v 1.054000 1.212258 -2.466699
v 1.075254 1.212258 -2.466699
v 0.912500 1.212258 -2.554743
v 0.912500 1.212258 -2.466699
vn 0.9122 0.1584 0.3778
vn -0.1331 -0.9375 -0.3214
vn 0.3827 0.0000 -0.9239
vn -0.9239 0.0000 -0.3827
vn -0.9239 0.0000 0.3827
vn -0.3827 0.0000 0.9239
vn 0.3827 0.0000 0.9239
vn 0.9239 0.0000 0.3827
vn 0.9239 0.0000 -0.3827
vn -0.3754 -0.1939 -0.9063
vn -0.3827 0.0000 -0.9239
vn 0.9063 -0.1939 -0.3754
vn 0.9063 -0.1939 0.3754
vn 0.3754 -0.1939 0.9063
vn -0.3754 -0.1939 0.9063
vn -0.9063 -0.1939 0.3754
vn -0.9063 -0.1939 -0.3754
vn 0.0000 1.0000 -0.0000
vn -0.0538 -0.0092 0.9985
vn 0.3754 -0.1939 -0.9063
vn 0.3271 -0.5192 -0.7896
vn 0.3778 0.1584 -0.9122
vn -0.9122 0.1584 -0.3778
vn 0.9122 0.1584 -0.3778
vn -0.3778 0.1584 -0.9122
vn -0.9122 0.1584 0.3778
vn -0.7896 -0.5192 -0.3271
vn -0.7896 -0.5192 0.3271
vn -0.3271 -0.5192 0.7896
vn 0.3271 -0.5192 0.7896
vn 0.7896 -0.5192 0.3271
vn 0.7896 -0.5192 -0.3271
vn -0.3271 -0.5192 -0.7896
vn 0.0000 -1.0000 0.0000
vn 0.3214 -0.9375 -0.1331
vn 0.3214 -0.9375 0.1331
vn 0.1331 -0.9375 0.3214
vn -0.1331 -0.9375 0.3214
vn -0.3214 -0.9375 0.1331
vn -0.3214 -0.9375 -0.1331
vn 0.0538 -0.0092 0.9985
vn 0.0000 0.0000 -1.0000
vn 0.0000 -0.2092 -0.9779
vn 0.0000 0.0000 1.0000
vn 0.0000 -0.1335 0.9911
vn 0.0000 -0.5494 -0.8356
vn 0.0000 -0.9459 -0.3243
vn 0.1331 -0.9375 -0.3214
vn -1.0000 0.0000 0.0000
vn -0.9307 0.3659 0.0000
vn 0.0000 0.3058 0.9521
vn 0.0000 0.3058 -0.9521
vn 0.9307 0.3659 0.0000
vn 1.0000 0.0000 0.0000
vn -0.9969 -0.0403 0.0675
vn 0.0000 -0.0355 0.9994
vn 0.0000 -0.0737 0.9973
vn 0.9969 -0.0403 0.0675
vn 0.0000 0.9980 0.0629
vn 0.9970 -0.0169 0.0760
vn 0.0000 -0.9988 0.0488
vn -0.9970 -0.0169 0.0760
vn 0.0000 -0.9980 0.0629
vn 0.0000 -0.1983 -0.9801
vn 0.9858 -0.1496 0.0762
vn -0.9858 -0.1497 0.0762
vn 0.0000 -0.8094 0.5872
vn 0.0000 -0.8094 -0.5872
usemtl None
s off
f 14//1 12//1 34//1 35//1
f 50//2 13//2 49//2 63//2
f 54//3 103//3 22//3 15//3
f 20//4 27//4 28//4 21//4
f 19//5 26//5 27//5 20//5
f 18//6 25//6 26//6 19//6
f 17//7 24//7 25//7 18//7
f 16//8 23//8 24//8 17//8
f 15//9 22//9 23//9 16//9
f 61//10 42//10 21//10 55//10
f 21//11 28//11 104//11 55//11
f 37//12 36//12 15//12 16//12
f 38//13 37//13 16//13 17//13
f 39//14 38//14 17//14 18//14
f 40//15 39//15 18//15 19//15
f 41//16 40//16 19//16 20//16
f 42//17 41//17 20//17 21//17
f 29//18 58//18 73//18 72//18 59//18 35//18 34//18 33//18 32//18 31//18 30//18
f 105//19 14//19 35//19 59//19
f 2//18 4//18 23//18 22//18
f 4//18 6//18 24//18 23//18
f 6//18 8//18 25//18 24//18
f 8//18 10//18 26//18 25//18
f 10//18 12//18 27//18 26//18
f 12//18 14//18 28//18 27//18
f 36//20 60//20 54//20 15//20
f 43//21 62//21 60//21 36//21
f 10//22 8//22 32//22 33//22
f 6//23 4//23 30//23 31//23
f 107//18 2//18 22//18 103//18
f 14//18 105//18 104//18 28//18
f 12//24 10//24 33//24 34//24
f 8//25 6//25 31//25 32//25
f 4//26 2//26 29//26 30//26
f 49//27 48//27 41//27 42//27
f 48//28 47//28 40//28 41//28
f 47//29 46//29 39//29 40//29
f 46//30 45//30 38//30 39//30
f 45//31 44//31 37//31 38//31
f 44//32 43//32 36//32 37//32
f 63//33 49//33 42//33 61//33
f 50//34 77//34 76//34 51//34 1//34 3//34 5//34 7//34 9//34 11//34 13//34
f 3//35 1//35 43//35 44//35
f 5//36 3//36 44//36 45//36
f 7//37 5//37 45//37 46//37
f 9//38 7//38 46//38 47//38
f 11//39 9//39 47//39 48//39
f 13//40 11//40 48//40 49//40
f 2//41 107//41 58//41 29//41
f 64//42 102//42 103//42 54//42
f 68//43 64//43 54//43 60//43
f 52//44 70//44 125//44 121//44
f 106//45 73//45 58//45 107//45
f 74//46 68//46 60//46 62//46
f 76//47 74//47 62//47 51//47
f 1//48 51//48 62//48 43//48
f 50//47 63//47 75//47 77//47
f 77//47 75//47 74//47 76//47
f 63//46 61//46 69//46 75//46
f 75//46 69//46 68//46 74//46
f 105//45 59//45 72//45 109//45
f 109//45 72//45 73//45 106//45
f 67//49 71//49 122//49 118//49
f 108//50 109//50 80//50 78//50
f 61//43 55//43 65//43 69//43
f 69//43 65//43 64//43 68//43
f 55//42 104//42 108//42 65//42
f 65//42 108//42 102//42 64//42
f 78//49 80//49 84//49 82//49
f 109//51 106//51 81//51 80//51
f 102//52 108//52 78//52 79//52
f 106//53 102//53 79//53 81//53
f 85//54 83//54 87//54 89//54
f 79//42 78//42 82//42 83//42
f 81//54 79//54 83//54 85//54
f 80//44 81//44 85//44 84//44
f 86//18 88//18 89//18 87//18
f 95//55 94//55 90//55 92//55
f 82//49 84//49 88//49 86//49
f 83//42 82//42 86//42 87//42
f 90//56 91//56 93//56 92//56
f 91//57 90//57 98//57 99//57
f 96//58 97//58 93//58 91//58
f 97//59 95//59 92//59 93//59
f 89//59 88//59 95//59 97//59
f 85//60 89//60 97//60 96//60
f 84//61 85//61 96//61 94//61
f 88//62 84//62 94//62 95//62
f 100//63 101//63 99//63 98//63
f 94//64 96//64 101//64 100//64
f 96//65 91//65 99//65 101//65
f 90//66 94//66 100//66 98//66
f 67//18 57//18 103//18 102//18
f 52//18 56//18 104//18 105//18
f 53//18 71//18 106//18 107//18
f 57//18 53//18 107//18 103//18
f 56//18 66//18 108//18 104//18
f 70//18 52//18 105//18 109//18
f 66//18 70//18 109//18 108//18
f 71//18 67//18 102//18 106//18
f 116//42 112//42 128//42 132//42
f 117//54 116//54 132//54 133//54
f 53//54 57//54 119//54 123//54
f 56//49 52//49 121//49 120//49
f 70//54 66//54 124//54 125//54
f 66//42 56//42 120//42 124//42
f 71//44 53//44 123//44 122//44
f 57//42 67//42 118//42 119//42
f 110//18 111//18 119//18 118//18
f 113//18 112//18 120//18 121//18
f 115//18 114//18 122//18 123//18
f 111//18 115//18 123//18 119//18
f 112//18 116//18 124//18 120//18
f 117//18 113//18 121//18 125//18
f 116//18 117//18 125//18 124//18
f 114//18 110//18 118//18 122//18
f 131//54 127//54 135//54 139//54
f 129//67 133//67 141//67 137//67
f 114//44 115//44 131//44 130//44
f 111//42 110//42 126//42 127//42
f 110//49 114//49 130//49 126//49
f 113//44 117//44 133//44 129//44
f 115//54 111//54 127//54 131//54
f 112//49 113//49 129//49 128//49
f 134//18 138//18 139//18 135//18
f 136//18 137//18 141//18 140//18
f 128//49 129//49 137//49 136//49
f 133//54 132//54 140//54 141//54
f 132//68 128//68 136//68 140//68
f 130//67 131//67 139//67 138//67
f 127//68 126//68 134//68 135//68
f 126//49 130//49 138//49 134//49
