# Blender v2.79 (sub 0) OBJ File: 'scalingscene_2.blend'
# www.blender.org
mtllib statuette.mtl
o sculpture_Cube.054
v -5.207441 1.386250 5.279846
v -5.256439 1.503282 5.300210
v -5.207441 1.386250 5.235552
v -5.256439 1.503282 5.252395
v -5.163149 1.386250 5.279846
v -5.160641 1.482048 5.328843
v -5.163149 1.386250 5.235552
v -5.076756 1.528538 5.223950
v -5.256439 1.455466 5.252395
v -5.256439 1.455466 5.300210
v -5.114151 1.402776 5.170029
v -5.160641 1.432739 5.328843
v -5.207441 1.320246 5.235552
v -5.207441 1.320246 5.279846
v -5.163149 1.320246 5.235552
v -5.163149 1.320246 5.279846
v -5.207441 1.301682 5.235552
v -5.207441 1.301682 5.279846
v -5.163149 1.301682 5.235552
v -5.163149 1.301682 5.279846
v -5.258594 1.300369 5.184400
v -5.258594 1.300369 5.330998
v -5.111996 1.300369 5.184400
v -5.111996 1.300369 5.330998
v -5.258594 1.292009 5.184400
v -5.258594 1.292009 5.330998
v -5.111996 1.292009 5.184400
v -5.111996 1.292009 5.330998
v -5.256439 1.386250 5.227359
v -5.209949 1.432739 5.328843
v -5.209949 1.482048 5.328843
v -5.256439 1.528538 5.186555
v -5.295861 1.455466 5.252395
v -5.295861 1.455466 5.300210
v -5.295861 1.503282 5.300210
v -5.295861 1.503282 5.252395
v -5.334350 1.455466 5.252395
v -5.334350 1.455466 5.300210
v -5.334350 1.503282 5.300210
v -5.334350 1.503282 5.252395
v -5.295861 1.566075 5.300210
v -5.295861 1.566075 5.252395
v -5.334350 1.566075 5.300210
v -5.334350 1.566075 5.252395
v -5.295861 1.503282 5.122147
v -5.295861 1.455466 5.122147
v -5.334350 1.503282 5.122147
v -5.334350 1.455466 5.122147
v -5.295861 1.606986 5.300210
v -5.295861 1.606986 5.252395
v -5.334350 1.606986 5.300210
v -5.334350 1.606986 5.252395
v -5.251392 1.566075 5.300210
v -5.251392 1.566075 5.252395
v -5.251392 1.606986 5.300210
v -5.251392 1.606986 5.252395
v -5.295861 1.503282 5.086069
v -5.295861 1.455466 5.086069
v -5.334350 1.503282 5.086069
v -5.334350 1.455466 5.086069
v -5.234529 1.503282 5.122147
v -5.234529 1.455466 5.122147
v -5.234529 1.503282 5.086069
v -5.234529 1.455466 5.086069
v -5.185295 1.386250 5.227359
v -5.185295 1.528538 5.186555
v -5.185295 1.432739 5.328843
v -5.185295 1.482048 5.328843
v -5.185295 1.386250 5.235552
v -5.185295 1.386250 5.279846
v -5.185295 1.320246 5.235552
v -5.185295 1.320246 5.279846
v -5.185295 1.301682 5.235552
v -5.185295 1.301682 5.279846
v -5.185295 1.300369 5.184400
v -5.185295 1.300369 5.330998
v -5.185295 1.292009 5.184400
v -5.185295 1.292009 5.330998
v -5.185295 1.528538 5.125551
v -5.114151 1.528538 5.125551
v -5.114151 1.402776 5.142077
v -5.185295 1.386250 5.125551
v -5.209949 1.457394 5.328843
v -5.256439 1.457394 5.227359
v -5.114151 1.440868 5.170029
v -5.160641 1.457394 5.328843
v -5.256439 1.479374 5.300210
v -5.256439 1.479374 5.252395
v -5.295861 1.479374 5.300210
v -5.295861 1.479374 5.252395
v -5.334350 1.479374 5.300210
v -5.334350 1.479374 5.252395
v -5.295861 1.479374 5.122147
v -5.334350 1.479374 5.122147
v -5.295861 1.479374 5.086069
v -5.334350 1.479374 5.086069
v -5.234529 1.479374 5.122147
v -5.234529 1.479374 5.086069
v -5.185295 1.457394 5.328843
v -5.185295 1.457394 5.227359
v -5.114151 1.440868 5.142077
v -5.185295 1.457394 5.125551
v -5.114151 1.457394 5.186555
v -5.114151 1.386250 5.186555
v -5.114151 1.457394 5.125551
v -5.114151 1.386250 5.125551
v -5.021739 1.440868 5.170029
v -5.021739 1.402776 5.170029
v -5.021739 1.440868 5.142077
v -5.021739 1.402776 5.142077
v -5.256439 1.457394 5.328843
v -5.256439 1.528538 5.328843
v -5.114151 1.457394 5.328843
v -5.114151 1.386250 5.328843
v -5.185295 1.386250 5.328843
v -5.185295 1.528538 5.328843
v -5.256439 1.386250 5.328843
v -5.076756 1.528538 5.291448
v -5.185295 1.457394 5.446940
v -5.185295 1.432739 5.446940
v -5.160641 1.457394 5.446940
v -5.160641 1.432739 5.446940
v -5.185295 1.482048 5.341938
v -5.185295 1.457394 5.341938
v -5.209949 1.457394 5.341938
v -5.209949 1.482048 5.341938
v -5.185295 1.482048 5.364308
v -5.185295 1.457394 5.364308
v -5.209949 1.457394 5.364308
v -5.209949 1.482048 5.364308
v -5.264174 1.457394 5.341938
v -5.264174 1.482048 5.341938
v -5.264174 1.457394 5.364308
v -5.264174 1.482048 5.364308
v -5.290745 1.457394 5.341938
v -5.290745 1.482048 5.341938
v -5.290745 1.457394 5.364308
v -5.290745 1.482048 5.364308
v -5.264174 1.531861 5.364308
v -5.264174 1.531861 5.341938
v -5.290745 1.531861 5.364308
v -5.290745 1.531861 5.341938
v -4.992890 1.506810 5.208283
v -4.992890 1.506810 5.307115
v -4.992890 1.479122 5.208283
v -4.992890 1.479122 5.307115
v -5.030285 1.528538 5.223950
v -5.030285 1.528538 5.291448
v -4.992890 1.457394 5.186555
v -4.992890 1.457394 5.328843
v -4.956961 1.506810 5.208283
v -4.956961 1.506810 5.307115
v -4.956961 1.479122 5.208283
v -4.956961 1.479122 5.307115
v -4.933866 1.506810 5.208283
v -4.933866 1.506810 5.307115
v -4.933866 1.479122 5.208283
v -4.933866 1.479122 5.307115
v -4.956961 1.633700 5.208283
v -4.956961 1.633700 5.307115
v -4.933866 1.633700 5.208283
v -4.933866 1.633700 5.307115
v -5.114151 1.528538 5.186555
v -5.114151 1.528538 5.328843
v -4.992890 1.528538 5.186555
v -4.992890 1.528538 5.328843
v -5.076756 1.618779 5.223950
v -5.076756 1.618779 5.291448
v -5.030285 1.618779 5.223950
v -5.030285 1.618779 5.291448
v -5.076756 1.573658 5.223950
v -5.030285 1.573658 5.223950
v -5.030285 1.573658 5.291448
v -5.076756 1.573658 5.291448
v -5.160121 1.618779 5.223950
v -5.160121 1.618779 5.291448
v -5.160121 1.573658 5.223950
v -5.160121 1.573658 5.291448
vn 0.0000 0.0000 -1.0000
vn 0.0000 1.0000 0.0000
vn 0.0000 -1.0000 0.0000
vn 1.0000 0.0000 0.0000
vn 0.0000 0.0000 1.0000
vn -1.0000 0.0000 0.0000
vn -0.0257 0.9997 0.0000
vn 0.0000 0.9997 0.0257
vn 0.0000 0.9997 -0.0257
vn 0.0257 0.9997 0.0000
vn 0.0000 -0.4975 -0.8675
usemtl None
s off
f 88//1 9//1 33//1 90//1
f 66//2 163//2 80//2 79//2
f 113//3 103//3 149//3 150//3
f 99//4 68//4 123//4 124//4
f 70//5 1//5 14//5 72//5
f 66//2 32//2 112//2 116//2
f 3//3 1//3 117//3 29//3
f 69//3 3//3 29//3 65//3
f 5//3 7//3 104//3 114//3
f 70//3 5//3 114//3 115//3
f 15//4 16//4 20//4 19//4
f 69//1 7//1 15//1 71//1
f 7//4 5//4 16//4 15//4
f 1//6 3//6 13//6 14//6
f 18//7 17//7 21//7 22//7
f 14//6 13//6 17//6 18//6
f 72//5 14//5 18//5 74//5
f 71//1 15//1 19//1 73//1
f 76//5 22//5 26//5 78//5
f 74//8 18//8 22//8 76//8
f 73//9 19//9 23//9 75//9
f 19//10 20//10 24//10 23//10
f 77//3 27//3 28//3 78//3
f 75//1 23//1 27//1 77//1
f 23//4 24//4 28//4 27//4
f 22//6 21//6 25//6 26//6
f 10//6 9//6 29//6 117//6
f 87//6 10//6 117//6 111//6
f 4//6 2//6 112//6 32//6
f 88//6 4//6 32//6 84//6
f 89//5 35//5 39//5 91//5
f 87//5 2//5 35//5 89//5
f 2//2 4//2 36//2 35//2
f 9//3 10//3 34//3 33//3
f 91//6 39//6 40//6 92//6
f 39//5 35//5 41//5 43//5
f 33//3 34//3 38//3 37//3
f 33//3 37//3 48//3 46//3
f 42//1 44//1 52//1 50//1
f 40//6 39//6 43//6 44//6
f 35//4 36//4 42//4 41//4
f 36//1 40//1 44//1 42//1
f 47//2 45//2 57//2 59//2
f 92//6 40//6 47//6 94//6
f 90//4 33//4 46//4 93//4
f 40//2 36//2 45//2 47//2
f 49//2 50//2 52//2 51//2
f 44//6 43//6 51//6 52//6
f 43//5 41//5 49//5 51//5
f 49//5 41//5 53//5 55//5
f 53//4 54//4 56//4 55//4
f 42//1 50//1 56//1 54//1
f 41//3 42//3 54//3 53//3
f 50//2 49//2 55//2 56//2
f 95//1 58//1 60//1 96//1
f 57//2 45//2 61//2 63//2
f 46//3 48//3 60//3 58//3
f 94//6 47//6 59//6 96//6
f 97//4 62//4 64//4 98//4
f 95//1 57//1 63//1 98//1
f 93//5 46//5 62//5 97//5
f 46//3 58//3 64//3 62//3
f 21//1 75//1 77//1 25//1
f 25//3 77//3 78//3 26//3
f 17//9 73//9 75//9 21//9
f 20//8 74//8 76//8 24//8
f 24//5 76//5 78//5 28//5
f 13//1 71//1 73//1 17//1
f 16//5 72//5 74//5 20//5
f 3//1 69//1 71//1 13//1
f 1//3 70//3 115//3 117//3
f 7//3 69//3 65//3 104//3
f 163//2 66//2 116//2 164//2
f 5//5 70//5 72//5 16//5
f 86//5 6//5 68//5 99//5
f 84//11 32//11 66//11 100//11
f 102//1 79//1 80//1 105//1
f 104//3 65//3 82//3 106//3
f 100//6 66//6 79//6 102//6
f 85//5 11//5 108//5 107//5
f 163//4 103//4 105//4 80//4
f 65//6 100//6 102//6 82//6
f 82//1 102//1 105//1 106//1
f 29//1 84//1 100//1 65//1
f 67//3 12//3 122//3 120//3
f 45//5 93//5 97//5 61//5
f 58//1 95//1 98//1 64//1
f 61//4 97//4 98//4 63//4
f 48//6 94//6 96//6 60//6
f 57//1 95//1 96//1 59//1
f 36//4 90//4 93//4 45//4
f 37//6 92//6 94//6 48//6
f 38//6 91//6 92//6 37//6
f 10//5 87//5 89//5 34//5
f 34//5 89//5 91//5 38//5
f 9//6 88//6 84//6 29//6
f 2//6 87//6 111//6 112//6
f 67//5 99//5 83//5 30//5
f 104//4 103//4 113//4 114//4
f 4//1 88//1 90//1 36//1
f 11//4 85//4 103//4 104//4
f 101//4 81//4 106//4 105//4
f 81//4 11//4 104//4 106//4
f 85//4 101//4 105//4 103//4
f 107//4 108//4 110//4 109//4
f 101//2 85//2 107//2 109//2
f 81//1 101//1 109//1 110//1
f 11//3 81//3 110//3 108//3
f 83//5 31//5 112//5 111//5
f 86//5 12//5 114//5 113//5
f 12//5 67//5 115//5 114//5
f 31//5 68//5 116//5 112//5
f 67//5 30//5 117//5 115//5
f 68//5 6//5 164//5 116//5
f 30//5 83//5 111//5 117//5
f 6//5 86//5 113//5 164//5
f 122//5 121//5 119//5 120//5
f 99//6 67//6 120//6 119//6
f 86//2 99//2 119//2 121//2
f 12//4 86//4 121//4 122//4
f 126//1 125//1 131//1 132//1
f 31//6 83//6 125//6 126//6
f 83//3 99//3 124//3 125//3
f 68//2 31//2 126//2 123//2
f 128//5 127//5 130//5 129//5
f 124//4 123//4 127//4 128//4
f 123//2 126//2 130//2 127//2
f 125//3 124//3 128//3 129//3
f 134//4 132//4 140//4 139//4
f 130//2 126//2 132//2 134//2
f 125//3 129//3 133//3 131//3
f 129//5 130//5 134//5 133//5
f 136//6 135//6 137//6 138//6
f 133//5 134//5 138//5 137//5
f 131//3 133//3 137//3 135//3
f 132//1 131//1 135//1 136//1
f 139//2 140//2 142//2 141//2
f 132//1 136//1 142//1 140//1
f 138//5 134//5 139//5 141//5
f 136//6 138//6 141//6 142//6
f 144//5 146//5 154//5 152//5
f 164//5 113//5 150//5 166//5
f 172//1 171//1 167//1 169//1
f 103//1 163//1 165//1 149//1
f 144//4 143//4 165//4 166//4
f 143//4 145//4 149//4 165//4
f 146//4 144//4 166//4 150//4
f 145//4 146//4 150//4 149//4
f 154//3 153//3 157//3 158//3
f 143//2 144//2 152//2 151//2
f 146//3 145//3 153//3 154//3
f 145//1 143//1 151//1 153//1
f 157//4 155//4 156//4 158//4
f 153//1 151//1 155//1 157//1
f 152//5 154//5 158//5 156//5
f 155//1 151//1 159//1 161//1
f 159//2 160//2 162//2 161//2
f 156//4 155//4 161//4 162//4
f 152//5 156//5 162//5 160//5
f 151//6 152//6 160//6 159//6
f 118//2 8//2 163//2 164//2
f 147//2 148//2 166//2 165//2
f 148//2 118//2 164//2 166//2
f 8//2 147//2 165//2 163//2
f 167//2 168//2 170//2 169//2
f 173//4 172//4 169//4 170//4
f 174//5 173//5 170//5 168//5
f 167//1 171//1 177//1 175//1
f 8//6 118//6 174//6 171//6
f 118//5 148//5 173//5 174//5
f 148//4 147//4 172//4 173//4
f 147//1 8//1 171//1 172//1
f 177//6 178//6 176//6 175//6
f 168//2 167//2 175//2 176//2
f 174//5 168//5 176//5 178//5
f 171//3 174//3 178//3 177//3
