# Blender v2.79 (sub 0) OBJ File: 'scalingscene_2.blend'
# www.blender.org
mtllib wastebasket.mtl
o wastebasket_Cylinder.020
v -0.130186 0.576410 4.443809
v 0.035491 0.576410 4.512435
v 0.104116 0.576410 4.678112
v 0.035491 0.576410 4.843788
v -0.130186 0.576410 4.912414
v -0.295863 0.576410 4.843788
v -0.364488 0.576410 4.678112
v -0.295863 0.576410 4.512435
v 0.062921 0.576410 4.485004
v -0.130186 0.576410 4.405017
v 0.142909 0.576410 4.678112
v 0.062921 0.576410 4.871219
v -0.130186 0.576410 4.951206
v -0.323293 0.576410 4.871219
v -0.403281 0.576410 4.678112
v -0.323293 0.576410 4.485004
v -0.006528 0.186564 4.554453
v -0.130186 0.186564 4.503232
v 0.044693 0.186564 4.678112
v -0.006528 0.186564 4.801770
v -0.130186 0.186564 4.852991
v -0.253845 0.186564 4.801770
v -0.305066 0.186564 4.678112
v -0.253845 0.186564 4.554453
v -0.130186 0.000000 4.493731
v -0.130186 0.164654 4.445472
v 0.000190 0.000000 4.547735
v 0.034315 0.164654 4.513611
v 0.054194 0.000000 4.678112
v 0.102453 0.164654 4.678112
v 0.000190 0.000000 4.808488
v 0.034315 0.164654 4.842612
v -0.130186 0.000000 4.862492
v -0.130186 0.164654 4.910751
v -0.260562 0.000000 4.808488
v -0.294687 0.164654 4.842612
v -0.314566 0.000000 4.678112
v -0.362825 0.164654 4.678112
v -0.260562 0.000000 4.547735
v -0.294687 0.164654 4.513611
v -0.130186 0.481187 4.408898
v 0.060177 0.481187 4.487749
v -0.320549 0.481187 4.487749
v 0.139027 0.481187 4.678112
v 0.060177 0.481187 4.868474
v -0.130186 0.481187 4.947325
v -0.320549 0.481187 4.868474
v -0.399400 0.481187 4.678112
v 0.053100 0.394581 4.494825
v 0.129020 0.394581 4.678112
v 0.053100 0.394581 4.861398
v -0.130186 0.394581 4.937318
v -0.313473 0.394581 4.861398
v -0.389392 0.394581 4.678112
v -0.130186 0.394581 4.418905
v -0.313473 0.394581 4.494825
v -0.130186 0.396684 4.397765
v -0.130186 0.479084 4.386941
v -0.328421 0.396684 4.479877
v -0.336074 0.479084 4.472223
v 0.075702 0.479084 4.472223
v 0.160984 0.479084 4.678112
v -0.421356 0.479084 4.678112
v -0.336074 0.479084 4.884000
v -0.130186 0.479084 4.969282
v 0.075702 0.479084 4.884000
v 0.068049 0.396684 4.479877
v 0.150161 0.396684 4.678112
v 0.068049 0.396684 4.876347
v -0.130186 0.396684 4.958458
v -0.328421 0.396684 4.876347
v -0.410533 0.396684 4.678112
vn -0.3824 -0.0376 -0.9232
vn 0.9232 -0.0376 0.3824
vn 0.3824 -0.0376 0.9232
vn -0.3824 -0.0376 0.9232
vn -0.9232 -0.0376 0.3824
vn -0.9232 -0.0376 -0.3824
vn 0.9149 0.1394 0.3789
vn 0.9232 -0.0376 -0.3824
vn 0.3824 -0.0376 -0.9232
vn 0.0000 1.0000 0.0000
vn 0.3789 0.1394 -0.9149
vn -0.9149 0.1394 -0.3789
vn -0.3789 0.1394 0.9149
vn 0.3789 0.1394 0.9149
vn 0.9149 0.1394 -0.3789
vn -0.3789 0.1394 -0.9149
vn -0.9149 0.1394 0.3789
vn 0.3694 -0.2614 -0.8918
vn 0.8918 -0.2614 -0.3694
vn 0.8918 -0.2614 0.3694
vn 0.3694 -0.2614 0.8918
vn -0.3694 -0.2614 0.8918
vn -0.8918 -0.2614 0.3694
vn -0.8918 -0.2614 -0.3694
vn -0.3694 -0.2614 -0.8918
vn 0.0000 -1.0000 0.0000
vn -0.0410 -0.9943 -0.0989
vn 0.0953 0.9947 -0.0395
vn 0.0410 -0.9943 -0.0989
vn 0.0395 0.9947 -0.0953
vn 0.0989 -0.9943 -0.0410
vn -0.0395 0.9947 -0.0953
vn -0.0989 -0.9943 -0.0410
vn 0.0953 0.9947 0.0395
vn -0.3805 -0.1061 -0.9187
vn 0.9187 -0.1061 0.3805
vn 0.3805 -0.1061 0.9187
vn -0.3805 -0.1061 0.9187
vn -0.9187 -0.1061 0.3805
vn -0.9187 -0.1061 -0.3805
vn 0.9187 -0.1061 -0.3805
vn 0.3805 -0.1061 -0.9187
vn 0.3799 -0.1205 -0.9172
vn 0.9172 -0.1205 -0.3799
vn -0.9172 -0.1205 -0.3799
vn -0.9172 -0.1205 0.3799
vn -0.3799 -0.1205 0.9172
vn 0.3799 -0.1205 0.9172
vn 0.9172 -0.1205 0.3799
vn -0.3799 -0.1205 -0.9172
vn -0.0953 0.9947 -0.0395
vn 0.0989 -0.9943 0.0410
vn -0.0953 0.9947 0.0395
vn 0.0410 -0.9943 0.0989
vn -0.0395 0.9947 0.0953
vn -0.0410 -0.9943 0.0989
vn 0.0395 0.9947 0.0953
vn -0.0989 -0.9943 0.0410
usemtl None
s off
f 43//1 16//1 10//1 41//1
f 44//2 11//2 12//2 45//2
f 45//3 12//3 13//3 46//3
f 46//4 13//4 14//4 47//4
f 47//5 14//5 15//5 48//5
f 48//6 15//6 16//6 43//6
f 8//7 7//7 23//7 24//7
f 42//8 9//8 11//8 44//8
f 41//9 10//9 9//9 42//9
f 1//10 2//10 9//10 10//10
f 2//10 3//10 11//10 9//10
f 3//10 4//10 12//10 11//10
f 4//10 5//10 13//10 12//10
f 5//10 6//10 14//10 13//10
f 6//10 7//10 15//10 14//10
f 7//10 8//10 16//10 15//10
f 8//10 1//10 10//10 16//10
f 17//10 18//10 24//10 23//10 22//10 21//10 20//10 19//10
f 6//11 5//11 21//11 22//11
f 4//12 3//12 19//12 20//12
f 2//13 1//13 18//13 17//13
f 1//14 8//14 24//14 18//14
f 7//15 6//15 22//15 23//15
f 5//16 4//16 20//16 21//16
f 3//17 2//17 17//17 19//17
f 26//18 28//18 27//18 25//18
f 28//19 30//19 29//19 27//19
f 30//20 32//20 31//20 29//20
f 32//21 34//21 33//21 31//21
f 34//22 36//22 35//22 33//22
f 36//23 38//23 37//23 35//23
f 38//24 40//24 39//24 37//24
f 40//25 26//25 25//25 39//25
f 25//26 27//26 29//26 31//26 33//26 35//26 37//26 39//26
f 55//27 56//27 59//27 57//27
f 42//28 44//28 62//28 61//28
f 49//29 55//29 57//29 67//29
f 41//30 42//30 61//30 58//30
f 50//31 49//31 67//31 68//31
f 43//32 41//32 58//32 60//32
f 56//33 54//33 72//33 59//33
f 44//34 45//34 66//34 62//34
f 40//35 56//35 55//35 26//35
f 30//36 50//36 51//36 32//36
f 32//37 51//37 52//37 34//37
f 34//38 52//38 53//38 36//38
f 36//39 53//39 54//39 38//39
f 38//40 54//40 56//40 40//40
f 28//41 49//41 50//41 30//41
f 26//42 55//42 49//42 28//42
f 57//43 58//43 61//43 67//43
f 67//44 61//44 62//44 68//44
f 72//45 63//45 60//45 59//45
f 71//46 64//46 63//46 72//46
f 70//47 65//47 64//47 71//47
f 69//48 66//48 65//48 70//48
f 68//49 62//49 66//49 69//49
f 59//50 60//50 58//50 57//50
f 48//51 43//51 60//51 63//51
f 51//52 50//52 68//52 69//52
f 47//53 48//53 63//53 64//53
f 52//54 51//54 69//54 70//54
f 46//55 47//55 64//55 65//55
f 53//56 52//56 70//56 71//56
f 45//57 46//57 65//57 66//57
f 54//58 53//58 71//58 72//58
