# File produced by Open Asset Import Library (http://www.assimp.sf.net)
# (assimp v3.1.193236683)

mtllib cone.mtl

# 112 vertex positions
v  139.406 21.7369 198.066
v  134.561 21.7369 209.762
v  135.259 22.2072 209.762
v  139.899 22.2072 198.559
v  139.406 21.7369 221.459
v  139.899 22.2072 220.965
v  151.102 21.7369 226.304
v  151.102 22.2072 225.605
v  162.799 21.7369 221.459
v  162.305 22.2072 220.965
v  167.644 21.7369 209.762
v  166.945 22.2072 209.762
v  162.799 21.7369 198.066
v  162.305 22.2072 198.559
v  151.102 21.7369 193.221
v  151.102 22.2072 193.919
v  151.102 69.9446 205.751
v  148.266 69.9446 206.926
v  147.091 69.9446 209.762
v  148.266 69.9446 212.599
v  151.102 69.9446 213.773
v  153.939 69.9446 212.599
v  155.113 69.9446 209.762
v  153.939 69.9446 206.926
v  151.102 9.70362 238.72
v  151.102 12.443 228.366
v  137.948 12.443 222.917
v  130.626 9.70362 230.238
v  130.626 9.70361 189.286
v  137.948 12.443 196.608
v  151.102 12.443 191.159
v  151.102 9.70361 180.805
v  164.257 12.443 196.608
v  171.578 9.70361 189.286
v  130.626 4.60747 189.286
v  151.102 4.60747 180.805
v  171.578 4.60747 189.286
v  180.059 4.60748 209.762
v  171.578 4.60748 230.238
v  151.102 4.60748 238.72
v  130.626 4.60748 230.238
v  122.145 4.60748 209.762
v  171.578 9.70362 230.238
v  164.257 12.443 222.917
v  122.145 9.70362 209.762
v  180.059 9.70362 209.762
v  169.705 12.443 209.762
v  132.499 12.443 209.762
v  151.102 58.3579 201.346
v  145.151 58.3579 203.811
v  147.115 70.8777 205.775
v  151.102 70.8777 204.123
v  142.686 58.3579 209.762
v  145.463 70.8777 209.762
v  145.151 58.3579 215.714
v  147.115 70.8777 213.749
v  151.102 58.3579 218.179
v  151.102 70.8777 215.401
v  157.054 58.3579 215.714
v  155.089 70.8777 213.749
v  159.519 58.3579 209.762
v  156.741 70.8777 209.762
v  157.054 58.3579 203.811
v  155.089 70.8777 205.775
v  151.102 30.4363 195.48
v  161.201 30.4363 199.663
v  165.385 30.4363 209.762
v  161.201 30.4363 219.861
v  151.102 30.4363 224.045
v  141.003 30.4363 219.861
v  136.82 30.4363 209.762
v  141.003 30.4363 199.663
v  151.102 30.7227 195.215
v  161.389 30.7227 199.475
v  165.65 30.7227 209.762
v  161.389 30.7227 220.049
v  151.102 30.7227 224.31
v  140.815 30.7227 220.049
v  136.554 30.7227 209.762
v  140.815 30.7227 199.475
v  151.102 50.8002 199.669
v  158.239 50.8002 202.625
v  161.195 50.8002 209.762
v  158.239 50.8002 216.899
v  151.102 50.8002 219.855
v  143.965 50.8002 216.899
v  141.009 50.8002 209.762
v  143.965 50.8002 202.625
v  156.747 57.9884 204.117
v  151.102 57.9884 201.779
v  159.085 57.9884 209.762
v  156.747 57.9884 215.407
v  151.102 57.9884 217.745
v  145.457 57.9884 215.407
v  143.119 57.9884 209.762
v  145.457 57.9884 204.117
v  151.102 51.3882 200.652
v  144.66 51.3882 203.32
v  141.992 51.3882 209.762
v  144.66 51.3882 216.204
v  151.102 51.3882 218.872
v  157.544 51.3882 216.204
v  160.212 51.3882 209.762
v  157.544 51.3882 203.32
v  147.778 70.8777 206.438
v  151.102 70.8777 205.061
v  146.401 70.8777 209.762
v  147.778 70.8777 213.087
v  151.102 70.8777 214.464
v  154.427 70.8777 213.087
v  155.804 70.8777 209.762
v  154.427 70.8777 206.438

# 141 UV coordinates
vt 0.836111 0.484961 0
vt 0.836111 0.600188 0
vt 0.831447 0.600188 0
vt 0.831447 0.484961 0
vt 0.836111 0.715414 0
vt 0.831447 0.715414 0
vt 0.836111 0.83064 0
vt 0.831447 0.83064 0
vt 0.836111 0.945866 0
vt 0.831447 0.945866 0
vt 0.836111 0.0240561 0
vt 0.836111 0.139282 0
vt 0.831447 0.139282 0
vt 0.831447 0.0240561 0
vt 0.836111 0.254509 0
vt 0.831447 0.254509 0
vt 0.836111 0.369735 0
vt 0.831447 0.369735 0
vt 0.427068 0.677191 0
vt 0.405499 0.67712 0
vt 0.390351 0.662355 0
vt 0.390717 0.641319 0
vt 0.406243 0.626644 0
vt 0.427767 0.626705 0
vt 0.442867 0.641708 0
vt 0.442658 0.662772 0
vt 0.948188 0.83064 0
vt 0.888852 0.83064 0
vt 0.888852 0.715414 0
vt 0.948188 0.715414 0
vt 0.948188 0.484961 0
vt 0.888852 0.484961 0
vt 0.888852 0.369735 0
vt 0.948188 0.369735 0
vt 0.888852 0.254509 0
vt 0.948188 0.254509 0
vt 0.111934 0.618129 0
vt 0.270059 0.618129 0
vt 0.381871 0.729941 0
vt 0.381871 0.888066 0
vt 0.270059 0.999878 0
vt 0.111934 0.999878 0
vt 0.000121952 0.888066 0
vt 0.000121992 0.729941 0
vt 0.948188 0.945866 0
vt 0.888852 0.945866 0
vt 0.976422 0.484961 0
vt 0.976422 0.369735 0
vt 0.976422 0.600188 0
vt 0.948188 0.600188 0
vt 0.976422 0.715414 0
vt 0.976422 0.254509 0
vt 0.976422 0.83064 0
vt 0.976422 0.945866 0
vt 0.976422 0.139282 0
vt 0.948188 0.139282 0
vt 0.948188 0.0240561 0
vt 0.976422 0.0240561 0
vt 0.888852 0.139282 0
vt 0.888852 0.600188 0
vt 0.888852 0.0240561 0
vt 0.622347 0.369735 0
vt 0.622347 0.484961 0
vt 0.551299 0.484961 0
vt 0.551299 0.369735 0
vt 0.622347 0.600188 0
vt 0.551299 0.600188 0
vt 0.622347 0.715414 0
vt 0.551299 0.715414 0
vt 0.622347 0.83064 0
vt 0.551299 0.83064 0
vt 0.622347 0.945866 0
vt 0.551299 0.945866 0
vt 0.622347 0.0240561 0
vt 0.622347 0.139282 0
vt 0.551299 0.139282 0
vt 0.551299 0.0240561 0
vt 0.622347 0.254509 0
vt 0.551299 0.254509 0
vt 0.785044 0.369735 0
vt 0.785044 0.254509 0
vt 0.785044 0.139282 0
vt 0.785044 0.0240561 0
vt 0.785044 0.945866 0
vt 0.785044 0.83064 0
vt 0.785044 0.715414 0
vt 0.785044 0.600188 0
vt 0.785044 0.484961 0
vt 0.782881 0.369735 0
vt 0.782881 0.254509 0
vt 0.782881 0.139282 0
vt 0.782881 0.0240561 0
vt 0.782881 0.945866 0
vt 0.782881 0.83064 0
vt 0.782881 0.715414 0
vt 0.782881 0.600188 0
vt 0.782881 0.484961 0
vt 0.668944 0.369735 0
vt 0.668944 0.254509 0
vt 0.668944 0.139282 0
vt 0.668944 0.0240561 0
vt 0.668944 0.945866 0
vt 0.668944 0.83064 0
vt 0.668944 0.715414 0
vt 0.668944 0.600188 0
vt 0.668944 0.484961 0
vt 0.625502 0.254509 0
vt 0.625502 0.369735 0
vt 0.625502 0.139282 0
vt 0.625502 0.0240561 0
vt 0.625502 0.83064 0
vt 0.625502 0.945866 0
vt 0.625502 0.715414 0
vt 0.625502 0.600188 0
vt 0.625502 0.484961 0
vt 0.662597 0.369735 0
vt 0.662597 0.484961 0
vt 0.662597 0.600188 0
vt 0.662597 0.715414 0
vt 0.662597 0.83064 0
vt 0.662597 0.945866 0
vt 0.662597 0.0240561 0
vt 0.662597 0.139282 0
vt 0.662597 0.254509 0
vt 0.546106 0.484961 0
vt 0.546106 0.369735 0
vt 0.546106 0.600188 0
vt 0.546106 0.715414 0
vt 0.546106 0.83064 0
vt 0.546106 0.945866 0
vt 0.546106 0.139282 0
vt 0.546106 0.0240561 0
vt 0.546106 0.254509 0
vt 0.402402 0.685682 0
vt 0.430698 0.685543 0
vt 0.382115 0.666182 0
vt 0.382239 0.638008 0
vt 0.402548 0.618289 0
vt 0.43091 0.618129 0
vt 0.45113 0.63789 0
vt 0.45113 0.666072 0

# 104 vertex normals
vn -0.54433 0.808002 -0.22547
vn -0.544332 0.808001 0.22547
vn -0.22547 0.808001 0.544332
vn 0.22547 0.808001 0.544332
vn 0.544331 0.808002 0.22547
vn 0.544333 0.808001 -0.22547
vn 0.225469 0.808002 -0.544331
vn -4.28192e-07 1 -2.83077e-07
vn -0.105355 0.961357 0.254348
vn -0.105355 0.961357 -0.254349
vn 0.105355 0.961357 -0.254349
vn 0 -1 1.62921e-07
vn 0.105355 0.961357 0.254349
vn -0.382683 -1.50519e-07 -0.92388
vn -0.92388 -6.2347e-08 -0.382683
vn -0.92388 6.2347e-08 0.382683
vn 0.382683 -1.50519e-07 -0.92388
vn -0.382684 1.50519e-07 0.923879
vn 0.382683 1.50519e-07 0.92388
vn 0.92388 6.2347e-08 0.382683
vn 0.92388 -6.2347e-08 -0.382683
vn 0.254349 0.961357 -0.105355
vn -0.254349 0.961357 0.105354
vn 0.254349 0.961357 0.105354
vn -0.254349 0.961357 -0.105355
vn -0.374889 0.200801 -0.905062
vn -0.905062 0.200801 -0.374889
vn -0.905062 0.200801 0.374889
vn -0.374889 0.200801 0.905062
vn 0.374889 0.200801 0.905062
vn 0.905062 0.200801 0.374889
vn 0.905062 0.200801 -0.374889
vn 0.374889 0.200801 -0.905062
vn -0.22547 0.808001 -0.544332
vn 0.376941 0.172587 -0.910016
vn 0.910016 0.172587 -0.376941
vn 0.910016 0.172587 0.376941
vn 0.376941 0.172587 0.910016
vn -0.376941 0.172587 0.910016
vn -0.910016 0.172587 0.376941
vn -0.910016 0.172587 -0.376941
vn -0.376941 0.172587 -0.910016
vn 0.290749 -0.650201 -0.701929
vn 0.701928 -0.650203 -0.290748
vn 0.701927 -0.650203 0.290748
vn 0.290748 -0.650201 0.701929
vn -0.290747 -0.650204 0.701927
vn -0.701928 -0.650202 0.290748
vn -0.701928 -0.650202 -0.290748
vn -0.290748 -0.650201 -0.701929
vn -0.374889 0.200801 -0.905062
vn 0.374889 0.200801 -0.905062
vn 0.905062 0.200801 -0.374889
vn 0.905062 0.200801 0.374889
vn 0.374889 0.200801 0.905062
vn -0.374889 0.200801 0.905062
vn -0.905062 0.200801 0.374889
vn -0.905062 0.200801 -0.374889
vn 0.374889 0.200801 -0.905062
vn 0.905062 0.200801 -0.374889
vn 0.905062 0.200801 0.374889
vn 0.374889 0.200801 0.905062
vn -0.374889 0.200801 0.905062
vn -0.905062 0.200801 0.374889
vn -0.905062 0.200801 -0.374889
vn -0.374889 0.200801 -0.905062
vn 0.259533 -0.734885 -0.626567
vn 0.626568 -0.734884 -0.259532
vn 0.626567 -0.734886 0.259533
vn 0.259533 -0.734885 0.626568
vn -0.259533 -0.734885 0.626567
vn -0.626569 -0.734884 0.259533
vn -0.626567 -0.734885 -0.259532
vn -0.259531 -0.734885 -0.626568
vn -0.378009 0.155818 -0.912595
vn -0.912595 0.155818 -0.378009
vn -0.912595 0.155818 0.378009
vn -0.378009 0.155819 0.912595
vn 0.378009 0.155819 0.912595
vn 0.912595 0.155819 0.378009
vn 0.912595 0.155818 -0.378009
vn 0.378009 0.155818 -0.912595
vn 0.207966 0.839447 -0.502075
vn 0.502075 0.839447 -0.207966
vn 0.502075 0.839447 0.207966
vn 0.207966 0.839447 0.502075
vn -0.207966 0.839447 0.502075
vn -0.502075 0.839447 0.207966
vn -0.502075 0.839447 -0.207967
vn -0.207967 0.839446 -0.502076
vn -1.13724e-06 1 1.00756e-07
vn 0 1 -7.99492e-07
vn -4.54898e-06 1 -1.62921e-07
vn -1.13724e-06 1 -1.62921e-07
vn 1.13724e-06 1 -1.62921e-07
vn 0 1 -1.62921e-07
vn 0.315954 0.564213 0.762782
vn 0.762782 0.564213 0.315954
vn 0.762782 0.564213 -0.315955
vn 0.315955 0.564213 -0.762782
vn -0.315955 0.564213 -0.762782
vn -0.762781 0.564214 -0.315955
vn -0.762783 0.564212 0.315954
vn -0.315955 0.564213 0.762782

# Mesh 'trafficcone_trafficcone' with 220 faces
g trafficcone_trafficcone
usemtl DefaultMaterial
f  1/1/1 2/2/1 3/3/1
f  3/3/1 4/4/1 1/1/1
f  2/2/2 5/5/2 6/6/2
f  6/6/2 3/3/2 2/2/2
f  5/5/3 7/7/3 8/8/3
f  8/8/3 6/6/3 5/5/3
f  7/7/4 9/9/4 10/10/4
f  10/10/4 8/8/4 7/7/4
f  9/11/5 11/12/5 12/13/5
f  12/13/5 10/14/5 9/11/5
f  11/12/6 13/15/6 14/16/6
f  14/16/6 12/13/6 11/12/6
f  13/15/7 15/17/7 16/18/7
f  16/18/7 14/16/7 13/15/7
f  17/19/8 18/20/8 19/21/8
f  17/19/8 19/21/8 20/22/8
f  17/19/8 20/22/8 21/23/8
f  17/19/8 21/23/8 22/24/8
f  17/19/8 22/24/8 23/25/8
f  23/25/8 24/26/8 17/19/8
f  25/27/9 26/28/9 27/29/9
f  27/29/9 28/30/9 25/27/9
f  29/31/10 30/32/10 31/33/10
f  31/33/10 32/34/10 29/31/10
f  32/34/11 31/33/11 33/35/11
f  33/35/11 34/36/11 32/34/11
f  35/37/12 36/38/12 37/39/12
f  35/37/12 37/39/12 38/40/12
f  35/37/12 38/40/12 39/41/12
f  35/37/12 39/41/12 40/42/12
f  35/37/12 40/42/12 41/43/12
f  41/43/12 42/44/12 35/37/12
f  43/45/13 44/46/13 26/28/13
f  26/28/13 25/27/13 43/45/13
f  35/47/14 29/31/14 32/34/14
f  32/34/14 36/48/14 35/47/14
f  42/49/15 45/50/15 29/31/15
f  29/31/15 35/47/15 42/49/15
f  41/51/16 28/30/16 45/50/16
f  45/50/16 42/49/16 41/51/16
f  36/48/17 32/34/17 34/36/17
f  34/36/17 37/52/17 36/48/17
f  40/53/18 25/27/18 28/30/18
f  28/30/18 41/51/18 40/53/18
f  39/54/19 43/45/19 25/27/19
f  25/27/19 40/53/19 39/54/19
f  38/55/20 46/56/20 43/57/20
f  43/57/20 39/58/20 38/55/20
f  37/52/21 34/36/21 46/56/21
f  46/56/21 38/55/21 37/52/21
f  34/36/22 33/35/22 47/59/22
f  47/59/22 46/56/22 34/36/22
f  28/30/23 27/29/23 48/60/23
f  48/60/23 45/50/23 28/30/23
f  46/56/24 47/59/24 44/61/24
f  44/61/24 43/57/24 46/56/24
f  45/50/25 48/60/25 30/32/25
f  30/32/25 29/31/25 45/50/25
f  49/62/26 50/63/26 51/64/26
f  51/64/26 52/65/26 49/62/26
f  50/63/27 53/66/27 54/67/27
f  54/67/27 51/64/27 50/63/27
f  53/66/28 55/68/28 56/69/28
f  56/69/28 54/67/28 53/66/28
f  55/68/29 57/70/29 58/71/29
f  58/71/29 56/69/29 55/68/29
f  57/70/30 59/72/30 60/73/30
f  60/73/30 58/71/30 57/70/30
f  59/74/31 61/75/31 62/76/31
f  62/76/31 60/77/31 59/74/31
f  61/75/32 63/78/32 64/79/32
f  64/79/32 62/76/32 61/75/32
f  63/78/33 49/62/33 52/65/33
f  52/65/33 64/79/33 63/78/33
f  15/17/34 1/1/34 4/4/34
f  4/4/34 16/18/34 15/17/34
f  14/16/35 16/18/35 65/80/35
f  65/80/35 66/81/35 14/16/35
f  12/13/36 14/16/36 66/81/36
f  66/81/36 67/82/36 12/13/36
f  10/14/37 12/13/37 67/82/37
f  67/82/37 68/83/37 10/14/37
f  8/8/38 10/10/38 68/84/38
f  68/84/38 69/85/38 8/8/38
f  6/6/39 8/8/39 69/85/39
f  69/85/39 70/86/39 6/6/39
f  3/3/40 6/6/40 70/86/40
f  70/86/40 71/87/40 3/3/40
f  4/4/41 3/3/41 71/87/41
f  71/87/41 72/88/41 4/4/41
f  16/18/42 4/4/42 72/88/42
f  72/88/42 65/80/42 16/18/42
f  66/81/43 65/80/43 73/89/43
f  73/89/43 74/90/43 66/81/43
f  67/82/44 66/81/44 74/90/44
f  74/90/44 75/91/44 67/82/44
f  68/83/45 67/82/45 75/91/45
f  75/91/45 76/92/45 68/83/45
f  69/85/46 68/84/46 76/93/46
f  76/93/46 77/94/46 69/85/46
f  70/86/47 69/85/47 77/94/47
f  77/94/47 78/95/47 70/86/47
f  71/87/48 70/86/48 78/95/48
f  78/95/48 79/96/48 71/87/48
f  72/88/49 71/87/49 79/96/49
f  79/96/49 80/97/49 72/88/49
f  65/80/50 72/88/50 80/97/50
f  80/97/50 73/89/50 65/80/50
f  31/33/51 30/32/51 1/1/51
f  1/1/51 15/17/51 31/33/51
f  33/35/52 31/33/52 15/17/52
f  15/17/52 13/15/52 33/35/52
f  47/59/53 33/35/53 13/15/53
f  13/15/53 11/12/53 47/59/53
f  44/61/54 47/59/54 11/12/54
f  11/12/54 9/11/54 44/61/54
f  26/28/55 44/46/55 9/9/55
f  9/9/55 7/7/55 26/28/55
f  27/29/56 26/28/56 7/7/56
f  7/7/56 5/5/56 27/29/56
f  48/60/57 27/29/57 5/5/57
f  5/5/57 2/2/57 48/60/57
f  30/32/58 48/60/58 2/2/58
f  2/2/58 1/1/58 30/32/58
f  74/90/59 73/89/59 81/98/59
f  81/98/59 82/99/59 74/90/59
f  75/91/60 74/90/60 82/99/60
f  82/99/60 83/100/60 75/91/60
f  76/92/61 75/91/61 83/100/61
f  83/100/61 84/101/61 76/92/61
f  77/94/62 76/93/62 84/102/62
f  84/102/62 85/103/62 77/94/62
f  78/95/63 77/94/63 85/103/63
f  85/103/63 86/104/63 78/95/63
f  79/96/64 78/95/64 86/104/64
f  86/104/64 87/105/64 79/96/64
f  80/97/65 79/96/65 87/105/65
f  87/105/65 88/106/65 80/97/65
f  73/89/66 80/97/66 88/106/66
f  88/106/66 81/98/66 73/89/66
f  89/107/67 90/108/67 49/62/67
f  49/62/67 63/78/67 89/107/67
f  91/109/68 89/107/68 63/78/68
f  63/78/68 61/75/68 91/109/68
f  92/110/69 91/109/69 61/75/69
f  61/75/69 59/74/69 92/110/69
f  93/111/70 92/112/70 59/72/70
f  59/72/70 57/70/70 93/111/70
f  94/113/71 93/111/71 57/70/71
f  57/70/71 55/68/71 94/113/71
f  95/114/72 94/113/72 55/68/72
f  55/68/72 53/66/72 95/114/72
f  96/115/73 95/114/73 53/66/73
f  53/66/73 50/63/73 96/115/73
f  90/108/74 96/115/74 50/63/74
f  50/63/74 49/62/74 90/108/74
f  97/116/75 98/117/75 96/115/75
f  96/115/75 90/108/75 97/116/75
f  98/117/76 99/118/76 95/114/76
f  95/114/76 96/115/76 98/117/76
f  99/118/77 100/119/77 94/113/77
f  94/113/77 95/114/77 99/118/77
f  100/119/78 101/120/78 93/111/78
f  93/111/78 94/113/78 100/119/78
f  101/120/79 102/121/79 92/112/79
f  92/112/79 93/111/79 101/120/79
f  102/122/80 103/123/80 91/109/80
f  91/109/80 92/110/80 102/122/80
f  103/123/81 104/124/81 89/107/81
f  89/107/81 91/109/81 103/123/81
f  104/124/82 97/116/82 90/108/82
f  90/108/82 89/107/82 104/124/82
f  82/99/83 81/98/83 97/116/83
f  97/116/83 104/124/83 82/99/83
f  83/100/84 82/99/84 104/124/84
f  104/124/84 103/123/84 83/100/84
f  84/101/85 83/100/85 103/123/85
f  103/123/85 102/122/85 84/101/85
f  85/103/86 84/102/86 102/121/86
f  102/121/86 101/120/86 85/103/86
f  86/104/87 85/103/87 101/120/87
f  101/120/87 100/119/87 86/104/87
f  87/105/88 86/104/88 100/119/88
f  100/119/88 99/118/88 87/105/88
f  88/106/89 87/105/89 99/118/89
f  99/118/89 98/117/89 88/106/89
f  81/98/90 88/106/90 98/117/90
f  98/117/90 97/116/90 81/98/90
f  51/64/91 105/125/91 106/126/91
f  106/126/91 52/65/91 51/64/91
f  54/67/92 107/127/92 105/125/92
f  105/125/92 51/64/92 54/67/92
f  56/69/93 108/128/93 107/127/93
f  107/127/93 54/67/93 56/69/93
f  58/71/94 109/129/94 108/128/94
f  108/128/94 56/69/94 58/71/94
f  60/73/95 110/130/95 109/129/95
f  109/129/95 58/71/95 60/73/95
f  62/76/96 111/131/96 110/132/96
f  110/132/96 60/77/96 62/76/96
f  64/79/96 112/133/96 111/131/96
f  111/131/96 62/76/96 64/79/96
f  52/65/96 106/126/96 112/133/96
f  112/133/96 64/79/96 52/65/96
f  105/134/97 18/20/97 17/19/97
f  17/19/97 106/135/97 105/134/97
f  107/136/98 19/21/98 18/20/98
f  18/20/98 105/134/98 107/136/98
f  108/137/99 20/22/99 19/21/99
f  19/21/99 107/136/99 108/137/99
f  109/138/100 21/23/100 20/22/100
f  20/22/100 108/137/100 109/138/100
f  110/139/101 22/24/101 21/23/101
f  21/23/101 109/138/101 110/139/101
f  111/140/102 23/25/102 22/24/102
f  22/24/102 110/139/102 111/140/102
f  112/141/103 24/26/103 23/25/103
f  23/25/103 111/140/103 112/141/103
f  106/135/104 17/19/104 24/26/104
f  24/26/104 112/141/104 106/135/104

