# Blender v2.79 (sub 0) OBJ File: ''
# www.blender.org
mtllib wall_indoor_l.mtl
o wall_indoor_l_Cube.037
v -2.500000 3.048162 0.180464
v -1.500000 3.048162 0.180464
v -1.500000 0.263094 0.200943
v -2.500000 0.263094 0.200943
v -2.500000 0.375579 0.180464
v -1.500000 0.375579 0.180464
v -1.500000 0.019069 0.217148
v -1.500000 -0.000089 0.217148
v -2.500000 -0.000089 0.217148
v -2.500000 0.019069 0.217148
v -1.500000 0.060944 0.206207
v -2.500000 0.060944 0.206207
v -2.500000 3.048162 -0.180464
v -1.500000 3.048162 -0.180464
v -1.500000 0.263094 -0.200943
v -2.500000 0.263094 -0.200943
v -2.500000 0.375579 -0.180464
v -1.500000 0.375579 -0.180464
v -1.500000 0.019069 -0.217148
v -1.500000 -0.000089 -0.217148
v -2.500000 -0.000089 -0.217148
v -2.500000 0.019069 -0.217148
v -1.500000 0.060944 -0.206207
v -2.500000 0.060944 -0.206207
v -2.500000 3.048162 0.000000
v -1.500000 3.048162 0.000000
v -1.500000 -0.000089 0.000000
v -2.500000 -0.000089 0.000000
v -2.500000 0.375440 0.000000
v -2.500000 0.262774 0.000000
v -1.500000 0.375440 0.000000
v -1.500000 0.262774 0.000000
v -1.500000 0.060462 0.000000
v -1.500000 0.018304 0.000000
v -2.500000 0.060462 0.000000
v -2.500000 0.018304 0.000000
v -1.500000 3.048162 0.180464
v -0.500000 3.048162 0.180464
v -0.500000 0.263094 0.200943
v -1.500000 0.263094 0.200943
v -1.500000 0.375579 0.180464
v -0.500000 0.375579 0.180464
v -0.500000 0.019069 0.217148
v -0.500000 -0.000089 0.217148
v -1.500000 -0.000089 0.217148
v -1.500000 0.019069 0.217148
v -0.500000 0.060944 0.206207
v -1.500000 0.060944 0.206207
v -1.500000 3.048162 -0.180464
v -0.500000 3.048162 -0.180464
v -0.500000 0.263094 -0.200943
v -1.500000 0.263094 -0.200943
v -1.500000 0.375579 -0.180464
v -0.500000 0.375579 -0.180464
v -0.500000 0.019069 -0.217148
v -0.500000 -0.000089 -0.217148
v -1.500000 -0.000089 -0.217148
v -1.500000 0.019069 -0.217148
v -0.500000 0.060944 -0.206207
v -1.500000 0.060944 -0.206207
v -1.500000 3.048162 0.000000
v -0.500000 3.048162 0.000000
v -0.500000 -0.000089 0.000000
v -1.500000 -0.000089 0.000000
v -1.500000 0.375440 0.000000
v -1.500000 0.262774 0.000000
v -0.500000 0.375440 0.000000
v -0.500000 0.262774 0.000000
v -0.500000 0.060462 0.000000
v -0.500000 0.018304 0.000000
v -1.500000 0.060462 0.000000
v -1.500000 0.018304 0.000000
v -0.500000 3.048162 0.180464
v 0.500000 3.048162 0.180464
v 0.500000 0.263094 0.200943
v -0.500000 0.263094 0.200943
v -0.500000 0.375579 0.180464
v 0.500000 0.375579 0.180464
v 0.500000 0.019069 0.217148
v 0.500000 -0.000089 0.217148
v -0.500000 -0.000089 0.217148
v -0.500000 0.019069 0.217148
v 0.500000 0.060944 0.206207
v -0.500000 0.060944 0.206207
v -0.500000 3.048162 -0.180464
v 0.500000 3.048162 -0.180464
v 0.500000 0.263094 -0.200943
v -0.500000 0.263094 -0.200943
v -0.500000 0.375579 -0.180464
v 0.500000 0.375579 -0.180464
v 0.500000 0.019069 -0.217148
v 0.500000 -0.000089 -0.217148
v -0.500000 -0.000089 -0.217148
v -0.500000 0.019069 -0.217148
v 0.500000 0.060944 -0.206207
v -0.500000 0.060944 -0.206207
v -0.500000 3.048162 0.000000
v 0.500000 3.048162 0.000000
v 0.500000 -0.000089 0.000000
v -0.500000 -0.000089 0.000000
v -0.500000 0.375440 0.000000
v -0.500000 0.262774 0.000000
v 0.500000 0.375440 0.000000
v 0.500000 0.262774 0.000000
v 0.500000 0.060462 0.000000
v 0.500000 0.018304 0.000000
v -0.500000 0.060462 0.000000
v -0.500000 0.018304 0.000000
v 0.500000 3.048162 0.180464
v 1.500000 3.048162 0.180464
v 1.500000 0.263094 0.200943
v 0.500000 0.263094 0.200943
v 0.500000 0.375579 0.180464
v 1.500000 0.375579 0.180464
v 1.500000 0.019069 0.217148
v 1.500000 -0.000089 0.217148
v 0.500000 -0.000089 0.217148
v 0.500000 0.019069 0.217148
v 1.500000 0.060944 0.206207
v 0.500000 0.060944 0.206207
v 0.500000 3.048162 -0.180464
v 1.500000 3.048162 -0.180464
v 1.500000 0.263094 -0.200943
v 0.500000 0.263094 -0.200943
v 0.500000 0.375579 -0.180464
v 1.500000 0.375579 -0.180464
v 1.500000 0.019069 -0.217148
v 1.500000 -0.000089 -0.217148
v 0.500000 -0.000089 -0.217148
v 0.500000 0.019069 -0.217148
v 1.500000 0.060944 -0.206207
v 0.500000 0.060944 -0.206207
v 0.500000 3.048162 0.000000
v 1.500000 3.048162 0.000000
v 1.500000 -0.000089 0.000000
v 0.500000 -0.000089 0.000000
v 0.500000 0.375440 0.000000
v 0.500000 0.262774 0.000000
v 1.500000 0.375440 0.000000
v 1.500000 0.262774 0.000000
v 1.500000 0.060462 0.000000
v 1.500000 0.018304 0.000000
v 0.500000 0.060462 0.000000
v 0.500000 0.018304 0.000000
v 1.500000 3.048162 0.180464
v 2.500000 3.048162 0.180464
v 2.500000 0.263094 0.200943
v 1.500000 0.263094 0.200943
v 1.500000 0.375579 0.180464
v 2.500000 0.375579 0.180464
v 2.500000 0.019069 0.217148
v 2.500000 -0.000089 0.217148
v 1.500000 -0.000089 0.217148
v 1.500000 0.019069 0.217148
v 2.500000 0.060944 0.206207
v 1.500000 0.060944 0.206207
v 1.500000 3.048162 -0.180464
v 2.500000 3.048162 -0.180464
v 2.500000 0.263094 -0.200943
v 1.500000 0.263094 -0.200943
v 1.500000 0.375579 -0.180464
v 2.500000 0.375579 -0.180464
v 2.500000 0.019069 -0.217148
v 2.500000 -0.000089 -0.217148
v 1.500000 -0.000089 -0.217148
v 1.500000 0.019069 -0.217148
v 2.500000 0.060944 -0.206207
v 1.500000 0.060944 -0.206207
v 1.500000 3.048162 0.000000
v 2.500000 3.048162 0.000000
v 2.500000 -0.000089 0.000000
v 1.500000 -0.000089 0.000000
v 1.500000 0.375440 0.000000
v 1.500000 0.262774 0.000000
v 2.500000 0.375440 0.000000
v 2.500000 0.262774 0.000000
v 2.500000 0.060462 0.000000
v 2.500000 0.018304 0.000000
v 1.500000 0.060462 0.000000
v 1.500000 0.018304 0.000000
vn 0.0000 -1.0000 0.0000
vn 0.0000 1.0000 0.0000
vn 0.0000 0.0260 0.9997
vn 0.0000 0.2528 0.9675
vn 0.0000 0.0000 1.0000
vn 0.0000 0.1791 0.9838
vn -1.0000 0.0000 0.0000
vn 1.0000 0.0000 0.0000
vn 0.0000 0.0260 -0.9997
vn 0.0000 0.2528 -0.9675
vn 0.0000 0.0000 -1.0000
vn 0.0000 0.1791 -0.9838
usemtl None
s off
f 27//1 8//1 9//1 28//1
f 26//2 25//2 1//2 2//2
f 12//3 11//3 3//3 4//3
f 11//4 12//4 10//4 7//4
f 6//5 2//5 1//5 5//5
f 8//5 7//5 10//5 9//5
f 6//6 5//6 4//6 3//6
f 36//7 28//7 9//7 10//7
f 25//7 29//7 5//7 1//7
f 26//8 2//8 6//8 31//8
f 27//8 34//8 7//8 8//8
f 10//7 12//7 35//7 36//7
f 7//8 34//8 33//8 11//8
f 11//8 33//8 32//8 3//8
f 3//8 32//8 31//8 6//8
f 12//7 4//7 30//7 35//7
f 4//7 5//7 29//7 30//7
f 27//1 28//1 21//1 20//1
f 26//2 14//2 13//2 25//2
f 24//9 16//9 15//9 23//9
f 23//10 19//10 22//10 24//10
f 18//11 17//11 13//11 14//11
f 20//11 21//11 22//11 19//11
f 18//12 15//12 16//12 17//12
f 36//7 22//7 21//7 28//7
f 25//7 13//7 17//7 29//7
f 26//8 31//8 18//8 14//8
f 27//8 20//8 19//8 34//8
f 22//7 36//7 35//7 24//7
f 19//8 23//8 33//8 34//8
f 23//8 15//8 32//8 33//8
f 15//8 18//8 31//8 32//8
f 24//7 35//7 30//7 16//7
f 16//7 30//7 29//7 17//7
f 63//1 44//1 45//1 64//1
f 62//2 61//2 37//2 38//2
f 48//3 47//3 39//3 40//3
f 47//4 48//4 46//4 43//4
f 42//5 38//5 37//5 41//5
f 44//5 43//5 46//5 45//5
f 42//6 41//6 40//6 39//6
f 72//7 64//7 45//7 46//7
f 61//7 65//7 41//7 37//7
f 62//8 38//8 42//8 67//8
f 63//8 70//8 43//8 44//8
f 46//7 48//7 71//7 72//7
f 43//8 70//8 69//8 47//8
f 47//8 69//8 68//8 39//8
f 39//8 68//8 67//8 42//8
f 48//7 40//7 66//7 71//7
f 40//7 41//7 65//7 66//7
f 63//1 64//1 57//1 56//1
f 62//2 50//2 49//2 61//2
f 60//9 52//9 51//9 59//9
f 59//10 55//10 58//10 60//10
f 54//11 53//11 49//11 50//11
f 56//11 57//11 58//11 55//11
f 54//12 51//12 52//12 53//12
f 72//7 58//7 57//7 64//7
f 61//7 49//7 53//7 65//7
f 62//8 67//8 54//8 50//8
f 63//8 56//8 55//8 70//8
f 58//7 72//7 71//7 60//7
f 55//8 59//8 69//8 70//8
f 59//8 51//8 68//8 69//8
f 51//8 54//8 67//8 68//8
f 60//7 71//7 66//7 52//7
f 52//7 66//7 65//7 53//7
f 99//1 80//1 81//1 100//1
f 98//2 97//2 73//2 74//2
f 84//3 83//3 75//3 76//3
f 83//4 84//4 82//4 79//4
f 78//5 74//5 73//5 77//5
f 80//5 79//5 82//5 81//5
f 78//6 77//6 76//6 75//6
f 108//7 100//7 81//7 82//7
f 97//7 101//7 77//7 73//7
f 98//8 74//8 78//8 103//8
f 99//8 106//8 79//8 80//8
f 82//7 84//7 107//7 108//7
f 79//8 106//8 105//8 83//8
f 83//8 105//8 104//8 75//8
f 75//8 104//8 103//8 78//8
f 84//7 76//7 102//7 107//7
f 76//7 77//7 101//7 102//7
f 99//1 100//1 93//1 92//1
f 98//2 86//2 85//2 97//2
f 96//9 88//9 87//9 95//9
f 95//10 91//10 94//10 96//10
f 90//11 89//11 85//11 86//11
f 92//11 93//11 94//11 91//11
f 90//12 87//12 88//12 89//12
f 108//7 94//7 93//7 100//7
f 97//7 85//7 89//7 101//7
f 98//8 103//8 90//8 86//8
f 99//8 92//8 91//8 106//8
f 94//7 108//7 107//7 96//7
f 91//8 95//8 105//8 106//8
f 95//8 87//8 104//8 105//8
f 87//8 90//8 103//8 104//8
f 96//7 107//7 102//7 88//7
f 88//7 102//7 101//7 89//7
f 135//1 116//1 117//1 136//1
f 134//2 133//2 109//2 110//2
f 120//3 119//3 111//3 112//3
f 119//4 120//4 118//4 115//4
f 114//5 110//5 109//5 113//5
f 116//5 115//5 118//5 117//5
f 114//6 113//6 112//6 111//6
f 144//7 136//7 117//7 118//7
f 133//7 137//7 113//7 109//7
f 134//8 110//8 114//8 139//8
f 135//8 142//8 115//8 116//8
f 118//7 120//7 143//7 144//7
f 115//8 142//8 141//8 119//8
f 119//8 141//8 140//8 111//8
f 111//8 140//8 139//8 114//8
f 120//7 112//7 138//7 143//7
f 112//7 113//7 137//7 138//7
f 135//1 136//1 129//1 128//1
f 134//2 122//2 121//2 133//2
f 132//9 124//9 123//9 131//9
f 131//10 127//10 130//10 132//10
f 126//11 125//11 121//11 122//11
f 128//11 129//11 130//11 127//11
f 126//12 123//12 124//12 125//12
f 144//7 130//7 129//7 136//7
f 133//7 121//7 125//7 137//7
f 134//8 139//8 126//8 122//8
f 135//8 128//8 127//8 142//8
f 130//7 144//7 143//7 132//7
f 127//8 131//8 141//8 142//8
f 131//8 123//8 140//8 141//8
f 123//8 126//8 139//8 140//8
f 132//7 143//7 138//7 124//7
f 124//7 138//7 137//7 125//7
f 171//1 152//1 153//1 172//1
f 170//2 169//2 145//2 146//2
f 156//3 155//3 147//3 148//3
f 155//4 156//4 154//4 151//4
f 150//5 146//5 145//5 149//5
f 152//5 151//5 154//5 153//5
f 150//6 149//6 148//6 147//6
f 180//7 172//7 153//7 154//7
f 169//7 173//7 149//7 145//7
f 170//8 146//8 150//8 175//8
f 171//8 178//8 151//8 152//8
f 154//7 156//7 179//7 180//7
f 151//8 178//8 177//8 155//8
f 155//8 177//8 176//8 147//8
f 147//8 176//8 175//8 150//8
f 156//7 148//7 174//7 179//7
f 148//7 149//7 173//7 174//7
f 171//1 172//1 165//1 164//1
f 170//2 158//2 157//2 169//2
f 168//9 160//9 159//9 167//9
f 167//10 163//10 166//10 168//10
f 162//11 161//11 157//11 158//11
f 164//11 165//11 166//11 163//11
f 162//12 159//12 160//12 161//12
f 180//7 166//7 165//7 172//7
f 169//7 157//7 161//7 173//7
f 170//8 175//8 162//8 158//8
f 171//8 164//8 163//8 178//8
f 166//7 180//7 179//7 168//7
f 163//8 167//8 177//8 178//8
f 167//8 159//8 176//8 177//8
f 159//8 162//8 175//8 176//8
f 168//7 179//7 174//7 160//7
f 160//7 174//7 173//7 161//7
