# Blender v2.79 (sub 0) OBJ File: ''
# www.blender.org
mtllib wall_indoor_t.mtl
o wall_indoor_t_Cube.040
v 0.217148 3.048162 0.440346
v 1.217148 3.048162 0.440346
v 1.217148 0.263094 0.460826
v 0.217148 0.263094 0.460826
v 0.217148 0.375579 0.440346
v 1.217148 0.375579 0.440346
v 1.217148 0.019069 0.477031
v 1.217148 -0.000089 0.477031
v 0.217148 -0.000089 0.477031
v 0.217148 0.019069 0.477031
v 1.217148 0.060944 0.466089
v 0.217148 0.060944 0.466089
v 0.217148 3.048162 0.079419
v 1.217148 3.048162 0.079419
v 1.217148 0.263094 0.058939
v 0.217148 0.263094 0.058939
v 0.217148 0.375579 0.079419
v 1.217148 0.375579 0.079419
v 1.217148 0.019069 0.042735
v 1.217148 -0.000089 0.042735
v 0.217148 -0.000089 0.042735
v 0.217148 0.019069 0.042735
v 1.217148 0.060944 0.053676
v 0.217148 0.060944 0.053676
v 0.217148 3.048162 0.259883
v 1.217148 3.048162 0.259883
v 1.217148 -0.000089 0.259883
v 0.217148 -0.000089 0.259883
v 1.217148 0.375440 0.259883
v 1.217148 0.262774 0.259883
v 1.217148 0.060462 0.259883
v 1.217148 0.018304 0.259883
v -1.217148 3.048162 0.440346
v -0.217148 3.048162 0.440346
v -0.217148 0.263094 0.460826
v -1.217148 0.263094 0.460826
v -1.217148 0.375579 0.440346
v -0.217148 0.375579 0.440346
v -0.217148 0.019069 0.477031
v -0.217148 -0.000089 0.477031
v -1.217148 -0.000089 0.477031
v -1.217148 0.019069 0.477031
v -0.217148 0.060944 0.466089
v -1.217148 0.060944 0.466089
v -1.217148 3.048162 0.079419
v -0.217148 3.048162 0.079419
v -0.217148 0.263094 0.058939
v -1.217148 0.263094 0.058939
v -1.217148 0.375579 0.079419
v -0.217148 0.375579 0.079419
v -0.217148 0.019069 0.042735
v -0.217148 -0.000089 0.042735
v -1.217148 -0.000089 0.042735
v -1.217148 0.019069 0.042735
v -0.217148 0.060944 0.053676
v -1.217148 0.060944 0.053676
v -1.217148 3.048162 0.259883
v -0.217148 3.048162 0.259883
v -0.217148 -0.000089 0.259883
v -1.217148 -0.000089 0.259883
v -1.217148 0.375440 0.259883
v -1.217148 0.262774 0.259883
v -1.217148 0.060462 0.259883
v -1.217148 0.018304 0.259883
v 0.180464 3.048162 0.042735
v 0.180463 3.048162 -0.957265
v 0.200943 0.263094 -0.957265
v 0.200943 0.263094 0.042735
v 0.180464 0.375579 0.042735
v 0.180463 0.375579 -0.957265
v 0.217148 0.019069 -0.957265
v 0.217148 -0.000089 -0.957265
v 0.217148 -0.000089 0.042735
v 0.217148 0.019069 0.042735
v 0.206206 0.060944 -0.957265
v 0.206206 0.060944 0.042735
v -0.180464 3.048162 0.042735
v -0.180464 3.048162 -0.957265
v -0.200944 0.263094 -0.957265
v -0.200944 0.263094 0.042735
v -0.180464 0.375579 0.042735
v -0.180464 0.375579 -0.957265
v -0.217148 0.019069 -0.957265
v -0.217148 -0.000089 -0.957265
v -0.217148 -0.000089 0.042735
v -0.217148 0.019069 0.042735
v -0.206207 0.060944 -0.957265
v -0.206207 0.060944 0.042735
v -0.000000 3.048162 0.042735
v -0.000000 3.048162 -0.957265
v -0.000000 -0.000089 -0.957265
v -0.000000 -0.000089 0.042735
v -0.000000 0.375439 -0.957265
v -0.000000 0.262774 -0.957265
v -0.000000 0.060462 -0.957265
v -0.000000 0.018304 -0.957265
vn 0.0000 -1.0000 0.0000
vn 0.0000 1.0000 0.0000
vn 0.0000 0.0260 0.9997
vn 0.0000 0.2528 0.9675
vn 0.0000 0.0000 1.0000
vn 0.0000 0.1791 0.9838
vn 1.0000 0.0000 0.0000
vn -0.0000 0.0260 -0.9997
vn -0.0000 0.2528 -0.9675
vn 0.0000 0.0000 -1.0000
vn 0.0000 0.1791 -0.9838
vn -1.0000 0.0000 0.0000
vn 0.9997 0.0260 -0.0000
vn 0.9675 0.2528 -0.0000
vn 0.9838 0.1791 -0.0000
vn -0.9997 0.0260 0.0000
vn -0.9675 0.2528 0.0000
vn -0.9838 0.1791 0.0000
vn -0.7070 0.0184 -0.7070
vn -0.6953 0.1817 -0.6953
vn -0.7013 0.1277 -0.7013
vn -0.7071 0.0000 -0.7071
vn 0.7071 0.0000 -0.7071
vn 0.7013 0.1277 -0.7013
vn 0.7070 0.0184 -0.7070
vn 0.6953 0.1817 -0.6953
usemtl None
s off
f 27//1 8//1 9//1 28//1
f 26//2 25//2 1//2 2//2
f 12//3 11//3 3//3 4//3
f 11//4 12//4 10//4 7//4
f 6//5 2//5 1//5 5//5
f 8//5 7//5 10//5 9//5
f 6//6 5//6 4//6 3//6
f 26//7 2//7 6//7 29//7
f 27//7 32//7 7//7 8//7
f 7//7 32//7 31//7 11//7
f 11//7 31//7 30//7 3//7
f 3//7 30//7 29//7 6//7
f 27//1 28//1 21//1 20//1
f 26//2 14//2 13//2 25//2
f 24//8 16//8 15//8 23//8
f 23//9 19//9 22//9 24//9
f 18//10 17//10 13//10 14//10
f 20//10 21//10 22//10 19//10
f 18//11 15//11 16//11 17//11
f 26//7 29//7 18//7 14//7
f 27//7 20//7 19//7 32//7
f 19//7 23//7 31//7 32//7
f 23//7 15//7 30//7 31//7
f 15//7 18//7 29//7 30//7
f 59//1 40//1 41//1 60//1
f 58//2 57//2 33//2 34//2
f 44//3 43//3 35//3 36//3
f 43//4 44//4 42//4 39//4
f 38//5 34//5 33//5 37//5
f 40//5 39//5 42//5 41//5
f 38//6 37//6 36//6 35//6
f 64//12 60//12 41//12 42//12
f 57//12 61//12 37//12 33//12
f 42//12 44//12 63//12 64//12
f 44//12 36//12 62//12 63//12
f 36//12 37//12 61//12 62//12
f 59//1 60//1 53//1 52//1
f 58//2 46//2 45//2 57//2
f 56//8 48//8 47//8 55//8
f 55//9 51//9 54//9 56//9
f 50//10 49//10 45//10 46//10
f 52//10 53//10 54//10 51//10
f 50//11 47//11 48//11 49//11
f 64//12 54//12 53//12 60//12
f 57//12 45//12 49//12 61//12
f 54//12 64//12 63//12 56//12
f 56//12 63//12 62//12 48//12
f 48//12 62//12 61//12 49//12
f 91//1 72//1 73//1 92//1
f 90//2 89//2 65//2 66//2
f 76//13 75//13 67//13 68//13
f 75//14 76//14 74//14 71//14
f 70//7 66//7 65//7 69//7
f 72//7 71//7 74//7 73//7
f 70//15 69//15 68//15 67//15
f 90//10 66//10 70//10 93//10
f 91//10 96//10 71//10 72//10
f 71//10 96//10 95//10 75//10
f 75//10 95//10 94//10 67//10
f 67//10 94//10 93//10 70//10
f 91//1 92//1 85//1 84//1
f 90//2 78//2 77//2 89//2
f 88//16 80//16 79//16 87//16
f 87//17 83//17 86//17 88//17
f 82//12 81//12 77//12 78//12
f 84//12 85//12 86//12 83//12
f 82//18 79//18 80//18 81//18
f 90//10 93//10 82//10 78//10
f 91//10 84//10 83//10 96//10
f 83//10 87//10 95//10 96//10
f 87//10 79//10 94//10 95//10
f 79//10 82//10 93//10 94//10
f 55//19 47//19 80//19 88//19
f 51//20 55//20 88//20 86//20
f 47//21 50//21 81//21 80//21
f 50//22 46//22 77//22 81//22
f 13//2 65//2 89//2 77//2 46//2 58//2 25//2
f 1//2 25//2 58//2 34//2
f 1//5 34//5 38//5 5//5
f 5//6 38//6 35//6 4//6
f 12//3 4//3 35//3 43//3
f 10//4 12//4 43//4 39//4
f 9//5 10//5 39//5 40//5
f 28//1 9//1 40//1 59//1
f 21//1 28//1 59//1 52//1 85//1 92//1 73//1
f 17//23 69//23 65//23 13//23
f 16//24 68//24 69//24 17//24
f 24//25 76//25 68//25 16//25
f 22//26 74//26 76//26 24//26
