# Blender v2.79 (sub 0) OBJ File: ''
# www.blender.org
mtllib wall_indoor_doorway_door.mtl
o wall_indoor_doorway_door_Cube.050
v 0.380648 3.048162 0.033481
v 0.380648 -0.000089 0.034490
v 0.380648 3.048162 -0.033481
v 0.380648 -0.000089 -0.034490
v -0.380648 3.048162 0.033481
v -0.380648 -0.000089 0.034490
v -0.380648 3.048162 -0.033481
v -0.380648 -0.000089 -0.034490
vn -1.0000 0.0000 0.0000
vn 1.0000 0.0000 0.0000
vn 0.0000 -0.0003 -1.0000
vn 0.0000 1.0000 0.0000
vn 0.0000 -0.0003 1.0000
vn 0.0000 -1.0000 0.0000
usemtl None
s off
f 3//1 4//1 2//1 1//1
f 7//2 5//2 6//2 8//2
f 1//3 2//3 6//3 5//3
f 2//4 4//4 8//4 6//4
f 4//5 3//5 7//5 8//5
f 3//6 1//6 5//6 7//6
